<svg version="1.2" baseProfile="tiny" xmlns="http://www.w3.org/2000/svg" width="100" height="90" viewBox="0 0 100 90"><g fill="#54534A"><path d="M37.341 66.679c-2.613 1.826-4.268 2.799-9.236 2.685-4.485-.872-9.34-6.466-11.132-8.974-.881-1.178-1.737-2.364-2.504-3.564-1.32-2.238-2.539-4.869-2.855-7.283-.063-.683-.851-5.05 4.746-10.082 1.498-1.4 5.403-3.6 6.542-3.972l-2.204-2.926c-.382.166-.837.369-1.332.601-1.782.825-4.083 1.992-5.314 2.997-3.618 2.971-6.216 6.539-7.74 10.311-2.659 5.261-2.027 9.537-1.005 12.454.276 1.124.659 2.236 1.155 3.309.228.481.401.885.531 1.256.197.96.362 2.015.376 3.055-.021.32-.043.681-.049 1.105-.04.354-.096.692-.182 1.023.079.022 2.431.551 3.065.691 1.287.215 2.37 1.179 3.058 1.744 1.152.937 2.397 1.698 3.69 2.313 10.586 3.846 17.556 1.867 22.061-1.5 5.225-3.911 8.018-10.514 8.345-11.256l-2.82-2.901c0-.002-2.732 5.812-7.196 8.914zm-23.712-.695c-.819-.862-1.576-.558-1.717-.726-.122-.16.373-.775-.321-1.913-3.091-4.286-2.339-10.632-1.967-10.619.372.015.162 5.364 4.569 10.927 4.401 5.563 9.219 5.477 9.273 5.774.062.295-5.567 1.009-9.837-3.443zM49.626 47.563c.92.595 1.754 1.302 2.542 2.065.651-3.075 3.231-7.637 6.509-6.999 1.118.214 3.437 2.66 2.104 3.952 4.671 1.364 13.926-3.131 14.906-9.648.248-2.006-.289-4.573-2.26-4.6-3.204-.112-3.796 3.77-1.311 5.221-3.462 4.805-16.597-2.883-18.893-6.985l-1.232 1.298c4.189 5.145.135 11.689-2.365 15.696zm14.222-6.14c1.251.22 4.582.325 4.067.706-.511.379-1.397.994-2.243 1.315-1.701.64-1.883.807-1.987.256 0 0 .056-.649-.233-1.199-.117-.22-.382-.436-.589-.575-.732-.496-.27-.723.985-.503zM87.62 43.075c-.655-.077-2.517.076-2.63 1.143-.05.446.19.917.623.967.221.028.463-.126.749-.087 2.303.338 1.708 6.433 1.708 6.433-1.43 9.788-12.617 11.977-15.815 11.882-3.214-.1-7.565.275-18.057-8.278-.558-.461-1.137-.938-1.734-1.45-.044.043-15.871-16.457-20.317-21.418-.32-.352-.628-.704-.937-1.059-3.673-4.255-6.438-8.519-6.456-12.403.048-6.46 4.063-9.12 7.93-9.184 3.411-.075 6.559 1.845 6.531 4.728-.007 1.091-2.256 3.461-3.533 2.262-.976 4.571 3.765 13.157 9.863 13.705 1.881.115 4.347-.558 4.244-2.459-.207-3.076-3.841-3.405-5.039-.931-4.668-3.02 1.659-16.098 5.309-18.553l-1.28-1.106c-5.322 5.128-8.674-1.263-14.778-1.315-13.372-.108-12.99 11.432-18.415 14.97 3.265 2.012 2.785 3.305 3.939 6.004 1.384 3.245 4.651 7.097 8.355 11.047 0 0 13.822 14.184 17.57 17.767 2.225 2.132 4.616 4.451 6.562 6.414 2.141 2.162 6.93 8.868 14.702 10.235 1.744.734 4.185 1.744 5.568 3.464 2.578-1.97 2.002-2.687 5.509-3.656 5.279-1.545 9.45-5.296 11.918-10.414 1.237-2.55 2.315-5.229 2.354-9.717.036-4.48-1.326-8.639-4.443-8.991zm-47.627-24.982c.44-.755.697-.312.569.955-.128 1.268.01 4.593-.408 4.109-.412-.482-1.094-1.323-1.471-2.146-.759-1.648-.942-1.822-.398-1.964 0 0 .643.008 1.176-.323.209-.128.405-.411.532-.631zm34.221 51.723c-1.552.183-1.843 1.024-2.122 1.027-.263 0-.508-.825-2.243-1.098-7.491-.337-13.467-7.225-13.569-7.32l-29.969-30.61c-.163-.142-3.811-3.452-5.019-7.343l-.008-.006-.021-.064-.019-.056c-.124-.395-.655-1.75-2.178-2.648-.569-.332-.736-.338-.69-.657.044-.318.85-.048 1.853-.683 1.006-.635 1.134-2.3 1.534-2.192.396.105-2.063 6.962 5.134 13.04l29.989 30.625c.017.017 6.281 6.438 15.478 6.438 9.279 0 9.519-3.991 9.868-3.741.352.249-.734 4.323-8.018 5.288z"/></g><g fill="#54534A"><path d="M49.682 67.376l-3.925-4.003-.254.409 3.951 4.025.228-.431zM67.951 78.508l-11.093-11.294c-1.246-1.12-2.296-2.244-3.153-3.207l-5.953-6.046c-.766-.749-1.546-1.493-2.302-2.222-2.268-2.169-10.561-10.467-17.044-17.469l-2.764-2.805c.896 1.138 1.917 2.399 3.001 3.717l38.345 39.008c.319.115.645.218.963.318zM48.356 69.756l-4.041-4.115-.265.395 4.064 4.133.242-.413zM64.958 77.315l-29.346-29.843c1.666 1.946 3.253 3.793 4.624 5.371l23.356 23.752c.456.256.91.5 1.366.72zM47.655 70.905l-4.09-4.159-.27.384 4.113 4.18.247-.405zM50.307 66.15l-3.864-3.935-.245.417 3.892 3.956.217-.438zM60.289 74.433l-13.762-13.995.542.687-.191.331 10.264 10.439c1.02.895 2.07 1.753 3.147 2.538zM49.036 68.579l-3.993-4.067-.259.405 4.016 4.081.236-.419zM40.73 78.76l-4.872-4.957-.455.204 4.936 5.015.391-.262zM46.94 72.033l-4.148-4.213-.282.377 4.158 4.232.272-.396zM42.776 77.11l-4.561-4.626-.397.255 4.609 4.692.349-.321zM39.606 79.474l-5.049-5.129-.485.17 5.106 5.196.428-.237zM41.794 77.98l-4.72-4.8-.424.229 4.777 4.855.367-.284zM46.178 73.128l-4.186-4.261-.293.362 4.21 4.282.269-.383zM44.565 75.209l-4.311-4.388-.334.326 4.34 4.417.305-.355zM45.393 74.189l-4.242-4.318-.313.348 4.263 4.335.292-.365zM45.563 30.315l4.516 4.589c.085-.127.169-.262.246-.411l-4.1-4.173c-.228.005-.441.005-.662-.005zM56.252 51.693l-3.855-3.914-.133.528 3.703 3.77.285-.384zM55.512 52.809l-3.424-3.48c-.023.214-.04.418-.045.615l3.233 3.296.236-.431zM64.403 53.198c.22.019.444.029.672.023l-1.607-1.639c.061.236.072.476.035.702l.9.914zM57.101 50.7l-4.221-4.294-.196.475 4.098 4.157.319-.338zM75.193 48.609l-4.503-4.583-.394.264 4.564 4.643.333-.324zM58.087 49.839l-4.568-4.648-.248.416 4.45 4.517.366-.285zM43.368 20.624l3.231 3.292.182-.485-3.293-3.345-.12.538zM70.817 79.556l-8.404-8.546c-.457-.22-.903-.45-1.33-.693l8.586 8.729c.361.152.76.325 1.148.51zM38.395 80.113l-5.222-5.315-.522.135 5.3 5.387.444-.207zM43.735 19.133l3.39 3.447.198-.453-3.442-3.502-.146.508zM75.984 81.087l-8.029-8.162c-.387-.178-.77-.337-1.123-.486l8.81 8.965.342-.317zM64.356 71.79l9.539 9.705c.214.19.424.385.603.609l.144.141.363-.291-9.707-9.88c-.318-.086-.634-.179-.942-.284zM77.98 79.387l-4.488-4.561-.34.317 4.422 4.495c.126-.088.256-.169.406-.251zM78.27 41.221l-.006-.677-2.752-2.793-.149.514 2.907 2.956zM75.384 33.892c.111.289.193.601.252.925l1.819 1.845c-.174-.445-.366-.855-.559-1.23l-1.512-1.54zM32.683 9.62l-.13.005 5.992 6.102c.111-.128.2-.254.286-.38l-5.625-5.723-.523-.004zM48.859 9.448l2.549 2.589-.391-1.061-1.831-1.865-.327.337zM76.914 80.17l-4.41-4.49-.222.172c-.503-.631-1.158-1.169-1.865-1.63l6.161 6.262.336-.314zM29.173 81.902l-6.834-6.946-.825-.176 6.969 7.091.69.031zM27.193 81.755l-7.243-7.374c-.301-.086-.609-.17-.917-.27l7.419 7.554.741.09zM31.001 81.898l-6.476-6.578c-.243-.033-.495-.066-.754-.112l6.592 6.711c.214.001.423-.009.638-.021zM25.043 81.428l-7.762-7.888-.33-.119c-.289-.141-.582-.29-.862-.447l8.13 8.289.824.165zM22.681 80.883l-10.317-10.498c-.434-.322-.936-.635-1.484-.832l10.894 11.075c.306.094.605.179.907.255zM32.693 81.76l-6.162-6.263-.688-.04 6.257 6.37.593-.067zM16.973 60.391l-.052-.077c.224.361.296.423.052.077zM34.268 81.5l-5.886-5.989-.643.013 5.978 6.084.551-.108zM11.653 75.26l-3.938-4.008.2.863 2.661 2.71c.356.118.717.257 1.077.435zM37.108 80.668l-5.424-5.522-.547.104 5.494 5.593.477-.175zM92.058 68.184l.177-.382-3.752-3.818-.259.408 3.793 3.858.041-.066zM94.375 58.861l.006-.048-2.829-2.883-.108.554 2.886 2.926.045-.549zM94.422 56.985l-2.608-2.645-.086.574 2.698 2.743-.004-.672zM43.695 76.187l-4.409-4.487-.274.221-.1.068 4.461 4.536.322-.338zM8.996 74.416l-.762-.771c.068.357.101.602.086.661.021.012.288.035.676.11zM19.302 79.823c.256.092.504.179.763.261l-10.736-10.917-.841-.186 10.506 10.68.308.162zM15.602 77.512l.379.287-8.815-8.964.19.851 7.012 7.133c.512.247.869.385 1.234.693zM35.733 81.134l-5.642-5.739-.596.057 5.729 5.823.509-.141zM16.31 48.33l-3.817-3.887-.209.457 3.769 3.825.257-.395zM11.975 45.775l-.153.511 3.6 3.669.207-.462-3.654-3.718zM18.058 46.378l-4.171-4.245-.276.384 4.105 4.179.342-.318zM13.142 43.242l-.249.415 3.93 3.997.307-.36-3.988-4.052zM15.118 50.841l-3.487-3.557-.067.601 3.427 3.484c.036-.179.076-.353.127-.528zM16.336 59.524c.186.265.387.525.585.79-.084-.126-.188-.294-.297-.49l-.288-.3zM14.909 55.013c-.038-.242-.069-.499-.092-.752l-2.801-2.854c.09.326.203.658.319.989l2.574 2.617zM11.659 49.845l3.125 3.186.033-.63-3.249-3.315.045.458.046.301zM15.581 57.563c-.12-.318-.233-.651-.328-.996l-2.036-2.071c.231.473.474.941.722 1.394l1.642 1.673zM22.246 35.732l-.468.185 2.038 2.076-.387-1.054-1.183-1.207zM20.538 36.521l4.368 4.446-.393-1.06-3.541-3.611-.434.225zM15.283 40.495l4.459 4.53.382-.274-4.509-4.585-.332.329zM17.213 38.73l4.751 4.843.419-.248-4.806-4.892-.364.297zM14.413 41.47l4.299 4.377.354-.304-4.342-4.427-.311.354zM18.262 37.935l4.879 4.962.431-.231-4.925-5.01-.385.279zM19.366 37.199l4.991 5.073.447-.205-5.027-5.122-.411.254zM16.361 39.461l-.137.131 4.614 4.688.399-.26-4.668-4.75-.208.191zM28.924 28.292c-.323-.488-.625-1.018-.885-1.571l-.837-.846c.436.707.922 1.414 1.441 2.133l.281.284zM27.383 24.865c-.057-.267-.095-.531-.119-.801l-1.889-1.913c.131.369.275.737.44 1.111l1.568 1.603zM79.286 78.854l-4.869-4.948-.321.331 4.708 4.786.482-.169zM27.305 22.915l.113-.549-2.606-2.652c.027.256.065.518.116.784l2.377 2.417zM80.688 78.42l-5.23-5.322c-.147.082-.277.164-.403.253l5.139 5.228.494-.159zM83.294 77.342l-5.161-5.254-.341.108-.163.047 5.226 5.32.439-.221zM24.767 18.463l2.917 2.972.175-.487-3.058-3.112c-.02.205-.029.413-.034.627zM82.037 77.923l-5.311-5.396-.478.177 5.315 5.406.474-.187zM35.403 10.002c-.281-.092-.57-.163-.875-.226l4.663 4.745.023-.174c.003-.168-.007-.34-.031-.497l-3.78-3.848zM29.545 10.29l5.633 5.732c.225 0 .453.008.671.023l-5.836-5.942-.468.187zM28.353 10.946l5.154 5.234.559-.088-5.306-5.4c-.146.076-.276.158-.407.254zM84.477 76.682l-4.984-5.078-.482.186 5.06 5.14.406-.248zM28.467 19.707l-3.446-3.51c-.04.182-.075.367-.103.56l3.31 3.372.239-.422zM27.339 11.769l4.751 4.834.479-.174-4.891-4.977-.339.317zM31.284 16.985l-4.52-4.596-.288.374 4.394 4.465.414-.243zM29.242 18.635l-3.81-3.882-.169.5 3.684 3.742.295-.36zM30.176 17.721l-4.163-4.232c-.079.142-.153.284-.219.436l4.034 4.103.348-.307zM30.926 9.833l6.318 6.432.573.158.134-.106-6.472-6.589-.553.105zM93.941 62.085l-3.124-3.171-.155.496 3.174 3.233.105-.558zM94.195 60.483l-2.973-3.024-.14.524 3.032 3.075.081-.575zM94.351 55.715l-.069-.735-2.276-2.303-.057.6 2.402 2.438zM85.598 75.957l-4.833-4.92-.454.209 4.892 4.975.395-.264zM90.552 45.597c.126.318.247.665.354 1.03l1.447 1.472c-.242-.497-.503-.998-.8-1.484l-1.001-1.018zM93.233 65.093l-3.435-3.492-.089.181-.131.256 3.493 3.557.162-.502zM91.765 50.559l.121.786 2.195 2.237-.156-.828-2.16-2.195zM91.332 48.25l.171.848 2.016 2.051c-.094-.332-.206-.652-.314-.987l-1.873-1.912zM93.611 63.622l-3.265-3.324-.188.472 3.332 3.387.121-.535zM92.765 66.487l-3.593-3.662-.241.423 3.654 3.716.18-.477zM87.62 74.29l-4.539-4.616-.389.263 4.587 4.674.341-.321zM89.4 72.372l-4.275-4.342-.335.313 4.315 4.396.295-.367zM86.642 75.153l-4.689-4.759-.412.24 4.738 4.819.363-.3zM88.546 73.368l-4.404-4.48-.374.284 4.456 4.531.322-.335zM91.617 69.037l-3.889-3.944-.278.382 3.931 3.986.236-.424zM90.934 70.214l-3.999-4.08-.308.358 4.05 4.122.257-.4zM90.203 71.321l-4.143-4.208-.318.334 4.182 4.258.279-.384zM44.694 16.39l3.627 3.69.237-.429-3.667-3.727-.197.466zM59.283 49.199l-4.975-5.059-.301.352 4.816 4.897c.152-.072.307-.136.46-.19zM45.952 36.262c.213.099.503.172.826.203l-8.057-8.184c.155.391.331.793.515 1.182l6.672 6.783.044.016zM42.889 34.378l-1.371-1.397c.424.498.886.974 1.371 1.397zM38.181 26.528l9.713 9.877c.167-.039.339-.087.502-.149l-10.376-10.563c.045.28.093.56.161.835zM70.893 51.68l-5.216-5.296-.526.129 5.299 5.382.443-.215zM60.94 49.017l-5.649-5.745-.374.284 5.334 5.423c.232-.01.461 0 .689.038zM66.755 53.069l-10.247-10.423c-.165.054-.313.115-.468.192l10.146 10.311.569-.08zM68.245 52.718l-5.797-5.895c-.24-.01-.474-.023-.702-.05l5.983 6.085.516-.14zM69.618 52.246l-5.454-5.544-.585.077 5.558 5.65.481-.183zM43.17 24.159l2.042 2.071c.109-.119.215-.231.332-.327l-2.434-2.474c.009.25.032.493.06.73zM43.13 22.252l3.004 3.055.162-.504-3.102-3.157-.064.606zM49.498 26.866l.116.12c-.109-.327-.266-.598-.458-.827.131.24.239.476.342.707zM49.164 35.838c.129-.085.247-.186.369-.296l-5.426-5.521c-.358-.095-.707-.227-1.045-.389l6.102 6.206zM50.319 28.89l-.563-.57c-.037.179-.086.346-.168.494l1.005 1.022c-.08-.305-.171-.616-.274-.946zM58.06 42.363c-.204.006-.409.017-.605.044l3.639 3.694c.064-.174.092-.368.086-.57l-3.12-3.168zM50.793 33.107l-2.984-3.039c-.175.049-.345.092-.531.126l3.391 3.45c.052-.176.091-.355.124-.537zM44.621 26.831l-.74-.749c.204.28.452.537.74.749zM72.365 42.677l4.201 4.261.257-.402-4.111-4.18-.347.321zM46.799 12.269l-.255.41 3.944 4.015.301-.362-3.99-4.063zM48.023 10.461l4.297 4.368.086-.058-.302-.821-3.794-3.862-.287.373zM47.254 11.543l4.092 4.156.324-.331-4.155-4.22-.261.395zM49.812 8.553l.507.516-.26-.697-.247.181zM72.08 51.034l-5.018-5.102-.483.164 5.09 5.179.411-.241zM50.851 31.301l-1.808-1.844c-.122.097-.26.179-.404.26l2.245 2.284c0-.231-.012-.456-.033-.7zM78.133 39.221c-.042-.282-.098-.556-.153-.826l-2.237-2.274c-.004.213-.016.423-.038.625l2.428 2.475zM45.268 15.103l3.724 3.795.255-.407-3.765-3.831-.214.443zM45.881 13.868l3.831 3.897.273-.382-3.875-3.938-.229.423zM71.372 43.522l4.388 4.467.302-.365-4.321-4.389-.369.287zM74.809 39.562l3.296 3.358c.037-.192.064-.384.085-.577l-3.169-3.228-.212.447zM73.194 50.301l-4.843-4.925-.441.206 4.897 4.988c.133-.079.262-.174.387-.269zM74.243 49.499l-4.682-4.759-.423.235 4.739 4.816.366-.292zM74.102 40.71l3.673 3.738c.055-.169.105-.346.143-.524l-3.549-3.612-.267.398zM44.179 17.732l3.522 3.578.214-.444-3.554-3.625-.182.491zM73.287 41.744l3.963 4.031.205-.458-3.861-3.933-.307.36z"/></g></svg>