<svg xmlns="http://www.w3.org/2000/svg" width="612" height="792" viewBox="0 0 612 792"><g fill="#fff"><path d="M223.258 219.529c-1.341-.31-2.682-.413-3.92-.413-8.254 0-13.825 6.809-14.96 23.213h1.754c.31-2.167 1.341-7.738 5.262-8.666.722-.206 1.341-.31 1.857-.31 2.167 0 3.301 1.135 3.301 2.167 0 .516-.31 1.032-1.032 1.238v.103c0 .619.206 3.92 4.23 3.92.929 0 2.063-.206 3.508-.619 4.333-1.341 7.016-6.293 7.016-11.142.103-4.333-2.064-8.459-7.016-9.491M201.902 242.329h2.27c0-2.889.516-14.444 5.674-22.491 2.167-3.405 3.301-6.912 3.301-10.317 0-5.881-3.301-11.555-10.111-15.785-6.809 4.127-10.111 9.801-10.111 15.785 0 3.405 1.135 7.016 3.301 10.317 5.16 7.945 5.676 19.603 5.676 22.491M189.522 235.417c0-1.032 1.135-2.167 3.301-2.167.516 0 1.135.103 1.857.31 3.817 1.032 4.952 6.5 5.262 8.666h1.754c-1.135-16.404-6.706-23.213-14.96-23.213-1.238 0-2.579.206-3.92.413-4.952 1.135-7.119 5.158-7.119 9.388 0 4.746 2.682 9.801 7.016 11.142 1.444.413 2.579.619 3.508.619 4.127 0 4.23-3.301 4.23-3.92v-.103c-.62-.103-.929-.619-.929-1.135M210.775 258.321c-1.651 0-4.23-.516-4.746-4.024h-5.881c-.516 3.405-3.198 4.024-4.746 4.024-.516 0-1.032-.103-1.135-.103v.516c0 2.889 1.341 3.611 2.682 3.611 1.444 0 2.889-.825 2.889-.825l.206-.103-.103.206c-.619 1.135-.825 2.27-.825 3.301 0 4.024 3.611 7.119 4.127 7.531.516-.413 4.127-3.508 4.127-7.531 0-1.032-.206-2.167-.825-3.301l-.103-.206.206.103s.413.206.929.413c.516.206 1.238.413 1.96.413 1.341 0 2.579-.722 2.579-3.611v-.516c-.413.102-.825.102-1.341.102M212.838 246.043h-19.499c-1.238 0-2.27 1.032-2.27 2.27s1.032 2.27 2.27 2.27h19.499c1.238 0 2.27-1.032 2.27-2.27-.103-1.238-1.032-2.166-2.27-2.27"/><path d="M302.699 253.781l-.31-.929-6.293 1.857c.103.31.206.619.206.929l6.397-1.857zM300.945 248.52l-.309-.929-8.873 2.579c.413.206.825.413 1.238.722l7.944-2.372zM301.77 251.099l-.309-.929-6.706 1.96c.206.206.31.516.516.929l6.499-1.96zM303.627 256.36l-.31-.929-6.706 1.96c0 .31 0 .722-.103 1.032l7.119-2.063zM289.08 233.663v1.032l6.603-1.96-.309-.929-6.294 1.857zM289.287 231.703l5.468-1.651-.309-.929-4.849 1.444-.31 1.136"/><path d="M296.508 235.314l-.31-.929-7.015 2.063.206 1.032 7.119-2.166zM291.144 224.378l-.103 1.032 1.96-.516-.31-.929-1.547.413zM288.668 263.685l15.785-4.643-.309-.929-17.126 5.055c.927.311 1.65.414 1.65.517M284.128 264.923l2.786-.825c-.413 0-.929-.103-1.651-.206 0 0-.516.412-1.135 1.031"/><path d="M300.016 245.837l-.31-.929-10.936 3.198c.31.206.619.516 1.032.722l10.214-2.991zM299.191 243.258l-.31-.929-12.483 3.714c.206.31.516.516.825.825l11.968-3.61zM298.262 240.576l-.309-.929-13.412 3.92.619.825 13.102-3.816zM283.715 242.02l13.721-4.024-.31-.929-7.325 2.167c.103.31.206.619.309.825 0 0-.309-.31-.825-.619l-5.881 1.754c.002.207.208.516.311.826"/><path d="M293.826 227.473l-.31-.929-2.786.825-.309 1.135 3.405-1.031zM303.318 264.098l-15.785 4.643 1.444.619 14.134-4.127c.103-.413.207-.825.207-1.135M293.413 255.432l-10.523 3.095.309.929 11.039-3.198-.825-.826"/><path d="M305.071 260.694l-21.975 6.5v.31s.516.103 1.444.206l20.84-6.19-.309-.826zM295.477 257.702l-11.349 3.301c.206.31.516.516.825.825l11.142-3.301c-.102-.206-.309-.413-.618-.825M277.835 251.511s.31.206.825.619l5.262-1.548c-1.857-.205-3.817.001-6.087.929"/><path d="M286.501 238.306c-1.032-.103-2.167-.103-3.508.31v.722l3.508-1.032zM287.43 251.408l-7.222 2.167c.206.206.413.516.722.825l7.944-2.373c-.516-.206-1.032-.412-1.444-.619M290.834 253.265l-8.976 2.682.413.929 9.595-2.786-1.032-.825M300.738 270.598l-5.881 1.754c2.167.515 4.231 0 5.881-1.754M310.23 264.923"/><path d="M305.897 263.273l-1.032.31h.103l.309.928 1.032-.31-.412-.928zM291.247 270.495l1.032.619h.103l9.801-2.889c.206-.31.309-.722.413-1.135l-11.349 3.405zM309.198 230.568M307.341 262.447s-1.238-.413-1.444.825l-13.928-41.577.413-.103s2.27 3.714 5.777 5.571c3.508 1.857 5.365 6.603 5.777 8.15 0 0 .31-3.714 4.746-5.468 0 0 4.849 5.055-1.341 17.332 0 0-.516 4.127 2.682 7.222 0 0-.928-14.341 10.317-17.332 0 0-1.651 4.127.103 8.563 1.754 4.436-1.651 7.738-1.651 7.738s.619.825 2.889-1.754c0 0 3.095-.103 3.92 1.444 0 0-3.405 3.095-5.262 8.666-1.752 5.263-7.53 6.707-12.998.723M325.602 193.014c-.722-2.579-3.301-4.127-5.674-3.405-1.548.516-2.889 2.167-2.373 3.817.516 1.857 1.548 2.682 3.095 2.167.825-.206 1.238-.929 1.341-2.27 0-1.238.103-1.857.309-1.96.929-.31 1.651.31 2.063 1.96.516 1.857.31 3.198-.722 4.333-.722.825-1.754 1.444-2.992 1.754-1.548.413-3.301.619-5.262.413l.206 1.444c1.96.31 3.714.206 5.262-.206 3.922-1.134 5.779-4.229 4.747-8.047M313.016 199.514c-1.754-.516-4.127-1.341-7.016-2.682-4.436-2.27-5.777-2.373-7.325-1.857l-2.167-.825c1.651-.516 2.786-1.032 3.611-1.651 1.444-1.032 1.857-2.27 1.444-3.817-.413-1.651-2.063-2.476-3.508-2.063-1.857.516-2.579 1.548-2.167 3.198.206.722.825 1.548 1.548 1.238 1.548-.103 0-3.198 1.651-3.198.619-.103 1.032.413 1.341 1.341.31 1.238-1.238 2.682-3.817 3.405-.413.103-1.032.31-1.96.516-2.786-.103-6.19-.206-9.595.825-5.158 1.548-8.769 4.539-10.73 7.428.103-.516.103-1.341-.103-2.27-.722-2.579-3.095-4.333-6.19-3.405-1.238.31-2.167 1.135-2.786 2.373-.413.929-.516 1.857-.206 2.786.413 1.651 2.476 2.889 4.024 2.476 1.548-.413 2.063-1.548 1.96-3.198-.206-1.135-.722-1.96-1.96-1.548-.31.103-.516.31-.825.929-.103.722.619 1.857.206 1.96-1.032.31-1.754-.206-2.167-1.444-.413-1.444.413-2.476 2.373-3.095 1.857-.516 3.611.516 4.024 1.96.413 1.341.206 2.992-.31 5.158-.825 2.786-1.754 7.635-1.238 11.142.206 1.754.516 3.508.825 5.158-2.889-1.754-3.817-1.754-5.777-1.238-2.992.825-4.333 3.714-3.611 6.396.413 1.341 1.135 2.373 2.476 2.992.825.516 1.754.516 2.682.206 2.476-.722 3.301-2.167 2.682-4.436-.516-1.651-1.548-2.27-3.301-1.857-.825.206-1.754 1.135-1.444 2.167.206.619.619.929 1.341 1.032.413 0 1.341-1.032 1.651-.413.722.929 0 1.857-1.444 2.27-1.238.31-2.682-.206-3.301-2.476-.619-2.167.413-4.024 2.682-4.746 1.857-.516 4.23.722 5.984 2.682 2.992 5.158 6.603 8.873 10.73 11.039h.103c.413-.413.825-.825 1.341-1.135-1.341-.619-2.682-1.548-3.92-2.579-3.508-2.786-6.087-6.706-7.428-11.658-1.444-4.952-1.032-9.595.825-13.928 2.167-4.746 5.984-7.944 11.452-9.492 3.92-1.135 7.738-.825 11.245 1.135 3.508 1.857 5.881 4.849 7.016 9.182 1.032 3.508 1.032 6.706.103 9.388-.31.929-.722 1.754-1.238 2.476.516.31 1.032.619 1.444 1.032.619-.825 1.135-1.754 1.548-2.889 1.135-2.889 1.135-6.087.206-9.388-.31-1.032-.825-2.063-1.341-2.786 1.135.929 2.27 1.754 3.301 2.579-.206-1.238-.516-2.476-1.032-3.611-2.167-1.444-4.746-3.508-6.5-5.365l.619-.413 8.666 3.301c2.167.825 4.127 1.238 5.984 1.548l-.206-1.444c-.825-.101-1.65-.205-2.475-.411M378.734 256.67c5.571 6.706 15.579 14.856 14.547 15.785-1.032.825-10.73-4.643-16.301-11.349s-11.555-18.57-10.523-19.396c1.135-.928 6.809 8.254 12.277 14.96M375.742 241.504c-7.635-15.991 16.507-27.443 11.349-33.22 2.373.103 4.436-2.167 7.531.929-2.27 4.643 2.063 2.476 3.095 4.23 4.23 7.119 4.127 20.221-2.476 30.229l-.619.619c8.976-7.119 15.785-1.444 20.118-3.095-9.595 3.714-2.063 24.245-17.332 23.935-5.571-2.684-18.055-13.31-21.666-23.627M360.989 226.648c-3.095-.206-5.365 2.167-5.571 4.952-.206 3.198 1.651 5.674 4.746 5.881 3.095.206 5.365-1.96 5.571-5.158.206-2.787-1.651-5.469-4.746-5.675M111.939 256.051c-.929-2.992-2.27-5.468-4.333-7.119-1.754-1.444-3.92-2.167-6.5-2.579 1.96-1.754 3.405-3.611 4.024-5.674.722-2.063.619-4.436.103-6.912 2.27 1.135 4.436 1.754 6.603 1.651 2.579-.103 5.158-1.341 7.635-3.301-.825 3.095-.929 5.881-.206 8.357.825 2.476 2.682 4.539 5.262 6.5-3.095 0-5.881.722-8.047 2.167-1.962 1.545-3.51 3.918-4.541 6.91m-9.079 15.888c3.198.206 6.5-1.341 8.047-4.849.619-1.651 1.238-3.405 1.651-5.262.31 1.857.722 3.714 1.341 5.365 1.341 3.611 4.539 5.365 7.738 5.365 3.301 0 5.055-3.92 7.944-5.984 2.889-2.063 7.119-2.373 8.254-5.571 1.135-2.992.516-6.603-2.373-9.079-1.341-1.032-2.889-2.063-4.643-3.095 1.857.206 3.714.31 5.468.206 3.817-.31 6.396-2.889 7.222-5.984.929-3.198-2.373-5.984-3.508-9.285-1.135-3.301-.31-7.531-2.992-9.492-2.579-1.96-6.19-2.373-9.388-.206-1.444 1.032-2.786 2.27-4.23 3.611.722-1.754 1.341-3.508 1.754-5.262.722-3.817-.929-7.016-3.714-8.666-2.786-1.754-6.396.619-9.904.825-3.508.206-7.325-1.754-9.904.31-2.579 1.96-3.92 5.365-2.786 8.976.206.516.413.929.516 1.444l-1.238-.929c-3.198-2.063-6.809-1.548-9.388.413-2.682 1.96-1.651 6.19-2.889 9.492-1.032 3.405-4.23 6.19-3.301 9.388.825 3.095 3.508 5.571 7.325 5.881h1.96c-.619.413-1.135.722-1.651 1.135-2.992 2.27-3.92 5.881-2.889 8.976.929 3.198 5.158 3.714 7.841 5.984 2.888 2.063 4.435 6.087 7.737 6.293M107.709 240.988c1.032-2.476 3.92-3.714 6.396-2.682s3.714 3.92 2.682 6.5c-1.032 2.476-3.92 3.714-6.396 2.682-2.476-1.135-3.714-4.024-2.682-6.5M439.501 272.558c.516-1.754.619-3.714 1.238-5.468 6.087-.825 8.15-7.016 9.492-10.936 3.095-8.976 3.611-20.634 1.96-29.816 1.032 1.032 2.579 2.682 3.817 4.952.619 1.135.929 2.786 1.754 2.786 1.032-.103 1.548-3.095 2.167-4.333 4.23-9.595 17.332-18.777 20.118-27.856.516 2.889 0 5.571.103 8.357 1.857-.619 3.198-2.373 4.746-3.817 6.706-5.881 16.507-10.317 22.8-8.563-1.651.929-4.746 1.341-4.436 3.405 2.167.619 4.436.103 6.603.103 6.706 0 12.896 1.96 18.777 4.849 0 .103.103.206.103.206-7.531-1.548-15.888-2.167-25.07 3.198.928 1.548 3.508.413 5.158.722-.722 1.135-1.857 1.651-2.889 2.167-7.738 3.508-16.301.516-23.935 4.23-1.135.619-3.095 1.444-3.095 2.579 1.857 1.444 4.539 0 6.912-.516-5.674 3.508-11.658 7.016-16.301 11.142-3.301 2.889-6.809 5.055-6.087 8.769.825.516 1.857.103 2.889.103-4.333 2.889-6.603 6.603-8.254 10.317-.516 1.135-1.341 2.579-.825 3.714 4.539-4.127 10.214-8.254 16.404-11.452.103.929.413 1.857 1.032 2.682-3.92 1.341-7.531 3.508-10.73 6.087 0 0 0-.103.103-.206 0 .103 0 .103-.103.206-3.095 2.476-5.881 5.262-8.047 7.738 1.96-1.135-1.857 5.468-3.405 6.19-4.539 2.374-7.841 6.088-12.999 8.461M494.49 235.004c1.444 5.158-1.548 10.626-6.706 12.174s-10.523-1.341-11.968-6.5 1.548-10.626 6.706-12.174c5.159-1.547 10.524 1.342 11.968 6.5"/></g><path fill="#fff" d="M504.498 245.424l-8.873-2.269-1.341 1.857 9.388 2.889zM505.942 240.163l-9.182.103-.825 2.167 9.801.309zM506.045 234.798l-8.976 2.373-.206 2.27 9.595-2.064zM504.704 229.64l-8.047 4.539.412 2.27 8.77-4.54zM502.228 224.894l-6.706 6.499.928 2.064 7.429-6.603zM498.514 221.077l-4.849 7.84 1.444 1.857 5.571-8.253zM494.078 218.291l-2.786 8.769 1.754 1.445 3.404-9.389zM488.919 216.743l-.516 9.182 2.167.929.928-9.904z"/><g fill="#55544B"><path d="M223.258 534.187c-1.341-.31-2.682-.413-3.92-.413-8.254 0-13.825 6.809-14.96 23.213h1.754c.31-2.167 1.341-7.738 5.262-8.666.722-.206 1.341-.31 1.857-.31 2.167 0 3.301 1.135 3.301 2.167 0 .516-.31 1.032-1.032 1.238v.103c0 .619.206 3.92 4.23 3.92.929 0 2.063-.206 3.508-.619 4.333-1.341 7.016-6.293 7.016-11.142.103-4.332-2.064-8.459-7.016-9.491M201.902 556.987h2.27c0-2.889.516-14.444 5.674-22.491 2.167-3.405 3.301-6.912 3.301-10.317 0-5.881-3.301-11.555-10.111-15.785-6.809 4.127-10.111 9.801-10.111 15.785 0 3.405 1.135 7.016 3.301 10.317 5.16 8.048 5.676 19.603 5.676 22.491M189.522 550.075c0-1.032 1.135-2.167 3.301-2.167.516 0 1.135.103 1.857.31 3.817 1.032 4.952 6.5 5.262 8.666h1.754c-1.135-16.404-6.706-23.213-14.96-23.213-1.238 0-2.579.206-3.92.413-4.952 1.135-7.119 5.158-7.119 9.388 0 4.746 2.682 9.801 7.016 11.142 1.444.413 2.579.619 3.508.619 4.127 0 4.23-3.301 4.23-3.92v-.103c-.62-.103-.929-.516-.929-1.135M210.775 573.082c-1.651 0-4.23-.516-4.746-4.024h-5.881c-.516 3.405-3.198 4.024-4.746 4.024-.516 0-1.032-.103-1.135-.103v.516c0 2.889 1.341 3.611 2.682 3.611 1.444 0 2.889-.825 2.889-.825l.206-.103-.103.206c-.619 1.135-.825 2.27-.825 3.301 0 4.024 3.611 7.119 4.127 7.531.516-.413 4.127-3.508 4.127-7.531 0-1.032-.206-2.167-.825-3.301l-.103-.206.206.103s.413.206.929.413c.516.206 1.238.413 1.96.413 1.341 0 2.579-.722 2.579-3.611v-.516c-.413-.001-.825.102-1.341.102M212.838 560.805h-19.499c-1.238 0-2.27 1.032-2.27 2.27s1.032 2.27 2.27 2.27h19.499c1.238 0 2.27-1.032 2.27-2.27-.103-1.342-1.032-2.27-2.27-2.27"/><path d="M302.699 568.439l-.31-.928-6.293 1.857c.103.31.206.619.206.929l6.397-1.858zM300.945 563.178l-.309-.929-8.873 2.579c.413.206.825.413 1.238.722l7.944-2.372zM301.77 565.757l-.309-.929-6.706 1.96c.206.206.31.516.516.929l6.499-1.96zM303.627 571.019l-.31-.929-6.706 1.96c0 .31 0 .722-.103 1.032l7.119-2.063zM289.08 548.321v1.032l6.603-1.96-.309-.929-6.294 1.857zM289.287 546.361l5.468-1.651-.309-.929-4.849 1.444c-.104.414-.207.827-.31 1.136"/><path d="M296.508 550.075l-.31-.929-7.015 2.063.206 1.032 7.119-2.166zM291.144 539.036l-.103 1.032 1.96-.516-.31-.928-1.547.412zM288.668 578.344l15.785-4.643-.309-.929-17.126 5.055c.927.31 1.65.413 1.65.517M284.128 579.685l2.786-.825c-.413 0-.929-.103-1.651-.206 0-.001-.516.412-1.135 1.031"/><path d="M300.016 560.495l-.31-.929-10.936 3.198c.31.206.619.516 1.032.722l10.214-2.991zM299.191 557.916l-.31-.929-12.483 3.714c.206.309.516.516.825.825l11.968-3.61zM298.262 555.337l-.309-.928-13.412 3.92.619.825 13.102-3.817zM283.715 556.678l13.721-4.024-.31-.929-7.325 2.167c.103.31.206.619.309.825 0 0-.309-.309-.825-.619l-5.881 1.754c.002.207.208.517.311.826"/><path d="M293.826 542.131l-.31-.929-2.786.825-.309 1.135 3.405-1.031zM303.318 578.756l-15.785 4.643 1.444.619 14.134-4.127c.103-.413.207-.825.207-1.135M293.413 570.09l-10.523 3.095.309.929 11.039-3.198-.825-.826"/><path d="M305.071 575.352l-21.975 6.5v.309s.516.103 1.444.206l20.84-6.19-.309-.825zM295.477 572.36l-11.349 3.301c.206.309.516.516.825.825l11.142-3.301c-.102-.206-.309-.413-.618-.825M277.835 566.17s.31.206.825.619l5.262-1.548c-1.857-.206-3.817 0-6.087.929"/><path d="M286.501 552.964c-1.032-.103-2.167-.103-3.508.309v.722l3.508-1.031zM287.43 566.066l-7.222 2.167c.206.206.413.516.722.825l7.944-2.373c-.516-.206-1.032-.412-1.444-.619M290.834 568.027l-8.976 2.682.413.929 9.595-2.786c-.31-.413-.722-.619-1.032-.825M300.738 585.256l-5.881 1.754c2.167.516 4.231 0 5.881-1.754M310.23 579.582"/><path d="M305.897 577.931l-1.032.309h.103l.309.929 1.032-.31-.412-.928zM291.247 585.153l1.032.619h.103l9.801-2.889c.206-.309.309-.722.413-1.135l-11.349 3.405zM309.198 545.226M307.341 577.106s-1.238-.413-1.444.825l-13.928-41.577.413-.103s2.27 3.714 5.777 5.571c3.508 1.857 5.365 6.603 5.777 8.15 0 0 .31-3.714 4.746-5.468 0 0 4.849 5.055-1.341 17.332 0 0-.516 4.127 2.682 7.222 0 0-.928-14.341 10.317-17.332 0 0-1.651 4.127.103 8.563 1.754 4.436-1.651 7.738-1.651 7.738s.619.825 2.889-1.754c0 0 3.095-.103 3.92 1.444 0 0-3.405 3.095-5.262 8.666-1.752 5.262-7.53 6.706-12.998.723M325.602 507.776c-.722-2.579-3.301-4.127-5.674-3.405-1.548.516-2.889 2.167-2.373 3.817.516 1.857 1.548 2.682 3.095 2.167.825-.206 1.238-.928 1.341-2.27 0-1.238.103-1.857.309-1.96.929-.31 1.651.31 2.063 1.96.516 1.857.31 3.198-.722 4.333-.722.825-1.754 1.444-2.992 1.754-1.548.413-3.301.619-5.262.413l.206 1.444c1.96.31 3.714.206 5.262-.206 3.922-1.135 5.779-4.333 4.747-8.047M313.016 514.172c-1.754-.516-4.127-1.341-7.016-2.682-4.436-2.27-5.777-2.373-7.325-1.857l-2.167-.825c1.651-.516 2.786-1.032 3.611-1.651 1.444-1.032 1.857-2.27 1.444-3.817-.413-1.651-2.063-2.476-3.508-2.063-1.857.516-2.579 1.548-2.167 3.198.206.722.825 1.548 1.548 1.238 1.548-.103 0-3.198 1.651-3.198.619-.103 1.032.413 1.341 1.341.31 1.238-1.238 2.682-3.817 3.405-.413.103-1.032.31-1.96.516-2.786-.103-6.19-.206-9.595.825-5.158 1.548-8.769 4.539-10.73 7.428.103-.516.103-1.341-.103-2.27-.722-2.579-3.095-4.333-6.19-3.405-1.238.31-2.167 1.135-2.786 2.373-.413.929-.516 1.857-.206 2.786.413 1.651 2.476 2.889 4.024 2.476 1.548-.413 2.063-1.548 1.96-3.198-.206-1.135-.722-1.96-1.96-1.547-.31.103-.516.31-.825.928-.103.722.619 1.857.206 1.96-1.032.31-1.754-.206-2.167-1.444-.413-1.444.413-2.476 2.373-3.095 1.857-.516 3.611.516 4.024 1.96.413 1.341.206 2.992-.31 5.159-.825 2.786-1.754 7.635-1.238 11.142.206 1.754.516 3.508.825 5.159-2.889-1.754-3.817-1.754-5.777-1.238-2.992.825-4.333 3.714-3.611 6.396.413 1.341 1.135 2.373 2.476 2.992.825.516 1.754.516 2.682.206 2.476-.722 3.301-2.167 2.682-4.436-.516-1.651-1.548-2.27-3.301-1.857-.825.206-1.754 1.135-1.444 2.167.206.619.619.928 1.341 1.032.413 0 1.341-1.032 1.651-.413.722.929 0 1.857-1.444 2.27-1.238.31-2.682-.206-3.301-2.476-.619-2.167.413-4.024 2.682-4.746 1.857-.516 4.23.722 5.984 2.682 2.992 5.158 6.603 8.873 10.73 11.039h.103c.413-.413.825-.825 1.341-1.135-1.341-.619-2.682-1.548-3.92-2.579-3.508-2.786-6.087-6.706-7.428-11.658-1.444-4.952-1.032-9.595.825-13.928 2.167-4.746 5.984-7.944 11.452-9.492 3.92-1.135 7.738-.825 11.245 1.135 3.508 1.857 5.881 4.849 7.016 9.182 1.032 3.508 1.032 6.706.103 9.388-.31.929-.722 1.754-1.238 2.476.516.31 1.032.619 1.444 1.032.619-.825 1.135-1.754 1.548-2.889 1.135-2.889 1.135-6.087.206-9.388-.31-1.032-.825-2.063-1.341-2.786 1.135.928 2.27 1.754 3.301 2.579-.206-1.238-.516-2.476-1.032-3.611-2.167-1.444-4.746-3.508-6.5-5.365l.619-.413 8.666 3.301c2.167.825 4.127 1.238 5.984 1.548l-.206-1.444c-.825-.103-1.65-.206-2.475-.413M378.734 571.328c5.571 6.706 15.579 14.856 14.547 15.785-1.032.825-10.73-4.643-16.301-11.349s-11.555-18.57-10.523-19.396c1.135-.928 6.809 8.254 12.277 14.96M375.742 556.162c-7.635-15.991 16.507-27.443 11.349-33.221 2.373.103 4.436-2.167 7.531.929-2.27 4.643 2.063 2.476 3.095 4.23 4.23 7.119 4.127 20.221-2.476 30.229l-.619.619c8.976-7.119 15.785-1.444 20.118-3.095-9.595 3.714-2.063 24.245-17.332 23.935-5.571-2.682-18.055-13.309-21.666-23.626M360.989 541.306c-3.095-.206-5.365 2.167-5.571 4.952-.206 3.198 1.651 5.674 4.746 5.881 3.095.206 5.365-1.96 5.571-5.158.206-2.786-1.651-5.469-4.746-5.675M111.939 570.709c-.929-2.992-2.27-5.468-4.333-7.119-1.754-1.444-3.92-2.167-6.5-2.579 1.96-1.754 3.405-3.611 4.024-5.674.722-2.063.619-4.436.103-6.912 2.27 1.135 4.436 1.754 6.603 1.651 2.579-.103 5.158-1.341 7.635-3.301-.825 3.095-.929 5.881-.206 8.357.825 2.476 2.682 4.539 5.262 6.5-3.095 0-5.881.619-8.047 2.167-1.962 1.545-3.51 3.918-4.541 6.91m-9.079 15.888c3.198.206 6.5-1.341 8.047-4.849.619-1.651 1.238-3.405 1.651-5.262.31 1.857.722 3.714 1.341 5.365 1.341 3.611 4.539 5.365 7.738 5.365 3.301 0 5.055-3.92 7.944-5.984 2.889-2.063 7.119-2.373 8.254-5.571 1.135-2.992.516-6.603-2.373-9.079-1.341-1.032-2.889-2.063-4.643-3.095 1.857.206 3.714.309 5.468.206 3.817-.309 6.396-2.889 7.222-5.984.929-3.198-2.373-5.984-3.508-9.285-1.135-3.301-.31-7.531-2.992-9.492-2.579-1.96-6.19-2.373-9.388-.206-1.444 1.032-2.786 2.27-4.23 3.611.722-1.754 1.341-3.508 1.754-5.262.722-3.817-.929-7.016-3.714-8.666-2.786-1.754-6.396.619-9.904.825-3.508.206-7.325-1.754-9.904.31-2.579 1.96-3.92 5.365-2.786 8.976.206.516.413.929.516 1.444l-1.238-.929c-3.198-2.063-6.809-1.548-9.388.413-2.682 1.96-1.651 6.19-2.889 9.492-1.032 3.405-4.23 6.19-3.301 9.388.825 3.095 3.508 5.571 7.325 5.881h1.96c-.619.413-1.135.722-1.651 1.135-2.992 2.27-3.92 5.881-2.889 8.976.929 3.198 5.158 3.714 7.841 5.984 2.888 2.063 4.435 6.087 7.737 6.293M107.709 555.646c1.032-2.476 3.92-3.714 6.396-2.682s3.714 3.92 2.682 6.5c-1.032 2.476-3.92 3.714-6.396 2.682-2.476-1.135-3.714-4.024-2.682-6.5M439.501 587.216c.516-1.754.619-3.714 1.238-5.468 6.087-.825 8.15-7.016 9.492-10.936 3.095-8.976 3.611-20.634 1.96-29.816 1.032 1.032 2.579 2.682 3.817 4.952.619 1.135.929 2.786 1.754 2.786 1.032-.103 1.548-3.095 2.167-4.333 4.23-9.595 17.332-18.777 20.118-27.856.516 2.889 0 5.571.103 8.357 1.857-.619 3.198-2.373 4.746-3.817 6.706-5.881 16.507-10.317 22.8-8.563-1.651.929-4.746 1.341-4.436 3.405 2.167.619 4.436.103 6.603.103 6.706 0 12.896 1.96 18.777 4.849 0 .103.103.206.103.206-7.531-1.548-15.888-2.167-25.07 3.198.928 1.548 3.508.413 5.158.722-.722 1.135-1.857 1.651-2.889 2.167-7.738 3.508-16.301.516-23.935 4.23-1.135.619-3.095 1.444-3.095 2.579 1.857 1.444 4.539 0 6.912-.516-5.674 3.508-11.658 7.016-16.301 11.142-3.301 2.889-6.809 5.055-6.087 8.769.825.516 1.857.103 2.889.103-4.333 2.889-6.603 6.603-8.254 10.317-.516 1.135-1.341 2.579-.825 3.714 4.539-4.127 10.214-8.254 16.404-11.452.103.929.413 1.857 1.032 2.682-3.92 1.341-7.531 3.508-10.73 6.087 0 0 0-.103.103-.206 0 .103 0 .103-.103.206-3.095 2.476-5.881 5.262-8.047 7.738 1.96-1.135-1.857 5.468-3.405 6.19-4.539 2.374-7.841 6.088-12.999 8.461M494.49 549.663c1.444 5.158-1.548 10.626-6.706 12.174s-10.523-1.341-11.968-6.5c-1.444-5.158 1.548-10.626 6.706-12.174 5.159-1.548 10.524 1.341 11.968 6.5"/></g></svg>