<svg version="1.2" baseProfile="tiny" xmlns="http://www.w3.org/2000/svg" width="700" height="200" viewBox="0 0 700 200"><g fill="#fff"><path d="M204.499 166.758c-3.352-.724-3.983-3.769-4.02-6.191-.111-7.253.626-14.438 5.514-20.938l.001.001v-.001c3.436 8.907 2.684 21.056-1.495 27.129m-38.374-33.681c-6.208-7.255-4.022-31.11 3.255-39.256 6.301 8.853 4.602 31.427-3.255 39.256m-21.755.596c-2.267-5.251-2.048-9.893.685-14.2.724-1.139 2.728-2.062 4.088-1.99.903.047 2.078 1.916 2.484 3.177 1.497 4.655-1.251 9.705-7.257 13.013m106.451-2.845c-1.878 2.099-2.94 4.524-4.141 6.877-1.213 2.377-2.044 5.203-6.451 5.625-2.584-3.411-5.517-7.183-8.343-11.033-5.701-7.764-12.392-8.85-20.018-3.213-1.095.809-2.309 1.459-3.271 2.06-.712-.649-1.088-.882-1.319-1.217-3.305-4.789-4.23-4.866-7.606-.399-1.652 2.186-2.978 4.64-4.773 6.692-3.3 3.772-6.211 3.264-7.989-1.383-.926-2.422-1.347-5.037-2.124-8.062-6.044 11.365-9.049 13.049-16.695 8.846 5.146-6.638 5.534-14.612 6.151-22.589.636-8.236.561-16.225-4.183-23.688-4.798 2.322-6.142 6.359-7.08 10.063-3.048 12.026-6.04 24.176-.237 36.491-5.171 3.33-9.986 4.851-15.699.89 1.286-1.764 2.381-3.251 3.459-4.75 2.903-4.033 3.464-8.609 2.585-13.297-.945-5.04-5.188-6.312-8.844-2.7-3.518 3.476-4.685 7.908-4.291 12.759.165 2.033.513 4.049.777 6.067-4.929.679-7.512-.403-9.393-3.676-1.678-2.919-1.553-6.511.906-9.173 1.274-1.379 1.819-2.614.398-3.581-.627-.427-2.88.341-3.422 1.19-2.741 4.287-2.546 8.847-.103 13.201 2.242 3.994 5.655 6.084 10.433 5.768 1.608-.107 3.624-.188 4.821.637 5.799 4 11.62 3.117 17.433.458 2.37-1.085 4.222-.903 6.523.242 4.444 2.213 8.55 1.128 12.122-2.225.89-.835 1.85-1.596 3.006-2.588.939 1.496 1.625 2.788 2.495 3.941 2.474 3.276 6.404 3.628 9.201.677 1.284-1.354 2.099-3.143 3.187-4.692 1.392-1.982 2.845-3.921 4.51-6.206 2.997 3.255 3.699 5.937 1.766 9.143-.977 1.621-1.835 3.337-2.54 5.093-3.154 7.853-4.305 15.879-1.259 24.018.512 1.369 2.17 3.324 3.179 3.256 1.528-.103 3.477-1.435 4.292-2.81 1.14-1.923 1.56-4.335 2.011-6.593 1.433-7.168.422-14.275-.719-21.376-.866-5.386.424-7.739 5.33-10.065 6.19-2.933 10.747-1.706 14.805 3.98 2.566 3.595 4.841 7.455 7.788 10.705 3.548 3.91 7.087 3.276 9.302-1.585 1.712-3.756 2.707-7.84 4.02-11.778M114.453 134.618c-3.325 1.553-8.69-1.744-8.846-5.732-.088-2.236.496-4.553 1.095-6.746.537-1.964 1.509-3.808 2.313-5.761 6.431-1.293 8.133-.535 9.688 4.382 1.792 5.667-.129 11.934-4.25 13.857m-11.036-13.233l-1.154 4.97-.547-.075.701-5.07 1 .175m-6.442-4.263l-1.337.228-.978-3.776 1.923-.28.392 3.828m-34.739 63.635c-11.814 4.054-23.285 3.022-33.973-3.658-10.902-6.813-15.275-20.434-11.07-32.713 2.726-7.963 8.024-13.791 14.491-18.689 13.605-10.303 28.899-16.239 46.023-17.209h.632c11.494-.028 12.942 1.256 14.252 12.454.488 4.178 1.185 8.334 1.61 12.518 2.547 25.075-10.112 39.799-31.965 47.297m57.496-62.71c-1.452-3.907-3.622-5.432-7.755-4.76-3.697.6-7.289 1.848-10.333 2.653-1.974-2.152-4-4.145-5.763-6.348-1.373-1.716-2.948-3.546-3.513-5.581-1.745-6.286-3.019-12.703-4.551-19.051-.309-1.282-.943-2.485-1.46-3.809-.847.497-1.53.758-1.506.903 1.323 7.957 2.705 15.905 4.144 24.222-1.148 0-2.156.078-3.15-.012-19.256-1.73-36.042 5.097-51.703 15.304-4.368 2.846-8.383 6.459-11.93 10.301-14.568 15.78-10.969 38.748 7.727 48.831 7.74 4.174 16.21 5.664 25.101 4.381 8.314-1.199 15.952-4.334 22.867-8.749 8.721-5.567 15.084-13.219 17.624-23.711 1.712-7.072 2.408-14.089 1.377-21.289-.359-2.502-.725-5.03-.718-7.545.003-1.078.949-2.153 1.467-3.23 1.123 1.583 1.095 2.774 1.127 3.964.162 5.8 4.941 11.969 10.421 13.476 4.009 1.102 9.456-1.662 10.712-5.666 1.487-4.744 1.57-9.562-.185-14.284M288.503 133.262c-2.22 3.745-5.904 6.115-9.97 7.739-5.584 2.229-10.282-.763-10.517-6.837-.118-3.052.462-6.323 1.55-9.182 1.531-4.026 3.827-7.761 6.281-12.57 4.72 7.776 8.595 14.161 12.656 20.85m-11.529-29.585c-1.085-3.376-1.653-6.578-1.752-9.741-.05-1.581.018-3.153.195-4.732.178-1.579.466-3.165.859-4.775 5.612 4.742 5.922 12.451.698 19.248m39.061 22.626c-.459-1.461-1.074-2.962-2.051-3.255-9.078-2.726-16.523.047-22.992 8.779-3.208-4.526-5.864-7.758-7.946-11.327-3.32-5.692-5.353-10.985-1.144-17.98 4.899-8.142 1.318-19.945-6.059-25.402-3.342 8.594-3.575 17.292-1.535 26.035.846 3.626.032 6.282-1.996 9.36-3.818 5.793-7.133 11.978-7.592 19.17-.315 4.935.97 9.372 5.447 11.975 4.357 2.533 8.651 1.065 12.464-1.556 2.929-2.013 5.585-4.424 8.76-6.977 2.78 1.688 5.518 3.651 8.507 5.091 4.142 1.996 8.444 3.673 12.749 5.296.767.289 1.881-.345 4.149-.841-8.755-3.731-16.894-5.6-22.918-11.747 1.686-3.77 4.589-5.671 7.479-7.173 4.742-2.461 9.583.017 14.678.552M570.407 120.911c-3.665 2.517-4.114 6.653-5.087 10.362-.738 2.814-1.295 5.245-5.296 5.439 1.633 3.493 3.018 6.455 4.454 9.529 3.299-.082.755-3.841 3.535-4.842 3.911-.871 8.702-1.5 12.746-5.708-7.705 3.104-8.935 3.349-13.928 2.776-.039-6.061 2.718-11.562 3.576-17.556M503.855 131.583c-6.414 1.663-11.087 8.126-11.275 14.291-.145 4.737 2.497 7.793 9.885 10.349-3.583-4.206-8.242-6.751-6.783-12.312 1.238-4.717 4.218-8.214 8.173-12.328"/><path d="M393.808 125.028l-1.12-.052c-1.943 5.605-1.952 11.467-1.167 17.322.272 2.03 2.256 2.687 4.034 1.571 1.1-.69 1.905-1.889 2.735-2.945.239-.304.105-.903.143-1.385l-4.625 2.139v-16.65zM545.447 108.077c1.321-8.578 3.265-15.88 6.118-22.927.386 7.681-2.211 17.417-6.118 22.927m-57.527-6.922c1.283-5.118 2.416-10.283 3.702-15.439.857-3.437 1.782-6.871 2.865-10.285 1.623-5.121 3.602-10.198 6.237-15.177.525 1.524.871 3.24 1.065 5.078 1.299 12.343-4.6 30.392-13.869 35.823m-44.909 11.791c-1.322 1.904-3.498 1.823-5.776.845.632-3.004 2.207-4.988 5.224-6.124 1.464 1.731 1.618 3.746.552 5.279m-.839 2.774c-1.907 7.382-5.418 13.496-12.32 18.573.667-6.831 2.642-12.272 5.558-17.273 1.288-2.208 3.909-2.56 6.762-1.3m34.447 22.967c-1.255 7.53-2.569 15.059-4.22 22.51-.526 2.371-1.06 5.463-4.351 5.863h-.001l-.195-.01c-1.627.147-3.007-.325-4.227-1.139-.989-.66-1.886-1.51-2.69-2.492-4.94-6.042-7.156-13.038-7.228-21.911.119-.781.287-2.694.717-4.546 1.046-4.502 3.805-7.269 7.556-7.534l.076.003c1.23-.076 2.563.106 3.979.592 1.677.576 3.267 1.439 4.81 2.414 1.542.975 3.037 2.064 4.524 3.09.398.274.751.818.985 1.415.117.299.204.613.251.912.048.3.055.587.014.833m207.139-12.902c-2.258-4.036-5.499-5.238-8.81-6.051-4.055-.995-8.171-1.871-12.314-2.364-18.68-2.221-37.382-4.274-56.072-6.425-3.402-.392-6.784-.959-10.774-1.53 5.253-21.401 10.453-42.045 23.192-60.578-3.566 1.218-5.117 3.578-6.296 5.977-3.3 6.714-6.836 13.379-9.352 20.394-3.405 9.5-5.95 19.307-8.857 28.984-.493 1.642-.954 3.293-1.53 5.291-14.676-.611-29.056-1.211-44.438-1.851 4.021-11.209 5.608-22.151 4.404-33.416-5.971 10.4-6.741 22.496-10.905 33.467-6.559.399-12.809.781-19.059 1.157-6.263.376-12.521.952-18.786 1.057-6.134.103-12.276 1.145-18.455.816-.393-3.652 1.765-5.086 3.446-6.771 5.896-5.904 10.773-12.575 12.295-20.866 1.28-6.976 1.567-14.144 2.082-21.241.099-1.371-.781-2.811-1.25-4.355-3.204.92-4.373 3.123-5.321 5.307-1.524 3.511-2.998 7.076-4.074 10.74-2.65 9.026-5.014 18.134-7.611 27.176-.514 1.789-1.16 3.817-2.412 5.064-4.153 4.135-11.206 4.575-16.113 1.409-.187-.121-.609.121-1.315.286l1.681 4.633c-7.295.47-14.292.921-21.497 1.386-.244-2.226-.308-3.774-.599-5.277-.637-3.305-2.559-4.212-5.138-2.171-1.878 1.486-3.459 3.407-4.947 5.309-1.807 2.314-3.378 4.813-5.212 7.464.777 5.057-2.18 9.59-3.262 14.977-3.41-2.602-3.236-5.832-2.962-8.886.232-2.582 1.215-5.088 1.568-7.669.258-1.895 1.321-4.039-.986-6.178-.604 1.339-1.27 2.319-1.489 3.39-.732 3.58-1.217 7.211-1.957 10.789-1.007 4.87-3.457 8.86-7.336 12.191-.725-.776-1.177-1.083-1.377-1.508-.442-.942-.852-1.919-1.11-2.924-1.851-7.22-1.917-14.508-.408-21.772 1.169-5.629 2.738-11.175 3.928-16.8 1.977-9.354 3.796-18.742 5.639-28.123.027-.131-.486-.368-.855-.633-.355.282-.997.526-1.082.899-2.135 9.278-4.211 18.57-6.323 27.97l-4.566-2.298c-.779 3.769 3.362 2.813 3.996 5.358-.643 2.558-1.335 5.431-2.091 8.287-2.642 9.981-3.002 19.963.046 29.921.536 1.749.606 4.131 3.026 4.418 2.574.304 4.12-1.406 5.314-3.506 1.024-1.8 2.172-3.53 3.31-5.366 1.587 2.146 3.418 3.895 4.311 6.036.904 2.164.794 4.733 1.285 7.093.352 1.697.75 3.441 1.494 4.988 2.258 4.699 7.75 4.765 11.567-.516-1.749.628-2.778 1.18-3.863 1.337-1.152.165-2.525.31-3.511-.154-4.016-1.88-4.507-10.667-.923-13.448 1.503-1.167 3.144-2.362 4.154-3.914 3.665-5.642 7.091-11.44 11.284-18.284l35.298-1.593c-1.41 7.222-2.282 13.758-4.473 20.521-2.073-1.289-3.507-2.229-4.987-3.09-3.24-1.883-6.667-2.937-10.486-2.435-5.481.72-8.021 3.022-9.096 8.477-1.651 8.371-.383 16.419 3.624 23.819 1.68 3.104 4.289 5.995 7.122 8.118 4.821 3.613 8.546 2.389 10.543-3.288 1.375-3.907 2.072-8.074 2.827-12.169.77-4.178 1.238-8.412 1.84-12.62l1.254-.303c1.062 1.254 2.231 2.435 3.165 3.779 1.689 2.432 3.102 5.065 4.88 7.425 2.301 3.054 4.74 6.023 7.337 8.826 1.304 1.409 2.977 2.841 5.727 1.349-5.519-3.92-9.266-8.801-12.683-14.029-2.185-3.343-4.897-6.338-7.128-9.656-.787-1.172-1.377-2.932-1.14-4.258 1.222-6.823 2.742-13.591 4.227-20.712 19.1-1.709 37.808-2.28 57.215-2.855-.715 3.137-.962 5.58-1.858 7.754-.83 2.009-2.205 3.859-3.621 5.542-1.427 1.695-3.199 3.1-4.819 4.632l.477.439 6.09-3.753c-2.155 9.961-3.922 18.951-1.04 28.187 4.603-.256 4.861-4.088 6.635-6.398 1.793-2.335 2.976-5.197 6.022-7.614-.13 4.526-3.01 7.925-.682 11.554 3.613.078 3.613.078 6.129-2.961l-4.044.273c-.935-4.721 3.554-8.62 1.425-13.477-3.572.964-4.698 4.24-6.95 6.212-2.351 2.058-3.121 5.66-6.607 7.105-.267-1.196-.512-2.026-.627-2.875-.115-.857-.16-1.734-.132-2.598.301-9.504 2.014-18.413 7.222-26.831 2.687-4.343 5.193-5.64 9.846-5.34 10.264.659 20.555.901 30.831 1.386 2.029.096 4.041.523 6.332.833-.23 1.658-.311 2.841-.567 3.985-1.536 6.892-3.609 13.632-4.866 20.625-1.798 10.01-3.608 19.894-1.401 30.044.182.837-.012 1.751.129 2.602.146.886.488 1.739.745 2.607l1.241-.019c1.802-5.333.415-11.08 1.278-16.545.92-5.815 1.298-11.715 1.907-17.508l7.866-.608-.013-.656c-1.31-.255-2.646-.416-3.923-.783-3.939-1.132-4.728-2.375-3.601-6.464 1.195-4.344 2.524-8.669 4.112-12.881 1.751-4.635 1.908-4.573 6.899-4.058 15.6 1.611 31.218 3.052 46.789 4.895 8.123.961 16.176 2.551 24.229 4.025 2.219.406 4.792.634 6.349 3.915-3.818.63-7.183 1.249-10.569 1.731-7.417 1.056-14.859 1.945-22.255 3.135-1.556.249-3.443 1.129-4.333 2.34-3.065 4.161-3.775 4.546-9.918 2.76.929-1.188 1.54-2.4 2.518-3.101 1.004-.719 2.365-.937 3.933-1.506-2.434-2.91-4.913-.544-7.119-.927-2.555-.444-5.215-.496-7.816-.387-2.145.091-4.778-1.186-6.849 1.876 1.593.442 2.736.633 3.768 1.081 1.036.449 1.959 1.154 2.942 1.753-2.936 4.508-8.563 6.32-14.226 4.748.557-2.489 4.733-2.594 4.052-6.479-1.433.672-2.559 1.326-3.766 1.735-1.756.594-3.573 1.014-5.367 1.501-.165.045-.346.038-.518.054l.232.221 2.085.523c-.383 6.045.488 6.831 6.379 5.497 2.534-.574 5.003-1.447 7.489-2.222 4.032-1.257 7.023-3.299 5.659-8.396 1.159-.226 1.987-.504 2.818-.51.637-.005 1.275.334 2.121.58-.375 1.349-1.098 2.567-.901 3.609.223 1.169 1.031 2.709 2.014 3.167 4.138 1.934 10.65-.141 13.526-3.808.779-.993 1.995-1.878 3.188-2.258 1.973-.63 4.081-.886 6.15-1.165 7.771-1.046 15.555-1.983 23.317-3.088 1.769-.251 3.465-1.007 5.794-1.712M406.897 18.824c-1.716 16.276-6.922 31.576-12.985 46.632 3.008-15.905 7.152-31.494 12.985-46.632m1.088-6.351c-2.675 1.571-3.598 4-4.289 6.476-4.212 15.094-8.453 30.181-12.497 45.32-2.065 7.732-2.866 15.917-5.801 23.274-4.374 10.968-9.689 21.632-15.463 31.945-3.443 6.149-8.142 11.741-12.996 16.909-3.978 4.234-8.068 3.097-11.088-1.887-2.739-4.519-2.364-9.294-1.584-14.196 1.039-6.532 1.977-13.081 2.831-19.64.127-.985-.438-2.061-.964-4.286-2.727 4.879-2.734 9.061-3.385 13.123-.849 5.302-1.569 10.714-3.274 15.765-1.939 5.742-4.893 11.144-7.426 16.683-2.173 4.753-4.376 9.492-6.566 14.237l1.376.705c3.149-3.909 3.691-9.261 6.223-13.525 2.694-4.536 4.858-9.388 7.632-14.85 1.183 2.884 1.775 5.064 2.898 6.925 3.051 5.055 7.947 8.982 14.566 3.283 1.439-1.24 2.88-2.553 4.008-4.066 6.052-8.118 11.525-16.594 15.683-25.872.819-1.829 1.961-3.512 2.955-5.263l1.024.396c-.509 2.865-.914 5.753-1.545 8.591-3.041 13.678-4.565 27.49-3.797 41.511.207 3.772.304 7.587 2.358 11.212 3.423-1.36 3.55-4.072 3.62-6.928l-2.74.93c-1.13-8.535-1.974-16.704-.72-24.819 1.835-11.871 4.088-23.681 6.407-35.469.905-4.597 2.247-9.141 3.782-13.573 3.876-11.191 8.153-22.246 11.932-33.469 3.559-10.566 6.738-21.263 8.086-32.396.286-2.359.726-4.765-1.246-7.046M516.858 135.302c3.991.138 6.445-.705 8.005-3.023.67-.996 1.268-2.84.791-3.615-.671-1.091-2.532-2.325-3.605-2.109-2.261.455-4.53 1.548-6.42 2.904-1.051.754-2.196 3.006-1.786 3.792.641 1.226 2.568 1.78 3.015 2.051m-3.279 9.521c-1.002 2.202-2.03 4.393-3.001 6.608-2.021 4.61-4.395 9.11-5.913 13.882-1.658 5.209-1.72 10.572 2.028 15.94 1.129-1.25 2.252-2.08 2.82-3.194 2.048-4.021 4.047-8.078 5.813-12.228 3.674-8.634 7.188-17.336 10.766-26.011.322-.781.633-1.567 1.014-2.512-3.662-1.631-6.069 1.118-8.897 1.883-1.307-.684-2.585-1.431-3.925-2.042-3.703-1.687-4.741-4.96-2.062-7.953 2.859-3.195 6.549-5.141 11.026-5.033 2.149.053 3.456 1.269 4.355 3.174.851 1.803 1.797 3.496-.957 5.243 3.446 1.363 3.889 3.479 2.566 6.292-2.218 4.715-4.391 9.458-6.386 14.27-3.125 7.537-6.023 15.168-9.16 22.7-.859 2.064-2.038 4.061-3.402 5.835-2.717 3.536-5.182 3.076-6.762-1.029-2.351-6.112-2.423-12.252-.002-18.311 2.519-6.303 5.525-12.364 10.079-17.514M570.407 120.911c-.858 5.994-3.615 11.495-3.576 17.556 4.993.573 6.223.328 13.928-2.776-4.044 4.208-8.835 4.837-12.746 5.708-2.78 1.001-.236 4.76-3.535 4.842-1.436-3.074-2.821-6.036-4.454-9.529 4.001-.194 4.558-2.625 5.296-5.439.973-3.709 1.422-7.845 5.087-10.362M503.855 131.583c-3.955 4.114-6.935 7.611-8.173 12.328-1.459 5.561 3.2 8.106 6.783 12.312-7.388-2.556-10.03-5.612-9.885-10.349.188-6.165 4.861-12.628 11.275-14.291M393.808 125.028v16.65l4.625-2.139c-.038.482.096 1.081-.143 1.385-.83 1.056-1.635 2.255-2.735 2.945-1.778 1.116-3.762.459-4.034-1.571-.785-5.855-.776-11.717 1.167-17.322l1.12.052"/></g></svg>