<svg version="1.1" xmlns="http://www.w3.org/2000/svg" xmlns:xlink="http://www.w3.org/1999/xlink" x="0" y="0"
	 viewBox="0 0 97.7 80.4" width="97.7" height="80.4">
<path fill="#231F20" d="M79.6,26.9c-0.1-0.7-0.3-1.4-0.7-2.3l-1.1-2.1c-0.4-0.8-0.6-1.5-0.7-2.1c0-0.1,0-0.3,0-0.4
	c0-0.3,0.2-0.6,0.4-1c-0.2,0.1-0.3,0.2-0.4,0.3c-0.3,0.3-0.4,0.7-0.4,1.2c-0.1,0.4,0.2,1.6,0.8,2.3c-0.5,0-0.8,0-1,0.1
	c0.1,0.3,0.4,0.5,1,0.8c-0.5,0-0.8,0.3-0.8,0.8c0,0.2,0,0.3,0.1,0.5l0,0.1c0.2-0.4,0.4-0.5,0.8-0.5c0.3,0,0.7,0.1,1.1,0.6
	c0.5,0.5,0.7,1.1,0.8,1.8L79.6,26.9z"/>
<path fill="#231F20" d="M75,26.9c0.3-0.5,0.7-0.9,1.4-1.1c0.6-0.2,1.1-0.1,1.5,0.2c0.4,0.2,0.6,0.6,0.7,1c0.2,0.8-0.3,1.5-0.9,1.7
	c-0.4,0.1-0.6,0-0.7-0.3c-0.1-0.3,0.1-0.5,0.5-0.6c0.3-0.1,0.5-0.2,0.6-0.2c0.2-0.1,0.2-0.4,0.1-0.7c-0.1-0.3-0.3-0.6-0.5-0.7
	C77.4,26,77,26,76.4,26.1c-0.6,0.2-1,0.5-1.2,1c-0.2,0.4-0.2,0.9-0.1,1.3c0.2,0.6,0.5,1.1,1,1.3c0.6,0.3,1.4,0.3,2.4,0
	c0.5-0.1,1-0.4,1.6-0.8c0.4-0.3,1-0.8,1.8-1.4c0.7-0.6,1.2-1,1.5-1.2c0.5-0.3,1.1-0.6,1.9-0.8c0.6-0.2,1.2-0.2,1.9-0.1l2.3,0.4
	l0.7,0c0.3,0,0.6,0,0.9-0.1c0.2-0.1,0.4-0.1,0.7-0.3c-0.3,0.4-0.6,0.6-0.8,0.8c-0.3,0.2-0.6,0.4-1.1,0.5c-1.3,0.4-2.6,0-3.7-0.2
	c0.2,0.2,0.3,0.4,0.4,0.6c0.2,0.6-0.1,1-0.8,1.2c-0.6,0.1-1,0-1.3-0.4c0.2,0.1,0.3,0.1,0.5,0c0.3-0.1,0.5-0.3,0.4-0.6
	c-0.1-0.4-0.6-0.5-1.2-0.3c-0.4,0.1-1.2,0.6-2.4,1.4c-1.2,0.8-2.3,1.4-3.2,1.6c-1.1,0.3-2,0.2-2.7-0.2c-0.4-0.3-0.7-0.7-0.9-1.3
	C74.8,28,74.8,27.4,75,26.9"/>
<path fill="#231F20" d="M78.1,29.2c0.5-0.2,0.9-0.4,1.2-0.7c0.2-0.2,0.5-0.5,0.7-0.9c0.5-0.8,0.9-1.4,1.2-1.7
	c0.4-0.5,0.9-0.7,1.3-0.9c0.6-0.2,1.2-0.1,1.6,0.1c-0.2,0-0.4,0-0.6,0.1c-0.7,0.2-1.3,0.6-1.9,1.4l-0.8,1c-0.8,0.8-1.5,1.4-2.1,1.5
	l-0.2,0.1C78.2,29.2,78.1,29.2,78.1,29.2L78.1,29.2z"/>
<path fill="#231F20" d="M82.2,22.6c0-0.2,0.1-0.3,0-0.5C82.1,22,82,22,81.8,22c0,0-0.1,0-0.1,0c0,0,0,0,0.1-0.1
	c0.1-0.1,0.1-0.3,0-0.4c-0.1-0.1-0.3-0.1-0.4-0.2c-0.1-0.1-0.3-0.2-0.4-0.2c-0.1,0-0.3,0.1-0.3,0.3c0,0,0,0,0,0.1c0,0,0,0,0-0.1
	c-0.1-0.1-0.3-0.2-0.4-0.2c-0.1,0-0.2,0.2-0.3,0.3c-0.1,0.1-0.3,0.2-0.3,0.3c0,0.1,0,0.3,0.2,0.4c0.1,0,0.2,0.1,0.2,0.1
	c-0.1,0-0.2,0-0.2,0c-0.2,0.1-0.3,0.2-0.3,0.3c0,0.1,0.2,0.2,0.2,0.4c0.1,0.1,0.1,0.3,0.2,0.4c0.1,0.1,0.3,0,0.4-0.1
	c0.1-0.1,0.1-0.1,0.2-0.2c0,0.1,0,0.2,0,0.2c0,0.2,0.1,0.3,0.3,0.3c0.1,0.1,0.3-0.1,0.4-0.1c0.2,0,0.3,0,0.4-0.1
	c0.1-0.1,0.1-0.3,0-0.4c0-0.1-0.1-0.1-0.2-0.2c0.1,0,0.2,0.1,0.2,0.1c0.2,0,0.3,0,0.4-0.1C82.3,22.9,82.2,22.8,82.2,22.6 M81,22.9
	c-0.1,0-0.2,0.1-0.3,0.2c0-0.1,0-0.3-0.1-0.4c-0.1-0.1-0.2-0.2-0.3-0.2c0.1,0,0.3-0.1,0.3-0.2c0.1-0.1,0.1-0.2,0.1-0.3
	c0.1,0.1,0.2,0.2,0.2,0.2c0.1,0,0.2,0,0.3,0c-0.1,0.1-0.1,0.2-0.1,0.3c0,0.1,0,0.2,0.1,0.4C81.2,22.9,81.1,22.9,81,22.9"/>
<path fill="#231F20" d="M81,22.3c-0.1,0-0.2,0-0.3,0.1c0,0.1,0,0.2,0.2,0.3c0.1,0,0.2,0,0.3-0.2C81.1,22.5,81.1,22.4,81,22.3"/>
<path fill="#231F20" d="M18,26.9c0.1-0.7,0.3-1.4,0.7-2.3l1.1-2.1c0.4-0.8,0.6-1.5,0.7-2.1c0-0.1,0-0.3,0-0.4c0-0.3-0.1-0.6-0.4-1
	c0.2,0.1,0.3,0.2,0.4,0.3c0.3,0.3,0.4,0.7,0.4,1.2c0.1,0.4-0.2,1.6-0.8,2.3c0.5,0,0.8,0,1,0.1c-0.1,0.3-0.4,0.5-1,0.8
	c0.6,0,0.8,0.3,0.8,0.8c0,0.2,0,0.3-0.1,0.5l0,0.1c-0.2-0.4-0.4-0.5-0.8-0.5c-0.3,0-0.7,0.1-1.1,0.6c-0.5,0.5-0.7,1.1-0.8,1.8
	L18,26.9z"/>
<path fill="#231F20" d="M22.6,26.9c-0.3-0.5-0.7-0.9-1.4-1.1c-0.6-0.2-1.1-0.1-1.5,0.2c-0.4,0.2-0.6,0.6-0.7,1
	c-0.2,0.8,0.3,1.5,0.9,1.7c0.4,0.1,0.6,0,0.7-0.3c0.1-0.3-0.1-0.5-0.5-0.6c-0.3-0.1-0.5-0.2-0.6-0.2c-0.2-0.1-0.2-0.4-0.1-0.7
	c0.1-0.3,0.3-0.6,0.5-0.7c0.3-0.2,0.8-0.3,1.3-0.1c0.6,0.2,1,0.5,1.2,1c0.2,0.4,0.2,0.9,0.1,1.3c-0.2,0.6-0.5,1.1-1,1.3
	C20.8,30,20,30,19,29.7c-0.5-0.1-1-0.4-1.6-0.8c-0.4-0.3-1-0.8-1.8-1.4c-0.7-0.6-1.2-1-1.5-1.2c-0.5-0.3-1.1-0.6-1.9-0.8
	c-0.6-0.2-1.2-0.2-1.9-0.1l-2.3,0.4l-0.7,0c-0.3,0-0.6,0-0.9-0.1c-0.2-0.1-0.4-0.1-0.7-0.3c0.3,0.4,0.6,0.6,0.8,0.8
	c0.3,0.2,0.6,0.4,1.1,0.5c1.3,0.4,2.6,0,3.7-0.2c-0.2,0.2-0.3,0.4-0.4,0.6c-0.2,0.6,0.1,1,0.8,1.2c0.6,0.1,1,0,1.3-0.4
	c-0.2,0.1-0.3,0.1-0.5,0c-0.3-0.1-0.5-0.3-0.4-0.6c0.1-0.4,0.6-0.5,1.2-0.3c0.4,0.1,1.2,0.6,2.4,1.4c1.2,0.8,2.3,1.4,3.2,1.6
	c1.1,0.3,2,0.2,2.7-0.2c0.4-0.3,0.7-0.7,0.9-1.3C22.8,28,22.8,27.4,22.6,26.9"/>
<path fill="#231F20" d="M19.5,29.2c-0.5-0.2-0.9-0.4-1.2-0.7c-0.2-0.2-0.5-0.5-0.7-0.9c-0.5-0.8-0.9-1.4-1.2-1.7
	c-0.4-0.5-0.9-0.7-1.3-0.9c-0.6-0.2-1.2-0.1-1.6,0.1c0.2,0,0.4,0,0.6,0.1c0.7,0.2,1.3,0.6,1.9,1.4l0.8,1c0.8,0.8,1.5,1.4,2.1,1.5
	l0.2,0.1C19.3,29.2,19.4,29.2,19.5,29.2L19.5,29.2z"/>
<path fill="#231F20" d="M15.4,23.1c0.1,0.1,0.2,0.2,0.4,0.1c0.1,0,0.2-0.1,0.2-0.1c-0.1,0.1-0.1,0.1-0.2,0.2c-0.1,0.2-0.1,0.3,0,0.4
	c0.1,0.1,0.3,0.1,0.4,0.1c0.2,0,0.3,0.2,0.4,0.1c0.1,0,0.2-0.2,0.3-0.3c0-0.1,0-0.2,0-0.2c0,0.1,0.1,0.1,0.2,0.2
	c0.1,0.1,0.3,0.1,0.4,0.1c0.1-0.1,0.1-0.3,0.2-0.4c0.1-0.1,0.3-0.2,0.2-0.4c0-0.1-0.1-0.3-0.3-0.3c-0.1,0-0.2,0-0.2,0
	c0.1,0,0.2-0.1,0.2-0.1c0.2-0.1,0.2-0.2,0.2-0.4c0-0.2-0.2-0.2-0.3-0.3c-0.1-0.1-0.1-0.3-0.3-0.3c-0.1,0-0.3,0-0.4,0.2
	c0,0,0,0,0,0.1c0,0,0,0,0-0.1c0-0.2-0.1-0.3-0.3-0.3c-0.1,0-0.3,0.1-0.4,0.2c-0.1,0.1-0.3,0-0.4,0.2c-0.1,0.1-0.1,0.3,0,0.4
	c0,0,0,0,0.1,0.1c0,0-0.1,0-0.1,0c-0.2,0-0.3,0-0.4,0.2c-0.1,0.1,0,0.3,0,0.5C15.4,22.8,15.3,22.9,15.4,23.1 M16.2,22.9
	c0.1-0.1,0.1-0.2,0.1-0.4c0-0.1,0-0.2-0.1-0.3c0.1,0,0.2,0,0.3,0c0.1,0,0.2-0.1,0.2-0.2c0,0.1,0.1,0.2,0.1,0.3
	c0.1,0.1,0.2,0.1,0.3,0.2c-0.1,0.1-0.2,0.1-0.3,0.2c-0.1,0.1-0.1,0.2-0.1,0.4c-0.1-0.1-0.2-0.2-0.3-0.2
	C16.5,22.9,16.3,22.9,16.2,22.9"/>
<path fill="#231F20" d="M16.6,22.3c0.1,0,0.2,0,0.3,0.1c0,0.1,0,0.2-0.2,0.3c-0.1,0-0.2,0-0.3-0.2C16.4,22.5,16.5,22.4,16.6,22.3"/>
<path fill="#231F20" d="M83,57.7c-0.2-0.1-0.3,0.2-0.5,0.6c-0.1,0.3-0.2,0.5-0.3,0.7c-0.1,0.1-0.2,0.3-0.5,0.6
	c-0.1,0.1-0.2,0.2-0.3,0.3c0,0-0.1,0.1-0.1,0.1c-0.6,0.4-1.5,0.7-2.7,1c-1,0.1-1.9,0.3-2.9,0.4c-1,0.2-1.8,0.5-2.5,1
	c-0.7,0.5-1.3,1.2-1.6,2l0.1,0.1c0.2-0.4,0.5-0.7,0.9-1c1.1-0.8,2.5-0.6,3.4,0.7c0.5,0.7,0.7,1.3,0.5,1.8c-0.1,0.5-0.4,0.9-0.8,1.2
	c-0.6,0.4-1,0.3-1.3-0.1c-0.1-0.1-0.1-0.3,0-0.4c0.2-0.3,0.2-0.6,0.1-0.7c-0.1-0.2-0.3-0.2-0.5-0.1c-0.4,0.3-0.5,0.9-0.2,1.3
	c0.4,0.5,1.3,0.7,2,0.2c0.6-0.4,0.9-0.9,1.1-1.4c0.2-0.7,0.1-1.4-0.4-2c-0.7-1-2.1-1.4-3.5-0.9l0-0.1c0.8-0.4,1.6-0.5,2.4-0.5
	c0.4,0,0.9,0.1,1.7,0.4c0.7,0.3,1.3,0.6,1.7,1.2c0.1-0.1,0.2-0.2,0.2-0.2c0.1-0.2,0.1-0.5-0.1-0.8c0-0.1-0.1-0.1-0.3-0.3
	c0.9,0.3,1.7,0.2,2.4-0.3c0.4-0.3,0.7-0.7,0.8-1.2c-0.6,0.5-1.9,0.7-3,0.7c-0.9,0-1.9-0.1-2.8-0.1c-1.3,0.1-2.3,0.4-3.1,1
	c0.1-0.2,0.3-0.3,0.4-0.4c0.7-0.5,1.8-0.9,2.7-1l1.9-0.2c1.6-0.2,2.8-0.6,3.6-1.2c0.1-0.1,0.2-0.1,0.3-0.2c0,0,0,0,0,0
	c0.4-0.3,0.8-0.7,1.1-1.1c0.1-0.2,0.2-0.4,0.3-0.5C83.3,58,83.3,57.8,83,57.7"/>
<path fill="#231F20" d="M12.8,57.7c0.2-0.1,0.3,0.2,0.5,0.6c0.1,0.3,0.2,0.5,0.3,0.7c0.1,0.1,0.2,0.3,0.5,0.6
	c0.1,0.1,0.2,0.2,0.3,0.3c0,0,0.1,0.1,0.1,0.1c0.6,0.4,1.5,0.7,2.7,1c1,0.1,1.9,0.3,2.9,0.4c1,0.2,1.8,0.5,2.5,1
	c0.7,0.5,1.3,1.2,1.6,2l-0.1,0.1c-0.2-0.4-0.5-0.7-0.9-1c-1.1-0.8-2.5-0.6-3.4,0.7c-0.5,0.7-0.7,1.3-0.5,1.8
	c0.1,0.5,0.4,0.9,0.8,1.2c0.6,0.4,1,0.3,1.3-0.1c0.1-0.1,0.1-0.3,0-0.4c-0.2-0.3-0.2-0.6-0.1-0.7c0.1-0.2,0.3-0.2,0.5-0.1
	c0.4,0.3,0.5,0.9,0.2,1.3c-0.4,0.5-1.3,0.7-2,0.2c-0.6-0.4-0.9-0.9-1.1-1.4c-0.2-0.7-0.1-1.4,0.4-2c0.7-1,2.1-1.4,3.5-0.9l0-0.1
	c-0.8-0.4-1.6-0.5-2.4-0.5c-0.4,0-0.9,0.1-1.7,0.4c-0.7,0.3-1.3,0.6-1.7,1.2c-0.1-0.1-0.2-0.2-0.2-0.2c-0.1-0.2-0.1-0.5,0.1-0.8
	c0-0.1,0.1-0.1,0.3-0.3c-0.9,0.3-1.7,0.2-2.4-0.3c-0.4-0.3-0.7-0.7-0.8-1.2c0.6,0.5,1.9,0.7,3,0.7c0.9,0,1.9-0.1,2.8-0.1
	c1.3,0.1,2.3,0.4,3.1,1c-0.1-0.2-0.3-0.3-0.4-0.4c-0.7-0.5-1.8-0.9-2.7-1l-1.9-0.2c-1.6-0.2-2.8-0.6-3.6-1.2
	C14,60.1,14,60,13.9,59.9c0,0,0,0,0,0c-0.4-0.3-0.8-0.7-1.1-1.1c-0.1-0.2-0.2-0.4-0.3-0.5C12.4,58,12.5,57.8,12.8,57.7"/>
<path fill="#231F20" d="M51.5,45.4l-0.2-0.1l0.2-0.3c0.6-1,1.2-2,1.4-3l0.2,0.1c-0.2,1-0.8,2.1-1.5,3.1L51.5,45.4z"/>
<path fill="#231F20" d="M51.7,29.4c0,0.2-0.1,0.3-0.3,0.3c-0.1,0-0.3-0.1-0.3-0.3c0-0.2,0.1-0.3,0.3-0.3
	C51.6,29.1,51.7,29.3,51.7,29.4"/>
<path fill="#231F20" d="M59.1,41.3L59.1,41.3c-1.6,0-3.9-1.7-5-2.9l-0.2,0.2c1.1,1.2,3.5,2.9,5.2,2.9c0.3,0,0.6-0.1,0.8-0.2l0.1-0.1
	l-0.1-0.1C59.8,41.1,59.3,41.3,59.1,41.3"/>
<path fill="#231F20" d="M54.4,38.4c0,0.2-0.1,0.3-0.3,0.3c-0.2,0-0.3-0.1-0.3-0.3c0-0.2,0.1-0.3,0.3-0.3
	C54.3,38.1,54.4,38.2,54.4,38.4"/>
<path fill="#231F20" d="M43.5,52.4c0,0.2-0.1,0.3-0.3,0.3c-0.2,0-0.3-0.1-0.3-0.3c0-0.2,0.1-0.3,0.3-0.3
	C43.4,52.1,43.5,52.2,43.5,52.4"/>
<path fill="#231F20" d="M53.1,42c0,0.2-0.1,0.3-0.3,0.3c-0.2,0-0.3-0.1-0.3-0.3c0-0.2,0.1-0.3,0.3-0.3C53,41.7,53.1,41.8,53.1,42"/>
<path fill="#231F20" d="M47.9,39.6c-0.4-0.5-0.6-0.9-0.8-1.1c-0.3-0.3-0.5-0.6-0.7-0.9c-0.6-0.8-0.9-1.3-1-1.7
	c0-0.5,0.2-0.8,0.6-0.9c0.4,0,0.8,0.2,0.8,0.6c0,0.4-0.1,0.6-0.3,0.6c-0.1,0-0.1,0-0.2,0c0-0.1,0.1-0.2,0-0.4c0-0.2-0.1-0.3-0.3-0.3
	c-0.2,0-0.3,0.2-0.3,0.5c0,0.3,0.3,0.5,0.6,0.5c0.4,0,0.6-0.4,0.6-0.8c0-0.6-0.5-0.9-1.1-0.9c-0.4,0-0.6,0.2-0.7,0.5
	c-0.1,0.2-0.1,0.5-0.1,0.8c0,0.3,0.3,0.8,0.7,1.8c0.1,0.5,0.2,1,0.4,1.4c0.2,0.4,0.8,0.7,1.3,1c0.4,0.2,0.8,0.6,1.1,1l0.1,0.2
	C48.7,41.1,48.7,40.6,47.9,39.6 M47.1,39.7c-0.1-0.1-0.3-0.2-0.4-0.4c-0.2-0.3-0.3-0.5-0.3-0.9l0.3,0.4l0.3,0.3
	c0.3,0.3,0.5,0.6,0.8,0.9C47.4,39.8,47.2,39.7,47.1,39.7"/>
<path fill="#231F20" d="M63.7,50.4c-0.6,0-0.9-0.2-1.4-0.7c0,0-0.7-0.5-0.7-0.5c-0.2-0.1-0.4-0.3-0.5-0.5c-0.1-0.3,0.1-0.5,0.3-0.5
	c0,0.2,0,0.3,0,0.4c0,0,0,0.1,0.1,0.1c0.1,0.1,0.2,0.1,0.3,0c0.2-0.1,0.2-0.2,0.1-0.5c-0.1-0.2-0.4-0.4-0.6-0.3
	c-0.2,0.1-0.5,0.4-0.3,0.8c0,0.1,0.1,0.1,0.1,0.2c-0.4-0.1-0.8-0.2-1.2-0.2c-0.4,0-0.7,0-1,0.1c-0.1,0-0.1,0-0.2,0l-0.2,0
	c-0.1-0.1-0.2-0.1-0.3-0.1c0,0,0,0-0.1,0c-0.2,0-0.3,0.2-0.4,0.3c-0.2,0.1-0.4,0.1-0.6,0.1c-0.6,0-1-0.3-1-0.6
	c0-0.2,0.1-0.3,0.2-0.3c0.1,0,0.1,0,0.1,0s0,0,0,0c-0.1,0.1-0.1,0.1-0.1,0.2c0,0.1,0.1,0.2,0.3,0.2c0.2,0,0.3-0.1,0.3-0.4
	c0-0.2-0.2-0.4-0.4-0.4h0c-0.4-0.1-0.6,0.2-0.6,0.6c0,0.5,0.5,0.8,1.4,0.8c0.2,0,0.4,0,0.6-0.1c0.1,0.1,0.1,0.1,0.3,0.1
	c0,0,0.1,0,0.1,0c0.2,0,0.3-0.2,0.3-0.3c0.1,0,0.2-0.1,0.3-0.1c0.2,0,0.5,0,0.9,0c0.2,0,0.4,0,0.7,0.1c-0.2,0-0.4,0.1-0.5,0.2
	c-0.3,0.2-0.5,0.5-0.5,0.8c0,0.3,0.2,0.6,0.5,0.6c0.3,0,0.5-0.2,0.5-0.4c0-0.2-0.1-0.3-0.3-0.3c-0.2,0-0.3,0.1-0.3,0.2
	c0,0.1,0.1,0.2,0.2,0.2c0,0,0,0,0,0c0,0,0,0-0.1,0c-0.1,0-0.3,0-0.3-0.4c0-0.3,0.2-0.5,0.6-0.6c0.2-0.1,0.5-0.1,0.6-0.1
	c0.2,0,0.5,0.1,0.7,0.2l0.7,0.5c0.3,0.2,0.5,0.3,0.6,0.4C63.2,50.7,63.7,50.4,63.7,50.4"/>
<path fill="#231F20" d="M38.3,36.5c-1.1,0.2-1.8,0.3-2.3,0.3c-0.5,0-0.8,0-1.1-0.1c0,0-0.1,0-0.1,0l-0.1-0.1
	c-0.2-0.1-0.2-0.2-0.2-0.3c0,0,0.1-0.1,0.2-0.1c0.1,0,0.1-0.1,0.1-0.1c0.1-0.2,0-0.3-0.1-0.4c-0.2-0.1-0.5,0-0.6,0.3
	c-0.2,0.4,0.1,0.8,0.5,1c0.2,0.1,0.5,0.2,1,0.2l0,0.1c-0.4,0.2-0.9,0.5-1.5,1c-0.7,0.6-1.2,1.2-1.4,1.8c-0.1,0.2-0.2,0.5-0.4,0.8
	c-0.2,0.4-0.3,0.7-0.4,0.8c-0.6,1.2-1.2,2-1.7,1.9l0,0.2c0,0.1,0.1,0.2,0.2,0.3c0.2,0.1,0.5,0,0.8-0.4c0.1-0.2,0.3-0.5,0.5-0.8
	l0.5-1.2l0.1,0c-0.1,1.2,0.4,2,1.2,2.5c0.8,0.4,1.7,0.2,2.2-0.7c0.4-0.8,0.1-1.6-0.5-1.9c-0.7-0.3-1.3-0.1-1.6,0.5
	c-0.2,0.4-0.1,0.9,0.3,1.1c0.3,0.1,0.6,0.1,0.8-0.2c0.1-0.3,0-0.4-0.2-0.5c-0.3-0.1-0.5,0-0.6,0.3c-0.1-0.1-0.2-0.3,0-0.6
	c0.1-0.2,0.2-0.3,0.4-0.4c0.2-0.1,0.5-0.1,0.8,0.1c0.6,0.3,0.7,1,0.4,1.5c-0.4,0.9-1.2,1-1.9,0.7c-0.7-0.4-1.1-1-1.1-1.8
	c0-0.6,0.2-1.3,0.5-2.1c0.5-0.9,1.2-1.7,2.2-2.3c0.8-0.5,1.4-0.8,2.1-0.9l0.1,0.1l-1.2,0.6c-0.8,0.4-1.3,1-1.6,1.6
	c-0.2,0.4-0.2,0.8-0.1,1.2c0.1,0.1,0.1,0.2,0.2,0.3c0.1,0-0.1-0.6,0.1-0.9c0-0.1,0.1-0.1,0.2-0.2c0.3-0.1,0.4-0.2,0.5-0.3
	c0.3-0.2,0.4-0.3,0.7-1c0,0.2,0.1,0.4,0.2,0.4c0.1,0.1,0.3,0.1,0.5-0.2c0-0.1,0.2-0.4,0.2-0.5c0.1-0.2,0.5-0.9,1.5-1.2
	c0.1-0.1,0.3-0.1,0.4-0.1C38.6,36.7,38.5,36.6,38.3,36.5"/>
<path fill="#231F20" d="M31.2,45.1c0.3-0.6,0.5-1.5,0.6-2.3l0.3,0c0,0.5,0.1,1,0.3,1.5c0.2,0.5,0.4,0.8,0.5,0.9
	c0.1,0.1,0.2,0.1,0.3,0.1c0.1,0,0.3-0.1,0.4-0.2c0,0.2,0,0.3-0.1,0.4c-0.1,0.2-0.4,0.3-0.6,0.2c-0.2-0.1-0.3-0.3-0.5-0.6
	c-0.1-0.2-0.2-0.5-0.3-0.9l-0.1,0.1l0.6,2l-0.2,1.8l-0.7-1.7l0.1-2.1l-0.1,0c0,0.5-0.1,1-0.3,1.3c-0.2,0.3-0.5,0.4-0.6,0.3
	c-0.1,0-0.2-0.1-0.2-0.2c0,0-0.1-0.1-0.1-0.1C30.9,45.5,31.1,45.4,31.2,45.1"/>
<path fill="#231F20" d="M26.1,42.6c-0.2-0.5,0.3-1,1.1-1.3c0.2-0.1,0.5-0.2,0.7-0.2c0-0.1,0.1-0.2,0.3-0.3c0.2,0,0.4,0,0.4,0.2
	c0.1,0,0.2,0,0.4,0c0.3,0,0.6-0.1,1-0.3c0.3-0.1,0.8-0.3,1-0.5c-0.4,0.1-0.7,0.1-1,0c-0.4-0.1-0.7-0.3-0.8-0.6
	c-0.1-0.3,0-0.6,0.3-0.7c0.3-0.1,0.5,0.1,0.6,0.3c0.1,0.2,0,0.3-0.1,0.4c-0.1,0.1-0.2,0-0.3-0.1c0-0.1,0-0.2,0.1-0.3
	c0-0.1-0.1-0.2-0.2-0.1c-0.2,0.1-0.3,0.2-0.2,0.6c0.1,0.3,0.4,0.5,0.9,0.5c0.3,0,0.6-0.1,0.7-0.1c0.2-0.1,0.5-0.3,0.7-0.5l0.6-0.8
	c0.2-0.3,0.4-0.5,0.5-0.6c0.3-0.4,0.7-0.6,1.3-0.8c0,0,0,0,0,0c0,0.1-0.1,0.2-0.1,0.2c-0.7,0.2-1.2,0.8-1.6,1.5
	c-0.1,0.1-0.1,0.2-0.1,0.4c0,0.1-0.1,0.2-0.2,0.3c0,0,0-0.1,0-0.1l-0.1,0c-0.2,0.4-1,1.1-1.9,1.4c-0.4,0.1-0.8,0.2-1,0.3
	c-0.1,0-0.1,0-0.2,0l-0.3,0c0,0.1-0.1,0.2-0.3,0.2c-0.2,0-0.4,0-0.5-0.2c-0.2,0-0.5,0.1-0.8,0.1c-0.7,0.2-1.1,0.7-0.9,1.2
	c0.1,0.2,0.2,0.3,0.4,0.3c0.1,0,0.1-0.1,0.1-0.1c0,0,0,0-0.1-0.1c-0.1,0-0.2-0.1-0.2-0.2c0-0.1,0-0.2,0.2-0.2c0.2-0.1,0.3,0,0.4,0.2
	c0.1,0.2-0.1,0.5-0.2,0.5C26.5,43.1,26.2,42.9,26.1,42.6"/>
<path fill="#231F20" d="M27.1,37.6l0.1,0.2l-0.3,0.3c-0.2,0.2-0.4,0.3-0.5,0.3l-0.1-0.2c0.1,0,0.2-0.1,0.5-0.3L27.1,37.6z"/>
<polygon fill="#231F20" points="25.6,37 26.2,36.6 26.4,36.7 25.7,37.2 "/>
<polygon fill="#231F20" points="25.3,36.4 25.7,36.2 25.8,36.3 25.4,36.5 "/>
<polygon fill="#231F20" points="25.2,36.1 25.4,36 25.6,36.1 25.2,36.3 "/>
<polygon fill="#231F20" points="25,35.7 25.3,35.9 25.1,35.9 "/>
<polygon fill="#231F20" points="26.6,36.9 25.8,37.5 25.8,37.3 26.4,36.8 "/>
<polygon fill="#231F20" points="25.4,36.7 26,36.4 26.1,36.5 25.5,36.9 "/>
<polygon fill="#231F20" points="26.8,37.2 26,37.8 25.9,37.6 26.7,37 "/>
<polygon fill="#231F20" points="27,37.5 26.2,38.1 26.1,37.9 26.9,37.3 "/>
<path fill="#231F20" d="M29,39.6l-0.2,0.2c-0.4,0.6-1.1,0.8-1.9,0.8c0.3-0.3,0.6-1,1.5-1.2c0.4-0.2,0.7-0.3,0.8-0.3l-0.3,0
	c-0.4,0-0.6,0-0.9-0.1c-0.3,0-0.6-0.1-0.8-0.2c-0.1-0.1-0.3-0.2-0.4-0.3l0.7-0.5c0.2,0.4,0.2,0.5,0.5,0.6c0.1,0.1,0.3,0.1,0.7,0.2
	c0.1,0,0.3,0,0.5,0.1c-0.2-0.1-0.5-0.3-0.7-0.4c-0.6-0.4-1-0.8-1.1-1.1c-0.1-0.4-0.2-0.7-0.3-0.9c-0.1-0.2-0.2-0.4-0.3-0.6l0.7,0.4
	c0.5,0.3,0.8,0.7,0.8,1l0.3,0.9c0.1,0.2,0.2,0.4,0.4,0.5c0.1,0.1,0.4,0.2,0.4,0.2c-0.2-0.5-0.5-1-0.4-1.3c0.1-0.1,0.3-0.4,0.3-0.3
	c0.1,0.2,0.3,0.5,0.3,0.6c0.1,0.2,0,0.4,0,0.8c0,0.2-0.1,0.3-0.1,0.3c-0.2,0.1-0.2,0.2-0.3,0.3C29.1,39.4,29,39.6,29,39.6"/>
<path fill="#231F20" d="M27.7,32.7c-0.9-0.2-1.5-0.3-1.9-0.4c-0.4-0.1-0.7-0.2-0.8-0.4c0,0-0.1,0-0.1-0.1l-0.1-0.1
	c-0.1-0.1-0.1-0.2-0.1-0.3c0,0,0.1,0,0.2,0c0.1,0,0.1,0,0.1,0c0.1-0.1,0.1-0.2,0-0.4c-0.2-0.2-0.4-0.1-0.5,0c-0.3,0.2-0.2,0.7,0.1,1
	c0.1,0.1,0.4,0.3,0.7,0.5l0,0.1c-0.4,0-0.9,0.1-1.5,0.4c-0.7,0.3-1.3,0.6-1.7,1c-0.1,0.1-0.3,0.3-0.6,0.5c-0.2,0.2-0.4,0.4-0.6,0.5
	c-0.8,0.8-1.5,1.2-1.9,1l0,0.2c0,0.1,0,0.2,0.1,0.3c0.1,0.2,0.4,0.1,0.7-0.1c0.2-0.1,0.4-0.3,0.6-0.5l0.8-0.8l0,0
	c-0.4,0.9-0.3,1.7,0.3,2.3c0.5,0.6,1.3,0.7,1.9,0.1c0.5-0.5,0.5-1.2,0.1-1.7c-0.4-0.5-1-0.5-1.4-0.1c-0.3,0.2-0.3,0.7,0,1
	c0.2,0.2,0.5,0.3,0.7,0.1c0.1-0.2,0.2-0.3,0-0.5c-0.2-0.2-0.4-0.1-0.6,0.1c-0.1-0.1-0.1-0.3,0.1-0.5c0.1-0.1,0.3-0.2,0.4-0.2
	c0.2,0,0.4,0.1,0.6,0.3c0.4,0.4,0.3,1-0.1,1.3c-0.6,0.6-1.3,0.4-1.7,0c-0.5-0.5-0.6-1.1-0.3-1.8c0.2-0.5,0.5-1,1-1.5
	c0.6-0.6,1.4-1,2.4-1.2c0.7-0.2,1.4-0.2,1.9-0.1l0,0.1l-1.1,0.1c-0.7,0.1-1.3,0.4-1.7,0.8c-0.2,0.2-0.4,0.5-0.5,0.9
	c0,0.1,0.1,0.2,0.1,0.3c0.1,0,0.1-0.5,0.3-0.7c0.1,0,0.1-0.1,0.2-0.1c0.2,0,0.4,0,0.5-0.1c0.3,0,0.4-0.1,0.8-0.5
	c0,0.2,0,0.3,0.1,0.4c0.1,0.1,0.2,0.2,0.4,0c0,0,0.2-0.2,0.3-0.3c0.2-0.2,0.7-0.5,1.5-0.5c0.1,0,0.2,0,0.4,0
	C27.9,33,27.8,32.8,27.7,32.7"/>
<path fill="#231F20" d="M19.6,37.4c0.4-0.4,0.8-1.1,1.2-1.6l0.2,0c-0.1,0.4-0.2,0.8-0.2,1.3c0,0.4,0.1,0.7,0.2,0.8
	c0.1,0.1,0.2,0.2,0.2,0.2c0.1,0.1,0.2,0,0.4-0.1c-0.1,0.1-0.1,0.2-0.2,0.3c-0.2,0.2-0.4,0.1-0.5,0c-0.1-0.1-0.2-0.3-0.2-0.6
	c0-0.2,0-0.5,0-0.8l-0.1,0l-0.1,1.8l-0.7,1.4l-0.1-1.5l0.7-1.6l-0.1-0.1c-0.2,0.4-0.4,0.7-0.6,0.9c-0.2,0.2-0.5,0.2-0.6,0.1
	c-0.1-0.1-0.1-0.2-0.1-0.2c0,0,0-0.1,0-0.1C19.2,37.6,19.4,37.6,19.6,37.4"/>
<path fill="#231F20" d="M62.6,33.1c1.2,0,2.1-0.1,2.5-0.1c0.5-0.1,0.9-0.2,1.1-0.3c0,0,0.1,0,0.1-0.1l0.1-0.1
	c0.2-0.1,0.2-0.3,0.1-0.4c0,0-0.1-0.1-0.2-0.1c-0.1,0-0.1-0.1-0.1-0.1c-0.1-0.2-0.1-0.4,0.1-0.5c0.2-0.2,0.5-0.1,0.7,0.1
	c0.3,0.4,0.1,0.9-0.4,1.2c-0.2,0.2-0.5,0.3-1,0.5l0,0.1c0.5,0.1,1.1,0.4,1.9,0.8c0.9,0.5,1.5,1,2,1.6c0.1,0.2,0.3,0.4,0.6,0.8
	c0.3,0.4,0.5,0.6,0.6,0.8c1,1.2,1.7,1.9,2.3,1.7l0,0.2c0,0.1,0,0.3-0.1,0.3c-0.2,0.2-0.5,0.1-0.9-0.3c-0.2-0.2-0.4-0.4-0.7-0.8
	l-0.8-1.1l-0.1,0c0.4,1.3,0.1,2.3-0.8,3c-0.8,0.6-1.8,0.6-2.5-0.3c-0.6-0.7-0.5-1.7,0.2-2.2c0.6-0.5,1.4-0.4,1.9,0.1
	c0.3,0.4,0.2,0.9-0.1,1.3c-0.3,0.2-0.7,0.3-0.9,0c-0.2-0.3-0.1-0.5,0.1-0.6c0.3-0.2,0.6-0.1,0.7,0.2c0.1-0.1,0.2-0.3-0.1-0.7
	c-0.1-0.2-0.3-0.3-0.5-0.3c-0.3-0.1-0.5,0-0.8,0.3c-0.6,0.5-0.6,1.2-0.2,1.8c0.7,0.8,1.6,0.8,2.2,0.3c0.7-0.6,1-1.3,0.8-2.2
	c-0.1-0.7-0.5-1.4-1-2.1c-0.7-0.9-1.7-1.6-2.9-2c-0.9-0.4-1.8-0.5-2.5-0.5l-0.1,0.1l1.4,0.4c0.9,0.3,1.6,0.7,2.1,1.3
	c0.3,0.4,0.4,0.8,0.4,1.3c-0.1,0.1-0.1,0.2-0.2,0.3c-0.1,0-0.1-0.6-0.3-1c-0.1-0.1-0.1-0.1-0.3-0.2c-0.3-0.1-0.5-0.1-0.6-0.2
	c-0.4-0.1-0.5-0.3-1-0.9c0,0.3,0,0.4-0.2,0.5c-0.1,0.1-0.3,0.2-0.5-0.1c0-0.1-0.3-0.3-0.3-0.5c-0.2-0.2-0.8-0.8-1.8-0.9
	c-0.1,0-0.3,0-0.5-0.1C62.2,33.4,62.4,33.3,62.6,33.1"/>
<path fill="#231F20" d="M72.1,40.9c-0.4-0.6-0.9-1.6-1.2-2.3l-0.3,0c0.1,0.5,0.1,1.1,0,1.7c-0.1,0.5-0.2,0.9-0.4,1
	c-0.1,0.1-0.2,0.2-0.3,0.2c-0.2,0.1-0.3,0-0.5-0.1c0,0.2,0.1,0.3,0.2,0.4c0.2,0.2,0.5,0.3,0.7,0.1c0.2-0.1,0.3-0.4,0.4-0.8
	c0-0.3,0.1-0.6,0.1-1l0.1,0l-0.2,2.3l0.6,1.9l0.4-2l-0.5-2.3l0.1-0.1c0.2,0.6,0.4,1.1,0.6,1.3c0.2,0.3,0.6,0.3,0.8,0.2
	c0.1-0.1,0.2-0.2,0.2-0.3c0,0,0.1-0.1,0.1-0.2C72.6,41.2,72.4,41.1,72.1,40.9"/>
<path fill="#231F20" d="M77.1,37c0.1-0.6-0.5-1-1.5-1.2c-0.2,0-0.6,0-0.8,0c0-0.1-0.2-0.2-0.4-0.2c-0.2,0-0.4,0.1-0.4,0.3
	c-0.1,0-0.3,0.1-0.4,0.1c-0.3,0-0.7,0-1.1-0.1c-0.4,0-0.9-0.2-1.2-0.3c0.4,0,0.8,0,1.1-0.2c0.4-0.2,0.7-0.5,0.7-0.9
	c0-0.4-0.2-0.7-0.5-0.7c-0.4,0-0.6,0.2-0.6,0.4c0,0.2,0.1,0.4,0.2,0.4c0.2,0,0.3,0,0.3-0.1c0-0.1-0.1-0.2-0.2-0.3
	c0-0.1,0-0.2,0.2-0.2c0.2,0,0.4,0.2,0.3,0.6c0,0.4-0.3,0.6-0.8,0.7c-0.3,0-0.7,0.1-0.8,0.1c-0.3,0-0.6-0.2-0.9-0.4l-0.8-0.8
	c-0.3-0.3-0.5-0.5-0.6-0.6c-0.4-0.3-0.9-0.5-1.5-0.6c0,0,0,0,0,0c0,0.1,0.1,0.2,0.1,0.3c0.8,0.1,1.5,0.6,2.1,1.2
	c0.1,0.1,0.2,0.2,0.2,0.4c0.1,0.1,0.2,0.2,0.2,0.2c0,0,0-0.1,0-0.1l0.1,0c0.3,0.4,1.4,0.9,2.4,1c0.5,0.1,0.9,0.1,1.2,0.1
	c0.1,0,0.1,0,0.2,0l0.3,0c0.1,0.1,0.2,0.2,0.4,0.2c0.3,0,0.4-0.1,0.5-0.3c0.2,0,0.5-0.1,0.9,0c0.8,0.1,1.3,0.5,1.3,1
	c0,0.3-0.2,0.4-0.4,0.4c-0.1,0-0.2-0.1-0.2-0.1c0,0,0-0.1,0.1-0.1c0.1,0,0.2-0.1,0.2-0.2c0-0.1-0.1-0.2-0.3-0.2
	c-0.2,0-0.4,0.1-0.4,0.4c0,0.2,0.2,0.5,0.4,0.5C76.8,37.7,77.1,37.4,77.1,37"/>
<path fill="#231F20" d="M65,36.3c-0.1-0.3-0.4-0.5-0.7-0.4c-0.2,0.1-0.4,0.3-0.3,0.5c0.1,0.2,0.2,0.3,0.4,0.3c0.1,0,0.2-0.1,0.2-0.3
	c0-0.2,0-0.2,0-0.2c0.1,0,0.2,0,0.3,0.2c0.1,0.2,0,0.4-0.1,0.5c-0.1,0.1-0.2,0.2-0.4,0.2c-0.2,0.1-0.4,0.1-0.7,0.1
	c0,0.1,0,0.1,0,0.2c0.3,0,0.5,0,0.7,0C64.9,37.1,65.1,36.7,65,36.3"/>
<path fill="#231F20" d="M63.4,37.1c-0.2-0.1-0.5-0.2-0.9-0.3c-0.6-0.3-0.7-0.3-0.9-0.2l-0.3-0.1c0.2-0.1,0.3-0.1,0.5-0.2
	C62,36,62,35.9,62,35.7c-0.1-0.2-0.3-0.3-0.4-0.3c-0.2,0.1-0.3,0.2-0.3,0.4c0,0.1,0.1,0.2,0.2,0.2c0.2,0,0-0.4,0.2-0.4
	c0.1,0,0.1,0.1,0.2,0.2c0,0.2-0.2,0.3-0.5,0.4c0,0-0.1,0-0.3,0.1c-0.3,0-0.8,0-1.2,0.1c-0.6,0.2-1.1,0.6-1.3,0.9c0-0.1,0-0.2,0-0.3
	c-0.1-0.3-0.4-0.5-0.8-0.4c-0.1,0-0.3,0.1-0.3,0.3c-0.1,0.1-0.1,0.2,0,0.4c0.1,0.2,0.3,0.4,0.5,0.3c0.2-0.1,0.3-0.2,0.2-0.4
	c0-0.1-0.1-0.2-0.2-0.2c0,0-0.1,0-0.1,0.1c0,0.1,0.1,0.2,0,0.2c-0.1,0-0.2,0-0.3-0.2c-0.1-0.2,0.1-0.3,0.3-0.4
	c0.2-0.1,0.5,0.1,0.5,0.2c0,0.2,0,0.4,0,0.6c-0.1,0.4-0.2,1-0.2,1.4c0,0.2,0.1,0.4,0.1,0.7c-0.4-0.2-0.5-0.2-0.7-0.2
	c-0.4,0.1-0.5,0.5-0.4,0.8c0,0.2,0.1,0.3,0.3,0.4c0.1,0.1,0.2,0.1,0.3,0c0.3-0.1,0.4-0.3,0.3-0.6c-0.1-0.2-0.2-0.3-0.4-0.2
	c-0.1,0-0.2,0.1-0.2,0.3c0,0.1,0.1,0.1,0.2,0.1c0.1,0,0.2-0.1,0.2,0c0.1,0.1,0,0.2-0.2,0.3c-0.2,0-0.3,0-0.4-0.3
	c-0.1-0.3,0-0.5,0.3-0.6c0.2-0.1,0.5,0.1,0.7,0.3c0.4,0.7,0.8,1.1,1.3,1.4l0,0c0.1-0.1,0.1-0.1,0.2-0.1c-0.2-0.1-0.3-0.2-0.5-0.3
	c-0.4-0.3-0.8-0.8-0.9-1.5c-0.2-0.6-0.1-1.2,0.1-1.8c0.3-0.6,0.7-1,1.4-1.2c0.5-0.1,1-0.1,1.4,0.1c0.4,0.2,0.7,0.6,0.9,1.2
	c0.1,0.4,0.1,0.8,0,1.2c0,0.1-0.1,0.2-0.2,0.3c0.1,0,0.1,0.1,0.2,0.1c0.1-0.1,0.1-0.2,0.2-0.4c0.1-0.4,0.1-0.8,0-1.2
	c0-0.1-0.1-0.3-0.2-0.4c0.1,0.1,0.3,0.2,0.4,0.3c0-0.2-0.1-0.3-0.1-0.5c-0.3-0.2-0.6-0.4-0.8-0.7l0.1,0l1.1,0.4
	c0.3,0.1,0.5,0.2,0.7,0.2c0-0.1,0-0.1,0-0.2C63.6,37.1,63.5,37.1,63.4,37.1"/>
<path fill="#231F20" d="M60.7,37.6L60.7,37.6C60.7,37.6,60.7,37.6,60.7,37.6c-0.6,0.1-1,0.6-1,1.2c0,0.4,0.2,0.7,0.4,1l0.2,0.2
	c0,0,0.1-0.2,0.1-0.2l-0.1-0.1c-0.3-0.2-0.5-0.6-0.5-0.9c0-0.4,0.3-0.8,0.7-0.9c0,0,0,0,0,0c0,0.1,0.2,0.2,0.3,0.2
	c0.1,0,0.2-0.2,0.2-0.3C61,37.6,60.9,37.6,60.7,37.6"/>
<path fill="#231F20" d="M40.4,46.4c0.2-0.3,0.7-0.4,1-0.1c0.2,0.2,0.3,0.3,0.3,0.8c0.2-0.2,0.3-0.3,0.5-0.5c0.4-0.3,1-0.6,1.3-0.7
	c0.3-0.1,0.5-0.2,0.6-0.4c0.1-0.2,0.1-0.4-0.1-0.6c-0.2-0.2-0.4-0.2-0.5,0c-0.1,0.1-0.1,0.3,0,0.4c0,0,0.1-0.1,0.2-0.2
	c0.1,0,0.1,0,0.2,0c0.1,0.1,0.1,0.2,0,0.4c-0.2,0.2-0.3,0.2-0.5,0c-0.2-0.1-0.2-0.5,0-0.7c0.1-0.1,0.2-0.2,0.3-0.2
	c0.2,0,0.3,0,0.5,0.1c0.3,0.3,0.3,0.7,0.1,1c-0.1,0.1-0.2,0.2-0.2,0.2c0.5,0,1.1,0.2,1.7,0.6c0.4,0.3,0.6,0.7,0.8,1
	c0.1,0.1,0.2,0.2,0.2,0.2c0.3,0.2,0.6,0.3,0.7,0.2c0.1-0.1,0.1-0.2,0.1-0.3c-0.1-0.2-0.3,0.2-0.5,0.1c-0.1-0.1,0-0.2,0-0.3
	c0.1-0.2,0.3-0.2,0.5,0c0.2,0.1,0.2,0.4,0,0.6c-0.1,0.2-0.3,0.2-0.5,0.1c-0.1,0-0.3-0.1-0.5-0.3l0.1,0.3c0.2,0.1,0.3,0.3,0.4,1
	c0.1,0.4,0.2,0.8,0.3,1c0.2,0.4,0.4,0.7,0.6,0.9c0.1,0.1,0.3,0.2,0.4,0.2c0.2,0,0.4-0.1,0.5-0.3c0.1-0.2,0.2-0.3,0.1-0.4
	c0,0-0.1,0-0.2,0.1c-0.1,0.1-0.3,0.1-0.3,0c-0.2-0.1-0.2-0.3,0-0.5c0.1-0.2,0.4-0.2,0.6,0c0.3,0.2,0.3,0.6,0.1,0.9
	c-0.3,0.4-0.8,0.5-1.3,0.1c-0.3-0.3-0.6-0.7-0.7-1.4l-0.3-1.2l-0.1,0c-0.1,0.5-0.1,1.2-0.1,1.5c0,0,0,0,0,0
	c-0.1,0.2-0.2,0.3-0.4,0.4c0-0.3,0-0.6,0-1c0,0.1-0.1,0.3-0.2,0.4c-0.3,0.4-0.6,0.6-1.1,0.7c-0.5,0.1-1,0-1.5-0.4
	c-0.4-0.3-0.6-0.7-0.6-1.1c0-0.4,0.1-0.7,0.3-0.9c0,0,0.1-0.1,0.1-0.1l0.2,0c-0.1,0-0.1,0.1-0.1,0.1c-0.2,0.2-0.3,0.5-0.3,0.8
	c0,0.4,0.2,0.7,0.6,1c0.4,0.4,0.9,0.5,1.3,0.3c0.4-0.1,0.7-0.4,1-0.8c0.4-0.5,0.5-1,0.5-1.5c-0.1-0.6-0.3-1-0.7-1.4
	c-0.6-0.5-1.2-0.7-1.9-0.6c-0.6,0.1-1.2,0.4-1.6,1c-0.4,0.6-0.7,1.2-0.7,1.8c0,0.5,0,1,0.3,1.4l0.1,0c0-0.3-0.1-0.6-0.1-0.7
	c0-0.3,0.1-0.4,0.2-0.6c0.2-0.3,0.5-0.2,0.7-0.1c0.2,0.1,0.2,0.4,0.1,0.6c-0.1,0.2-0.3,0.2-0.4,0.1C42,49.6,42,49.5,42,49.4
	c0,0,0-0.1,0.1-0.1c0.1-0.1,0.2-0.1,0.3-0.2c-0.1-0.2-0.4-0.2-0.5,0c-0.2,0.3-0.2,0.7-0.1,1.3c0.2,0.6,0.5,1.1,1,1.5
	c-0.1,0.1-0.1,0.1-0.2,0.2c-0.9-0.8-1.5-1.7-1.6-2.6c-0.1-0.6,0-1.3,0.4-2.1c0.1-0.3,0-0.7-0.2-0.9c-0.3-0.2-0.5-0.2-0.7,0.1
	c-0.2,0.2-0.1,0.5,0,0.6c0.2,0.1,0.3,0.1,0.4,0c0-0.1-0.1-0.1-0.2-0.2c0-0.1,0-0.2,0-0.2c0.1-0.1,0.3-0.1,0.3,0
	c0.2,0.2,0.2,0.3,0.1,0.5c-0.2,0.3-0.4,0.3-0.7,0c-0.1-0.1-0.2-0.2-0.2-0.3C40.2,46.7,40.3,46.5,40.4,46.4"/>
<path fill="#231F20" d="M45.3,53.1c-0.9,0-1.6-0.3-1.6-0.4l0.1-0.2c0,0,1.3,0.6,2.5,0.2c1.2-0.4,1.8-1.2,1.8-1.2l0.2,0.1
	c0,0-0.6,0.8-1.9,1.3C45.9,53.1,45.6,53.1,45.3,53.1"/>
<path fill="#231F20" d="M35.2,55.3c0,0.2-0.2,0.4-0.3,0.4c-0.2,0-0.3-0.2-0.3-0.4c0-0.2,0.2-0.4,0.3-0.4C35,55,35.2,55.1,35.2,55.3"
	/>
<path fill="#231F20" d="M51.5,29.3l-0.3,0.3c-0.4,0.4-0.8,0.6-1.2,0.6c-0.5,0-0.9-0.2-1.5-0.5c-0.7-0.3-1.5-0.7-2.5-0.8h-0.1
	c-3.6,0-4.8,2.1-5.8,3.9c-0.5,0.8-0.9,1.5-1.4,1.9l-0.7,0.5l0.8,0.5c0.8,0.5,0.8,0.7,1,1.3c0.1,0.2,0.1,0.5,0.3,0.7
	c0.2,0.4,0.4,0.9,0.8,1.4l0,0c-0.2,0.1-0.3,0.1-0.5,0.2c-0.7,0.3-1.6,0.8-2.1,1.2c-0.6,0.5-1.1,1-1.6,1.6c0,0.1,0.1,0.1,0.1,0.2
	c0.5-0.6,1-1.1,1.6-1.6c0.5-0.4,1.4-0.9,2.1-1.2c0.2-0.1,0.4-0.2,0.5-0.2l0.3-0.1L41,39c-0.4-0.5-0.7-1-0.8-1.5
	c-0.1-0.3-0.2-0.5-0.3-0.7c-0.2-0.6-0.3-0.9-1.1-1.4l-0.5-0.3l0.4-0.3c0.6-0.4,1-1.1,1.5-2c0.9-1.7,2.1-3.8,5.6-3.8H46
	c1,0,1.7,0.4,2.4,0.7c0.6,0.3,1.1,0.5,1.6,0.5c0.5,0,0.9-0.2,1.4-0.7l0.3-0.3L51.5,29.3z"/>
<path fill="#231F20" d="M34.9,52.4c-0.2-0.5-0.4-1-0.5-1.6c-0.7-1.9-0.5-3.8,0.4-5.7c0,0-0.1,0-0.1,0c-0.1,0-0.1,0-0.2,0
	c-0.9,1.9-1,3.9-0.3,5.8c0.1,0.5,0.3,1.1,0.6,1.6c0.1,0.2,0.2,0.3,0.2,0.5c0.5,1.5,0,2.4-0.1,2.4l0.2,0.1c0,0,0.7-1,0.1-2.7
	C35.1,52.7,35,52.6,34.9,52.4"/>
<path fill="#231F20" d="M48.7,41.6c0,0.1,0.1,0.1,0.1,0.2c0.1,0,0.2-0.1,0.4,0.2c0.4,0.4,0,1,0,1c0.3,0.1,0.5-0.1,0.5-0.1
	c0.2,0.8,0.9,0.9,0.9,0.9c0.1-0.3,0-0.4,0-0.4c1.1,0.4,1.5-0.4,1.5-0.4s0.3-0.6-0.1-0.7c-0.4-0.2-0.3,0.4-0.3,0.4
	c0.3-0.1,0.2,0.2,0.2,0.2c-0.6,0.8-1.9-0.3-2.4-1C49.2,41.5,48.9,41.5,48.7,41.6C48.7,41.6,48.7,41.6,48.7,41.6"/>
<polygon fill="#231F20" points="49.2,24.7 49,24.5 48.9,24.6 49.2,24.9 "/>
<path fill="#231F20" d="M49.3,24.2l-0.2,0.2l0.2,0.1C49.3,24.3,49.3,24.3,49.3,24.2"/>
<polygon fill="#231F20" points="49.2,25.1 48.7,24.7 48.6,24.8 49.2,25.3 "/>
<polygon fill="#231F20" points="49.1,25.5 48.5,25 48.3,25.1 49.1,25.7 "/>
<polygon fill="#231F20" points="48.6,26.6 48.7,26.5 47.8,25.8 47.7,25.9 "/>
<polygon fill="#231F20" points="48.8,26.4 48.9,26.2 47.9,25.5 47.9,25.6 "/>
<polygon fill="#231F20" points="49,25.9 48.2,25.2 48.1,25.3 49,26.1 "/>
<path fill="#231F20" d="M40.9,27.4c-0.2,0.1-0.3,0.3-0.5,0.4c0,0-1.8,1.2-2,3c0,0-0.3-1.2,1-2.4c0,0-1.6,0.7-2.3,2.1
	c0,0,0.2,0.1,0.5,0c0,0-1.4,2.1,0.3,3.4c0,0,0.1-0.2,0-0.4c0,0,1,0.6,1.5-0.4c0.3-0.7-0.3-1-0.3-1s-0.3-0.2-0.4,0.1
	c0,0.1,0,0.2,0.1,0.3c0.1,0.1,0.2,0,0.3-0.1c0,0,0.2,0.2,0.1,0.6c-0.2,0.4-0.6,0.5-1.2,0.2c-0.7-0.3-0.8-1.8,0.4-3.3
	c0,0-0.5,1,0.3,1.8c0,0-0.3-0.6,0.1-1c0.2-0.2,0.2-0.8,0.2-0.8c0,0.3,0.3,0.4,0.3,0.4c0.1-0.9,0.8-1.9,1.4-2.3
	c0.2-0.1,0.5-0.3,0.8-0.6L40.9,27.4z"/>
<path fill="#231F20" d="M45,26.9c-0.6-0.1-1-0.1-1.4,0c-0.2-0.2-0.4-0.4-0.7-0.1c-0.1,0.1-0.1,0.2-0.1,0.3c-0.4,0.3-1.3,0.1-1.5,0
	c0,0,0-0.1-0.1-0.2c0.2,0,0.3,0,0.4-0.1c0.1-0.1,0.1-0.3,0-0.4c-0.2-0.2-0.4-0.2-0.5,0c-0.2,0.2-0.2,0.5,0,0.7
	c0.2,0.2,0.5,0.2,0.9,0.3c-0.4,0.1-0.9,0.4-1.1,0.6c-0.6,0.6-0.7,1.2-0.3,1.7l-0.4,0.5c-0.2-0.1-0.3-0.1-0.5,0.1
	c-0.1,0.1-0.1,0.3,0,0.4c-0.3,0.3-0.5,0.7-0.7,1.1c0.1,0,0.1,0.1,0.2,0.1c0.2-0.4,0.4-0.7,0.6-1.1c0.1,0.1,0.3,0.1,0.5-0.1
	c0.1-0.1,0.1-0.2,0.1-0.3c-0.1-0.1-0.1-0.2-0.1-0.2l0.4-0.4c0.2,0.2,0.5,0.4,0.8,0.4c0.2,0,0.4-0.1,0.6-0.2c0.4-0.4,0.3-1,0.1-1.3
	c0.2-0.1,0.9-0.5,1.5-0.7c0,0,0,0,0.1,0c0.6-0.2,2.2-0.5,2.5-0.5c0-0.1,0-0.2,0-0.2C46.1,27.2,45.3,26.9,45,26.9 M41.9,29.8
	c-0.3,0.3-0.8,0.2-1.1-0.2c0.3-0.3,0.6-0.5,1.1-0.9C42.3,29.1,42.3,29.5,41.9,29.8 M44.4,27.6c-0.3,0.1-0.6,0.1-1,0.3
	c-0.5,0.2-1.2,0.6-1.4,0.6c-0.2-0.3-0.6-0.4-0.8-0.1l-0.1,0.1c0,0.1,0,0.2,0.1,0.3c0.1,0.1,0.2,0.1,0.3,0.1l-0.6,0.5
	c0,0-0.1,0.1-0.2,0.2c-0.3-0.5-0.3-1,0.2-1.5c0.2-0.2,0.5-0.4,0.9-0.5c0.2-0.1,0.5-0.2,1-0.3c0.1,0.1,0.2,0.1,0.3,0.1
	c0.1,0,0.2-0.1,0.2-0.1c0.1-0.1,0.1-0.1,0.1-0.2c0.2-0.1,0.6-0.1,1-0.1c0.6,0,1.1,0.1,1.3,0.3C45.2,27.4,44.7,27.5,44.4,27.6"/>
<path fill="#231F20" d="M65,41c0,0,0.6,0.8,0.1,2c0,0,0.9-1,0.9-2.2c0,0-0.2,0-0.3,0.2c0,0,0.3-2-1.3-2.2c0,0,0,0.2,0.1,0.3
	c0,0-0.9-0.1-0.9,0.7c0,0.6,0.5,0.6,0.5,0.6s0.3,0,0.3-0.2c0-0.1-0.1-0.2-0.2-0.2C64.1,40,64,40,64,40.1c0,0-0.2,0-0.2-0.4
	c0-0.3,0.2-0.6,0.8-0.6c0.5,0,1.1,0.9,0.8,2.4c0,0,0-0.9-0.8-1.1c0,0,0.4,0.3,0.2,0.7c-0.1,0.2,0.1,0.6,0.1,0.6
	c-0.1-0.2-0.3-0.2-0.3-0.2c0.1,0.5,0.1,1,0,1.5c0.1,0,0.1,0.1,0.2,0.1C65,42.7,65.2,41.8,65,41"/>
<path fill="#231F20" d="M64.3,45.3c-0.2,0.1-0.2,0.4-0.1,0.5c-0.1,0.1-0.3,0-0.4-0.2c-0.1-0.1-0.1-0.3-0.1-0.4c0-0.1,0-0.2,0.1-0.2
	c0-0.1,0-0.2-0.1-0.2c-0.3,0.3-0.3,0.7-0.1,1.1c0.2,0.3,0.5,0.4,0.8,0.2c0.2-0.1,0.3-0.4,0.2-0.6C64.6,45.2,64.4,45.2,64.3,45.3"/>
<path fill="#231F20" d="M63.7,45.1l-0.2-0.1c0.1-0.3,0.2-0.4,0.4-0.6c0.1-0.1,0.3-0.2,0.4-0.5c0.2-0.5,0.3-0.9,0.3-0.9l0.3,0
	c0,0-0.1,0.5-0.4,1c-0.1,0.3-0.3,0.4-0.4,0.6C63.9,44.8,63.8,44.9,63.7,45.1"/>
<path fill="#231F20" d="M67.9,43c0-0.3-0.3-0.6-0.6-0.6c-0.1,0-0.2,0.1-0.3,0.1c-0.1,0.1-0.1,0.2-0.1,0.3c0,0.3,0.2,0.4,0.3,0.4h0
	c0.1,0,0.2-0.1,0.2-0.3c0-0.2,0.1-0.2,0.1-0.2h0c0.1,0,0.1,0,0.1,0.2c0,0.2,0,0.4-0.2,0.5c-0.1,0.1-0.2,0.1-0.4,0.1
	c-0.4,0-0.5-0.1-0.8-0.1c-0.8,0-1.4,0.4-1.4,1c-0.1,0.5,0.3,1,0.7,1c0.1,0,0.2,0,0.3,0c0,0,0,0.1,0.1,0.1v0c0,0,0,0.1,0,0.1l0,0l0,0
	h0c0.1,0.2,0.1,0.4,0.1,0.6c0.1,0.4,0.1,0.7,0,1c-0.1,0.8-0.6,1.3-1.3,1.6c-0.3,0.1-0.6,0.2-0.9,0.1c-0.3-0.1-0.6-0.3-0.7-0.6
	c-0.2-0.5,0-1,0.6-1.3c0.3-0.1,0.8,0,0.9,0.4c0.1,0.3,0,0.6-0.2,0.7c0-0.1-0.1-0.2-0.1-0.3c-0.1-0.2-0.3-0.2-0.4-0.1
	c-0.2,0.1-0.2,0.2-0.2,0.4c0.1,0.3,0.4,0.3,0.6,0.2c0.3-0.1,0.4-0.3,0.5-0.5c0-0.2,0-0.3,0-0.5c-0.2-0.5-0.7-0.7-1.3-0.5
	c-0.3,0.1-0.4,0.3-0.6,0.5c-0.1,0.2-0.1,0.4-0.1,0.6c0,0-0.1-0.1-0.2-0.1c-0.2-0.1-0.5-0.3-0.5-0.5c-0.2,0.3-0.2,0.5,0,1
	c0.2,0.4,0.5,0.7,0.9,0.9c0.5,0.2,1.2,0.1,1.9-0.2c0.6-0.3,1-0.7,1.2-1.3c0.4-1-0.2-2.5-0.3-2.5l0,0l-0.1,0c-0.1,0-0.1,0-0.2,0
	c-0.3,0-0.6-0.4-0.5-0.7c0-0.4,0.5-0.7,1.2-0.7c0.2,0,0.4,0.1,0.7,0.1c0,0,0.1,0,0.1,0C67.7,43.8,68,43.5,67.9,43 M62.6,48.4
	c-0.1-0.1-0.1-0.2-0.2-0.3c0-0.1-0.1-0.2-0.1-0.3c0.1,0.2,0.3,0.4,0.4,0.5c0.2,0.3,0.3,0.4,0.6,0.7C63,48.8,62.8,48.6,62.6,48.4"/>
<path fill="#231F20" d="M60.3,61.3c0,0,0.8,0.4,1.5,0.2c0.1,0.1-0.4,0.5-1.2,0.5c-0.4,0-0.5-0.2-0.5-0.2L60.3,61.3z"/>
<polygon fill="#231F20" points="58.7,59.5 57.8,60.6 58.1,60.8 58.8,59.7 "/>
<polygon fill="#231F20" points="58.2,59.1 57.3,60.3 57.6,60.5 58.4,59.3 "/>
<polygon fill="#231F20" points="57.8,58.7 56.9,60 57.1,60.2 58,58.9 "/>
<polygon fill="#231F20" points="59,59.8 58.3,60.9 58.5,61 59.2,60 "/>
<polygon fill="#231F20" points="59.3,60.2 58.7,61.1 59,61.3 59.5,60.5 "/>
<polygon fill="#231F20" points="59.6,60.6 59.3,61.3 59.5,61.4 59.8,60.8 "/>
<polygon fill="#231F20" points="60,61 59.7,61.5 59.9,61.7 60.1,61.1 "/>
<polygon fill="#231F20" points="57.3,58.4 56.4,59.7 56.7,59.9 57.5,58.6 "/>
<polygon fill="#231F20" points="54.5,60.9 54.9,60.8 54.9,60.6 54.3,60.7 "/>
<path fill="#231F20" d="M54.8,61.4l0.1-0.4l-0.3,0C54.8,61.3,54.8,61.3,54.8,61.4"/>
<polygon fill="#231F20" points="54.1,60.5 54.9,60.4 55,60.2 54,60.2 "/>
<polygon fill="#231F20" points="53.9,60 55,60 55,59.7 53.7,59.8 "/>
<polygon fill="#231F20" points="54.8,58.4 53.5,58.5 53.4,58.7 54.9,58.6 "/>
<polygon fill="#231F20" points="55,58.8 53.4,58.9 53.5,59.1 55,59 "/>
<polygon fill="#231F20" points="53.6,59.6 55,59.5 55.1,59.3 53.6,59.4 "/>
<path fill="#231F20" d="M55.8,57.4l-1.5-1.1c0,0,0,0,0,0c0.3-0.7,0.1-1.4-0.6-1.7c-0.5-0.2-1.1-0.1-1.3,0.4
	c-0.1,0.3-0.1,0.7,0.2,0.9c0.4,0.2,0.6,0.1,0.7-0.2c0.1-0.2,0-0.3-0.2-0.5C53,55,53,54.9,53,54.9c0.1-0.2,0.3-0.2,0.6-0.1
	c0.3,0.2,0.5,0.4,0.5,0.7c0,0.2,0,0.5-0.1,0.7c-0.1,0.3-0.3,0.5-0.5,0.7c-0.2,0.2-0.8,0.5-1.8,1.1c-0.8,0.5-1.3,1.2-1.6,2.1
	C50,60.5,50,61,50,61.6l0,0.4c0.1-0.2,0.3-0.5,0.5-0.9c0.8-1,1.2-1.6,1.3-1.8c0.4-0.7,0.8-1.3,1.1-1.7l0.6-0.6
	c0.1-0.1,0.2-0.2,0.3-0.3l0,0l-0.5,1.5l1.3-0.1l-0.2-0.4c-0.3-0.6-0.4-1-0.4-1.2l0.1-0.1c0.5,1.4,1.4,2.6,1.9,3l0.8-1.2
	C56.9,58.3,56.5,58,55.8,57.4"/>
<path fill="#231F20" d="M53,58.5l-0.3,0.6c-0.2,0.6-0.5,1.3-0.8,1.7c-0.1,0.2-0.3,0.2-0.7,0.2c0,0.1,0,0.1,0,0.1
	c0,0.1,0.1,0.1,0.1,0.2c0.1,0.1,0.4,0.1,0.6-0.2c0.1-0.2,0.3-0.6,0.4-1l0.1,0.1L52.1,62l0.3,1.4l0.4-1.4l-0.2-1.7l0.1,0
	c0,0.3,0.1,0.5,0.1,0.7c0.1,0.3,0.2,0.5,0.3,0.6c0.1,0.1,0.4,0.1,0.5-0.1c0.1-0.1,0.1-0.2,0.1-0.3c-0.1,0.1-0.2,0.1-0.3,0.1
	c0,0-0.1-0.1-0.2-0.1c-0.1-0.1-0.2-0.4-0.3-0.7C52.9,60,52.9,58.9,53,58.5"/>
<path fill="#231F20" d="M51,51.8c0,0.1-0.1,0.1-0.1,0.2l1.5,1.5c0-0.1,0.1-0.1,0.1-0.2L51,51.8z"/>
<path fill="#231F20" d="M55.2,53.3c-0.5-0.4-0.9-0.9-1.2-1.2l-2.3-2.3c-0.3-0.3-0.6-0.6-0.9-0.8c-0.9-0.8-4-4-6.5-6.7l-1.1-1.1
	c0.3,0.4,0.7,0.9,1.1,1.4l14.6,14.9c0.1,0,0.2,0.1,0.4,0.1L55.2,53.3z"/>
<path fill="#231F20" d="M50.5,52.7c0,0-0.1,0.1-0.1,0.1l1.5,1.6c0-0.1,0.1-0.1,0.1-0.2L50.5,52.7z"/>
<path fill="#231F20" d="M47.1,45.7c0.6,0.7,1.2,1.4,1.8,2l8.9,9.1c0.2,0.1,0.3,0.2,0.5,0.3L47.1,45.7z"/>
<path fill="#231F20" d="M50.2,53.1c0,0.1-0.1,0.1-0.1,0.1l1.6,1.6c0-0.1,0.1-0.1,0.1-0.2L50.2,53.1z"/>
<path fill="#231F20" d="M51.3,51.4c0,0-0.1,0.1-0.1,0.2l1.5,1.5c0-0.1,0.1-0.1,0.1-0.2L51.3,51.4z"/>
<path fill="#231F20" d="M51.3,50.7c0.1,0.1,0.1,0.2,0.2,0.3c0,0,0,0.1-0.1,0.1l3.9,4c0.4,0.3,0.8,0.7,1.2,1L51.3,50.7z"/>
<path fill="#231F20" d="M50.7,52.2c0,0.1-0.1,0.1-0.1,0.2l1.5,1.6c0-0.1,0.1-0.1,0.1-0.2L50.7,52.2z"/>
<path fill="#231F20" d="M47.2,55.8c-0.1,0-0.1,0.1-0.2,0.1l1.9,1.9c0,0,0.1-0.1,0.2-0.1L47.2,55.8z"/>
<path fill="#231F20" d="M49.9,53.5c0,0-0.1,0.1-0.1,0.1l1.6,1.6c0-0.1,0.1-0.1,0.1-0.2L49.9,53.5z"/>
<path fill="#231F20" d="M48.1,55.3c0,0-0.1,0.1-0.2,0.1l1.8,1.8c0,0,0.1-0.1,0.1-0.1L48.1,55.3z"/>
<path fill="#231F20" d="M46.7,56L46.6,56l1.9,2c0.1,0,0.1-0.1,0.2-0.1L46.7,56z"/>
<path fill="#231F20" d="M47.7,55.5c-0.1,0-0.1,0.1-0.2,0.1l1.8,1.9c0,0,0.1-0.1,0.1-0.1L47.7,55.5z"/>
<path fill="#231F20" d="M49.6,53.9c0,0-0.1,0.1-0.1,0.1l1.6,1.6c0-0.1,0.1-0.1,0.1-0.1L49.6,53.9z"/>
<path fill="#231F20" d="M48.9,54.6c0,0-0.1,0.1-0.1,0.1l1.7,1.7c0,0,0.1-0.1,0.1-0.1L48.9,54.6z"/>
<path fill="#231F20" d="M49.3,54.3c0,0-0.1,0.1-0.1,0.1l1.6,1.7c0,0,0.1-0.1,0.1-0.1L49.3,54.3z"/>
<path fill="#231F20" d="M52.7,41c0,0,0.1-0.1,0.1-0.2l-1.6-1.6c-0.1,0-0.2,0-0.3,0L52.7,41z"/>
<path fill="#231F20" d="M53.5,45.9c0,0.1,0,0.1-0.1,0.2l1.4,1.4c0,0,0.1-0.1,0.1-0.1L53.5,45.9z"/>
<path fill="#231F20" d="M53.4,46.5c0,0.1,0,0.2,0,0.2l1.2,1.3c0-0.1,0.1-0.1,0.1-0.2L53.4,46.5z"/>
<path fill="#231F20" d="M57.8,47.3c0,0.1,0,0.2,0,0.3l0.3,0.3c0.1,0,0.2,0,0.3,0L57.8,47.3z"/>
<path fill="#231F20" d="M53.7,45.3c0,0.1-0.1,0.1-0.1,0.2l1.6,1.6c0,0,0.1-0.1,0.1-0.1L53.7,45.3z"/>
<path fill="#231F20" d="M60.5,44.4c-0.1,0-0.1,0.1-0.2,0.1l1.7,1.8c0,0,0.1-0.1,0.1-0.1L60.5,44.4z"/>
<path fill="#231F20" d="M54,44.9c0,0.1-0.1,0.1-0.1,0.2l1.7,1.7c0,0,0.1-0.1,0.1-0.1L54,44.9z"/>
<path fill="#231F20" d="M51.3,36.8c0-0.1,0-0.1,0.1-0.2l-1.3-1.3c0,0.1,0,0.1,0,0.2L51.3,36.8z"/>
<path fill="#231F20" d="M57.4,54.7c-0.2-0.1-0.3-0.2-0.5-0.3l3.3,3.3c0.1,0.1,0.3,0.1,0.4,0.2L57.4,54.7z"/>
<path fill="#231F20" d="M46.2,56.2c-0.1,0-0.1,0-0.2,0.1l2,2.1c0.1,0,0.1-0.1,0.2-0.1L46.2,56.2z"/>
<path fill="#231F20" d="M50.3,34.7c0,0.1,0,0.1-0.1,0.2l1.3,1.3c0-0.1,0-0.1,0.1-0.2L50.3,34.7z"/>
<path fill="#231F20" d="M59.5,55.4c-0.1-0.1-0.3-0.1-0.4-0.2l3.4,3.4c0,0,0.1-0.1,0.1-0.1L59.5,55.4z"/>
<path fill="#231F20" d="M58.5,55.1c-0.1,0-0.2-0.1-0.4-0.1l3.6,3.7c0.1,0.1,0.2,0.1,0.2,0.2L62,59c0,0,0.1-0.1,0.1-0.1L58.5,55.1z"
	/>
<path fill="#231F20" d="M61.6,56.2c0,0-0.1,0.1-0.1,0.1l1.7,1.7c0,0,0.1-0.1,0.2-0.1L61.6,56.2z"/>
<path fill="#231F20" d="M62.3,42.2l1.1,1.1c0-0.1,0-0.2,0-0.3l-1-1.1C62.3,42.1,62.3,42.2,62.3,42.2"/>
<path fill="#231F20" d="M63.1,41.6c-0.1-0.2-0.1-0.3-0.2-0.5l-0.6-0.6c0,0.1,0.1,0.2,0.1,0.4L63.1,41.6z"/>
<path fill="#231F20" d="M48.3,33.6c0,0,0.1-0.1,0.1-0.1l-2.1-2.2c-0.1,0-0.1,0-0.2,0c0,0,0,0-0.1,0L48.3,33.6z"/>
<path fill="#231F20" d="M53.2,32.2L53,31.8l-0.7-0.7c0,0-0.1,0.1-0.1,0.1L53.2,32.2z"/>
<path fill="#231F20" d="M61.2,56.5C61.2,56.5,61.1,56.5,61.2,56.5c-0.3-0.2-0.5-0.4-0.8-0.6l2.3,2.4c0,0,0.1-0.1,0.1-0.1L61.2,56.5z
	"/>
<path fill="#231F20" d="M42.1,56.2c-0.1,0-0.2,0-0.3-0.1l2.7,2.7c0.1,0,0.2,0,0.3,0L42.1,56.2z"/>
<path fill="#231F20" d="M41.2,56c-0.1,0-0.2-0.1-0.4-0.1l2.8,2.9c0.1,0,0.2,0,0.3,0L41.2,56z"/>
<path fill="#231F20" d="M42.9,56.4c-0.1,0-0.2,0-0.3,0l2.5,2.6c0.1,0,0.2,0,0.2,0L42.9,56.4z"/>
<path fill="#231F20" d="M40.2,55.7c0,0-0.1,0-0.1,0c-0.1-0.1-0.2-0.1-0.3-0.2l3.1,3.2c0.1,0,0.2,0,0.3,0.1L40.2,55.7z"/>
<path fill="#231F20" d="M38.3,54.5c-0.2-0.1-0.4-0.2-0.6-0.3l4.2,4.2c0.1,0,0.2,0.1,0.3,0.1L38.3,54.5z"/>
<path fill="#231F20" d="M43.7,56.4c-0.1,0-0.2,0-0.3,0l2.4,2.4c0.1,0,0.2,0,0.2,0L43.7,56.4z"/>
<path fill="#231F20" d="M40,50.7C40,50.7,40,50.6,40,50.7C40.1,50.8,40.1,50.8,40,50.7"/>
<path fill="#231F20" d="M44.4,56.4c-0.1,0-0.2,0-0.2,0l2.3,2.3c0.1,0,0.1,0,0.2,0L44.4,56.4z"/>
<path fill="#231F20" d="M36.5,54.8c0,0.1,0,0.2,0.1,0.3l1,1c0.1,0,0.3,0.1,0.4,0.2L36.5,54.8z"/>
<path fill="#231F20" d="M45.6,56.3c-0.1,0-0.1,0-0.2,0l2.1,2.1c0.1,0,0.1,0,0.2-0.1L45.6,56.3z"/>
<path fill="#231F20" d="M67.3,52c0,0.1-0.1,0.1-0.1,0.2l1.4,1.5c0,0,0,0,0,0c0,0,0-0.1,0.1-0.1L67.3,52z"/>
<path fill="#231F20" d="M68.5,49c0,0.1,0,0.1,0,0.2l1.1,1.1c0-0.1,0-0.1,0-0.2c0,0,0,0,0,0L68.5,49z"/>
<path fill="#231F20" d="M68.5,48.6l1,1c0-0.1,0-0.2,0-0.3l-1-1C68.6,48.4,68.5,48.5,68.5,48.6"/>
<path fill="#231F20" d="M48.5,55c0,0-0.1,0.1-0.1,0.1c0,0,0,0,0,0l1.7,1.7c0,0,0.1-0.1,0.1-0.1L48.5,55z"/>
<path fill="#231F20" d="M37,56l-0.3-0.3c0,0.1,0,0.2,0,0.3C36.7,56,36.8,56,37,56"/>
<path fill="#231F20" d="M37.1,54c-0.1,0-0.2,0-0.3-0.1l4,4.1c0,0,0.1,0,0.1,0.1c0.1,0,0.2,0.1,0.3,0.1L37.1,54z"/>
<path fill="#231F20" d="M36.3,53.9c0,0.1,0,0.2,0.1,0.3l2.7,2.7c0.2,0.1,0.3,0.1,0.5,0.3c0,0,0.1,0.1,0.1,0.1L36.3,53.9z"/>
<path fill="#231F20" d="M45,56.4c-0.1,0-0.1,0-0.2,0l2.2,2.2c0.1,0,0.1,0,0.2-0.1L45,56.4z"/>
<path fill="#231F20" d="M39.7,46.2c0-0.1,0.1-0.1,0.1-0.2l-1.5-1.5c0,0.1-0.1,0.1-0.1,0.2L39.7,46.2z"/>
<path fill="#231F20" d="M39.4,46.7c0-0.1,0.1-0.1,0.1-0.2l-1.4-1.4c0,0.1,0,0.1-0.1,0.2L39.4,46.7z"/>
<path fill="#231F20" d="M40.3,45.4c0,0,0.1-0.1,0.1-0.1l-1.6-1.6c0,0-0.1,0.1-0.1,0.1L40.3,45.4z"/>
<path fill="#231F20" d="M40,45.8c0,0,0.1-0.1,0.1-0.1l-1.5-1.5c0,0.1-0.1,0.1-0.1,0.2L40,45.8z"/>
<path fill="#231F20" d="M39.3,47.2c0-0.1,0-0.1,0-0.2L38,45.7c0,0.1,0,0.2,0,0.2L39.3,47.2z"/>
<path fill="#231F20" d="M39.9,50.5l-0.1-0.1c0.1,0.1,0.1,0.2,0.2,0.3C40,50.6,39.9,50.5,39.9,50.5"/>
<path fill="#231F20" d="M39.2,48.6c0-0.1,0-0.2,0-0.3l-1.1-1.1c0,0.1,0.1,0.3,0.1,0.4L39.2,48.6z"/>
<path fill="#231F20" d="M39.2,47.6L38,46.4c0,0.1,0,0.1,0,0.2c0,0,0,0.1,0,0.1l1.2,1.2C39.2,47.8,39.2,47.7,39.2,47.6"/>
<path fill="#231F20" d="M39.5,49.6c0-0.1-0.1-0.2-0.1-0.4l-0.8-0.8c0.1,0.2,0.2,0.4,0.3,0.5L39.5,49.6z"/>
<path fill="#231F20" d="M42.6,42.1l-0.1-0.4L42,41.3c-0.1,0-0.1,0-0.2,0.1L42.6,42.1z"/>
<path fill="#231F20" d="M43.1,43.3l-0.1-0.4l-1.4-1.4c-0.1,0-0.1,0.1-0.2,0.1L43.1,43.3z"/>
<path fill="#231F20" d="M41.1,44.8c0,0,0.1-0.1,0.1-0.1L39.5,43c0,0-0.1,0.1-0.1,0.1L41.1,44.8z"/>
<path fill="#231F20" d="M41.9,44.3c0.1,0,0.1-0.1,0.2-0.1l-1.8-1.9c0,0-0.1,0.1-0.1,0.1L41.9,44.3z"/>
<path fill="#231F20" d="M40.7,45.1c0,0,0.1-0.1,0.1-0.1l-1.7-1.7c0,0-0.1,0.1-0.1,0.1L40.7,45.1z"/>
<path fill="#231F20" d="M42.4,44c0.1,0,0.1-0.1,0.2-0.1L40.7,42c-0.1,0-0.1,0.1-0.1,0.1L42.4,44z"/>
<path fill="#231F20" d="M42.8,43.8c0.1,0,0.1-0.1,0.2-0.1l-1.9-2c-0.1,0-0.1,0.1-0.2,0.1L42.8,43.8z"/>
<path fill="#231F20" d="M41.5,44.5c0,0,0.1-0.1,0.2-0.1l-1.8-1.8c0,0-0.1,0.1-0.1,0.1c0,0,0,0-0.1,0L41.5,44.5z"/>
<path fill="#231F20" d="M44.6,38.4c-0.1-0.2-0.2-0.4-0.3-0.6l-0.3-0.3c0.2,0.3,0.3,0.5,0.5,0.8L44.6,38.4z"/>
<path fill="#231F20" d="M44,37.1c0-0.1,0-0.2,0-0.3l-0.7-0.7c0,0.1,0.1,0.3,0.2,0.4L44,37.1z"/>
<path fill="#231F20" d="M61.9,55.8c0,0-0.1,0.1-0.1,0.1l1.8,1.8c0.1,0,0.1,0,0.2-0.1L61.9,55.8z"/>
<path fill="#231F20" d="M44,36.4c0-0.1,0-0.1,0-0.2l-1-1c0,0.1,0,0.2,0,0.3L44,36.4z"/>
<path fill="#231F20" d="M62.3,55.5c-0.1,0-0.1,0.1-0.2,0.1l2,2c0.1,0,0.1,0,0.2-0.1L62.3,55.5z"/>
<path fill="#231F20" d="M63.3,55.1c0,0-0.1,0-0.1,0c0,0,0,0-0.1,0l2,2c0.1,0,0.1-0.1,0.2-0.1L63.3,55.1z"/>
<path fill="#231F20" d="M44.1,35.8c0-0.1,0-0.1,0.1-0.2L43,34.4c0,0.1,0,0.2,0,0.2L44.1,35.8z"/>
<path fill="#231F20" d="M62.8,55.3c-0.1,0-0.1,0-0.2,0.1l2,2.1c0.1,0,0.1,0,0.2-0.1L62.8,55.3z"/>
<path fill="#231F20" d="M48.5,33.2C48.5,33.2,48.5,33.1,48.5,33.2c0-0.1,0-0.2,0-0.3l-1.4-1.5c-0.1,0-0.2-0.1-0.3-0.1L48.5,33.2z"/>
<path fill="#231F20" d="M47,33.8c0.1,0,0.2,0,0.3,0L45,31.5c-0.1,0-0.1,0-0.2,0.1L47,33.8z"/>
<path fill="#231F20" d="M46.3,33.8c0.1,0,0.1,0,0.2,0l-2-2.1c-0.1,0-0.1,0.1-0.2,0.1L46.3,33.8z"/>
<path fill="#231F20" d="M63.9,54.9c-0.1,0-0.1,0-0.2,0.1l1.9,2c0.1,0,0.1-0.1,0.2-0.1L63.9,54.9z"/>
<path fill="#231F20" d="M44.3,35.3c0-0.1,0.1-0.1,0.1-0.2l-1.3-1.3c0,0.1,0,0.1,0,0.2L44.3,35.3z"/>
<path fill="#231F20" d="M45.8,34c0.1,0,0.1,0,0.2-0.1L44.1,32c0,0-0.1,0.1-0.1,0.1L45.8,34z"/>
<path fill="#231F20" d="M45.3,34.2c0.1,0,0.1-0.1,0.2-0.1l-1.7-1.8c0,0-0.1,0.1-0.1,0.1L45.3,34.2z"/>
<path fill="#231F20" d="M44.6,34.9c0,0,0.1-0.1,0.1-0.1l-1.5-1.5c0,0.1,0,0.1-0.1,0.2L44.6,34.9z"/>
<path fill="#231F20" d="M44.9,34.5c0,0,0.1-0.1,0.1-0.1l-1.6-1.6c0,0.1-0.1,0.1-0.1,0.2L44.9,34.5z"/>
<path fill="#231F20" d="M47.8,33.8c0.1,0,0.1,0,0.2,0.1c0,0,0,0,0.1,0l-2.5-2.5c-0.1,0-0.1,0-0.2,0L47.8,33.8z"/>
<path fill="#231F20" d="M68.2,50.1c0,0.1,0,0.1-0.1,0.2l1.2,1.2c0-0.1,0-0.1,0-0.2L68.2,50.1z"/>
<path fill="#231F20" d="M68.3,49.5c0,0.1,0,0.1-0.1,0.2l1.2,1.2c0-0.1,0-0.1,0-0.2L68.3,49.5z"/>
<path fill="#231F20" d="M68.6,47.7c0,0.1,0,0.2,0,0.2l0.9,0.9c0-0.1,0-0.2,0-0.3L68.6,47.7z"/>
<path fill="#231F20" d="M64.4,54.7c-0.1,0-0.1,0.1-0.2,0.1l1.9,1.9c0.1,0,0.1-0.1,0.2-0.1L64.4,54.7z"/>
<path fill="#231F20" d="M68.1,45c0,0.1,0.1,0.3,0.1,0.4l0.6,0.6c-0.1-0.2-0.2-0.4-0.3-0.6L68.1,45z"/>
<path fill="#231F20" d="M67.8,51.1C67.8,51.2,67.8,51.2,67.8,51.1c0,0.1-0.1,0.1-0.1,0.2l1.3,1.4c0-0.1,0-0.1,0.1-0.2L67.8,51.1z"/>
<path fill="#231F20" d="M68.5,46.9c0,0.1,0,0.2,0,0.3l0.8,0.9c0-0.1,0-0.2-0.1-0.3L68.5,46.9z"/>
<path fill="#231F20" d="M68.4,46c0,0.1,0,0.2,0.1,0.3l0.8,0.8c0-0.1-0.1-0.2-0.1-0.4L68.4,46z"/>
<path fill="#231F20" d="M68,50.6c0,0.1,0,0.1-0.1,0.2l1.3,1.3c0-0.1,0-0.1,0-0.2L68,50.6z"/>
<path fill="#231F20" d="M67.6,51.6c0,0.1-0.1,0.1-0.1,0.2l1.4,1.4c0-0.1,0-0.1,0.1-0.2L67.6,51.6z"/>
<path fill="#231F20" d="M65.2,54.2c0,0-0.1,0.1-0.1,0.1l1.7,1.8c0,0,0.1-0.1,0.1-0.1L65.2,54.2z"/>
<path fill="#231F20" d="M66,53.6c0,0-0.1,0.1-0.1,0.1l1.6,1.7c0,0,0.1-0.1,0.1-0.1L66,53.6z"/>
<path fill="#231F20" d="M64.8,54.5c-0.1,0-0.1,0.1-0.2,0.1l1.8,1.8c0,0,0.1-0.1,0.1-0.1L64.8,54.5z"/>
<path fill="#231F20" d="M65.6,53.9c0,0-0.1,0.1-0.1,0.1l1.7,1.7c0,0,0.1-0.1,0.1-0.1L65.6,53.9z"/>
<path fill="#231F20" d="M67,52.5c0,0-0.1,0.1-0.1,0.1l1.5,1.5c0-0.1,0.1-0.1,0.1-0.2L67,52.5z"/>
<path fill="#231F20" d="M66.7,52.9c0,0-0.1,0.1-0.1,0.1l1.5,1.6c0,0,0.1-0.1,0.1-0.2L66.7,52.9z"/>
<path fill="#231F20" d="M66.4,53.2c0,0-0.1,0.1-0.1,0.1l1.6,1.6c0,0,0.1-0.1,0.1-0.1L66.4,53.2z"/>
<path fill="#231F20" d="M52,35.3c0-0.1,0.1-0.1,0.1-0.2l-1.4-1.4c0,0.1,0,0.1-0.1,0.2L52,35.3z"/>
<path fill="#231F20" d="M54.3,44.5c0,0-0.1,0.1-0.1,0.1l1.8,1.9c0.1,0,0.1-0.1,0.2-0.1L54.3,44.5z"/>
<path fill="#231F20" d="M51.1,41.5C51.1,41.5,51.1,41.5,51.1,41.5c0.1,0,0.2,0.1,0.3,0.1l-3.1-3.1c0.1,0.2,0.1,0.3,0.2,0.5
	L51.1,41.5z"/>
<path fill="#231F20" d="M49.9,40.7l-0.5-0.5C49.6,40.4,49.7,40.6,49.9,40.7"/>
<path fill="#231F20" d="M51.8,41.5c0.1,0,0.1,0,0.2-0.1l-4-4c0,0.1,0,0.2,0.1,0.3L51.8,41.5z"/>
<path fill="#231F20" d="M58.6,45.3c-0.1,0-0.1,0-0.2,0l2,2.1c0.1,0,0.1-0.1,0.2-0.1L58.6,45.3z"/>
<path fill="#231F20" d="M54.6,44.1c0,0-0.1,0.1-0.1,0.1l2,2.1c0.1,0,0.2,0,0.3,0L54.6,44.1z"/>
<path fill="#231F20" d="M55.1,43.9c-0.1,0-0.1,0-0.2,0.1l3.9,3.9c0.1,0,0.1,0,0.2,0L55.1,43.9z"/>
<path fill="#231F20" d="M57.4,45.5c-0.1,0-0.2,0-0.3,0l2.3,2.3c0.1,0,0.1,0,0.2-0.1L57.4,45.5z"/>
<path fill="#231F20" d="M58,45.4c-0.1,0-0.1,0-0.2,0l2.1,2.2c0.1,0,0.1,0,0.2-0.1L58,45.4z"/>
<path fill="#231F20" d="M50.8,37.6c0,0,0.1-0.1,0.1-0.1L50,36.6c0,0.1,0,0.2,0,0.3L50.8,37.6z"/>
<path fill="#231F20" d="M51.1,37.3c0-0.1,0-0.1,0.1-0.2L50,35.9c0,0.1,0,0.2,0,0.2L51.1,37.3z"/>
<path fill="#231F20" d="M52.4,37.9L52.4,37.9c0-0.1-0.1-0.2-0.1-0.3C52.4,37.7,52.4,37.8,52.4,37.9"/>
<path fill="#231F20" d="M52.3,41.3c0,0,0.1-0.1,0.1-0.1l-2.1-2.1c-0.1,0-0.3-0.1-0.4-0.1L52.3,41.3z"/>
<path fill="#231F20" d="M52.5,38.4c0,0.1,0,0.1-0.1,0.2l0.4,0.4c0-0.1-0.1-0.2-0.1-0.4L52.5,38.4z"/>
<path fill="#231F20" d="M55.5,43.8l1.4,1.4c0-0.1,0-0.1,0-0.2l-1.2-1.2C55.6,43.8,55.5,43.8,55.5,43.8"/>
<path fill="#231F20" d="M52.9,40.3l-1.1-1.2c-0.1,0-0.1,0-0.2,0l1.3,1.3C52.9,40.4,52.9,40.3,52.9,40.3"/>
<path fill="#231F20" d="M50.6,37.9l-0.3-0.3C50.4,37.7,50.5,37.8,50.6,37.9"/>
<path fill="#231F20" d="M61.3,43.8c0,0-0.1,0.1-0.1,0.1l1.6,1.6c0,0,0.1-0.1,0.1-0.2L61.3,43.8z"/>
<path fill="#231F20" d="M52.8,34c0,0,0.1-0.1,0.1-0.1l-1.5-1.5c0,0.1-0.1,0.1-0.1,0.2L52.8,34z"/>
<path fill="#231F20" d="M53.5,33.3C53.5,33.3,53.5,33.3,53.5,33.3L53.4,33L52,31.5c0,0-0.1,0.1-0.1,0.1L53.5,33.3z"/>
<path fill="#231F20" d="M53.1,33.6c0,0,0.1-0.1,0.1-0.1l-1.6-1.6c0,0-0.1,0.1-0.1,0.1L53.1,33.6z"/>
<path fill="#231F20" d="M52.7,31.1l-0.1-0.3c0,0-0.1,0-0.1,0.1L52.7,31.1z"/>
<path fill="#231F20" d="M59.1,45.2c-0.1,0-0.1,0-0.2,0.1l1.9,2c0.1,0,0.1-0.1,0.2-0.1L59.1,45.2z"/>
<path fill="#231F20" d="M53,39.8c0-0.1,0-0.2,0-0.3l-0.7-0.7c0,0-0.1,0.1-0.2,0.1L53,39.8z"/>
<path fill="#231F20" d="M62.4,41.4c0,0.1,0,0.2,0,0.2l0.9,0.9c0-0.1,0-0.2-0.1-0.3L62.4,41.4z"/>
<path fill="#231F20" d="M52.2,34.8c0-0.1,0.1-0.1,0.1-0.2l-1.4-1.5c0,0.1-0.1,0.1-0.1,0.2L52.2,34.8z"/>
<path fill="#231F20" d="M52.5,34.4c0-0.1,0.1-0.1,0.1-0.1l-1.5-1.5c0,0.1-0.1,0.1-0.1,0.2L52.5,34.4z"/>
<path fill="#231F20" d="M60.9,44.1c0,0-0.1,0.1-0.1,0.1l1.7,1.7c0,0,0.1-0.1,0.1-0.1L60.9,44.1z"/>
<path fill="#231F20" d="M62.2,42.6c0,0.1-0.1,0.1-0.1,0.2l1.3,1.3c0-0.1,0-0.1,0-0.2L62.2,42.6z"/>
<path fill="#231F20" d="M59.6,44.9c-0.1,0-0.1,0.1-0.2,0.1l1.9,1.9c0,0,0.1-0.1,0.1-0.1L59.6,44.9z"/>
<path fill="#231F20" d="M60.1,44.7c-0.1,0-0.1,0.1-0.2,0.1l1.8,1.8c0,0,0.1-0.1,0.1-0.1L60.1,44.7z"/>
<path fill="#231F20" d="M61.9,43c0,0.1-0.1,0.1-0.1,0.1l1.4,1.4c0-0.1,0-0.1,0.1-0.2L61.9,43z"/>
<path fill="#231F20" d="M51.7,35.8c0-0.1,0.1-0.1,0.1-0.2l-1.4-1.4c0,0.1,0,0.1-0.1,0.2L51.7,35.8z"/>
<path fill="#231F20" d="M61.6,43.4c0,0-0.1,0.1-0.1,0.1l1.5,1.5c0-0.1,0.1-0.1,0.1-0.2L61.6,43.4z"/>
<path fill="#231F20" d="M58.7,32.9l0.1,0.2l-0.4,0.2c-0.3,0.1-0.5,0.2-0.6,0.2l-0.1-0.2c0.1,0,0.3-0.1,0.6-0.2L58.7,32.9z"/>
<polygon fill="#231F20" points="57.3,31.9 58,31.6 58.2,31.8 57.4,32.1 "/>
<polygon fill="#231F20" points="57.2,31.2 57.6,31.1 57.8,31.2 57.2,31.4 "/>
<polygon fill="#231F20" points="57.1,30.9 57.4,30.8 57.6,31 57.1,31.1 "/>
<polygon fill="#231F20" points="57,30.4 57.3,30.7 57.1,30.7 "/>
<polygon fill="#231F20" points="58.3,32.1 57.4,32.5 57.4,32.3 58.2,31.9 "/>
<polygon fill="#231F20" points="57.2,31.6 57.8,31.4 58,31.5 57.3,31.8 "/>
<polygon fill="#231F20" points="58.5,32.4 57.6,32.8 57.5,32.6 58.4,32.2 "/>
<polygon fill="#231F20" points="58.7,32.8 57.7,33.2 57.6,33 58.6,32.6 "/>
<path fill="#231F20" d="M60.1,35.4l-0.2,0.2c-0.5,0.5-1.3,0.5-2.2,0.3c0.4-0.2,0.9-0.8,1.8-0.9c0.5,0,0.8-0.1,0.9-0.1l-0.3,0
	c-0.4-0.1-0.6-0.2-0.9-0.3c-0.3-0.1-0.6-0.3-0.8-0.4c-0.1-0.1-0.3-0.2-0.4-0.4l0.8-0.4c0.1,0.4,0.1,0.5,0.4,0.8
	c0.1,0.1,0.3,0.2,0.7,0.4c0.1,0.1,0.3,0.1,0.5,0.2c-0.2-0.2-0.4-0.4-0.6-0.6C59.3,33.5,59,33,59,32.7c0-0.4,0-0.7-0.1-1
	c0-0.2-0.1-0.4-0.1-0.7l0.6,0.6c0.4,0.5,0.6,0.9,0.6,1.2l0,0.9c0,0.2,0.1,0.4,0.3,0.6c0.1,0.1,0.3,0.3,0.4,0.3
	c-0.1-0.6-0.3-1.2,0-1.5c0.1-0.1,0.4-0.3,0.4-0.3c0,0.2,0.1,0.6,0.1,0.7c0,0.2-0.1,0.5-0.2,0.8c0,0.2-0.2,0.3-0.2,0.3
	c-0.2,0.1-0.3,0.2-0.4,0.3C60.3,35.2,60.1,35.4,60.1,35.4"/>
<path fill="#231F20" d="M62.5,28.3c-0.1-0.3-0.4-0.5-0.7-0.5c-0.2,0-0.4,0.2-0.3,0.5c0.1,0.2,0.2,0.3,0.4,0.3c0.1,0,0.2-0.1,0.2-0.3
	c0-0.2,0-0.2,0.1-0.2c0.1,0,0.2,0.1,0.2,0.3c0,0.2,0,0.4-0.1,0.5C62.1,29,62,29,61.8,29.1c-0.2,0-0.4,0-0.7,0c0,0.1,0,0.1,0,0.2
	c0.2,0.1,0.5,0.1,0.7,0C62.3,29.2,62.6,28.8,62.5,28.3"/>
<path fill="#231F20" d="M60.9,29c-0.2-0.1-0.5-0.2-0.9-0.4c-0.5-0.3-0.7-0.3-0.9-0.3l-0.3-0.1c0.2,0,0.4-0.1,0.5-0.2
	c0.2-0.1,0.3-0.3,0.2-0.5c0-0.2-0.2-0.3-0.4-0.3c-0.2,0-0.3,0.2-0.3,0.4c0,0.1,0.1,0.2,0.2,0.2c0.2,0,0-0.4,0.2-0.4
	c0.1,0,0.1,0.1,0.2,0.2c0,0.2-0.2,0.3-0.5,0.4c0,0-0.1,0-0.3,0c-0.3,0-0.8-0.1-1.2,0c-0.7,0.1-1.1,0.5-1.4,0.8c0-0.1,0-0.2,0-0.3
	c-0.1-0.3-0.4-0.6-0.7-0.5c-0.2,0-0.3,0.1-0.4,0.3c-0.1,0.1-0.1,0.2-0.1,0.4c0,0.2,0.3,0.4,0.5,0.3c0.2,0,0.3-0.2,0.3-0.4
	c0-0.1-0.1-0.2-0.2-0.2c0,0-0.1,0-0.1,0.1c0,0.1,0.1,0.2,0,0.2c-0.1,0-0.2,0-0.3-0.2c0-0.2,0.1-0.3,0.3-0.4c0.2-0.1,0.4,0.1,0.5,0.3
	c0,0.2,0,0.4-0.1,0.6c-0.1,0.3-0.3,0.9-0.2,1.4c0,0.2,0,0.5,0.1,0.7C55.2,31,55.1,31,54.9,31c-0.4,0.1-0.6,0.4-0.5,0.8
	c0,0.2,0.1,0.3,0.3,0.4c0.1,0.1,0.2,0.1,0.3,0.1c0.3-0.1,0.4-0.2,0.4-0.5c0-0.2-0.2-0.3-0.4-0.3c-0.1,0-0.2,0.1-0.2,0.3
	c0,0.1,0.1,0.1,0.2,0.1c0,0,0.2-0.1,0.2,0c0.1,0.1,0,0.2-0.2,0.3c-0.2,0-0.3-0.1-0.4-0.3c-0.1-0.3,0.1-0.5,0.4-0.6
	c0.2-0.1,0.5,0.1,0.7,0.4c0.3,0.7,0.7,1.2,1.2,1.5l0,0c0.1,0,0.1-0.1,0.2-0.1c-0.2-0.1-0.3-0.2-0.5-0.4c-0.4-0.4-0.7-0.9-0.8-1.5
	c-0.1-0.6,0-1.2,0.2-1.7c0.3-0.6,0.8-0.9,1.5-1.1c0.5-0.1,1,0,1.4,0.2c0.4,0.3,0.7,0.7,0.8,1.2c0.1,0.4,0.1,0.8-0.1,1.2
	c0,0.1-0.1,0.2-0.2,0.3c0.1,0,0.1,0.1,0.2,0.1c0.1-0.1,0.2-0.2,0.2-0.3c0.2-0.4,0.2-0.8,0.1-1.2c0-0.1-0.1-0.3-0.1-0.4
	c0.1,0.1,0.3,0.2,0.4,0.4c0-0.2,0-0.3-0.1-0.5c-0.3-0.2-0.6-0.5-0.8-0.7l0.1,0l1.1,0.5c0.3,0.1,0.5,0.2,0.7,0.2c0-0.1,0-0.1,0-0.2
	C61.1,29,61,29,60.9,29"/>
<path fill="#231F20" d="M71,47.3L71,47.3L71,47.3c-0.1,0-0.2,0.1-0.2,0.1l0,0l0,0c0.4,1.6,0.3,2.9,0.3,2.9c-0.1,1.6-0.5,2.9-1,4
	c-1.1,2.2-2.9,3.8-5.1,4.4c-1,0.3-1.3,0.5-1.7,0.9c0,0-0.1,0.1-0.1,0.1c0.1,0.1,0.2,0.1,0.2,0.2c0,0,0.1-0.1,0.1-0.1
	c0.4-0.4,0.6-0.6,1.5-0.8c2.3-0.7,4.1-2.3,5.3-4.6c0.5-1.1,0.9-2.5,1-4.1C71.3,50.4,71.4,49,71,47.3"/>
<path fill="#231F20" d="M62.7,60c-0.3,0-0.5,0.2-0.5,0.5c0,0.3,0.2,0.5,0.5,0.5c0.3,0,0.5-0.2,0.5-0.5C63.2,60.2,63,60,62.7,60"/>
<path fill="#231F20" d="M51.3,57L51.3,57L51.3,57c-0.1-0.1-0.1-0.1-0.2-0.1l0,0l0,0C50,58,49,58.5,49,58.5c-1.2,0.7-2.5,1.1-3.5,1.3
	c-2.2,0.3-4.3-0.3-6-1.7c-0.8-0.7-1.1-0.7-1.6-0.8c0,0-0.1,0-0.1,0c0,0.1,0,0.2,0,0.3c0,0,0.1,0,0.1,0c0.5,0.1,0.7,0.1,1.4,0.8
	c1.7,1.4,3.9,2.1,6.2,1.8c1.1-0.1,2.3-0.6,3.6-1.3C49.1,58.8,50.2,58.2,51.3,57"/>
<path fill="#231F20" d="M37.4,56.9c-0.1-0.2-0.4-0.3-0.6-0.1c-0.2,0.1-0.3,0.4-0.1,0.6c0.1,0.2,0.4,0.3,0.6,0.1
	C37.5,57.4,37.5,57.2,37.4,56.9"/>
<path fill="#231F20" d="M71.1,56.6c0.9-0.2,1.6-0.3,2-0.3c0.4,0,0.7,0,0.9,0c0,0,0.1,0,0.1,0l0.1,0c0.2,0.1,0.2,0.2,0.2,0.3
	c0,0-0.1,0.1-0.2,0.1c0,0-0.1,0.1-0.1,0.1c-0.1,0.2,0,0.3,0.1,0.4c0.2,0.1,0.4,0,0.5-0.2c0.2-0.3-0.1-0.7-0.5-0.9
	c-0.2-0.1-0.5-0.1-0.9-0.2l0-0.1c0.4-0.2,0.8-0.5,1.3-0.9c0.6-0.5,1-1.1,1.2-1.6c0.1-0.2,0.2-0.4,0.3-0.8c0.1-0.3,0.3-0.6,0.3-0.7
	c0.5-1.1,1-1.8,1.5-1.8l0-0.2c0-0.1-0.1-0.2-0.2-0.2c-0.2-0.1-0.4,0-0.7,0.4c-0.1,0.2-0.2,0.4-0.4,0.8l-0.4,1l-0.1,0
	c0-1.1-0.4-1.8-1.1-2.2c-0.7-0.4-1.5-0.1-1.9,0.7c-0.3,0.7,0,1.4,0.5,1.7c0.6,0.3,1.2,0.1,1.4-0.5c0.2-0.3,0-0.8-0.3-0.9
	c-0.2-0.1-0.6-0.1-0.7,0.2c-0.1,0.2,0,0.4,0.2,0.5c0.2,0.1,0.5,0,0.5-0.3c0.1,0.1,0.2,0.2,0,0.5c-0.1,0.2-0.2,0.3-0.3,0.3
	c-0.2,0.1-0.4,0.1-0.7-0.1c-0.5-0.2-0.7-0.8-0.4-1.3c0.4-0.8,1.1-0.9,1.7-0.6c0.7,0.3,1,0.8,1,1.6c0,0.6-0.1,1.2-0.4,1.9
	c-0.4,0.8-1,1.5-1.9,2.1c-0.7,0.5-1.3,0.7-1.8,0.8L71.9,56l1.1-0.5c0.7-0.4,1.1-0.9,1.4-1.4c0.2-0.3,0.2-0.7,0.1-1.1
	c-0.1-0.1-0.1-0.2-0.2-0.2c-0.1,0,0.1,0.5-0.1,0.8c0,0.1-0.1,0.1-0.2,0.2c-0.2,0.1-0.4,0.2-0.4,0.2c-0.3,0.2-0.3,0.3-0.6,0.9
	c0-0.2-0.1-0.3-0.2-0.4c-0.1,0-0.3-0.1-0.4,0.2c0,0.1-0.1,0.3-0.2,0.4c-0.1,0.2-0.4,0.8-1.3,1.1c-0.1,0-0.2,0.1-0.4,0.1
	C70.7,56.4,70.9,56.5,71.1,56.6"/>
<path fill="#231F20" d="M77,48.8c-0.2,0.5-0.4,1.4-0.5,2l-0.2,0c0-0.4-0.1-0.9-0.3-1.3c-0.2-0.4-0.3-0.7-0.5-0.7
	c-0.1-0.1-0.2-0.1-0.2-0.1c-0.1,0-0.2,0.1-0.3,0.2c0-0.2,0-0.3,0.1-0.4c0.1-0.2,0.3-0.3,0.5-0.2c0.2,0.1,0.3,0.2,0.4,0.5
	c0.1,0.2,0.2,0.5,0.3,0.8l0.1-0.1l-0.6-1.8l0.1-1.6l0.7,1.4l0,1.9l0.1,0c0-0.5,0.1-0.9,0.2-1.1c0.1-0.3,0.4-0.4,0.6-0.3
	c0.1,0,0.2,0.1,0.2,0.2c0,0,0.1,0.1,0.1,0.1C77.3,48.5,77.2,48.6,77,48.8"/>
<path fill="#231F20" d="M80,52.1c-0.1-0.1-0.2-0.2-0.4-0.1c-0.1,0-0.2,0.1-0.3,0.2l-0.2,0c0,0-0.1,0-0.2,0c-0.3,0-0.6,0.1-0.9,0.3
	c-0.8,0.3-1.5,0.9-1.6,1.2l-0.1,0c0,0,0-0.1,0-0.1c-0.1,0.1-0.1,0.1-0.1,0.2c0,0.1,0,0.2-0.1,0.3c-0.3,0.6-0.8,1.1-1.4,1.3
	c0,0.1,0,0.1-0.1,0.2c0,0,0,0,0,0c0.4-0.2,0.8-0.4,1.1-0.7c0.1-0.1,0.2-0.2,0.4-0.6l0.5-0.7c0.2-0.2,0.4-0.4,0.6-0.5
	c0.1,0,0.3-0.1,0.6-0.1c0.4,0,0.7,0.1,0.8,0.4c0.1,0.3,0,0.5-0.1,0.5c-0.1,0-0.2,0-0.2-0.1c0.1-0.1,0.1-0.2,0.1-0.2
	c0-0.1-0.1-0.1-0.2-0.1c-0.1,0-0.2,0.2-0.1,0.3c0.1,0.2,0.3,0.3,0.5,0.2c0.3-0.1,0.4-0.4,0.3-0.6c-0.1-0.3-0.4-0.5-0.7-0.6
	c-0.3-0.1-0.5,0-0.9,0.1c0.2-0.2,0.6-0.4,0.9-0.5c0.4-0.1,0.6-0.2,0.9-0.3c0.1,0,0.2,0,0.3,0c0.1,0.1,0.2,0.2,0.4,0.2
	C79.9,52.5,80.1,52.3,80,52.1"/>
<path fill="#231F20" d="M35.4,58.8c-1.1-0.1-1.9-0.2-2.4-0.3c-0.5,0-0.9,0-1.1,0.1c0,0-0.1,0-0.1,0l-0.1,0.1
	c-0.2,0.1-0.2,0.2-0.2,0.3c0,0,0.1,0.1,0.2,0.1c0.1,0,0.1,0.1,0.1,0.1c0.1,0.2,0.1,0.3-0.1,0.5c-0.3,0.1-0.5,0-0.6-0.2
	c-0.2-0.4,0.1-0.8,0.5-1.1c0.2-0.1,0.6-0.2,1-0.3l0-0.1c-0.5-0.2-1-0.5-1.6-1c-0.7-0.6-1.3-1.2-1.6-1.8c-0.1-0.2-0.3-0.5-0.5-0.9
	c-0.2-0.4-0.3-0.7-0.4-0.8c-0.7-1.3-1.3-2-1.9-2l0-0.2c0-0.1,0.1-0.2,0.2-0.3c0.2-0.1,0.5,0,0.8,0.4c0.1,0.2,0.3,0.5,0.5,0.9
	l0.6,1.2l0.1,0c-0.1-1.3,0.3-2.1,1.2-2.6c0.8-0.5,1.8-0.3,2.3,0.7c0.4,0.8,0.2,1.7-0.5,2c-0.7,0.4-1.4,0.2-1.7-0.4
	c-0.2-0.4-0.1-0.9,0.3-1.1c0.3-0.2,0.7-0.2,0.8,0.1c0.1,0.3,0,0.5-0.2,0.6c-0.3,0.1-0.5,0-0.6-0.3c-0.1,0.1-0.2,0.3,0,0.6
	c0.1,0.2,0.2,0.3,0.4,0.4c0.2,0.1,0.5,0.1,0.8-0.1c0.6-0.3,0.7-1,0.4-1.6c-0.5-0.9-1.3-1-2-0.6c-0.7,0.4-1.1,1.1-1.1,2
	c0,0.7,0.2,1.4,0.6,2.2c0.5,0.9,1.3,1.7,2.4,2.3c0.8,0.5,1.5,0.8,2.2,0.8l0.1-0.1l-1.3-0.6c-0.8-0.4-1.4-0.9-1.8-1.6
	c-0.2-0.4-0.3-0.8-0.2-1.3c0.1-0.1,0.1-0.2,0.2-0.3c0.1,0,0,0.6,0.1,1c0,0.1,0.1,0.1,0.2,0.2c0.3,0.1,0.5,0.2,0.5,0.2
	c0.3,0.2,0.4,0.3,0.8,1c0-0.2,0.1-0.4,0.2-0.4c0.1-0.1,0.3-0.1,0.5,0.2c0,0.1,0.2,0.4,0.2,0.5c0.1,0.2,0.6,0.9,1.6,1.2
	c0.1,0,0.3,0.1,0.5,0.1C35.8,58.5,35.6,58.6,35.4,58.8"/>
<path fill="#231F20" d="M27.8,50.1c0.3,0.6,0.6,1.6,0.7,2.3l0.3,0c0-0.5,0.1-1.1,0.2-1.6c0.2-0.5,0.3-0.8,0.5-0.9
	c0.1-0.1,0.2-0.1,0.3-0.1c0.2,0,0.3,0,0.4,0.2c0-0.2-0.1-0.3-0.1-0.4c-0.1-0.3-0.4-0.3-0.6-0.2c-0.2,0.1-0.3,0.3-0.5,0.7
	c-0.1,0.3-0.2,0.6-0.2,0.9l-0.1-0.1l0.5-2.1l-0.3-1.9l-0.7,1.8l0.2,2.2l-0.1,0c-0.1-0.5-0.2-1-0.3-1.3c-0.2-0.3-0.5-0.4-0.7-0.3
	c-0.1,0.1-0.2,0.1-0.2,0.2c0,0-0.1,0.1-0.1,0.1C27.4,49.7,27.6,49.8,27.8,50.1"/>
<path fill="#231F20" d="M24.5,54.2C24.6,54,24.8,54,25,54c0.2,0,0.3,0.1,0.3,0.2l0.3,0c0.1,0,0.1,0,0.2,0c0.3,0,0.7,0.1,1.1,0.2
	c0.9,0.3,1.8,0.9,2,1.3l0.1,0c0,0,0-0.1,0-0.1c0.1,0.1,0.1,0.2,0.2,0.3c0,0.1,0.1,0.3,0.1,0.4c0.5,0.7,1.1,1.3,1.8,1.5
	c0,0.1,0.1,0.2,0.1,0.3c0,0,0,0,0,0c-0.5-0.2-1-0.4-1.3-0.8c-0.1-0.1-0.2-0.3-0.5-0.6l-0.7-0.8c-0.2-0.3-0.5-0.4-0.7-0.5
	c-0.1,0-0.4,0-0.7-0.1c-0.5,0-0.8,0.2-0.9,0.5c-0.1,0.4,0,0.6,0.2,0.6c0.2,0,0.2,0,0.2-0.1c-0.1-0.1-0.1-0.2-0.1-0.3
	c0-0.1,0.1-0.1,0.3-0.1c0.1,0,0.2,0.2,0.2,0.4c-0.1,0.2-0.3,0.4-0.6,0.3c-0.3-0.1-0.5-0.4-0.4-0.7c0.1-0.4,0.4-0.6,0.8-0.7
	c0.3-0.1,0.6-0.1,1,0c-0.3-0.2-0.7-0.4-1.1-0.5c-0.4-0.1-0.8-0.2-1.1-0.2c-0.2,0-0.3,0-0.4,0c-0.1,0.2-0.2,0.2-0.4,0.2
	C24.7,54.6,24.5,54.4,24.5,54.2"/>
<path fill="#231F20" d="M76.3,41.3l0.2,0.2l0.4-0.3c0.3-0.2,0.5-0.3,0.6-0.4l-0.1-0.2c-0.1,0.1-0.3,0.2-0.6,0.4L76.3,41.3z"/>
<polygon fill="#231F20" points="76.3,39.3 75.5,39.8 75.6,40 76.5,39.5 "/>
<polygon fill="#231F20" points="75.7,38.7 75.3,39.1 75.3,39.3 75.9,38.9 "/>
<polygon fill="#231F20" points="75.5,38.4 75.2,38.7 75.2,38.9 75.6,38.6 "/>
<polygon fill="#231F20" points="75,38 75.1,38.5 75.3,38.3 "/>
<polygon fill="#231F20" points="75.8,40.4 76.7,39.8 76.6,39.6 75.7,40.2 "/>
<polygon fill="#231F20" points="76.1,39 75.4,39.5 75.5,39.6 76.2,39.2 "/>
<polygon fill="#231F20" points="76,40.8 77,40.1 76.9,39.9 75.9,40.5 "/>
<polygon fill="#231F20" points="76.2,41.2 77.3,40.5 77.1,40.3 76.1,41 "/>
<path fill="#231F20" d="M77.3,43.9c0.1-0.4,0.2-0.7,0.3-1c0.1-0.4,0.1-0.7,0.1-1c0-0.2-0.1-0.4-0.1-0.6l-0.9,0.5
	c0.4,0.3,0.4,0.5,0.5,0.9c0,0.1,0,0.4-0.1,0.9c0,0.1-0.1,0.3-0.1,0.6c0-0.3-0.1-0.7-0.2-1c-0.2-0.9-0.5-1.5-0.8-1.7
	c-0.4-0.2-0.7-0.5-0.9-0.7c-0.2-0.1-0.4-0.3-0.6-0.6l0.2,1c0.2,0.7,0.4,1.2,0.7,1.4l0.9,0.7c0.2,0.2,0.4,0.4,0.4,0.7
	c0,0.2,0.1,0.6,0,0.6c-0.5-0.5-1-1-1.4-1c-0.2,0-0.5,0.2-0.5,0.2c0.2,0.2,0.5,0.5,0.6,0.6c0.1,0.1,0.5,0.2,0.9,0.3
	c0.2,0.1,0.4,0,0.4,0C77,44.5,77.3,43.9,77.3,43.9"/>
<path fill="#231F20" d="M22,41.5l0.2,0.1L22.1,42c-0.1,0.3-0.2,0.5-0.2,0.6l-0.2-0.1c0-0.1,0.1-0.3,0.2-0.6L22,41.5z"/>
<polygon fill="#231F20" points="20.3,42 20.5,41.2 20.7,41.2 20.5,42.1 "/>
<polygon fill="#231F20" points="19.6,41.7 19.8,41.2 20,41.2 19.8,41.8 "/>
<polygon fill="#231F20" points="19.3,41.5 19.4,41.3 19.7,41.2 19.5,41.6 "/>
<polygon fill="#231F20" points="18.9,41.3 19.2,41.2 19.1,41.4 "/>
<polygon fill="#231F20" points="21.1,41.3 20.8,42.3 20.6,42.2 20.9,41.3 "/>
<polygon fill="#231F20" points="19.9,41.9 20.2,41.2 20.3,41.2 20.1,42 "/>
<polygon fill="#231F20" points="21.4,41.3 21.2,42.4 21,42.3 21.2,41.3 "/>
<polygon fill="#231F20" points="21.9,41.4 21.6,42.5 21.4,42.5 21.7,41.4 "/>
<path fill="#231F20" d="M24.9,41.9l0,0.3c0.1,0.8-0.4,1.4-1.1,2.1c0-0.5-0.1-1.3,0.4-2.1c0.3-0.4,0.4-0.7,0.5-0.9l-0.2,0.2
	c-0.3,0.2-0.5,0.4-0.8,0.6c-0.3,0.2-0.6,0.3-0.9,0.4c-0.2,0-0.4,0.1-0.6,0.1l0.2-0.9c0.4,0.2,0.5,0.2,0.9,0.2c0.1,0,0.4-0.1,0.8-0.3
	c0.1,0,0.3-0.1,0.5-0.3c-0.3,0-0.6,0.1-0.9,0.1c-0.8,0.1-1.4,0-1.7-0.2c-0.3-0.2-0.6-0.4-0.9-0.6c-0.2-0.1-0.4-0.2-0.6-0.3l0.9-0.1
	c0.6-0.1,1.1,0,1.4,0.2l0.8,0.6c0.2,0.1,0.4,0.2,0.7,0.2c0.1,0,0.5-0.1,0.5-0.1c-0.5-0.3-1.1-0.5-1.2-0.9c0-0.2,0-0.5,0.1-0.5
	c0.2,0.1,0.6,0.3,0.7,0.4c0.1,0.1,0.3,0.4,0.5,0.7c0.1,0.2,0.1,0.4,0.1,0.4c-0.1,0.2,0,0.4,0,0.5C25,41.7,24.9,41.9,24.9,41.9"/>
<path fill="#231F20" d="M73.9,44.9c0.1,0.3,0,0.7-0.2,1.1c-0.1,0.3-0.4,0.7-0.7,1.2c-0.2,0.2-0.3,0.5-0.3,0.7
	c-0.1,0.3-0.1,0.6-0.1,0.9l-0.1,0c0-0.1-0.1-0.3-0.1-0.3c-0.1-0.5,0-1,0.4-1.8c0.4-0.8,0.6-1.2,0.7-1.6c0.1-0.3,0.1-0.6,0-0.8
	c0-0.2-0.1-0.3-0.1-0.4C73.6,44.1,73.8,44.5,73.9,44.9"/>
<path fill="#231F20" d="M46,62.4c-0.3,0.6-1.1,0.6-2,0.1c-0.2-0.1-0.5-0.3-0.7-0.5c-0.1,0.1-0.3,0.1-0.5-0.1
	c-0.2-0.1-0.3-0.3-0.2-0.5c-0.1-0.1-0.2-0.2-0.3-0.3c-0.2-0.2-0.6-0.4-1-0.6c-0.4-0.2-0.9-0.4-1.2-0.4c0.4,0.2,0.6,0.5,0.8,0.8
	c0.3,0.4,0.3,0.8,0.1,1.2c-0.2,0.3-0.5,0.5-0.9,0.3c-0.3-0.2-0.4-0.5-0.3-0.7c0.1-0.2,0.3-0.3,0.4-0.2c0.2,0.1,0.2,0.2,0.1,0.3
	c0,0.1-0.1,0.1-0.3,0.1c-0.1,0.1-0.1,0.2,0.1,0.3c0.2,0.1,0.4,0.1,0.6-0.3c0.2-0.3,0.1-0.7-0.3-1.1c-0.3-0.2-0.5-0.5-0.6-0.5
	c-0.3-0.1-0.6-0.2-1-0.2l-1.2,0.2c-0.5,0.1-0.8,0.1-0.9,0.1c-0.6,0-1.1-0.1-1.7-0.4c0,0,0,0,0,0c0.1,0,0.2-0.1,0.3-0.1
	c0.7,0.4,1.6,0.4,2.5,0.1c0.1,0,0.3-0.1,0.4-0.2c0.1,0,0.2,0,0.3-0.1c0,0-0.1,0.1-0.1,0.1l0.1,0.1c0.5-0.1,1.7,0,2.6,0.5
	c0.4,0.2,0.8,0.4,1.1,0.6c0.1,0,0.1,0.1,0.2,0.1l0.2,0.2c0.1-0.1,0.3,0,0.4,0.1c0.2,0.2,0.3,0.3,0.2,0.5c0.2,0.2,0.4,0.4,0.7,0.5
	c0.7,0.4,1.4,0.4,1.7-0.2c0.1-0.3,0.1-0.4-0.1-0.5c-0.1-0.1-0.2,0-0.2,0c0,0,0,0.1,0,0.1c0.1,0.1,0,0.2,0,0.3
	c-0.1,0.1-0.2,0.1-0.4,0C45,62.1,45,62,45.1,61.7c0.1-0.2,0.4-0.3,0.6-0.2C46.2,61.6,46.2,62.1,46,62.4"/>
<path fill="#231F20" d="M52.2,24.8c0.3,0.1,0.6,0,0.7,0c0.8-0.2,1.4-0.4,1.9-0.2c0.4,0.1,0.6,0.2,0.9,0.3c0.2,0.1,0.4,0.3,0.7,0.5
	c0.4,0.3,0.6,0.5,0.8,0.6c0.8,0.4,1.2,0.4,1.8,0.3c0,0,0.1,0,0.1,0c0.2-0.1,0.4-0.3,0.4-0.6c0.1-0.2,0-0.4-0.1-0.6
	c-0.1-0.2-0.3-0.4-0.6-0.4c-0.2,0-0.4,0-0.6,0.1c-0.1,0.1-0.2,0.2-0.2,0.4c0,0.1,0,0.2,0.1,0.3c0,0,0.1,0.1,0.3,0.1
	c0.2,0,0.3,0.1,0.2,0.3c0,0.2-0.2,0.2-0.3,0.2c-0.3-0.1-0.5-0.4-0.5-0.8c0-0.2,0.2-0.4,0.3-0.5c0.2-0.1,0.4-0.2,0.7-0.1
	c0.6,0.1,0.9,0.7,0.8,1.2c-0.1,0.3-0.2,0.5-0.4,0.6c0,0,0,0,0,0c0.2,0,1.2-0.1,1.2-0.1c0.5-0.1,1.7,0.1,2.6,0.6
	c0.4,0.3,0.8,0.5,1,0.7c0.1,0,0.1,0.1,0.2,0.1l0.2,0.2c0.1-0.1,0.3,0,0.4,0.1c0.2,0.2,0.3,0.3,0.2,0.5c0.2,0.2,0.4,0.4,0.7,0.6
	c0.7,0.4,1.4,0.4,1.7,0c0.1-0.2,0.1-0.4-0.1-0.5c-0.1-0.1-0.2-0.1-0.2,0c0,0,0,0.1,0,0.1c0.1,0.1,0,0.2,0,0.3
	c-0.1,0.1-0.2,0.1-0.4,0c-0.2-0.1-0.2-0.3-0.1-0.5c0.1-0.2,0.5-0.3,0.6-0.2c0.5,0.2,0.5,0.6,0.3,0.9c-0.3,0.5-1.1,0.5-2,0
	c-0.2-0.1-0.5-0.3-0.7-0.5c-0.1,0.1-0.3,0.1-0.5-0.1c-0.2-0.2-0.2-0.3-0.2-0.5c-0.1-0.1-0.2-0.2-0.3-0.3c-0.2-0.2-0.5-0.4-1-0.7
	c-0.3-0.2-0.9-0.4-1.2-0.5c0.3,0.2,0.6,0.5,0.8,0.8c0.2,0.4,0.3,0.8,0,1.2c-0.2,0.3-0.6,0.5-0.9,0.3c-0.3-0.2-0.3-0.5-0.2-0.7
	c0.1-0.2,0.3-0.3,0.4-0.2c0.2,0.1,0.2,0.2,0.1,0.3c0,0.1-0.2,0.1-0.3,0.1c-0.1,0.1-0.1,0.2,0.1,0.3c0.2,0.1,0.4,0.1,0.6-0.3
	c0.2-0.3,0.1-0.7-0.2-1.1c-0.3-0.2-0.5-0.5-0.6-0.5c-0.3-0.2-0.6-0.2-1-0.2l-1.2,0.1c-0.5,0-0.8,0.1-0.9,0.1c-0.2,0-0.3,0-0.5,0
	c-0.1,0-0.1,0-0.2,0c-0.5-0.1-1-0.3-1.5-0.7c-0.6-0.3-1-0.5-1.2-0.6c-0.3-0.1-0.5,0-0.5,0.2c0,0.1,0.1,0.2,0.2,0.3
	c0.1,0,0.1,0,0.2,0c-0.1,0.2-0.3,0.3-0.6,0.2c-0.3-0.1-0.4-0.3-0.4-0.5c0-0.1,0.1-0.2,0.2-0.3c-0.3,0.1-0.6,0.1-0.8,0.2
	c-0.3,0.1-0.6,0.1-0.9,0c-0.2,0-0.3-0.1-0.4-0.1c-0.1,0-0.3-0.2-0.5-0.4C52,24.8,52.1,24.8,52.2,24.8"/>
<path fill="#231F20" d="M45.2,47.9c0-0.2,0.1-0.3,0-0.4c-0.1-0.1-0.2-0.2-0.4-0.1c0,0-0.1,0-0.1,0c0,0,0,0,0.1-0.1
	c0.1-0.1,0.1-0.3,0-0.4c-0.1-0.1-0.3-0.1-0.4-0.1c-0.1-0.1-0.3-0.2-0.4-0.2c-0.1,0-0.3,0.1-0.3,0.3c0,0,0,0,0,0.1c0,0,0,0,0-0.1
	c-0.1-0.1-0.2-0.2-0.4-0.2c-0.1,0-0.2,0.2-0.3,0.3c-0.1,0.1-0.3,0.2-0.3,0.3c0,0.1,0,0.3,0.2,0.4c0.1,0,0.1,0.1,0.2,0.1
	c-0.1,0-0.2,0-0.2,0c-0.2,0.1-0.2,0.2-0.3,0.3c0,0.1,0.2,0.2,0.2,0.4c0.1,0.1,0.1,0.3,0.2,0.4c0.1,0.1,0.3,0,0.4-0.1
	c0-0.1,0.1-0.1,0.1-0.2c0,0.1,0,0.2,0,0.2c0,0.2,0.1,0.3,0.2,0.3c0.1,0,0.3-0.1,0.4-0.1c0.1,0,0.3,0,0.4-0.1c0.1-0.1,0.1-0.3,0-0.4
	c0-0.1-0.1-0.1-0.1-0.2c0.1,0,0.2,0.1,0.2,0.1c0.2,0,0.3,0,0.4-0.1C45.3,48.2,45.2,48.1,45.2,47.9 M44.1,48.2
	c-0.1,0-0.2,0.1-0.3,0.2c0-0.1,0-0.3-0.1-0.4c-0.1-0.1-0.2-0.2-0.3-0.2c0.1,0,0.2-0.1,0.3-0.2c0.1-0.1,0.1-0.2,0.1-0.3
	c0.1,0.1,0.1,0.2,0.2,0.2c0.1,0,0.2,0,0.3,0c-0.1,0.1-0.1,0.2-0.1,0.3c0,0.1,0,0.2,0.1,0.3C44.3,48.2,44.2,48.2,44.1,48.2"/>
<path fill="#231F20" d="M44.1,47.7c-0.1,0-0.2,0-0.3,0.1c0,0.1,0,0.2,0.1,0.3c0.1,0,0.2,0,0.3-0.1C44.2,47.8,44.2,47.7,44.1,47.7"/>
<path fill="#231F20" d="M20.2,46c0-0.2,0.1-0.3,0-0.4c-0.1-0.1-0.2-0.2-0.4-0.1c0,0-0.1,0-0.1,0c0,0,0,0,0.1-0.1
	c0.1-0.1,0.1-0.3,0-0.4c-0.1-0.1-0.3-0.1-0.4-0.1c-0.1-0.1-0.3-0.2-0.4-0.2c-0.1,0-0.3,0.1-0.3,0.3c0,0,0,0,0,0.1c0,0,0,0,0-0.1
	c-0.1-0.1-0.2-0.2-0.4-0.2c-0.1,0-0.2,0.2-0.3,0.3c-0.1,0.1-0.3,0.2-0.3,0.3c0,0.1,0,0.3,0.2,0.4c0.1,0,0.1,0.1,0.2,0.1
	c-0.1,0-0.2,0-0.2,0c-0.2,0-0.2,0.2-0.3,0.3c0,0.1,0.2,0.2,0.2,0.4c0.1,0.1,0.1,0.3,0.2,0.4c0.1,0.1,0.3,0,0.4-0.1
	c0-0.1,0.1-0.1,0.1-0.2c0,0.1,0,0.2,0,0.2c0,0.2,0.1,0.3,0.2,0.3c0.1,0,0.3-0.1,0.4-0.1c0.1,0,0.3,0,0.4-0.1c0.1-0.1,0.1-0.3,0-0.4
	c0-0.1-0.1-0.1-0.1-0.2c0.1,0,0.1,0.1,0.2,0.1c0.2,0,0.3,0,0.4-0.1C20.3,46.4,20.2,46.2,20.2,46 M19,46.3c-0.1,0-0.2,0.1-0.3,0.2
	c0-0.1,0-0.3-0.1-0.4c-0.1-0.1-0.2-0.2-0.3-0.2c0.1,0,0.2-0.1,0.3-0.2c0.1-0.1,0.1-0.2,0.1-0.3c0.1,0.1,0.1,0.2,0.2,0.2
	c0.1,0,0.2,0,0.3,0c-0.1,0.1-0.1,0.2-0.1,0.3c0,0.1,0,0.2,0.1,0.3C19.3,46.3,19.1,46.3,19,46.3"/>
<path fill="#231F20" d="M19,45.8c-0.1,0-0.2,0-0.3,0.1c0,0.1,0,0.2,0.1,0.3c0.1,0,0.2,0,0.3-0.1C19.2,45.9,19.1,45.8,19,45.8"/>
<path fill="#231F20" d="M51.5,7.5c0.3,0.4,0.7,0.7,1.1,0.9C53,8.6,53.5,8.8,54.2,9c-0.3,0.1-0.4,0.1-0.6,0.3l-0.3,0.3
	c0.5,0.3,0.8,0.3,1.4,0.2C54.1,10,54,10.6,54.4,11c0.1,0.1,0.1,0.2,0.3,0.2l0.2,0.1c-0.1-0.3-0.1-0.5,0-0.7c0.1-0.1,0.1-0.3,0.3-0.4
	c0.4-0.3,0.7-0.5,1.1-0.5c0.4-0.1,1,0,1.8,0l0-0.1c-0.4-0.2-1.1-0.4-2.1-0.7c-1-0.3-1.7-0.5-2.2-0.7C53,7.9,52.4,7.6,52,7.1
	c-0.6-0.7-1-1.4-1.1-1.8C50.8,6.1,50.9,6.8,51.5,7.5"/>
<path fill="#231F20" d="M47.7,7.5c-0.3,0.4-0.7,0.7-1.1,0.9c-0.4,0.2-0.9,0.4-1.5,0.5c0.3,0.1,0.4,0.1,0.6,0.3l0.3,0.3
	c-0.5,0.3-0.7,0.3-1.4,0.2c0.4,0.3,0.5,0.9,0.2,1.3c-0.1,0.1-0.1,0.2-0.3,0.2l-0.2,0.1c0.1-0.3,0.1-0.5,0-0.7
	c-0.1-0.1-0.1-0.3-0.3-0.4c-0.4-0.3-0.7-0.5-1.2-0.5c-0.4-0.1-1,0-1.7,0l0-0.1c0.4-0.2,1.1-0.4,2.1-0.7c1-0.3,1.7-0.5,2.2-0.7
	c0.8-0.3,1.3-0.7,1.7-1.1c0.6-0.7,1-1.4,1.1-1.8C48.5,6.1,48.3,6.8,47.7,7.5"/>
<path fill="#231F20" d="M50.9,8.4c-0.1,0-0.2,0-0.2,0c-0.5,0-0.8,0.4-0.9,1.4h0.1c0-0.1,0.1-0.5,0.3-0.5c0,0,0.1,0,0.1,0
	c0.1,0,0.2,0.1,0.2,0.1c0,0,0,0.1-0.1,0.1v0c0,0,0,0.2,0.3,0.2c0.1,0,0.1,0,0.2,0c0.3-0.1,0.4-0.4,0.4-0.7
	C51.3,8.7,51.2,8.4,50.9,8.4"/>
<path fill="#231F20" d="M49.6,9.7h0.1c0-0.2,0-0.9,0.3-1.3c0.1-0.2,0.2-0.4,0.2-0.6c0-0.4-0.2-0.7-0.6-0.9c-0.4,0.2-0.6,0.6-0.6,0.9
	c0,0.2,0.1,0.4,0.2,0.6C49.6,8.9,49.6,9.5,49.6,9.7"/>
<path fill="#231F20" d="M48.9,9.3c0-0.1,0.1-0.1,0.2-0.1c0,0,0.1,0,0.1,0c0.2,0.1,0.3,0.4,0.3,0.5h0.1c-0.1-1-0.4-1.4-0.9-1.4
	c-0.1,0-0.2,0-0.2,0C48.2,8.4,48,8.7,48,8.9c0,0.3,0.2,0.6,0.4,0.7c0.1,0,0.2,0,0.2,0C48.9,9.6,48.9,9.4,48.9,9.3L48.9,9.3
	C48.9,9.4,48.9,9.3,48.9,9.3"/>
<path fill="#231F20" d="M50.1,10.7c-0.1,0-0.3,0-0.3-0.2h-0.4c0,0.2-0.2,0.2-0.3,0.2c0,0-0.1,0-0.1,0v0c0,0.2,0.1,0.2,0.2,0.2
	c0.1,0,0.2,0,0.2,0l0,0l0,0c0,0.1-0.1,0.1-0.1,0.2c0,0.2,0.2,0.4,0.2,0.4c0,0,0.2-0.2,0.2-0.4c0-0.1,0-0.1-0.1-0.2l0,0l0,0
	c0,0,0,0,0.1,0c0,0,0.1,0,0.1,0C50.1,10.9,50.2,10.9,50.1,10.7L50.1,10.7C50.2,10.7,50.1,10.7,50.1,10.7"/>
<path fill="#231F20" d="M50.2,9.9h-1.2c-0.1,0-0.1,0.1-0.1,0.1c0,0.1,0.1,0.1,0.1,0.1h1.2c0.1,0,0.1-0.1,0.1-0.1
	C50.4,10,50.3,9.9,50.2,9.9"/>
<path fill="#231F20" d="M25.1,61.9c0-0.1,0-0.2,0-0.2c-0.2,0.1-0.5,0-0.7-0.1c-0.5-0.3-0.7-1-0.3-1.5c0.3-0.5,1-0.7,1.5-0.4
	c0.2,0.1,0.3,0.3,0.4,0.6c0.1,0,0.1-0.1,0.2-0.1l0.1,0l-0.4,0.7l-0.1-0.1c0.2-0.4,0-0.8-0.3-1c-0.4-0.2-0.8,0.1-1,0.5
	c-0.2,0.4-0.4,0.9,0,1.1c0.3,0.2,0.7,0.1,1-0.2l0.1,0.1L25.1,61.9L25.1,61.9z"/>
<path fill="#231F20" d="M26.5,62.6c0.3,0.1,0.3,0.1,0.5-0.2l0.5-1c0.2-0.3,0.1-0.4-0.1-0.5l0-0.1l1.6,0.8L28.8,62l-0.1,0l0-0.1
	c0-0.2,0-0.3-0.2-0.4L28,61.3l-0.3,0.7l0.2,0.1c0.3,0.2,0.4,0.1,0.5-0.1l0.1,0l-0.4,0.8l-0.1,0c0.1-0.3,0.1-0.3-0.2-0.5l-0.2-0.1
	l-0.2,0.4c-0.2,0.3-0.1,0.4,0.1,0.5l0.3,0.1c0.3,0.1,0.4,0.1,0.5-0.1l0-0.1l0.1,0l-0.2,0.4L26.5,62.6L26.5,62.6z"/>
<path fill="#231F20" d="M31.1,64.2c0.2,0.4,0.3,0.6,0.4,0.7l0,0.1l-0.7-0.3l-0.2-1.1l-0.1,0l-0.2,0.4c-0.1,0.3-0.1,0.4,0.2,0.5
	l0,0.1l-1-0.4l0-0.1c0.3,0.1,0.3,0.1,0.5-0.3l0.4-1c0.1-0.3,0.1-0.4-0.2-0.5l0-0.1l1.1,0.4c0.4,0.2,0.6,0.5,0.4,0.8
	c-0.1,0.3-0.4,0.4-0.8,0.3L31.1,64.2z M31.3,63.2c0.1-0.2,0-0.5-0.3-0.6l-0.2-0.1l-0.3,0.8l0.2,0.1C31,63.5,31.2,63.4,31.3,63.2"/>
<path fill="#231F20" d="M35,64.3L35,64.3l-0.1-0.1c0-0.2,0-0.3-0.3-0.4l-0.3-0.1l-0.4,1.4c-0.1,0.3-0.1,0.4,0.2,0.5l0,0.1l-1-0.3
	l0-0.1c0.3,0.1,0.3,0,0.4-0.3l0.4-1.4l-0.3-0.1c-0.3-0.1-0.4,0-0.5,0.1l0,0.1l-0.1,0l0.2-0.5l2,0.6L35,64.3z"/>
<path fill="#231F20" d="M35.6,66.2L35.6,66.2c0.3,0,0.4-0.1,0.4-0.4l0.3-1.1c0.1-0.3,0.1-0.4-0.2-0.5l0-0.1l1.1,0.3l0,0.1
	c-0.3-0.1-0.3,0-0.4,0.3l-0.3,1.1c-0.1,0.3-0.1,0.4,0.2,0.5l0,0.1L35.6,66.2z"/>
<path fill="#231F20" d="M38.9,65.7l0.2,0c0.3,0.1,0.4,0,0.5-0.3l0.1,0l-0.2,0.8l-0.1,0c0.1-0.3,0-0.3-0.3-0.4l-0.2,0l-0.1,0.5
	c-0.1,0.3,0,0.4,0.2,0.5l0,0.1L38,66.7l0-0.1c0.3,0.1,0.3,0,0.4-0.3l0.2-1.1c0.1-0.3,0-0.4-0.2-0.5l0-0.1l1.8,0.3l-0.1,0.5l-0.1,0
	l0-0.1c0-0.2,0-0.3-0.3-0.3l-0.6-0.1L38.9,65.7z"/>
<path fill="#231F20" d="M41.1,67.3l0-0.1c0.3,0,0.3,0,0.4-0.4l0.1-1.1c0-0.4,0-0.4-0.3-0.5l0-0.1l1.1,0.1l0,0.1
	c-0.3,0-0.3,0-0.4,0.4l-0.1,1.1c0,0.3,0,0.4,0.3,0.5l0,0.1L41.1,67.3z"/>
<path fill="#231F20" d="M43.5,67.5c0.3,0,0.3,0,0.4-0.4L44,66c0-0.4,0-0.4-0.3-0.4l0-0.1l1.8,0.1l0,0.5l-0.1,0l0-0.1
	c0-0.2-0.1-0.3-0.4-0.3l-0.5,0l-0.1,0.8l0.2,0c0.3,0,0.4,0,0.4-0.3l0.1,0L45,67l-0.1,0c0-0.3,0-0.3-0.4-0.4l-0.2,0l0,0.5
	c0,0.4,0,0.4,0.3,0.4l0.3,0c0.3,0,0.4-0.1,0.4-0.2l0-0.1l0.1,0l-0.1,0.5l-1.9-0.1L43.5,67.5z"/>
<path fill="#231F20" d="M46.7,67.6c0.3,0,0.3-0.1,0.3-0.4l0-1.1c0-0.4,0-0.4-0.3-0.4v-0.1l1.1,0c0.8,0,1.2,0.5,1.1,1.1
	c0,0.6-0.4,1.1-1.2,1l-1.1,0V67.6z M47.5,67.2c0,0.3,0,0.4,0.3,0.4h0c0.6,0,0.7-0.5,0.7-0.9c0-0.4-0.1-0.9-0.7-0.9c0,0-0.4,0-0.4,0
	L47.5,67.2z"/>
<path fill="#231F20" d="M53.1,67.6c-0.6,0.1-1.2-0.4-1.3-1c-0.1-0.6,0.4-1.2,1-1.2c0.6-0.1,1.2,0.4,1.3,1
	C54.2,67,53.7,67.5,53.1,67.6 M52.9,65.5c-0.5,0-0.6,0.6-0.6,1c0,0.4,0.3,0.9,0.8,0.9c0.5,0,0.6-0.6,0.6-1
	C53.6,66,53.4,65.5,52.9,65.5"/>
<path fill="#231F20" d="M57.1,66.4c0.4,0.3,0.5,0.3,0.7,0.3l0,0.1L57.1,67l-0.8-0.8l-0.1,0l0.1,0.4c0.1,0.3,0.1,0.4,0.4,0.4l0,0.1
	l-1.1,0.2l0-0.1c0.3-0.1,0.3-0.1,0.3-0.5l-0.2-1.1c-0.1-0.3-0.1-0.4-0.4-0.4l0-0.1l1.1-0.2c0.4-0.1,0.7,0.1,0.8,0.5
	c0.1,0.3-0.1,0.6-0.5,0.7L57.1,66.4z M56.7,65.5c0-0.2-0.2-0.4-0.5-0.4l-0.2,0l0.1,0.9l0.2,0C56.6,65.9,56.8,65.7,56.7,65.5"/>
<path fill="#231F20" d="M60,65.6l0-0.1l1-0.2l0,0.1c-0.3,0.1-0.3,0.1-0.2,0.5l0.1,0.2c-0.4,0.1-0.5,0.3-0.8,0.4
	c-0.6,0.1-1.2-0.2-1.3-0.8c-0.1-0.6,0.2-1.2,0.8-1.3c0.2-0.1,0.5,0,0.7,0.1c0,0,0-0.1,0-0.2l0.1,0l0.2,0.8l-0.1,0
	c-0.2-0.4-0.5-0.6-0.9-0.5C59,64.5,59,65,59.1,65.5c0.1,0.4,0.4,0.9,0.8,0.8c0.3-0.1,0.5-0.2,0.4-0.5C60.3,65.6,60.2,65.5,60,65.6"
	/>
<path fill="#231F20" d="M62.4,65.3c0,0.2,0.1,0.3,0.3,0.2l0,0.1l-0.8,0.3l0-0.1c0.2-0.1,0.3-0.2,0.3-0.4l0.2-1.9l0.1,0l1.3,1.5
	c0.2,0.2,0.2,0.3,0.5,0.2l0,0.1l-1.1,0.3l0-0.1c0.3-0.1,0.3-0.2,0.2-0.3l-0.2-0.3l-0.7,0.2L62.4,65.3z M62.5,64.1l-0.1,0.7l0.5-0.2
	L62.5,64.1z"/>
<path fill="#231F20" d="M66.3,62.6c-0.1-0.3-0.2-0.4-0.5-0.3l0-0.1l0.8-0.3l0,0.1c-0.3,0.1-0.3,0.2-0.2,0.5l0.6,1.5l-0.1,0L65,63
	l0.4,1.1c0.1,0.3,0.2,0.4,0.5,0.3l0,0.1l-0.8,0.3l0-0.1c0.3-0.1,0.3-0.2,0.1-0.5l-0.4-1c-0.1-0.3-0.2-0.4-0.5-0.3l0-0.1l0.6-0.3
	l1.6,0.9L66.3,62.6z"/>
<path fill="#231F20" d="M68.5,63.3L68.5,63.3c0.2-0.2,0.2-0.3,0.1-0.6l-0.5-1c-0.2-0.3-0.2-0.4-0.5-0.2l0-0.1l1-0.5l0,0.1
	c-0.3,0.1-0.3,0.2-0.1,0.5l0.5,1c0.2,0.3,0.2,0.4,0.5,0.2l0,0.1L68.5,63.3z"/>
<path fill="#231F20" d="M72.2,61.3c-0.1-0.1-0.1-0.1-0.2-0.1c-0.1,0.3-0.2,0.5-0.4,0.6c-0.5,0.3-1.2,0.1-1.5-0.4
	c-0.3-0.5-0.2-1.2,0.4-1.5c0.2-0.1,0.5-0.1,0.7-0.1c0-0.1,0-0.1,0-0.2l0.1,0l0.4,0.7l-0.1,0c-0.3-0.3-0.7-0.4-1-0.2
	c-0.4,0.2-0.3,0.8,0,1.1c0.2,0.4,0.6,0.8,1,0.5c0.3-0.2,0.4-0.5,0.3-1l0.1-0.1L72.2,61.3L72.2,61.3z"/>
<path fill="#231F20" d="M27.1,27.4c0,0.2,0.1,0.2,0.4,0.1l0.1,0.1L26.8,28l-0.1-0.1c0.2-0.1,0.2-0.2,0.2-0.5l-0.3-1.9l0.1,0l1.6,1.1
	c0.2,0.1,0.3,0.2,0.5,0l0.1,0.1l-1,0.6l-0.1-0.1c0.3-0.2,0.2-0.2,0.1-0.4l-0.3-0.2L27.1,27L27.1,27.4z M26.9,26.2l0.1,0.7l0.5-0.3
	L26.9,26.2z"/>
<path fill="#231F20" d="M30.7,24c-0.2-0.3-0.2-0.4-0.5-0.2l0-0.1l0.7-0.4l0,0.1c-0.3,0.1-0.3,0.2-0.1,0.5l0.7,1.5l-0.1,0l-2.1-0.9
	l0.5,1c0.2,0.3,0.2,0.4,0.5,0.2l0,0.1l-0.7,0.4l0-0.1c0.3-0.1,0.3-0.2,0.1-0.5l-0.5-1c-0.2-0.3-0.2-0.4-0.5-0.2l0-0.1l0.6-0.3
	l1.7,0.7L30.7,24z"/>
<path fill="#231F20" d="M34.3,22.5c-0.1-0.3-0.2-0.4-0.5-0.3l0-0.1l0.8-0.3l0,0.1c-0.3,0.1-0.3,0.2-0.2,0.5l0.6,1.6L35,24l-2-1.1
	l0.4,1.1c0.1,0.3,0.2,0.4,0.5,0.3l0,0.1l-0.8,0.3l0-0.1c0.3-0.1,0.3-0.2,0.2-0.5l-0.4-1c-0.1-0.3-0.2-0.4-0.5-0.3l0-0.1l0.7-0.2
	l1.6,0.9L34.3,22.5z"/>
<path fill="#231F20" d="M36.7,23c0,0.2,0,0.3,0.3,0.2l0,0.1l-0.8,0.2l0-0.1c0.2-0.1,0.3-0.1,0.3-0.4l0.2-1.9l0.1,0l1.2,1.5
	c0.2,0.2,0.2,0.3,0.5,0.2l0,0.1l-1.1,0.3l0-0.1c0.3-0.1,0.3-0.2,0.2-0.3l-0.2-0.3l-0.7,0.2L36.7,23z M36.8,21.8l-0.1,0.7l0.5-0.2
	L36.8,21.8z"/>
<path fill="#231F20" d="M41,20.7c0.1,0.3-0.1,0.6-0.6,0.7l-0.4,0.1l0.1,0.4c0.1,0.3,0.1,0.4,0.4,0.3l0,0.1l-1.1,0.2l0-0.1
	c0.3-0.1,0.3-0.1,0.2-0.5L39.5,21c-0.1-0.3-0.1-0.4-0.4-0.3l0-0.1l1.1-0.2C40.6,20.2,41,20.4,41,20.7 M40.6,20.8
	c0-0.2-0.2-0.4-0.5-0.3l-0.2,0l0.2,0.9l0.2,0C40.5,21.3,40.6,21.1,40.6,20.8"/>
<path fill="#231F20" d="M43.6,21.9c-0.6,0.1-1.2-0.4-1.3-1c-0.1-0.6,0.4-1.2,1-1.3c0.6-0.1,1.2,0.4,1.3,1
	C44.7,21.3,44.3,21.9,43.6,21.9 M43.4,19.9c-0.5,0.1-0.6,0.6-0.6,1c0.1,0.4,0.3,0.9,0.8,0.9c0.5-0.1,0.6-0.6,0.6-1
	C44.1,20.3,43.9,19.8,43.4,19.9"/>
<path fill="#231F20" d="M45.9,19.6l0-0.1l1.1-0.1l0,0.1c-0.3,0-0.3,0.1-0.3,0.4l0.1,1c0,0.4,0.1,0.4,0.4,0.4l0.4,0
	c0.3,0,0.4-0.1,0.4-0.3l0-0.1l0.1,0l0,0.5l-2,0.1l0-0.1c0.3,0,0.3-0.1,0.3-0.4L46.3,20C46.3,19.7,46.2,19.6,45.9,19.6"/>
<path fill="#231F20" d="M49.1,21.5l0-0.1c0.3,0,0.3-0.1,0.3-0.4l0-1.1c0-0.4,0-0.4-0.3-0.4l0-0.1l1.1,0l0,0.1
	c-0.3,0-0.3,0.1-0.3,0.4l0,1.1c0,0.4,0,0.4,0.3,0.4l0,0.1L49.1,21.5z"/>
<path fill="#231F20" d="M51.8,21.6l-0.1,0l0.1-0.8l0.1,0c0,0.4,0.3,0.6,0.6,0.7c0.2,0,0.4-0.1,0.4-0.3c0-0.1-0.1-0.3-0.2-0.4
	l-0.3-0.2c-0.3-0.2-0.4-0.4-0.4-0.7c0-0.3,0.3-0.5,0.6-0.5c0.2,0,0.3,0.1,0.4,0.2c0,0,0.1-0.1,0.1-0.2l0.1,0l-0.1,0.8l-0.1,0
	c0-0.3-0.1-0.6-0.5-0.6c-0.1,0-0.3,0.1-0.3,0.3c0,0.1,0.1,0.3,0.3,0.4l0.3,0.2c0.2,0.1,0.4,0.4,0.4,0.7c0,0.4-0.4,0.6-0.7,0.6
	c-0.3,0-0.4-0.2-0.5-0.2C51.9,21.5,51.9,21.6,51.8,21.6"/>
<path fill="#231F20" d="M58.3,20.7l-1.1,1.6l-0.1,0l-0.4-1.9c-0.1-0.2-0.1-0.3-0.4-0.4l0-0.1l1.1,0.2l0,0.1c-0.3-0.1-0.3,0-0.3,0.2
	l0.3,1.2l0.7-1c0.1-0.2,0.1-0.3-0.2-0.3l0-0.1l0.8,0.1l0,0.1C58.5,20.4,58.4,20.4,58.3,20.7"/>
<path fill="#231F20" d="M59.5,22.3c-0.1,0.2-0.1,0.3,0.2,0.3l0,0.1l-0.8-0.2l0-0.1c0.2,0.1,0.3,0,0.5-0.2l1.2-1.5l0.1,0l0.3,1.9
	c0,0.2,0.1,0.3,0.3,0.4l0,0.1l-1.1-0.3l0-0.1c0.3,0.1,0.3,0,0.3-0.2l-0.1-0.4L59.7,22L59.5,22.3z M60.3,21.3l-0.4,0.6l0.5,0.1
	L60.3,21.3z"/>
<path fill="#231F20" d="M62.8,21.5L62.8,21.5l1.1,0.3l0,0.1c-0.3-0.1-0.3-0.1-0.4,0.3l-0.3,1c-0.1,0.3-0.1,0.4,0.2,0.5l0.4,0.1
	c0.3,0.1,0.4,0,0.5-0.1l0-0.1l0.1,0l-0.2,0.5l-1.9-0.6l0-0.1c0.3,0.1,0.3,0,0.4-0.3l0.4-1C63.1,21.7,63.1,21.6,62.8,21.5"/>
<path fill="#231F20" d="M65.9,22.6L65.9,22.6l1,0.3l0,0.1c-0.3-0.1-0.3-0.1-0.5,0.2L66,24.2c-0.1,0.3-0.1,0.4,0.1,0.5l0.4,0.2
	c0.3,0.1,0.4,0.1,0.5-0.1l0-0.1l0.1,0l-0.2,0.4l-1.8-0.8l0-0.1c0.3,0.1,0.3,0.1,0.5-0.2l0.4-1C66.2,22.8,66.2,22.7,65.9,22.6"/>
<path fill="#231F20" d="M68,25.6c0.3,0.1,0.3,0.1,0.5-0.2l0.5-1c0.2-0.3,0.2-0.4-0.1-0.5l0-0.1l1.6,0.8l-0.2,0.5l-0.1,0l0-0.1
	c0-0.2,0.1-0.3-0.2-0.4l-0.5-0.3L69.2,25l0.2,0.1c0.3,0.2,0.4,0.2,0.5-0.1l0.1,0l-0.4,0.7l-0.1-0.1c0.1-0.3,0.1-0.3-0.2-0.5
	l-0.2-0.1l-0.2,0.4c-0.2,0.3-0.2,0.4,0.1,0.5l0.3,0.1c0.3,0.2,0.4,0.1,0.5-0.1l0-0.1l0.1,0l-0.3,0.4L68,25.6L68,25.6z"/>
<path fill="#231F20" d="M73,26.7l-0.8,0.4l-0.2,0.4c-0.2,0.3-0.2,0.4,0,0.5l-0.1,0.1L71,27.5l0.1-0.1c0.2,0.2,0.3,0.1,0.5-0.2
	l0.2-0.3l0-0.9c0-0.3,0-0.4-0.2-0.5l0.1-0.1l1,0.6l-0.1,0.1c-0.2-0.1-0.3-0.1-0.3,0.1l0,0.7l0.7-0.3c0.2-0.1,0.2-0.2,0-0.3l0.1-0.1
	l0.7,0.5l-0.1,0.1C73.4,26.6,73.3,26.6,73,26.7"/>
<path fill="#231F20" d="M52.5,45.8c0.4,0.2,0.7,0.5,1,0.8c0.2-1.2,1.2-2.9,2.5-2.7c0.4,0.1,1.3,1,0.8,1.5c1.8,0.5,5.3-1.2,5.7-3.7
	c0.1-0.8-0.1-1.7-0.9-1.8c-1.2,0-1.4,1.4-0.5,2c-1.3,1.8-6.3-1.1-7.2-2.7l-0.5,0.5C55,41.8,53.4,44.3,52.5,45.8"/>
<path fill="#231F20" d="M67,44.1c-0.2,0-1,0-1,0.4c0,0.2,0.1,0.3,0.2,0.4c0.1,0,0.2,0,0.3,0c0.9,0.1,0.7,2.5,0.7,2.5
	c-0.5,3.7-4.8,4.6-6,4.5c-1.2,0-2.9,0.1-6.9-3.2c-0.2-0.2-0.4-0.4-0.7-0.6c0,0-6-6.3-7.7-8.2c-0.1-0.1-0.2-0.3-0.4-0.4
	c-1.4-1.6-2.5-3.2-2.5-4.7c0-2.5,1.5-3.5,3-3.5c1.3,0,2.5,0.7,2.5,1.8c0,0.4-0.9,1.3-1.3,0.9c-0.4,1.7,1.4,5,3.8,5.2
	c0.7,0,1.7-0.2,1.6-0.9c-0.1-1.2-1.5-1.3-1.9-0.4c-1.8-1.2,0.6-6.1,2-7.1l-0.5-0.4c-2,2-3.3-0.5-5.6-0.5c-5.1,0-5,4.4-7,5.7
	c1.2,0.8,1.1,1.3,1.5,2.3c0.5,1.2,1.8,2.7,3.2,4.2c0,0,5.3,5.4,6.7,6.8c0.8,0.8,1.8,1.7,2.5,2.4c0.8,0.8,2.6,3.4,5.6,3.9
	c0.7,0.3,1.6,0.7,2.1,1.3c1-0.8,0.8-1,2.1-1.4c2-0.6,3.6-2,4.5-4c0.5-1,0.9-2,0.9-3.7C68.7,45.8,68.2,44.2,67,44.1"/>
<path fill="#231F20" d="M47.8,53.1c-1,0.7-1.6,1.1-3.5,1c-1.7-0.3-3.6-2.5-4.2-3.4c-0.3-0.4-0.7-0.9-1-1.4c-0.5-0.9-1-1.9-1.1-2.8
	c0-0.3-0.3-1.9,1.8-3.8c0.6-0.5,2.1-1.4,2.5-1.5l-0.8-1.1c-0.1,0.1-0.3,0.1-0.5,0.2c-0.7,0.3-1.6,0.8-2,1.1c-1.4,1.1-2.4,2.5-3,3.9
	c-1,2-0.8,3.6-0.4,4.7c0.1,0.4,0.3,0.9,0.4,1.3c0.1,0.2,0.2,0.3,0.2,0.5c0.1,0.4,0.1,0.8,0.1,1.2c0,0.1,0,0.3,0,0.4
	c0,0.1,0,0.3-0.1,0.4c0,0,0.9,0.2,1.2,0.3c0.5,0.1,0.9,0.5,1.2,0.7c0.4,0.4,0.9,0.6,1.4,0.9c4,1.5,6.7,0.7,8.4-0.6
	c2-1.5,3.1-4,3.2-4.3l-1.1-1.1C50.5,49.7,49.5,51.9,47.8,53.1"/>
<path fill="#231F20" d="M22.9,52L22.9,52l-0.7,0.4c0,0,0.1,0.1,0.1,0.1L22.9,52z"/>
<path fill="#231F20" d="M22.4,51.5l-0.1-0.1l-0.9,0.7c0.1,0,0.1,0,0.2,0L22.4,51.5z"/>
<path fill="#231F20" d="M22.6,51.8l-0.1-0.1l-0.7,0.6c0,0,0.1,0,0.1,0.1L22.6,51.8z"/>
<path fill="#231F20" d="M23.1,52.3L23.1,52.3l-0.8,0.5c0,0,0,0.1,0,0.1L23.1,52.3z"/>
<path fill="#231F20" d="M20.3,50.3c0,0,0,0.1,0,0.1l0.7-0.5l-0.1-0.1L20.3,50.3z"/>
<path fill="#231F20" d="M20.2,50l0.6-0.5l-0.1-0.1l-0.5,0.4C20.2,49.9,20.2,50,20.2,50"/>
<path fill="#231F20" d="M21.2,50.1L21.2,50l-0.7,0.6c0,0,0,0.1,0.1,0.1L21.2,50.1z"/>
<path fill="#231F20" d="M20.1,49.1c0,0,0,0.1,0,0.1l0.2-0.2L20.2,49L20.1,49.1z"/>
<path fill="#231F20" d="M21.7,53.9l1.7-1.3l-0.1-0.1l-1.8,1.4C21.6,53.9,21.7,53.9,21.7,53.9L21.7,53.9z"/>
<path fill="#231F20" d="M21.2,54.3l0.3-0.2c-0.1,0-0.1,0-0.2,0.1C21.3,54.1,21.2,54.2,21.2,54.3"/>
<path fill="#231F20" d="M22.2,51.2L22.2,51.2L20.9,52c0,0,0.1,0,0.2,0L22.2,51.2z"/>
<path fill="#231F20" d="M21.9,51L21.9,51l-1.4,0.9c0,0,0.1,0,0.1,0.1L21.9,51z"/>
<path fill="#231F20" d="M21.7,50.7L21.7,50.7l-1.5,1c0,0,0.1,0,0.1,0.1L21.7,50.7z"/>
<path fill="#231F20" d="M20,51.5l1.4-1.1l-0.1-0.1l-0.8,0.6c0,0,0.1,0.1,0.1,0.1c0,0,0,0-0.1,0L20,51.5C20,51.5,20,51.5,20,51.5"/>
<path fill="#231F20" d="M20.6,49.3L20.6,49.3l-0.4,0.1c0,0,0,0.1,0,0.1L20.6,49.3z"/>
<path fill="#231F20" d="M23.4,53.2l-1.7,1.3c0.1,0,0.1,0,0.2,0l1.5-1.2C23.4,53.3,23.4,53.3,23.4,53.2"/>
<path fill="#231F20" d="M21.8,52.7l-1.1,0.9c0,0,0.1,0.1,0.1,0.1l1.2-0.9C21.9,52.7,21.9,52.7,21.8,52.7"/>
<path fill="#231F20" d="M23.5,52.8l-2.3,1.8c0,0,0,0,0,0c0,0,0.1,0,0.2,0l2.2-1.7L23.5,52.8z"/>
<path fill="#231F20" d="M22.2,52.9L21,53.8c0,0,0.1,0,0.1,0.1l1.2-0.9C22.3,52.9,22.2,52.9,22.2,52.9"/>
<path fill="#231F20" d="M19.8,53c0,0,0.1,0,0.1,0l0.6-0.4C20.2,52.6,20,52.7,19.8,53"/>
<path fill="#231F20" d="M20.2,51c-0.1,0-0.3,0.1-0.4,0.2c0,0,0,0,0,0.1L20.2,51z"/>
<path fill="#231F20" d="M20.9,52.5l-0.8,0.6c0,0,0.1,0,0.1,0.1l0.8-0.7C21.1,52.5,21,52.5,20.9,52.5"/>
<path fill="#231F20" d="M21.4,52.6l-0.9,0.7c0,0,0.1,0.1,0.1,0.1l1-0.8C21.5,52.6,21.5,52.6,21.4,52.6"/>
<path fill="#231F20" d="M23.4,54.2l-0.6,0.5C23.1,54.6,23.3,54.4,23.4,54.2"/>
<polygon fill="#231F20" points="24.3,53 24.3,53 24.3,53 "/>
<polygon fill="#231F20" points="23.7,53 23.6,53.1 23.6,53.1 23.7,53.2 23.8,53.1 23.7,53 "/>
<path fill="#231F20" d="M22.3,54.6c0.1,0,0.1,0,0.2,0h0l1-0.8c0-0.1,0-0.1,0-0.2L22.3,54.6z"/>
<path fill="#231F20" d="M22.5,49L22.5,49L22.5,49z"/>
<path fill="#231F20" d="M23.8,52.9c0,0-0.2,0-0.1,0.2L20,48.7l0,0c0,0,0.4,0.3,1,0.4c0.5,0.1,1,0.5,1.1,0.7c0,0-0.1-0.5,0.3-0.9
	c0,0,0.8,0.4,0.7,2.1c0,0,0.1,0.5,0.7,0.7c0,0-0.8-1.7,0.4-2.6c0,0,0,0.6,0.4,1c0.4,0.4,0.2,1,0.2,1s0.1,0.1,0.3-0.4
	c0,0,0.4-0.2,0.5,0c0,0-0.3,0.5-0.2,1.3C25.4,52.9,24.8,53.3,23.8,52.9"/>
<path fill="#231F20" d="M32.5,34l-0.1-0.1l-0.8,0.6c0,0,0.1,0.1,0.1,0.1L32.5,34z"/>
<path fill="#231F20" d="M32,33.4l-0.1-0.1l-1.1,0.9c0.1,0,0.1,0,0.2,0L32,33.4z"/>
<path fill="#231F20" d="M32.2,33.7l-0.1-0.1l-0.8,0.6c0,0,0.1,0.1,0.1,0.1L32.2,33.7z"/>
<path fill="#231F20" d="M32.8,34.3l-0.1-0.1l-0.8,0.6c0,0,0,0.1,0,0.2L32.8,34.3z"/>
<path fill="#231F20" d="M29.5,31.9c0,0.1,0,0.1,0.1,0.1l0.8-0.6l-0.1-0.1L29.5,31.9z"/>
<path fill="#231F20" d="M29.4,31.7l0.7-0.5L30,31l-0.6,0.5C29.4,31.5,29.4,31.6,29.4,31.7"/>
<path fill="#231F20" d="M30.6,31.8l-0.1-0.1l-0.9,0.7c0,0,0.1,0.1,0.1,0.1L30.6,31.8z"/>
<path fill="#231F20" d="M29.3,30.5c0,0,0,0.1,0,0.2l0.2-0.2l-0.1-0.1L29.3,30.5z"/>
<path fill="#231F20" d="M31.1,36.1l1.9-1.5l-0.1-0.1l-2.1,1.6C31,36.1,31.1,36.1,31.1,36.1L31.1,36.1z"/>
<path fill="#231F20" d="M30.6,36.6l0.3-0.3c-0.1,0-0.1,0-0.2,0.1C30.7,36.4,30.6,36.4,30.6,36.6"/>
<path fill="#231F20" d="M31.7,33l-0.1-0.1L30.3,34c0.1,0,0.1,0,0.2,0L31.7,33z"/>
<path fill="#231F20" d="M31.4,32.7l-0.1-0.1l-1.5,1.2c0,0,0.1,0,0.2,0.1L31.4,32.7z"/>
<path fill="#231F20" d="M31.2,32.4l-0.1-0.1l-1.6,1.3c0,0,0.1,0.1,0.1,0.1L31.2,32.4z"/>
<path fill="#231F20" d="M29.2,33.4l1.7-1.3L30.8,32l-0.9,0.7c0,0,0.1,0.1,0.1,0.1c0,0-0.1,0-0.1,0l-0.7,0.6
	C29.2,33.3,29.2,33.4,29.2,33.4"/>
<path fill="#231F20" d="M29.8,30.8l-0.1-0.1L29.4,31c0,0.1,0,0.1,0,0.2L29.8,30.8z"/>
<path fill="#231F20" d="M33.2,35.4l-1.9,1.5c0.1,0,0.1,0,0.2,0l1.7-1.4C33.2,35.5,33.2,35.4,33.2,35.4"/>
<path fill="#231F20" d="M31.3,34.7l-1.3,1c0,0,0.1,0.1,0.1,0.1l1.3-1.1C31.4,34.8,31.4,34.8,31.3,34.7"/>
<path fill="#231F20" d="M33.2,34.8l-2.7,2.1c0,0,0,0,0,0.1c0,0,0.1,0,0.2,0l2.5-2L33.2,34.8z"/>
<path fill="#231F20" d="M31.7,34.9L30.3,36c0.1,0,0.1,0,0.2,0.1l1.4-1.1C31.8,35,31.8,35,31.7,34.9"/>
<path fill="#231F20" d="M29,35c0,0,0.1,0,0.1,0l0.6-0.5C29.5,34.6,29.2,34.8,29,35"/>
<path fill="#231F20" d="M29.4,32.7c-0.1,0-0.3,0.1-0.5,0.2c0,0,0,0,0,0.1L29.4,32.7z"/>
<path fill="#231F20" d="M30.3,34.5l-0.9,0.7c0.1,0,0.1,0.1,0.1,0.1l1-0.8C30.4,34.5,30.3,34.5,30.3,34.5"/>
<path fill="#231F20" d="M30.8,34.6l-1.1,0.9c0,0,0.1,0.1,0.1,0.1l1.2-0.9C31,34.6,30.9,34.6,30.8,34.6"/>
<path fill="#231F20" d="M33.2,36.4L32.5,37C32.8,37,33,36.8,33.2,36.4"/>
<path fill="#231F20" d="M34.2,35.1"/>
<polygon fill="#231F20" points="33.5,35.1 33.4,35.2 33.4,35.2 33.5,35.3 33.6,35.2 33.5,35.1 "/>
<path fill="#231F20" d="M31.9,36.9c0.1,0,0.1,0,0.2,0c0,0,0,0,0,0l1.2-0.9c0-0.1,0-0.1,0-0.2L31.9,36.9z"/>
<path fill="#231F20" d="M32.1,30.4L32.1,30.4L32.1,30.4z"/>
<path fill="#231F20" d="M33.6,34.9c0,0-0.2,0-0.2,0.2l-4.2-5l0,0c0,0,0.5,0.4,1.1,0.5c0.6,0.1,1.1,0.6,1.2,0.8c0,0-0.2-0.5,0.4-1
	c0,0,0.9,0.4,0.8,2.5c0,0,0.2,0.6,0.8,0.9c0,0-0.9-1.9,0.5-3c0,0,0,0.7,0.5,1.2c0.5,0.5,0.2,1.2,0.2,1.2s0.1,0.1,0.3-0.4
	c0,0,0.4-0.2,0.6,0c0,0-0.3,0.6-0.2,1.5C35.4,34.9,34.7,35.5,33.6,34.9"/>
<path fill="#231F20" d="M54.8,36.3L54.8,36.3L54.2,36c0,0,0,0.1,0,0.1L54.8,36.3z"/>
<path fill="#231F20" d="M55,35.8L55,35.8l-0.8-0.4c0,0,0,0.1,0.1,0.1L55,35.8z"/>
<path fill="#231F20" d="M54.9,36.1L54.9,36.1l-0.6-0.3c0,0,0,0.1,0,0.1L54.9,36.1z"/>
<path fill="#231F20" d="M54.7,36.6L54.7,36.6l-0.6-0.3c0,0,0,0.1-0.1,0.1L54.7,36.6z"/>
<path fill="#231F20" d="M54.9,33.9C54.9,34,54.9,34,54.9,33.9l0.6,0.3l0-0.1L54.9,33.9z"/>
<path fill="#231F20" d="M55.1,33.8l0.5,0.2l0-0.1L55.1,33.8C55.1,33.8,55.1,33.8,55.1,33.8"/>
<path fill="#231F20" d="M55.4,34.5L55.4,34.5l-0.6-0.3c0,0,0,0.1,0,0.1L55.4,34.5z"/>
<path fill="#231F20" d="M55.6,33.3C55.6,33.4,55.6,33.4,55.6,33.3l0.1,0.1l0-0.1L55.6,33.3z"/>
<path fill="#231F20" d="M53.1,36.3l1.5,0.6l0-0.1L53,36.1C53.1,36.2,53.1,36.2,53.1,36.3L53.1,36.3z"/>
<path fill="#231F20" d="M52.7,36.1l0.3,0.1c0,0-0.1-0.1-0.1-0.1C52.8,36.1,52.8,36.1,52.7,36.1"/>
<path fill="#231F20" d="M55,35.5L55,35.5l-1-0.5c0,0,0,0.1,0,0.1L55,35.5z"/>
<path fill="#231F20" d="M55.1,35.3L55.1,35.3L54,34.7c0,0,0,0.1,0,0.1L55.1,35.3z"/>
<path fill="#231F20" d="M55.2,35L55.2,35L54,34.4c0,0,0,0.1,0,0.1L55.2,35z"/>
<path fill="#231F20" d="M54,34.3l1.3,0.5l0-0.1l-0.7-0.3c0,0,0,0.1,0,0.1c0,0,0,0,0-0.1L54,34.3C54,34.2,54,34.2,54,34.3"/>
<path fill="#231F20" d="M55.7,33.7L55.7,33.7l-0.2-0.2c0,0-0.1,0-0.1,0.1L55.7,33.7z"/>
<path fill="#231F20" d="M54.2,37.2l-1.5-0.6c0,0,0.1,0.1,0.1,0.1L54.2,37.2C54.2,37.2,54.2,37.2,54.2,37.2"/>
<path fill="#231F20" d="M54,35.9l-1-0.4c0,0,0,0.1,0,0.1l1,0.4C54,36,54,35.9,54,35.9"/>
<path fill="#231F20" d="M54.5,37l-2.1-0.8c0,0,0,0,0,0c0,0,0,0,0.1,0.1L54.5,37L54.5,37z"/>
<path fill="#231F20" d="M54,36.2l-1.1-0.4c0,0,0,0.1,0,0.1l1.1,0.4C54,36.3,54,36.2,54,36.2"/>
<path fill="#231F20" d="M53,34.7C53,34.7,53,34.7,53,34.7l0.5,0.3C53.4,34.8,53.2,34.7,53,34.7"/>
<path fill="#231F20" d="M54.4,34.1c-0.1-0.1-0.2-0.1-0.3-0.2c0,0,0,0,0,0.1L54.4,34.1z"/>
<path fill="#231F20" d="M53.7,35.2L53,35c0,0,0,0.1,0,0.1l0.8,0.3C53.8,35.3,53.8,35.3,53.7,35.2"/>
<path fill="#231F20" d="M53.9,35.6L53,35.2c0,0,0,0.1,0,0.1l0.9,0.4C53.9,35.7,53.9,35.6,53.9,35.6"/>
<path fill="#231F20" d="M53.6,37.5l-0.6-0.2C53.2,37.5,53.4,37.6,53.6,37.5"/>
<path fill="#231F20" d="M54.7,37.6"/>
<polygon fill="#231F20" points="54.5,37.3 54.4,37.2 54.4,37.2 54.3,37.3 54.4,37.3 54.5,37.3 "/>
<path fill="#231F20" d="M52.9,36.9c0,0,0,0.1,0,0.1c0,0,0,0,0,0l0.9,0.4c0,0,0.1,0,0.1-0.1L52.9,36.9z"/>
<path fill="#231F20" d="M56.7,34.9"/>
<path fill="#231F20" d="M54.6,37.3c0,0-0.1-0.1-0.2,0l1.4-4.1l0,0c0,0,0,0.4,0.1,0.8c0.2,0.4,0,0.8,0,1c0,0,0.2-0.3,0.7-0.1
	c0,0,0.1,0.7-1.1,1.3c0,0-0.3,0.3-0.2,0.7c0,0,0.8-1.2,1.8-0.7c0,0-0.4,0.2-0.5,0.7c-0.1,0.4-0.6,0.5-0.6,0.5s0,0.1,0.3,0
	c0,0,0.2,0.2,0.2,0.3c0,0-0.5,0-0.9,0.4C55.2,38.3,54.7,38.1,54.6,37.3"/>
<path fill="#231F20" d="M75,34.1c-0.1-0.1-0.1-0.3-0.1-0.4c-0.4,0-0.7-0.4-0.8-0.7c-0.3-0.6-0.5-1.4-0.5-2.1
	c-0.1,0.1-0.2,0.2-0.2,0.4c0,0.1,0,0.2-0.1,0.2c-0.1,0-0.2-0.2-0.2-0.3c-0.4-0.6-1.5-1.1-1.8-1.8c0,0.2,0.1,0.4,0.1,0.6
	c-0.1,0-0.3-0.1-0.4-0.2c-0.6-0.3-1.3-0.5-1.7-0.3c0.1,0,0.4,0,0.4,0.2c-0.2,0.1-0.3,0.1-0.5,0.1c-0.5,0.1-0.9,0.3-1.3,0.6
	c0,0,0,0,0,0c0.5-0.2,1.1-0.4,1.8-0.1c-0.1,0.1-0.2,0.1-0.4,0.1c0.1,0.1,0.2,0.1,0.2,0.1c0.6,0.2,1.2-0.2,1.8,0
	c0.1,0,0.2,0.1,0.3,0.1c-0.1,0.1-0.3,0.1-0.5,0.1c0.5,0.2,0.9,0.4,1.3,0.6c0.3,0.2,0.6,0.3,0.5,0.6c-0.1,0-0.1,0-0.2,0
	c0.3,0.2,0.6,0.4,0.7,0.6c0,0.1,0.1,0.2,0.1,0.3c-0.4-0.2-0.8-0.5-1.3-0.6c0,0.1,0,0.1,0,0.2c0.3,0,0.6,0.2,0.8,0.3c0,0,0,0,0,0
	c0,0,0,0,0,0c0.3,0.1,0.5,0.3,0.7,0.5c-0.2-0.1,0.2,0.4,0.3,0.4C74.3,33.8,74.6,34,75,34.1"/>
<path fill="#231F20" d="M70.6,32.1c0,0.4,0.2,0.7,0.6,0.8c0.4,0,0.7-0.2,0.8-0.6c0-0.4-0.2-0.7-0.6-0.8C71,31.4,70.6,31.7,70.6,32.1
	"/>
<polygon fill="#231F20" points="70,33 70.6,32.7 70.7,32.8 70,33.1 "/>
<polygon fill="#231F20" points="69.8,32.6 70.5,32.5 70.5,32.6 69.8,32.8 "/>
<polygon fill="#231F20" points="69.7,32.2 70.4,32.3 70.4,32.4 69.7,32.4 "/>
<polygon fill="#231F20" points="69.8,31.8 70.4,32 70.4,32.2 69.7,32 "/>
<polygon fill="#231F20" points="69.9,31.4 70.4,31.8 70.4,32 69.8,31.6 "/>
<polygon fill="#231F20" points="70.1,31.1 70.6,31.6 70.5,31.8 70,31.2 "/>
<polygon fill="#231F20" points="70.4,30.9 70.7,31.5 70.6,31.6 70.2,31 "/>
<polygon fill="#231F20" points="70.8,30.7 70.9,31.3 70.8,31.4 70.6,30.7 "/>
<path fill="#231F20" d="M30.4,29.4c0.1-0.1,0.1-0.2,0.2-0.3c0.4,0.1,0.7-0.2,0.9-0.5c0.5-0.5,0.8-1.3,1-2c0,0.1,0.1,0.3,0.1,0.4
	c0,0.1,0,0.2,0,0.2c0.1,0,0.2-0.2,0.3-0.2c0.5-0.5,1.7-0.8,2.1-1.3c0,0.2-0.2,0.4-0.2,0.6c0.1,0,0.3-0.1,0.4-0.1
	c0.6-0.2,1.4-0.2,1.8,0.1c-0.1,0-0.4,0-0.4,0.1c0.1,0.1,0.3,0.1,0.4,0.2c0.5,0.2,0.8,0.5,1.1,0.9c0,0,0,0,0,0
	c-0.5-0.3-1-0.6-1.8-0.5c0,0.1,0.2,0.1,0.3,0.2c-0.1,0.1-0.2,0.1-0.3,0.1c-0.6,0-1.1-0.4-1.7-0.4c-0.1,0-0.3,0-0.3,0.1
	c0.1,0.2,0.3,0.1,0.5,0.2c-0.5,0.1-1,0.1-1.4,0.3c-0.3,0.1-0.6,0.1-0.6,0.4c0,0.1,0.1,0.1,0.2,0.1c-0.4,0.1-0.6,0.3-0.8,0.5
	c-0.1,0.1-0.2,0.1-0.2,0.2c0.4-0.1,0.9-0.3,1.4-0.3c0,0.1,0,0.1,0,0.2c-0.3,0-0.6,0-0.9,0.1c0,0,0,0,0,0c0,0,0,0,0,0
	c-0.3,0.1-0.5,0.2-0.8,0.3c0.2,0-0.3,0.3-0.4,0.3C31.1,29.3,30.8,29.4,30.4,29.4"/>
<path fill="#231F20" d="M35.1,28.5c0,0.4-0.4,0.7-0.8,0.6c-0.4,0-0.7-0.4-0.6-0.8c0-0.4,0.4-0.7,0.8-0.6
	C34.9,27.8,35.2,28.1,35.1,28.5"/>
<polygon fill="#231F20" points="35.5,29.5 35,29.1 34.8,29.2 35.4,29.6 "/>
<polygon fill="#231F20" points="35.8,29.2 35.1,28.9 35,29.1 35.7,29.4 "/>
<polygon fill="#231F20" points="35.9,28.8 35.2,28.7 35.2,28.9 35.9,29 "/>
<polygon fill="#231F20" points="36,28.4 35.3,28.5 35.3,28.7 36,28.6 "/>
<polygon fill="#231F20" points="35.9,28 35.3,28.3 35.3,28.5 36,28.2 "/>
<polygon fill="#231F20" points="35.8,27.7 35.2,28.1 35.3,28.2 35.9,27.8 "/>
<polygon fill="#231F20" points="35.6,27.4 35.1,27.9 35.2,28 35.7,27.5 "/>
<polygon fill="#231F20" points="35.2,27.1 35,27.7 35.1,27.8 35.4,27.2 "/>
<path fill="#231F20" d="M22.1,47.7c0.1,0,0.3,0.1,0.4,0.1c0.2-0.4,0.7-0.3,1-0.3c0.7,0.1,1.5,0.4,2,0.8c0-0.1-0.1-0.3-0.2-0.4
	c-0.1-0.1-0.2-0.2-0.1-0.2c0-0.1,0.3,0,0.4,0c0.8,0,1.8-0.6,2.4-0.5c-0.2-0.1-0.4-0.2-0.6-0.3c0.1-0.1,0.3-0.1,0.4-0.2
	c0.6-0.3,1.2-0.8,1.2-1.3c-0.1,0.1-0.2,0.3-0.4,0.2c0-0.2,0.1-0.3,0.2-0.4c0.2-0.5,0.2-0.9,0.2-1.4c0,0,0,0,0,0
	c-0.1,0.6-0.3,1.1-0.9,1.6c-0.1-0.1,0.1-0.3,0.1-0.4c-0.1,0-0.2,0.1-0.2,0.1c-0.5,0.4-0.5,1.1-1,1.5c-0.1,0.1-0.2,0.2-0.3,0.1
	c0-0.2,0.1-0.3,0.2-0.5c-0.4,0.3-0.8,0.6-1.2,0.8c-0.3,0.1-0.5,0.3-0.8,0.1c0-0.1,0.1-0.1,0.1-0.2c-0.3,0.2-0.6,0.2-0.9,0.2
	c-0.1,0-0.2,0-0.3-0.1c0.4-0.2,0.8-0.4,1.2-0.8c-0.1,0-0.1-0.1-0.1-0.1c-0.2,0.2-0.5,0.4-0.7,0.5c0,0,0,0,0,0c0,0,0,0,0,0
	c-0.3,0.1-0.5,0.2-0.8,0.3c0.1-0.1-0.4,0-0.5,0C22.7,47.3,22.4,47.5,22.1,47.7"/>
<path fill="#231F20" d="M26.2,45.2c-0.3-0.3-0.7-0.2-1,0.1c-0.3,0.3-0.2,0.8,0.1,1c0.3,0.3,0.7,0.2,1-0.1
	C26.5,45.9,26.5,45.4,26.2,45.2"/>
<polygon fill="#231F20" points="25.8,44.2 25.7,44.8 25.5,44.9 25.6,44.1 "/>
<polygon fill="#231F20" points="26.2,44.2 25.9,44.8 25.8,44.8 26,44.2 "/>
<polygon fill="#231F20" points="26.6,44.4 26.1,44.9 26,44.9 26.4,44.3 "/>
<polygon fill="#231F20" points="26.9,44.6 26.3,45 26.2,44.9 26.7,44.5 "/>
<polygon fill="#231F20" points="27.1,44.9 26.5,45.2 26.4,45.1 27,44.8 "/>
<polygon fill="#231F20" points="27.2,45.3 26.6,45.4 26.5,45.2 27.2,45.1 "/>
<polygon fill="#231F20" points="27.3,45.7 26.6,45.6 26.6,45.5 27.3,45.5 "/>
<polygon fill="#231F20" points="27.3,46.1 26.6,45.8 26.6,45.7 27.3,45.9 "/>
<path fill="#231F20" d="M78.2,46.8c0.3,0.4,0.9,0.8,0.8,0.9c-0.1,0-0.6-0.3-0.9-0.6c-0.3-0.4-0.6-1-0.6-1
	C77.6,45.9,77.9,46.4,78.2,46.8"/>
<path fill="#231F20" d="M78,46c-0.4-0.9,0.9-1.5,0.6-1.8c0.1,0,0.2-0.1,0.4,0.1c-0.1,0.3,0.1,0.1,0.2,0.2c0.2,0.4,0.2,1.1-0.1,1.6
	c0,0,0,0,0,0c0.5-0.4,0.9-0.1,1.1-0.2c-0.5,0.2-0.1,1.3-0.9,1.3C78.9,47.1,78.2,46.5,78,46"/>
<path fill="#231F20" d="M77.2,45.2c-0.2,0-0.3,0.1-0.3,0.3c0,0.2,0.1,0.3,0.3,0.3c0.2,0,0.3-0.1,0.3-0.3
	C77.5,45.3,77.4,45.2,77.2,45.2"/>
<path fill="#231F20" d="M24.5,45.5c-0.1,0-0.1,0.1-0.2,0.1c0-0.1-0.1-0.2-0.4-0.2c-0.5,0-0.7,0.7-0.7,0.7c-0.3-0.1-0.3-0.4-0.3-0.4
	c-0.7,0.4-1.3,0-1.3,0c0.1-0.3,0.3-0.3,0.3-0.3c-1-0.5-0.8-1.3-0.8-1.3s0.2-0.6,0.6-0.4c0.4,0.2-0.1,0.5-0.1,0.5
	c-0.1-0.2-0.3,0-0.3,0c-0.2,1,1.6,1.1,2.4,1C24.3,45,24.4,45.3,24.5,45.5C24.5,45.5,24.5,45.5,24.5,45.5"/>
<path fill="#231F20" d="M61.3,31.9l1.2-0.3l-0.1-0.3C61.6,31.7,61.6,31.7,61.3,31.9"/>
<polygon fill="#231F20" points="62.5,31.1 62.7,31.8 62.9,31.8 62.6,30.9 "/>
<polygon fill="#231F20" points="62.8,30.8 63.1,31.7 63.4,31.7 63,30.6 "/>
<polygon fill="#231F20" points="64.5,31.2 64.1,30 63.9,30 64.4,31.4 "/>
<polygon fill="#231F20" points="64.2,31.5 63.7,30.1 63.5,30.2 64,31.6 "/>
<polygon fill="#231F20" points="63.2,30.4 63.6,31.7 63.8,31.6 63.3,30.3 "/>
<path fill="#231F20" d="M64.4,31.5c-0.3,0.1-0.4,0.6-0.4,0.6c0,0.2,0.1,0.3,0.2,0.3c0.1,0,0.3-0.1,0.4-0.1c0.1,0,0.3,0,0.4-0.1
	c0.1-0.1,0.1-0.3,0-0.4C65,31.8,64.7,31.4,64.4,31.5"/>
<path fill="#231F20" d="M63.8,29.9c-0.3,0.1-0.7-0.2-0.7-0.2c-0.1-0.1-0.1-0.3,0-0.4c0.1-0.1,0.2-0.1,0.4-0.1c0.1,0,0.2-0.2,0.4-0.2
	c0.1,0,0.2,0.1,0.3,0.3C64.1,29.3,64.1,29.8,63.8,29.9"/>
<path fill="#231F20" d="M65.2,30.6c0-0.3-0.2-0.6-0.5-0.7c-0.1,0-0.3,0-0.4,0.1c0.1,0.4,0.3,0.7,0.4,1.1
	C64.9,31.1,65.1,30.9,65.2,30.6"/>
<path fill="#231F20" d="M43.4,25.2c-0.1,0-0.3-0.1-0.4-0.1c-0.4-0.1-0.6-0.1-0.6-0.1c-0.2-0.1-0.3-0.2-0.3-0.3
	c0-0.1,0.1-0.2,0.3-0.1c0,0,0,0,0.1,0.1c0.1,0.1,0.1,0.1,0.1,0.1c0,0,0.1,0,0.1-0.1c0-0.1-0.1-0.2-0.2-0.2c-0.2-0.1-0.4,0.1-0.4,0.2
	c-0.1,0.3-0.1,0.6,0.2,0.9c0.2,0.2,0.4,0.3,0.8,0.4c0.1,0,0.3,0.1,0.6,0.2c0.1,0,0.1,0,0.2,0c0.2,0.1,0.4,0.2,0.5,0.3
	c0.1,0,0.1-0.1,0.2-0.1c-0.1-0.1-0.2-0.3-0.3-0.6C43.8,25.4,43.6,25.3,43.4,25.2"/>
<polygon fill="#231F20" points="47.4,24 47.3,23.7 46.2,24 46.2,24.2 "/>
<polygon fill="#231F20" points="46.2,23.8 47.2,23.5 47.1,23.3 46.2,23.5 "/>
<polygon fill="#231F20" points="47,22.9 46.2,23.1 46.2,23.4 47.1,23.1 "/>
<polygon fill="#231F20" points="46.3,24.6 47.5,24.4 47.4,24.1 46.2,24.4 "/>
<path fill="#231F20" d="M51.6,26.5c-0.9,0.2-1.5,0.3-1.7,0.4c-0.6,0.2-1.1,0.3-1.5,0.4l-1.1,0.1l1-0.6l-0.8-0.6l-0.1,0.3
	c-0.1,0.5-0.3,0.8-0.4,0.9l-0.1,0c0.4-1.1,0.5-2.2,0.4-2.8l-1.1,0.3c0.1,0.1,0.2,0.5,0.3,1.2l0.2,1.2c0,0,0.1,0.1,0,0.1
	c0,0,0,0,0-0.1l0,0.1l0,0l-0.1,0c0,0,0-0.1,0-0.2c0-0.2-0.1-0.5-0.2-1c-0.1-0.4-0.3-0.7-0.6-0.9c-0.2-0.1-0.3-0.2-0.5-0.4
	c-0.5-0.3-0.7-0.4-0.8-0.5c-0.3-0.2-0.3-0.4-0.2-0.6c0.1-0.1,0.3-0.2,0.4-0.1c0,0,0,0.1,0,0.2c0,0.1,0.1,0.2,0.1,0.2
	c0.1,0,0.1,0,0.1-0.1c0.1-0.1,0-0.3-0.2-0.4c-0.2-0.2-0.6-0.1-0.7,0.1c-0.3,0.4-0.4,0.8-0.2,1.2c0.2,0.3,0.4,0.6,0.9,1
	c0.2,0.1,0.4,0.3,0.7,0.5c0.1,0,0.1,0.1,0.2,0.1c0.2,0.2,0.5,0.5,0.7,0.8c-0.1,0,0.1,0,0.3,0.1c0.3,0.1,0.8,0.1,0.8,0.1
	c0.1,0,0.7,0.1,1.7,0.3c0.7,0.2,1.4,0,2-0.4c0.3-0.2,0.5-0.5,0.8-0.9l0.2-0.3C52.2,26.4,52,26.5,51.6,26.5"/>
<polygon fill="#231F20" points="46.5,22.5 46.2,22.9 46.9,22.8 "/>
<path fill="#231F20" d="M57.8,44.3c0,0,0-0.2-0.1-0.5c0-0.1-0.1-0.2-0.2-0.2c-0.3-0.2-0.1-0.3,0.4-0.2c0.5,0.1,1.7,0.1,1.6,0.3
	c-0.2,0.1-0.5,0.4-0.9,0.5C57.9,44.5,57.9,44.5,57.8,44.3"/>
<g>
	<g>
		<path fill="#231F20" d="M30.7,68l-2.4,2.5l-0.1-0.1l0.4-2.7l-1.9,1.9l-0.1-0.1l0.5-3.4c0.1-0.5,0-0.6-0.4-0.9l0.1-0.2l1.8,0.9
			l-0.1,0.2C28,66,27.9,66,27.8,66.4l-0.3,1.9l1.8-1.9l0.1,0.1l-0.4,2.7l1.4-1.4c0.3-0.3,0.2-0.4-0.2-0.7l0.1-0.2l1.4,0.7l-0.1,0.2
			C31.1,67.5,31,67.6,30.7,68z"/>
	</g>
	<g>
		<path fill="#231F20" d="M33.4,72.4c-1.1-0.4-1.8-1.6-1.4-2.7c0.3-1.1,1.6-1.7,2.7-1.3c1.1,0.4,1.8,1.6,1.4,2.7
			C35.8,72.2,34.6,72.8,33.4,72.4z M34.6,68.7c-0.9-0.3-1.5,0.5-1.8,1.3c-0.2,0.8-0.2,1.8,0.7,2.1c0.9,0.3,1.5-0.5,1.8-1.3
			C35.5,70.1,35.5,69,34.6,68.7z"/>
	</g>
	<g>
		<path fill="#231F20" d="M38.2,69.7l0-0.2l2,0.4l0,0.2c-0.5-0.1-0.6,0-0.8,0.7l-0.3,1.9c-0.1,0.7-0.1,0.8,0.5,0.9l0.7,0.1
			c0.6,0.1,0.7,0,0.8-0.4l0.1-0.1l0.2,0l-0.2,0.9l-3.7-0.6l0-0.2c0.5,0.1,0.6,0,0.7-0.7l0.4-2C38.8,70,38.8,69.8,38.2,69.7z"/>
	</g>
	<g>
		<path fill="#231F20" d="M44.4,72.2l0.4,0c0.6,0,0.8,0,0.8-0.6l0.2,0l-0.1,1.6l-0.2,0c0-0.6-0.1-0.6-0.7-0.7l-0.4,0l-0.1,1
			c0,0.7,0,0.8,0.6,0.8l0,0.2l-2.1-0.1l0-0.2c0.5,0,0.6-0.1,0.7-0.7l0.1-2c0-0.7,0-0.8-0.6-0.8l0-0.2l3.4,0.2l0,0.9l-0.2,0l0-0.1
			c-0.1-0.4-0.1-0.5-0.7-0.6l-1.1-0.1L44.4,72.2z"/>
	</g>
	<g>
		<path fill="#231F20" d="M51.4,71.2l-1.3,3.4l-0.1,0l-1.6-3.3c-0.2-0.4-0.3-0.6-0.8-0.5l0-0.2l2.1-0.1l0,0.2
			c-0.6,0-0.6,0.2-0.5,0.5l1,2.1l0.8-2.2c0.1-0.4,0-0.5-0.5-0.5l0-0.2l1.6-0.1l0,0.2C51.8,70.6,51.6,70.8,51.4,71.2z"/>
	</g>
	<g>
		<path fill="#231F20" d="M54.1,74.2l0-0.2c0.5-0.1,0.6-0.2,0.5-0.9l-0.3-2c-0.1-0.7-0.2-0.8-0.7-0.7l0-0.2l2-0.3l0,0.2
			C55,70.2,55,70.3,55,71l0.3,2c0.1,0.7,0.2,0.8,0.7,0.7l0,0.2L54.1,74.2z"/>
	</g>
	<g>
		<path fill="#231F20" d="M57.4,69.8l0-0.2l2-0.5l0,0.2c-0.5,0.1-0.6,0.3-0.4,0.9l0.5,1.9c0.2,0.6,0.3,0.7,0.8,0.6l0.7-0.2
			c0.6-0.1,0.6-0.3,0.6-0.7l0-0.1l0.2,0l0.2,0.9l-3.6,0.9l0-0.2c0.5-0.1,0.6-0.3,0.4-0.9l-0.5-2C58,69.8,57.9,69.7,57.4,69.8z"/>
	</g>
	<g>
		<path fill="#231F20" d="M62,68.6l-0.1-0.2l1.9-0.7l0.1,0.2c-0.5,0.2-0.5,0.3-0.3,0.9l0.7,1.8c0.2,0.6,0.4,0.7,0.9,0.5l0.7-0.3
			c0.6-0.2,0.6-0.4,0.5-0.7l0-0.1l0.2-0.1l0.3,0.9l-3.5,1.3l-0.1-0.2c0.5-0.2,0.5-0.3,0.3-0.9l-0.7-1.9C62.6,68.5,62.5,68.4,62,68.6
			z"/>
	</g>
	<g>
		<path fill="#231F20" d="M67.9,70.1c0.5-0.3,0.5-0.4,0.2-1l-1-1.8c-0.3-0.6-0.4-0.6-0.9-0.4l-0.1-0.2l3-1.6l0.5,0.8L69.4,66
			l-0.1-0.1c-0.2-0.3-0.4-0.4-0.9-0.1l-0.9,0.5l0.7,1.3l0.3-0.2c0.6-0.3,0.6-0.4,0.4-0.9l0.2-0.1l0.7,1.4l-0.2,0.1
			c-0.3-0.5-0.4-0.5-1-0.2l-0.3,0.2l0.4,0.8c0.3,0.6,0.4,0.6,0.9,0.4l0.5-0.3c0.5-0.3,0.5-0.4,0.4-0.8l0-0.1l0.2-0.1l0.4,0.8
			l-3.1,1.7L67.9,70.1z"/>
	</g>
</g>
<g>
	<g>
		<path fill="#231F20" d="M26.3,19.6l-0.1-0.2l1.7-1l0.1,0.2c-0.4,0.3-0.5,0.4-0.1,0.9l0.9,1.6c0.3,0.5,0.4,0.6,0.9,0.3l0.6-0.4
			c0.5-0.3,0.5-0.5,0.4-0.8l0-0.1l0.2-0.1l0.4,0.8l-3,1.8l-0.1-0.2c0.4-0.3,0.5-0.4,0.1-0.9l-1-1.7C26.9,19.4,26.8,19.4,26.3,19.6z"
			/>
	</g>
	<g>
		<path fill="#231F20" d="M32.5,20.3l-0.1-0.2c0.5-0.2,0.5-0.3,0.2-0.9l-0.8-1.8c-0.3-0.6-0.4-0.6-0.8-0.4l-0.1-0.2l1.8-0.8l0.1,0.2
			c-0.5,0.2-0.5,0.3-0.2,0.9l0.8,1.8c0.3,0.6,0.4,0.6,0.8,0.4l0.1,0.2L32.5,20.3z"/>
	</g>
	<g>
		<path fill="#231F20" d="M37.8,16.9l-0.1-0.2l1.8-0.5l0.1,0.2c-0.5,0.1-0.5,0.3-0.4,0.9l0.1,0.4c-0.7,0.2-0.9,0.6-1.5,0.8
			c-1,0.3-2.1-0.3-2.4-1.4c-0.3-1.1,0.3-2.2,1.3-2.5c0.4-0.1,0.9-0.1,1.3,0.2c0.1-0.1,0.1-0.2,0.1-0.4l0.2,0l0.4,1.3l-0.2,0.1
			c-0.4-0.7-1-1-1.6-0.8c-0.8,0.2-0.8,1.2-0.6,1.9c0.2,0.8,0.7,1.6,1.5,1.3c0.5-0.1,0.8-0.5,0.7-1C38.4,16.8,38.2,16.7,37.8,16.9z"
			/>
	</g>
	<g>
		<path fill="#231F20" d="M42.7,16.3c0.1,0.6,0.2,0.7,0.7,0.7l0,0.2l-1.9,0.3l0-0.2c0.5-0.1,0.6-0.2,0.5-0.8l-0.3-1.9
			c-0.1-0.6-0.2-0.7-0.7-0.7l0-0.2l1.9-0.3l0,0.2c-0.5,0.1-0.6,0.2-0.5,0.8l0.1,0.7l1.9-0.3l-0.1-0.7c-0.1-0.6-0.2-0.7-0.7-0.7
			l0-0.2l1.9-0.3l0,0.2c-0.5,0.1-0.6,0.2-0.5,0.8l0.3,1.9c0.1,0.6,0.2,0.7,0.7,0.7l0,0.2L44.1,17l0-0.2c0.5-0.1,0.6-0.2,0.5-0.8
			l-0.1-0.9l-1.9,0.3L42.7,16.3z"/>
	</g>
	<g>
		<path fill="#231F20" d="M51.5,13.8l-0.2,0l0-0.1c-0.1-0.3-0.1-0.5-0.7-0.5l-0.6,0l0,2.6c0,0.6,0.1,0.7,0.6,0.7l0,0.2l-2,0l0-0.2
			c0.5,0,0.6-0.1,0.6-0.7l0-2.6l-0.6,0c-0.6,0-0.6,0.1-0.7,0.5l0,0.1l-0.2,0l0.1-0.9l3.8,0L51.5,13.8z"/>
	</g>
	<g>
		<path fill="#231F20" d="M54.6,14.8l0.3,0c0.6,0.1,0.7,0,0.8-0.5l0.2,0l-0.2,1.5l-0.2,0c0.1-0.5,0-0.6-0.6-0.7l-0.3,0l-0.1,0.9
			c-0.1,0.6,0,0.7,0.5,0.8l0,0.2L53,16.8l0-0.2c0.5,0.1,0.6,0,0.7-0.7l0.2-1.9c0.1-0.6,0-0.7-0.5-0.8l0-0.2l3.3,0.4l-0.1,0.9l-0.2,0
			l0-0.1c0-0.3-0.1-0.5-0.6-0.6l-1-0.1L54.6,14.8z"/>
	</g>
	<g>
		<path fill="#231F20" d="M59.7,18.1c-1.1-0.3-1.8-1.4-1.5-2.5c0.3-1.1,1.4-1.7,2.5-1.4c1.1,0.3,1.8,1.4,1.5,2.5
			C61.9,17.8,60.8,18.4,59.7,18.1z M60.6,14.5c-0.8-0.2-1.4,0.6-1.6,1.3c-0.2,0.7-0.1,1.7,0.8,2c0.9,0.2,1.4-0.6,1.6-1.3
			C61.6,15.7,61.5,14.8,60.6,14.5z"/>
	</g>
	<g>
		<path fill="#231F20" d="M65.1,20c-1-0.5-1.5-1.7-1.1-2.7c0.4-1,1.7-1.5,2.7-1c1,0.5,1.5,1.7,1.1,2.7C67.3,20,66.1,20.4,65.1,20z
			 M66.5,16.6c-0.8-0.4-1.5,0.4-1.8,1.1c-0.3,0.7-0.4,1.7,0.4,2.1c0.8,0.4,1.5-0.4,1.8-1.1C67.3,17.9,67.4,16.9,66.5,16.6z"/>
	</g>
	<g>
		<path fill="#231F20" d="M72.7,20.8l-0.2-0.1l0-0.1c0.1-0.3,0.1-0.5-0.4-0.8l-0.5-0.3l-1.4,2.2c-0.3,0.5-0.3,0.7,0.1,0.9l-0.1,0.2
			l-1.7-1l0.1-0.2c0.4,0.3,0.6,0.2,0.9-0.3l1.4-2.2l-0.5-0.3c-0.5-0.3-0.6-0.2-0.9,0l-0.1,0.1l-0.2-0.1l0.5-0.7l3.2,2L72.7,20.8z"/>
	</g>
</g>
</svg>
