<svg version="1.2" baseProfile="tiny" xmlns="http://www.w3.org/2000/svg" viewBox="-24 900 448 197.3"><path fill="#c6c5c3" d="M204 1011.3s-1.7 3.6-4.5 5.6c-1.6 1.1-2.7 1.8-5.8 1.7-2.8-.5-5.9-4.1-7-5.6-.6-.7-1.1-1.5-1.6-2.2-.8-1.4-1.6-3.1-1.8-4.6 0-.4-.5-3.2 3-6.3.9-.9 3.4-2.3 4.1-2.5l-1.4-1.8c-.2.1-.5.2-.8.4-1.1.5-2.6 1.2-3.3 1.9-2.3 1.9-3.9 4.1-4.8 6.5-1.7 3.3-1.3 6-.6 7.8.2.7.4 1.4.7 2.1.1.3.3.6.3.8.1.6.2 1.3.2 1.9v.7l-.1.6s1.5.3 1.9.4c.8.1 1.5.7 1.9 1.1.7.6 1.5 1.1 2.3 1.4 6.6 2.4 11 1.2 13.8-.9 3.3-2.5 5-6.6 5.2-7.1l-1.7-1.9zm-19.4 5.2c-.5-.5-1-.3-1.1-.5-.1-.1.2-.5-.2-1.2-1.9-2.7-1.5-6.7-1.2-6.7.2 0 .1 3.4 2.9 6.8 2.8 3.5 5.8 3.4 5.8 3.6 0 .3-3.5.8-6.2-2zM262 977.9h98.5v.8h-98.5zM361.9 977.6c-.4 0-.6.3-.6.6 0 .4.3.7.6.7.4 0 .6-.3.6-.7 0-.3-.2-.6-.6-.6zM368.2 974.5c-.8 0-1.7.6-1.7 1.6 0 .4.1.7.3.9.1.1.3.1.6.1.4 0 .6-.2.7-.6.2-.4.4-.6.6-.6.3 0 .5.2.5.6 0 .7-.4 1.1-1.3 1.3-.5.1-1.3.2-2.5.2h-2.2v.7h2.9c1.5 0 2.6-.3 3.3-.8.5-.4.7-.9.7-1.5-.1-1.1-1-1.9-1.9-1.9zM260.9 977.6c-.4 0-.6.3-.6.6 0 .4.3.7.6.7.4 0 .6-.3.6-.7 0-.3-.3-.6-.6-.6zM266.7 975.6c-.4 0-.6.3-.6.6 0 .4.3.7.6.7.4 0 .6-.3.6-.7 0-.3-.3-.6-.6-.6zM268.9 975.6c-.4 0-.6.3-.6.6 0 .4.3.7.6.7.4 0 .6-.3.6-.7.1-.3-.2-.6-.6-.6zM271.2 975.6c-.4 0-.6.3-.6.6 0 .4.3.7.6.7.4 0 .6-.3.6-.7 0-.3-.2-.6-.6-.6zM273.5 975.6c-.4 0-.6.3-.6.6 0 .4.3.7.6.7.4 0 .6-.3.6-.7 0-.3-.3-.6-.6-.6zM275.7 975.6c-.4 0-.6.3-.6.6 0 .4.3.7.6.7.4 0 .6-.3.6-.7.1-.3-.2-.6-.6-.6zM278 975.6c-.4 0-.6.3-.6.6 0 .4.3.7.6.7.4 0 .6-.3.6-.7 0-.3-.2-.6-.6-.6zM280.3 975.6c-.4 0-.6.3-.6.6 0 .4.3.7.6.7.4 0 .6-.3.6-.7 0-.3-.3-.6-.6-.6zM282.5 975.6c-.4 0-.6.3-.6.6 0 .4.3.7.6.7.4 0 .6-.3.6-.7.1-.3-.2-.6-.6-.6zM284.8 975.6c-.4 0-.6.3-.6.6 0 .4.3.7.6.7.4 0 .6-.3.6-.7 0-.3-.2-.6-.6-.6zM287.1 975.6c-.4 0-.6.3-.6.6 0 .4.3.7.6.7.4 0 .6-.3.6-.7 0-.3-.3-.6-.6-.6zM289.3 975.6c-.4 0-.6.3-.6.6 0 .4.3.7.6.7.4 0 .6-.3.6-.7.1-.3-.2-.6-.6-.6zM291.6 975.6c-.4 0-.6.3-.6.6 0 .4.3.7.6.7.4 0 .6-.3.6-.7 0-.3-.2-.6-.6-.6zM293.9 975.6c-.4 0-.6.3-.6.6 0 .4.3.7.6.7s.6-.3.6-.7c0-.3-.3-.6-.6-.6zM296.1 975.6c-.4 0-.6.3-.6.6 0 .4.3.7.6.7.4 0 .6-.3.6-.7.1-.3-.2-.6-.6-.6zM298.4 975.6c-.4 0-.6.3-.6.6 0 .4.3.7.6.7.4 0 .6-.3.6-.7 0-.3-.2-.6-.6-.6zM300.7 975.6c-.4 0-.6.3-.6.6 0 .4.3.7.6.7.4 0 .6-.3.6-.7 0-.3-.3-.6-.6-.6zM302.9 975.6c-.4 0-.6.3-.6.6 0 .4.3.7.6.7.4 0 .6-.3.6-.7.1-.3-.2-.6-.6-.6zM305.2 975.6c-.4 0-.6.3-.6.6 0 .4.3.7.6.7.4 0 .6-.3.6-.7 0-.3-.2-.6-.6-.6zM307.5 975.6c-.4 0-.6.3-.6.6 0 .4.3.7.6.7.4 0 .6-.3.6-.7 0-.3-.3-.6-.6-.6zM309.7 975.6c-.4 0-.6.3-.6.6 0 .4.3.7.6.7.4 0 .6-.3.6-.7.1-.3-.2-.6-.6-.6zM312 975.6c-.4 0-.6.3-.6.6 0 .4.2.7.6.7.4 0 .6-.3.6-.7 0-.3-.2-.6-.6-.6zM314.3 975.6c-.4 0-.6.3-.6.6 0 .4.3.7.6.7.4 0 .6-.3.6-.7 0-.3-.3-.6-.6-.6zM316.5 975.6c-.4 0-.6.3-.6.6 0 .4.3.7.6.7.4 0 .6-.3.6-.7.1-.3-.2-.6-.6-.6zM318.8 975.6c-.4 0-.6.3-.6.6 0 .4.3.7.6.7.4 0 .6-.3.6-.7 0-.3-.2-.6-.6-.6zM321.1 975.6c-.4 0-.6.3-.6.6 0 .4.3.7.6.7.4 0 .6-.3.6-.7 0-.3-.3-.6-.6-.6zM323.3 975.6c-.4 0-.6.3-.6.6 0 .4.3.7.6.7.4 0 .6-.3.6-.7.1-.3-.2-.6-.6-.6zM325.6 975.6c-.4 0-.6.3-.6.6 0 .4.3.7.6.7.4 0 .6-.3.6-.7 0-.3-.2-.6-.6-.6zM327.9 975.6c-.4 0-.6.3-.6.6 0 .4.3.7.6.7.4 0 .6-.3.6-.7 0-.3-.3-.6-.6-.6zM330.1 975.6c-.4 0-.6.3-.6.6 0 .4.3.7.6.7s.6-.3.6-.7c.1-.3-.2-.6-.6-.6zM332.4 975.6c-.4 0-.6.3-.6.6 0 .4.3.7.6.7.4 0 .6-.3.6-.7 0-.3-.2-.6-.6-.6zM334.7 975.6c-.4 0-.6.3-.6.6 0 .4.3.7.6.7.4 0 .6-.3.6-.7 0-.3-.3-.6-.6-.6zM336.9 975.6c-.4 0-.6.3-.6.6 0 .4.3.7.6.7.4 0 .6-.3.6-.7.1-.3-.2-.6-.6-.6zM339.2 975.6c-.4 0-.6.3-.6.6 0 .4.3.7.6.7.4 0 .6-.3.6-.7 0-.3-.2-.6-.6-.6zM341.5 975.6c-.4 0-.6.3-.6.6 0 .4.3.7.6.7.4 0 .6-.3.6-.7 0-.3-.3-.6-.6-.6zM343.7 975.6c-.4 0-.6.3-.6.6 0 .4.3.7.6.7.4 0 .6-.3.6-.7.1-.3-.2-.6-.6-.6zM346 975.6c-.4 0-.6.3-.6.6 0 .4.3.7.6.7.4 0 .6-.3.6-.7 0-.3-.2-.6-.6-.6zM348.3 975.6c-.4 0-.6.3-.6.6 0 .4.3.7.6.7.4 0 .6-.3.6-.7 0-.3-.3-.6-.6-.6zM350.5 975.6c-.4 0-.6.3-.6.6 0 .4.3.7.6.7.4 0 .6-.3.6-.7.1-.3-.2-.6-.6-.6zM352.8 975.6c-.4 0-.6.3-.6.6 0 .4.3.7.6.7.4 0 .6-.3.6-.7 0-.3-.2-.6-.6-.6zM355.1 975.6c-.4 0-.6.3-.6.6 0 .4.3.7.6.7.4 0 .6-.3.6-.7 0-.3-.3-.6-.6-.6zM357.3 975.6c-.4 0-.6.3-.6.6 0 .4.3.7.6.7.4 0 .6-.3.6-.7.1-.3-.2-.6-.6-.6zM359.6 975.6c-.4 0-.6.3-.6.6 0 .4.3.7.6.7.4 0 .6-.3.6-.7 0-.3-.2-.6-.6-.6zM361.9 975.6c-.4 0-.6.3-.6.6 0 .4.3.7.6.7.4 0 .6-.3.6-.7 0-.3-.3-.6-.6-.6zM364.1 975.6c-.4 0-.6.3-.6.6 0 .4.3.7.6.7.4 0 .6-.3.6-.7.1-.3-.2-.6-.6-.6zM263.6 1024.4c-.4 0-.6.3-.6.6 0 .4.3.7.6.7.4 0 .6-.3.6-.7 0-.3-.3-.6-.6-.6zM265.8 1024.4c-.4 0-.6.3-.6.6 0 .4.3.7.6.7.4 0 .6-.3.6-.7.1-.3-.2-.6-.6-.6zM268.1 1024.4c-.4 0-.6.3-.6.6 0 .4.3.7.6.7.4 0 .6-.3.6-.7 0-.3-.2-.6-.6-.6zM270.4 1024.4c-.4 0-.6.3-.6.6 0 .4.3.7.6.7.4 0 .6-.3.6-.7 0-.3-.3-.6-.6-.6zM272.6 1024.4c-.4 0-.6.3-.6.6 0 .4.3.7.6.7.4 0 .6-.3.6-.7.1-.3-.2-.6-.6-.6zM274.9 1024.4c-.4 0-.6.3-.6.6 0 .4.3.7.6.7.4 0 .6-.3.6-.7 0-.3-.2-.6-.6-.6zM277.2 1024.4c-.4 0-.6.3-.6.6 0 .4.3.7.6.7.4 0 .6-.3.6-.7 0-.3-.3-.6-.6-.6zM279.4 1024.4c-.4 0-.6.3-.6.6 0 .4.3.7.6.7.4 0 .6-.3.6-.7.1-.3-.2-.6-.6-.6zM281.7 1024.4c-.4 0-.6.3-.6.6 0 .4.3.7.6.7.4 0 .6-.3.6-.7 0-.3-.2-.6-.6-.6zM284 1024.4c-.4 0-.6.3-.6.6 0 .4.3.7.6.7.4 0 .6-.3.6-.7 0-.3-.3-.6-.6-.6zM286.2 1024.4c-.4 0-.6.3-.6.6 0 .4.3.7.6.7.4 0 .6-.3.6-.7.1-.3-.2-.6-.6-.6zM288.5 1024.4c-.4 0-.6.3-.6.6 0 .4.3.7.6.7.4 0 .6-.3.6-.7 0-.3-.2-.6-.6-.6zM290.8 1024.4c-.4 0-.6.3-.6.6 0 .4.3.7.6.7.4 0 .6-.3.6-.7 0-.3-.2-.6-.6-.6zM293 1024.4c-.4 0-.6.3-.6.6 0 .4.3.7.6.7.4 0 .6-.3.6-.7.1-.3-.2-.6-.6-.6zM295.3 1024.4c-.4 0-.6.3-.6.6 0 .4.3.7.6.7.4 0 .6-.3.6-.7 0-.3-.2-.6-.6-.6zM297.6 1024.4c-.4 0-.6.3-.6.6 0 .4.3.7.6.7.4 0 .6-.3.6-.7 0-.3-.2-.6-.6-.6zM299.8 1024.4c-.4 0-.6.3-.6.6 0 .4.3.7.6.7.4 0 .6-.3.6-.7.1-.3-.2-.6-.6-.6zM302.1 1024.4c-.4 0-.6.3-.6.6 0 .4.3.7.6.7.4 0 .6-.3.6-.7 0-.3-.2-.6-.6-.6zM304.4 1024.4c-.4 0-.6.3-.6.6 0 .4.3.7.6.7.4 0 .6-.3.6-.7 0-.3-.2-.6-.6-.6zM306.6 1024.4c-.4 0-.6.3-.6.6 0 .4.2.7.6.7.4 0 .6-.3.6-.7.1-.3-.2-.6-.6-.6zM308.9 1024.4c-.4 0-.6.3-.6.6 0 .4.3.7.6.7.4 0 .6-.3.6-.7 0-.3-.2-.6-.6-.6zM311.2 1024.4c-.4 0-.6.3-.6.6 0 .4.3.7.6.7.4 0 .6-.3.6-.7 0-.3-.2-.6-.6-.6zM313.4 1024.4c-.4 0-.6.3-.6.6 0 .4.3.7.6.7.4 0 .6-.3.6-.7.1-.3-.2-.6-.6-.6zM315.7 1024.4c-.4 0-.6.3-.6.6 0 .4.3.7.6.7.4 0 .6-.3.6-.7 0-.3-.2-.6-.6-.6zM318 1024.4c-.4 0-.6.3-.6.6 0 .4.3.7.6.7.4 0 .6-.3.6-.7 0-.3-.2-.6-.6-.6zM320.2 1024.4c-.4 0-.6.3-.6.6 0 .4.3.7.6.7.4 0 .6-.3.6-.7.1-.3-.2-.6-.6-.6zM322.5 1024.4c-.4 0-.6.3-.6.6 0 .4.3.7.6.7s.6-.3.6-.7c0-.3-.2-.6-.6-.6zM324.8 1024.4c-.4 0-.6.3-.6.6 0 .4.3.7.6.7.4 0 .6-.3.6-.7 0-.3-.2-.6-.6-.6zM327 1024.4c-.4 0-.6.3-.6.6 0 .4.3.7.6.7.4 0 .6-.3.6-.7.1-.3-.2-.6-.6-.6zM329.3 1024.4c-.4 0-.6.3-.6.6 0 .4.3.7.6.7.4 0 .6-.3.6-.7 0-.3-.2-.6-.6-.6zM331.6 1024.4c-.4 0-.6.3-.6.6 0 .4.3.7.6.7.4 0 .6-.3.6-.7 0-.3-.2-.6-.6-.6zM333.8 1024.4c-.4 0-.6.3-.6.6 0 .4.3.7.6.7.4 0 .6-.3.6-.7.1-.3-.2-.6-.6-.6zM336.1 1024.4c-.4 0-.6.3-.6.6 0 .4.3.7.6.7.4 0 .6-.3.6-.7 0-.3-.2-.6-.6-.6zM338.4 1024.4c-.4 0-.6.3-.6.6 0 .4.3.7.6.7.4 0 .6-.3.6-.7 0-.3-.2-.6-.6-.6zM340.6 1024.4c-.4 0-.6.3-.6.6 0 .4.2.7.6.7.4 0 .6-.3.6-.7.1-.3-.2-.6-.6-.6zM342.9 1024.4c-.4 0-.6.3-.6.6 0 .4.3.7.6.7.4 0 .6-.3.6-.7 0-.3-.2-.6-.6-.6zM345.2 1024.4c-.4 0-.6.3-.6.6 0 .4.3.7.6.7.4 0 .6-.3.6-.7 0-.3-.2-.6-.6-.6zM347.4 1024.4c-.4 0-.6.3-.6.6 0 .4.3.7.6.7.4 0 .6-.3.6-.7.1-.3-.2-.6-.6-.6zM349.7 1024.4c-.4 0-.6.3-.6.6 0 .4.3.7.6.7.4 0 .6-.3.6-.7 0-.3-.2-.6-.6-.6zM352 1024.4c-.4 0-.6.3-.6.6 0 .4.3.7.6.7.4 0 .6-.3.6-.7 0-.3-.2-.6-.6-.6zM354.2 1024.4c-.4 0-.6.3-.6.6 0 .4.3.7.6.7.4 0 .6-.3.6-.7.1-.3-.2-.6-.6-.6zM356.5 1024.4c-.4 0-.6.3-.6.6 0 .4.3.7.6.7.4 0 .6-.3.6-.7 0-.3-.2-.6-.6-.6zM358.8 1024.4c-.4 0-.6.3-.6.6 0 .4.3.7.6.7.4 0 .6-.3.6-.7 0-.3-.2-.6-.6-.6zM361 1024.4c-.4 0-.6.3-.6.6 0 .4.2.7.6.7.4 0 .6-.3.6-.7.1-.3-.2-.6-.6-.6zM251.7 973.9c-.2-1.1-.6-2.4-1.2-3.7l-1.8-3.4c-.6-1.3-1-2.5-1.1-3.5v-.7c0-.5.2-1 .7-1.7-.3.2-.5.4-.6.6-.4.5-.7 1.2-.7 2-.1.7.3 2.7 1.3 3.7-.8 0-1.3 0-1.6.2.2.4.7.9 1.6 1.4-.9 0-1.4.5-1.4 1.2 0 .3 0 .5.2.8l.1.1c.3-.6.7-.8 1.3-.9.5-.1 1.1.2 1.7.9.8.8 1.2 1.8 1.4 3h.1zM244.2 974c.4-.9 1.2-1.5 2.2-1.8.9-.3 1.8-.2 2.5.3.6.4 1 1 1.2 1.6.3 1.3-.5 2.5-1.5 2.8-.6.2-1 0-1.2-.6-.1-.4.2-.8.8-.9.5-.1.8-.3 1-.3.3-.2.4-.6.2-1.1-.1-.5-.4-.9-.8-1.2-.6-.4-1.2-.4-2.1-.2-1 .3-1.7.8-2 1.6-.3.7-.3 1.5-.1 2.2.3 1 .9 1.8 1.7 2.1 1 .5 2.3.5 3.9 0 .8-.2 1.7-.7 2.6-1.4.6-.4 1.6-1.2 2.9-2.4 1.1-1 2-1.6 2.5-1.9.8-.5 1.8-1 3.1-1.3 1-.3 2-.3 3-.2l3.8.6h1.1c.6 0 1-.1 1.5-.2.3-.1.7-.2 1.1-.4-.6.6-1 1-1.3 1.2-.5.3-1.1.6-1.7.8-2.2.6-4.2 0-6.1-.3.3.4.5.7.6 1.1.2.9-.2 1.6-1.3 1.9-.9.2-1.6 0-2.1-.7.3.1.5.1.8 0 .5-.1.8-.5.6-.9-.2-.7-.9-.8-2-.5-.7.2-2 1-4 2.3-2 1.3-3.7 2.3-5.3 2.7-1.9.5-3.3.4-4.4-.3-.7-.5-1.2-1.2-1.5-2.1-.1-.9-.1-1.7.3-2.5zM249.2 977.6c.8-.3 1.4-.7 1.9-1.1.4-.3.8-.8 1.2-1.4.8-1.3 1.5-2.2 1.9-2.7.7-.7 1.4-1.2 2.2-1.4 1-.3 2.1-.2 2.7.2-.3 0-.6 0-1 .1-1.2.3-2.2 1-3.2 2.3l-1.4 1.6c-1.3 1.4-2.4 2.2-3.5 2.5l-.4.1c-.2 0-.4 0-.5.1l.1-.3zM256 966.9c0-.3.2-.5 0-.7-.1-.2-.4-.3-.7-.3h-.1l.1-.1c.2-.2.1-.5 0-.7-.1-.2-.5-.2-.7-.3-.2-.1-.4-.3-.7-.3-.2.1-.4.2-.5.5v.1s0-.1-.1-.1c-.2-.2-.4-.3-.7-.3-.2.1-.3.4-.5.6-.2.2-.5.3-.5.5s.1.5.3.6c.1.1.3.1.4.1-.1 0-.3 0-.4.1-.3.1-.4.3-.4.6 0 .2.3.4.4.6.1.2.1.5.4.6.2.1.5.1.7-.1l.3-.3v.4c0 .3.2.5.4.6.2.1.5-.1.7-.2.3-.1.6 0 .7-.2.2-.2.2-.5.1-.7-.1-.1-.2-.2-.2-.3l.4.2c.3.1.5 0 .7-.2.1-.2-.1-.5-.1-.7zm-2 .4c-.2.1-.4.2-.5.4 0-.2 0-.4-.1-.6-.1-.2-.3-.3-.5-.4.2-.1.4-.1.6-.3.1-.1.2-.3.2-.5.1.1.3.3.4.3.2.1.3.1.5 0-.1.2-.2.3-.2.5s.1.4.2.6h-.6zM254 966.4c-.2-.1-.4.1-.5.2-.1.2 0 .4.3.5.2.1.4 0 .5-.2 0-.2-.1-.4-.3-.5zM150.5 973.9c.2-1.1.6-2.4 1.2-3.7l1.8-3.4c.6-1.3 1-2.5 1.1-3.5v-.7c0-.5-.2-1-.7-1.7.3.2.5.4.6.6.4.5.7 1.2.7 2 .1.7-.3 2.7-1.3 3.7.8 0 1.3 0 1.6.2-.2.4-.7.9-1.6 1.4.9 0 1.4.5 1.4 1.2 0 .3 0 .5-.2.8l-.1.1c-.3-.6-.7-.8-1.3-.9-.5-.1-1.1.2-1.7.9-.8.8-1.2 1.8-1.4 3h-.1zM158 974c-.4-.9-1.2-1.5-2.2-1.8-.9-.3-1.8-.2-2.5.3-.6.4-1 1-1.2 1.6-.3 1.3.5 2.5 1.5 2.8.6.2 1 0 1.2-.6.1-.4-.2-.8-.8-.9-.5-.1-.8-.3-1-.3-.3-.2-.4-.6-.2-1.1.1-.5.4-.9.8-1.2.6-.4 1.2-.4 2.1-.2 1 .3 1.7.8 2 1.6.3.7.3 1.5.1 2.2-.3 1-.9 1.8-1.7 2.1-1 .5-2.3.5-3.9 0-.8-.2-1.7-.7-2.6-1.4-.6-.4-1.6-1.2-2.9-2.4-1.1-1-2-1.6-2.5-1.9-.8-.5-1.8-1-3.1-1.3-1-.3-2-.3-3-.2l-3.8.6h-1.1c-.6 0-1-.1-1.5-.2-.3-.1-.7-.2-1.1-.4.6.6 1 1 1.3 1.2.5.3 1.1.6 1.7.8 2.2.6 4.2 0 6.1-.3-.3.4-.5.7-.6 1.1-.3.9.2 1.6 1.3 1.9.9.2 1.6 0 2.1-.7-.3.1-.5.1-.8 0-.6-.1-.8-.5-.6-.9.2-.7.9-.8 2-.5.7.2 2 1 4 2.3 2 1.3 3.7 2.3 5.3 2.7 1.9.5 3.3.4 4.4-.3.7-.5 1.2-1.2 1.5-2.1.1-.9.1-1.7-.3-2.5zM153 977.6c-.8-.3-1.4-.7-1.9-1.1-.4-.3-.8-.8-1.2-1.4-.8-1.3-1.5-2.2-1.9-2.7-.7-.7-1.4-1.2-2.2-1.4-1-.3-2-.2-2.7.2.3 0 .6 0 1 .1 1.2.3 2.2 1 3.2 2.3l1.4 1.6c1.3 1.4 2.4 2.2 3.5 2.5l.4.1c.2 0 .4 0 .5.1l-.1-.3zM146.2 967.6c.1.2.4.3.7.2.1 0 .3-.1.4-.2l-.3.3c-.1.3-.1.5.1.7.2.2.5.1.7.2.3.1.5.3.7.2.2-.1.4-.3.4-.6v-.4c.1.1.2.2.2.3.2.2.5.2.7.1.2-.1.2-.4.4-.6.1-.2.4-.4.4-.6 0-.2-.2-.5-.4-.6l-.4-.1.4-.1c.3-.1.4-.4.3-.6 0-.2-.3-.3-.5-.5s-.2-.5-.5-.6c-.2-.1-.5 0-.7.3 0 0 0 .1-.1.1v-.1c0-.3-.2-.5-.5-.5-.2-.1-.4.2-.7.3-.2.1-.6 0-.7.3-.1.2-.2.5 0 .7l.1.1h-.1c-.3-.1-.5.1-.7.3-.1.2 0 .5 0 .7l.1.7zm1.4-.2c.1-.2.2-.4.2-.6 0-.2-.1-.3-.2-.5h.5c.2-.1.3-.2.4-.3 0 .2.1.3.2.5.1.1.3.2.6.3-.2.1-.4.2-.5.4-.1.2-.1.4-.1.6-.2-.2-.3-.3-.5-.4-.2-.1-.4-.1-.6 0zM148.2 966.4c.2-.1.4.1.5.2.1.2-.1.4-.3.5-.2.1-.4 0-.5-.2 0-.2.1-.4.3-.5zM257.3 1024.5c-.3-.1-.5.3-.8 1-.2.5-.3.9-.5 1.2-.1.2-.4.6-.8 1-.1.2-.3.3-.5.4l-.2.1c-1 .7-2.4 1.2-4.4 1.6-1.6.2-3.2.4-4.7.7-1.6.3-3 .9-4 1.7-1.2.9-2.1 2-2.6 3.4l.1.2c.4-.7.8-1.1 1.5-1.6 1.8-1.3 4-1 5.5 1.1.8 1.1 1.1 2.1.9 3-.2.8-.6 1.4-1.4 2-1 .7-1.7.5-2.2-.2-.1-.2-.1-.4 0-.7.3-.6.4-.9.2-1.1-.2-.3-.5-.4-.8-.1-.7.5-.9 1.4-.4 2.1.6.8 2.2 1.2 3.3.3.9-.7 1.5-1.4 1.8-2.4.3-1.1.1-2.3-.6-3.3-1.1-1.6-3.4-2.3-5.8-1.5l-.1-.1c1.4-.6 2.7-.9 3.9-.7.6.1 1.5.2 2.8.7 1.2.4 2.1 1.1 2.8 1.9.2-.1.3-.3.4-.4.2-.4.2-.8-.2-1.3-.1-.1-.2-.2-.4-.5 1.5.5 2.8.3 4-.5.6-.5 1.1-1.1 1.3-1.9-1 .7-3.1 1.1-5 1.1l-4.6-.1c-2.1.1-3.7.6-5.1 1.6.2-.2.4-.4.7-.6 1.1-.8 2.9-1.4 4.4-1.6l3.1-.3c2.6-.4 4.6-1 5.9-2l.5-.3c.6-.5 1.2-1.1 1.8-1.9.2-.3.3-.6.4-.8.4-.7.3-1-.2-1.2zM366.5 1023.6c1.5 0 3-.4 4.2-.7l-1.8-.4c-.9-.2-1.8-.3-2.4-.3-1.2 0-1.9 0-1.9.7.1.5.4.7 1.9.7zM262 1022.5h100v.8h-100zM363.3 1023.5c-.4 0-.6-.3-.6-.6 0-.4.3-.7.6-.7.4 0 .6.3.6.7 0 .3-.2.6-.6.6zM260.9 1023.5c-.4 0-.6-.3-.6-.6 0-.4.3-.7.6-.7.4 0 .6.3.6.7 0 .3-.3.6-.6.6zM141.9 1024.5c.3-.1.5.3.8 1 .2.5.3.9.5 1.2.1.2.4.6.8 1 .1.2.3.3.5.4l.2.1c1 .7 2.4 1.2 4.4 1.6 1.6.2 3.2.4 4.7.7 1.6.3 3 .9 4 1.7 1.2.9 2.1 2 2.6 3.4l-.1.2c-.4-.7-.8-1.1-1.5-1.6-1.9-1.3-4-1-5.5 1.1-.8 1.1-1.1 2.1-.9 3 .2.8.6 1.4 1.4 2 1 .7 1.7.5 2.2-.2.1-.2.1-.4 0-.7-.3-.6-.4-.9-.2-1.1.2-.3.5-.4.8-.1.7.5.9 1.4.3 2.1-.6.8-2.2 1.2-3.3.3-.9-.7-1.5-1.4-1.8-2.4-.3-1.1-.1-2.3.6-3.3 1.1-1.6 3.4-2.3 5.8-1.5l.1-.1c-1.4-.6-2.7-.9-3.9-.7-.6.1-1.5.2-2.8.7-1.2.4-2.1 1.1-2.8 1.9-.2-.1-.3-.3-.4-.4-.2-.4-.2-.8.2-1.3.1-.1.2-.2.4-.5-1.5.5-2.8.3-4-.5-.6-.5-1.1-1.1-1.3-1.9 1 .7 3.1 1.1 5 1.1l4.6-.1c2.1.1 3.7.6 5.1 1.6-.2-.2-.4-.4-.7-.6-1.1-.8-2.9-1.4-4.4-1.6l-3.1-.3c-2.6-.4-4.6-1-5.9-2l-.5-.3c-.6-.5-1.2-1.1-1.8-1.9-.2-.3-.4-.6-.4-.8-.2-.7-.1-1 .3-1.2zM205.6 1004.3l-.3-.2.3-.4c1-1.6 2-3.3 2.3-4.9l.4.1c-.4 1.6-1.4 3.4-2.4 5l-.3.4zM205.9 979.2c0 .3-.2.5-.5.5-.2 0-.4-.2-.4-.5 0-.2.2-.5.4-.5.3 0 .5.3.5.5zM218 997.5c-2.6 0-6.4-2.8-8.2-4.7l-.3.3c1.9 2 5.7 4.8 8.5 4.8.5 0 .9-.1 1.3-.3l.2-.1-.2-.2c-.1-.1-.9.2-1.3.2zM210.4 992.8c0 .3-.2.5-.5.5s-.5-.2-.5-.5.2-.5.5-.5c.3-.1.5.2.5.5z"/><ellipse fill="#c6c5c3" cx="192" cy="1015.8" rx=".5" ry=".5"/><path fill="#c6c5c3" d="M208.3 998.7c0 .3-.2.5-.5.5s-.5-.2-.5-.5.2-.5.5-.5.5.2.5.5zM199.6 994.7c-.6-.8-1-1.4-1.3-1.8l-1.2-1.5c-1-1.2-1.6-2.1-1.6-2.7-.1-.8.3-1.4 1-1.4.6-.1 1.3.3 1.3 1 .1.6-.1.9-.5 1h-.3c.1-.2.1-.4.1-.7 0-.3-.1-.5-.4-.5-.4 0-.5.3-.5.8s.4.8 1 .8c.6-.1 1-.7 1-1.4-.1-.9-.8-1.6-1.7-1.5-.6 0-1 .3-1.2.8-.2.3-.2.8-.2 1.3 0 .4.5 1.3 1.2 2.9.2.9.3 1.7.7 2.3.4.7 1.3 1.1 2.2 1.7.7.4 1.3 1 1.8 1.7l.2.3c-.2-.6-.2-1.4-1.6-3.1zm-1.2.2c-.2-.2-.5-.4-.7-.7-.3-.5-.4-.9-.6-1.5l.4.6.5.6 1.3 1.5c-.4-.3-.7-.4-.9-.5zM225.6 1012.6c-.9 0-1.4-.4-2.3-1.2l-1.2-.8c-.4-.2-.6-.5-.7-.8-.2-.5.1-.8.5-.9v.7l.1.2c.1.1.3.1.5.1.3-.1.4-.4.2-.8-.1-.4-.6-.7-1-.5-.4.2-.8.7-.5 1.3 0 .1.1.2.2.3-.6-.2-1.3-.3-1.9-.3-.6 0-1.1 0-1.6.1h-.3l-.3.1c-.1-.1-.3-.2-.4-.2h-.1c-.4.1-.6.3-.6.4-.4.1-.7.1-1.1.1-1 0-1.7-.4-1.7-1.1 0-.4.2-.4.3-.4h.1l-.1.1c-.1.1-.2.2-.2.4s.2.3.5.3.5-.2.5-.6c0-.3-.4-.7-.6-.7-.6-.1-1 .3-1 .9 0 .8.9 1.4 2.2 1.4.3 0 .7 0 1-.1.1.1.2.2.4.2h.2c.4-.1.5-.3.6-.5.1-.1.3-.1.5-.1.3-.1.8-.1 1.5-.1.3 0 .7 0 1.1.1l-.9.3c-.6.3-.8.8-.8 1.3 0 .6.4.9.9.9s.8-.4.8-.7c0-.3-.2-.6-.4-.6-.3 0-.4.2-.4.3 0 .1.2.3.3.4v.1h-.2c-.2 0-.4-.1-.4-.6 0-.4.3-.8.9-1 .4-.1.8-.2 1-.2.4 0 .7.1 1.1.4l1.2.9.9.6c.4.7 1.2.3 1.2.3zM183.8 989.7c-1.8.3-3 .5-3.7.5-.8.1-1.4 0-1.8-.1h-.2l-.2-.1c-.3-.1-.4-.3-.3-.5 0-.1.1-.1.3-.2.1 0 .2-.1.2-.2.2-.3.1-.5-.2-.7-.4-.2-.7 0-1 .4-.3.6.2 1.3.9 1.7.3.2.9.3 1.7.3v.2c-.7.3-1.6.9-2.5 1.7-1.1 1-1.9 2-2.4 2.9-.1.3-.4.8-.7 1.4-.3.6-.5 1.1-.6 1.4-1 2.1-1.9 3.3-2.8 3.2l.1.3c.1.2.1.4.3.5.4.2.8 0 1.3-.7.2-.3.5-.8.8-1.4l.9-1.9.1.1c-.1 2 .6 3.3 2 4.1 1.4.7 2.8.3 3.6-1.2.6-1.2.2-2.6-.9-3.2-1.1-.6-2.2-.2-2.7.8-.3.6-.1 1.5.6 1.8.4.2 1 .2 1.3-.3.1-.4 0-.7-.3-.9-.4-.2-.9 0-1 .5-.2-.1-.3-.5-.1-1 .1-.3.4-.5.7-.6.4-.2.8-.1 1.3.1.9.5 1.2 1.6.7 2.5-.7 1.4-2 1.7-3.1 1.1-1.2-.6-1.8-1.6-1.8-3 0-1.1.3-2.2.9-3.4.8-1.5 2-2.8 3.6-3.8 1.2-.8 2.4-1.3 3.4-1.5l.1.2-2 1c-1.3.7-2.2 1.6-2.7 2.6-.3.6-.4 1.2-.2 2 .1.2.2.3.3.4.1-.1-.1-1 .2-1.5l.3-.3c.4-.2.7-.3.8-.4.5-.3.6-.5 1.1-1.6.1.4.2.6.4.7.2.1.5.2.8-.3.1-.1.3-.6.3-.8.2-.4.9-1.5 2.4-1.9.2-.1.4-.2.7-.2-.3-.4-.6-.6-.9-.7zM172.3 1003.8c.5-.9.8-2.5 1-3.7l.4-.1c0 .8.2 1.7.4 2.4.3.8.6 1.3.9 1.4l.4.2c.2 0 .5-.1.7-.3 0 .3-.1.5-.2.7-.2.4-.7.5-1 .4-.3-.1-.5-.5-.8-1-.2-.4-.3-.9-.4-1.4l-.2.1 1 3.3-.3 2.9-1.2-2.7.1-3.5-.2-.1c-.1.8-.2 1.6-.5 2.1s-.8.7-1.1.5c-.2-.1-.3-.2-.4-.4l-.1-.2c.9 0 1.2-.1 1.5-.6zM163.9 999.7c-.3-.9.5-1.7 1.9-2.1.3-.1.9-.3 1.2-.3 0-.2.2-.4.6-.4.3-.1.6 0 .7.3h.6c.4-.1.9-.2 1.6-.4.5-.2 1.3-.5 1.7-.8-.6.2-1.1.2-1.6.1-.7-.1-1.1-.5-1.3-1.1-.2-.5 0-1 .6-1.2.5-.2.9.1 1 .4.1.3 0 .6-.2.6-.2.1-.4 0-.4-.1s0-.3.2-.5c0-.2-.1-.3-.4-.2-.3.1-.5.3-.3 1 .2.5.6.8 1.4.8.5 0 1-.1 1.1-.1.4-.1.8-.4 1.1-.8l1-1.4c.4-.6.6-.9.8-1 .5-.6 1.2-1 2.1-1.3h.1l-.1.4c-1.1.4-2 1.3-2.7 2.4-.1.2-.2.4-.2.6l-.3.4v-.2h-.2c-.4.6-1.7 1.8-3.1 2.2-.7.2-1.2.4-1.7.4h-.3l-.4.1c-.1.2-.2.3-.5.4-.4.1-.6 0-.8-.3-.4 0-.8.1-1.3.2-1.1.4-1.8 1.1-1.6 1.9.1.4.4.5.7.4.2-.1.2-.1.2-.2 0 0-.1-.1-.2-.1-.2 0-.3-.2-.3-.3-.1-.2 0-.3.3-.4.3-.1.6 0 .7.4.1.3-.2.8-.4.8-.7.3-1.1-.1-1.3-.6zM165.5 991.5l.2.3-.5.4c-.4.3-.7.5-.8.5l-.2-.3c.1 0 .4-.2.8-.6l.5-.3zM163 990.5l1-.7.2.2-1.1.8zM162.6 989.5l.6-.4.2.2-.8.5zM162.3 989l.4-.2.3.2-.6.3zM162 988.3l.5.3-.3.2zM164.6 990.4l-1.2.9-.1-.3 1.1-.8zM162.7 990l.9-.5.2.1-.9.7zM165 990.8l-1.3 1-.2-.3 1.2-.9zM165.4 991.3l-1.4 1-.2-.3 1.4-1zM168.5 994.7l-.3.4c-.6 1-1.7 1.3-3.2 1.4.5-.5 1.1-1.6 2.4-2 .7-.3 1.2-.5 1.3-.6h-.5c-.6 0-1-.1-1.4-.1-.5-.1-1-.2-1.3-.4l-.7-.4 1.1-.9c.3.6.4.7.9 1.1.1.1.5.2 1.2.3.2 0 .4.1.8.1-.4-.2-.8-.5-1.1-.7-1-.7-1.6-1.3-1.7-1.9-.1-.6-.3-1.1-.5-1.5-.1-.3-.3-.6-.4-1l1.1.7c.8.5 1.3 1.1 1.4 1.6l.4 1.4c.1.3.3.6.6.9.2.1.6.4.7.3-.3-.8-.8-1.7-.6-2.2.1-.2.5-.6.6-.6.1.3.4.9.5 1.1.1.2 0 .7 0 1.3 0 .3-.2.5-.2.6-.3.2-.4.4-.4.5-.5.4-.7.6-.7.6zM166.4 983.4c-1.5-.3-2.5-.5-3.1-.7-.6-.2-1.1-.4-1.4-.6 0 0-.1-.1-.2-.1l-.1-.1c-.2-.2-.2-.4-.1-.5 0 0 .1-.1.3-.1.1 0 .2 0 .2-.1.2-.2.2-.4 0-.6-.3-.3-.6-.2-.9.1-.4.4-.2 1.1.2 1.6.2.2.6.5 1.2.8l-.1.1c-.7 0-1.5.2-2.4.6-1.2.5-2.1 1-2.7 1.6l-.9.9-.9.9c-1.4 1.3-2.5 2-3.2 1.7v.3c0 .2 0 .3.1.5.2.3.6.2 1.2-.2.3-.2.6-.5 1-.9l1.2-1.2.1.1c-.7 1.5-.5 2.8.4 3.8s2.1 1.1 3.2.1c.9-.8.9-2 .2-2.8-.7-.8-1.7-.8-2.3-.2-.4.4-.5 1.1-.1 1.6.3.3.8.5 1.1.2.2-.3.2-.6 0-.8-.3-.3-.7-.2-.9.1-.1-.2-.1-.5.2-.8.2-.2.4-.3.7-.3.3 0 .7.1 1 .5.6.7.5 1.6-.1 2.2-1 .9-2.1.7-2.8 0-.8-.8-1-1.8-.5-2.9.3-.8.9-1.7 1.7-2.4 1-1 2.3-1.6 3.9-1.9 1.2-.3 2.3-.3 3.1-.1v.2l-1.9.2c-1.2.2-2.2.6-2.8 1.2-.4.4-.6.9-.8 1.5 0 .2.1.3.1.4.1 0 .2-.8.6-1.1.1-.1.2-.1.4-.1.4 0 .7-.1.8-.1.5-.1.6-.2 1.4-.9 0 .3 0 .5.1.6.1.1.4.3.7 0l.5-.5c.3-.3 1.1-.9 2.5-.8h.6c-.1-.5-.3-.7-.5-1zM153.2 991.2c.6-.6 1.3-1.8 1.9-2.6l.4.1c-.2.6-.4 1.4-.4 2.1 0 .7.1 1.2.3 1.4.1.2.2.3.3.3.2.1.4.1.6-.1-.1.2-.2.4-.3.5-.3.3-.7.2-.9 0-.2-.2-.3-.5-.3-1 0-.4 0-.8.1-1.3h-.2l-.2 2.9-1.1 2.2-.1-2.5 1.1-2.7-.1-.1c-.3.6-.7 1.2-1 1.5-.4.3-.8.3-1 .1-.1-.1-.2-.3-.2-.4v-.2c.4 0 .8 0 1.1-.2zM223.8 984.1c2-.1 3.4-.2 4.2-.2.8-.1 1.5-.3 1.9-.5 0 0 .1-.1.2-.1l.2-.1c.3-.2.3-.4.2-.6 0-.1-.2-.1-.4-.2-.1 0-.2-.1-.2-.1-.2-.3-.2-.6.1-.8.4-.3.8-.2 1.1.2.5.6.1 1.5-.6 2-.3.3-.9.5-1.7.7l.1.2c.9.2 1.9.6 3.1 1.3 1.4.8 2.5 1.7 3.2 2.6.2.3.6.7 1 1.4.4.6.8 1.1 1 1.3 1.6 2 2.8 3.1 3.8 2.8v.4c0 .2-.1.4-.2.6-.4.3-.9.1-1.5-.5-.3-.3-.7-.7-1.2-1.3l-1.4-1.9-.1.1c.6 2.1.1 3.7-1.3 4.9-1.3 1.1-3 1-4.2-.5-.9-1.2-.7-2.8.3-3.6 1.1-.9 2.3-.7 3.1.2.5.6.4 1.6-.2 2.1-.4.3-1.1.5-1.5 0-.2-.4-.2-.8.1-1 .4-.3.9-.1 1.2.3.2-.2.2-.6-.2-1.1-.2-.3-.5-.4-.8-.5-.4-.1-.9.1-1.4.4-.9.7-1 2-.3 2.9 1.1 1.4 2.6 1.4 3.6.5 1.2-.9 1.6-2.2 1.3-3.7-.2-1.1-.8-2.3-1.7-3.5-1.1-1.5-2.7-2.6-4.7-3.3-1.5-.6-2.9-.9-4-.8l-.1.2 2.4.6c1.5.5 2.7 1.2 3.5 2.2.5.6.7 1.3.7 2.1-.1.2-.2.4-.3.5-.1 0-.1-1.1-.5-1.6-.1-.1-.2-.2-.4-.3-.5-.1-.9-.2-1-.3-.6-.2-.8-.4-1.6-1.4 0 .4-.1.7-.3.8-.2.1-.5.3-.9-.2-.1-.1-.4-.6-.5-.8-.3-.4-1.2-1.4-3-1.5-.2 0-.5-.1-.8-.1.1-.3.4-.5.7-.8zM239.5 996.8c-.7-.9-1.4-2.6-1.9-3.8h-.5c.2.9.2 1.8.1 2.8-.1.9-.4 1.5-.6 1.7-.2.2-.4.3-.4.3-.3.1-.5 0-.8-.2.1.3.2.6.3.7.3.4.8.4 1.1.2.3-.2.5-.6.6-1.3.1-.5.1-1 .2-1.7l.2.1-.3 3.8 1 3.1.7-3.2-.9-3.7.2-.1c.3.9.6 1.7 1 2.2.4.5 1 .5 1.3.3.1-.1.3-.3.3-.5l.1-.3c-.9.1-1.4.1-1.7-.4zM247.7 990.4c.1-1-.9-1.7-2.5-1.9-.4 0-1-.1-1.3 0-.1-.2-.3-.4-.7-.3-.4 0-.6.2-.7.5-.2.1-.4.1-.7.1-.5 0-1.1 0-1.9-.1-.6-.1-1.5-.3-2-.5.7 0 1.3-.1 1.8-.3.7-.3 1.1-.8 1.2-1.5.1-.6-.3-1.1-.9-1.2-.6-.1-.9.3-1 .7 0 .4.1.6.4.6.3 0 .4-.1.4-.2s-.1-.3-.3-.5c0-.2.1-.3.3-.3.4 0 .6.3.5 1-.1.6-.5 1-1.4 1.2-.5.1-1.1.1-1.3.1-.5-.1-1-.3-1.4-.6l-1.4-1.3c-.5-.5-.9-.8-1-.9-.7-.5-1.6-.9-2.5-1h-.1l.2.4c1.2.2 2.4.9 3.5 2 .1.2.3.4.3.6l.4.4c0-.1 0-.1-.1-.2l.2-.1c.5.6 2.2 1.5 3.9 1.7.8.1 1.4.1 2 .1h.8c.1.2.3.3.6.3.4 0 .7-.2.8-.5.4-.1.9-.1 1.4 0 1.3.1 2.2.8 2.1 1.7 0 .4-.3.7-.6.6-.2 0-.3-.1-.3-.2 0 0 0-.1.1-.1.2-.1.2-.2.3-.4 0-.2-.1-.3-.4-.4-.4 0-.6.2-.6.6 0 .3.3.8.6.8.8.3 1.2-.2 1.3-.9zM227.8 989.3c-.2-.5-.7-.8-1.2-.7-.3.1-.6.4-.5.8.1.4.3.5.6.5.2 0 .3-.2.3-.5s0-.4.1-.4c.2-.1.3.1.4.4.1.4.1.7-.1.9-.1.2-.4.3-.6.4-.3.1-.7.1-1.1.1v.3c.4.1.8 0 1.1-.1.8-.3 1.2-.9 1-1.7zM225.2 990.6c-.4-.1-.9-.3-1.5-.6-.9-.5-1.2-.5-1.5-.4l-.4-.2c.3-.1.6-.2.7-.3.3-.2.4-.5.3-.8-.1-.3-.4-.5-.7-.4-.4.1-.5.3-.4.7 0 .2.2.3.3.3l.3-.7c.1 0 .2.1.3.3.1.3-.3.5-.8.7-.1 0-.2.1-.4.1-.6 0-1.3 0-2 .2-1.1.3-1.8.9-2.2 1.5v-.5c-.1-.5-.6-.9-1.3-.7-.2.1-.5.2-.6.5-.1.2-.1.4 0 .6.1.3.5.6.8.5.3-.1.4-.3.4-.7 0-.2-.2-.4-.4-.3-.1 0-.1.1-.2.2 0 .2.1.4 0 .4-.2.1-.4 0-.4-.3-.1-.3.1-.5.5-.6.4-.1.7.1.8.4.1.3 0 .6-.1 1.1-.2.6-.4 1.6-.2 2.3 0 .4.1.7.2 1.1-.6-.4-.8-.4-1.2-.3-.6.2-.9.8-.7 1.3.1.3.2.5.5.6.2.1.4.1.6 0 .5-.1.7-.5.6-.9-.1-.3-.3-.5-.7-.4-.2.1-.4.2-.3.4 0 .1.1.2.3.2.1 0 .3-.2.3-.1.2.2 0 .4-.3.5-.3.1-.6 0-.7-.5-.1-.5.1-.8.6-1 .4-.1.9.1 1.2.6.6 1.1 1.4 1.8 2.2 2.3.1-.1.2-.2.3-.2-.3-.1-.5-.3-.8-.5-.7-.6-1.2-1.4-1.5-2.4-.3-1-.2-2 .2-2.9.5-1 1.2-1.6 2.4-2 .8-.2 1.6-.2 2.3.2.7.4 1.2 1 1.5 1.9.2.7.2 1.4 0 1.9-.1.2-.1.4-.2.5l.3.2.3-.6c.2-.6.2-1.3 0-1.9l-.3-.6c.2.2.5.4.7.5 0-.3-.1-.5-.2-.7-.4-.3-1-.7-1.3-1.1l.1-.1 1.8.7c.5.2.9.3 1.2.3v-.3c-.4.1-.5 0-.7 0zM220.8 991.5c-1 .2-1.7 1-1.7 1.9 0 .6.3 1.2.7 1.6l.3.3.2-.3-.1-.1c-.5-.4-.8-.9-.8-1.5 0-.7.4-1.3 1.1-1.6v.1c.1.2.3.3.5.3.2-.1.3-.3.3-.5-.1-.1-.3-.3-.5-.2zM187.3 1005.9c.4-.5 1.1-.6 1.6-.2.3.3.5.5.5 1.2.3-.3.5-.6.8-.8.6-.6 1.6-1 2.2-1.2.5-.2.8-.4 1-.6.2-.3.2-.7-.2-1-.4-.3-.7-.3-.9-.1-.2.2-.2.4 0 .6.1.1.2-.2.3-.3h.3c.2.2.1.4 0 .6-.3.3-.6.3-.8.1-.3-.2-.3-.8-.1-1.1.1-.2.3-.3.5-.3.3 0 .6 0 .8.2.5.5.5 1.1.2 1.6-.1.2-.3.3-.4.3.8 0 1.8.3 2.7 1 .6.5 1.1 1.2 1.4 1.7l.3.3c.5.4.9.5 1.1.3.1-.2.2-.3.1-.4l-.8.1c-.1-.1-.1-.3 0-.5.2-.3.5-.3.9 0 .3.2.3.6.1.9-.2.3-.5.3-.9.2-.2-.1-.5-.2-.8-.5l.1.5c.3.2.5.5.6 1.6.1.7.3 1.3.4 1.7.2.6.6 1.1 1 1.5.2.2.5.3.7.3.3 0 .6-.1.9-.4.2-.3.3-.5.1-.6 0 0-.2 0-.4.2s-.4.2-.6 0c-.3-.2-.3-.5 0-.9.2-.3.7-.3 1 0 .4.3.5 1 .1 1.5-.6.7-1.4.7-2.1.2-.5-.4-.9-1.2-1.2-2.3l-.5-2-.1-.1c-.2.8-.2 1.9-.1 2.5v.1c-.2.3-.4.5-.6.7 0-.5.1-1.1.1-1.7l-.3.6c-.5.6-1.1 1-1.7 1.2-.9.2-1.7 0-2.5-.6-.6-.5-1-1.1-1-1.9 0-.6.1-1.1.5-1.5 0-.1.1-.1.2-.2l.3.1c-.1.1-.2.1-.2.2-.3.4-.4.8-.4 1.3 0 .7.3 1.2.9 1.7.7.6 1.4.8 2.1.5.6-.2 1.2-.6 1.7-1.2.6-.8.9-1.6.8-2.5-.1-.9-.5-1.7-1.2-2.3-1-.8-2.1-1.1-3.2-.9-1 .2-1.9.7-2.7 1.6-.7.9-1.1 1.9-1.2 2.9-.1.8.1 1.6.4 2.2h.1c-.1-.5-.1-.9-.1-1.1 0-.4.1-.7.3-1 .3-.4.9-.4 1.2-.1.3.2.3.7.1 1-.2.3-.4.3-.7.2-.1-.1-.2-.2-.1-.4 0-.1 0-.1.1-.2s.3-.2.5-.3c-.2-.3-.6-.3-.9 0-.4.5-.4 1.2-.1 2.1.3.9.9 1.8 1.7 2.5l-.3.3c-1.6-1.4-2.4-2.8-2.6-4.3-.1-1.1.1-2.2.6-3.5.1-.6.1-1.2-.3-1.5-.4-.4-.9-.3-1.2.1-.3.4-.2.8 0 .9.3.2.5.2.6 0 .1-.1-.2-.2-.3-.3-.1-.2-.1-.3 0-.4.2-.2.4-.1.6 0 .3.3.3.5.1.9-.3.4-.7.4-1.2.1-.2-.1-.3-.3-.3-.5.1-.1.2-.3.4-.6zM195.3 1017c-1.4 0-2.6-.6-2.7-.6l.2-.3s2.1 1 4 .3 2.9-2 2.9-2l.3.2s-1.1 1.4-3.1 2.1c-.5.2-1.1.3-1.6.3zM178.7 1020.6c0 .3-.3.6-.6.6s-.6-.3-.6-.6.3-.6.6-.6c.4 0 .6.3.6.6zM205.7 977.8l-.5.5c-.7.7-1.3 1-2 1s-1.5-.4-2.5-.8c-1.2-.6-2.5-1.2-4.2-1.2h-.1c-6 0-8 3.5-9.6 6.4-.8 1.4-1.4 2.5-2.4 3.1l-1.2.8 1.2.8c1.2.8 1.4 1.2 1.7 2.1.1.3.2.7.4 1.2.3.7.7 1.4 1.3 2.3h-.1c-.2.1-.5.2-.9.4-1.1.5-2.7 1.3-3.5 2-1 .8-1.9 1.7-2.6 2.6l.2.3c.8-1 1.7-1.9 2.6-2.7.8-.7 2.3-1.4 3.4-2 .3-.1.6-.3.8-.4l.5-.2-.1-.2c-.6-.9-1.1-1.7-1.4-2.4-.2-.4-.3-.8-.4-1.2-.3-1-.5-1.5-1.8-2.3l-.8-.5.7-.5c1-.7 1.7-1.9 2.5-3.3 1.5-2.8 3.5-6.2 9.2-6.2h.1c1.6 0 2.9.6 4 1.2 1 .5 1.8.9 2.6.9s1.5-.3 2.3-1.1l.5-.5.1-.1zM178.4 1015.8c-.4-.8-.7-1.7-.9-2.6-1.1-3.1-.9-6.2.6-9.4h-.4c-1.4 3.2-1.6 6.4-.5 9.5.2.9.5 1.8.9 2.6l.3.8c.9 2.5-.1 4-.1 4l.4.2c0-.1 1.1-1.7.1-4.4-.2-.1-.3-.4-.4-.7zM201 998.1l.1.3c.1-.1.4-.1.7.3.6.6.1 1.6.1 1.6.5.2.8-.2.8-.2.3 1.3 1.5 1.5 1.5 1.5.1-.4-.1-.7-.1-.7 1.7.6 2.5-.6 2.5-.6s.5-.9-.2-1.2c-.7-.3-.5.7-.5.7.4-.1.3.3.3.3-1 1.4-3.1-.5-3.9-1.6-.5-.7-1-.6-1.3-.4zM188.1 974.7c-.3.2-.6.4-.8.6 0 0-3 1.9-3.3 5 0 0-.4-2 1.7-4 0 0-2.6 1.1-3.9 3.4 0 0 .3.2.8 0 0 0-2.4 3.5.5 5.6 0 0 .2-.3 0-.6 0 0 1.7 1 2.4-.6.5-1.2-.4-1.7-.4-1.7s-.5-.3-.7.2c-.1.2 0 .4.2.5.2.1.4 0 .5-.2 0 0 .4.3.1 1-.3.7-.9.9-2 .4s-1.4-2.9.7-5.5c0 0-.9 1.6.5 3 0 0-.5-.9.2-1.6.3-.3.3-1.3.3-1.3 0 .5.4.6.4.6.2-1.5 1.3-3.1 2.3-3.7.3-.2.8-.6 1.4-1l-.9-.1zM194.9 973.9c-1-.1-1.7-.1-2.4 0-.3-.3-.7-.6-1.1-.2-.1.1-.2.3-.2.5-.7.5-2.1.2-2.4-.1 0 0 0-.1-.1-.3.3 0 .6 0 .7-.2.2-.2.2-.4-.1-.6-.3-.3-.6-.3-.9.1-.3.3-.3.8.1 1.1.3.3.8.4 1.5.4-.6.2-1.5.6-1.9 1-.9.9-1.1 2-.5 2.9l-.7.7c-.3-.2-.6-.1-.8.2-.2.2-.1.5.1.7l-1.2 1.7.3.2c.3-.6.6-1.2 1.1-1.8.2.2.5.1.8-.1.2-.2.2-.3.2-.5-.1-.2-.2-.3-.2-.3l.7-.7c.4.4.9.6 1.3.6s.7-.1.9-.4c.7-.7.5-1.6.2-2.1.3-.1 1.5-.8 2.4-1.1h.1c1.1-.4 3.6-.9 4-.8v-.4c-.1 0-1.5-.5-1.9-.5zm-5.1 4.8c-.5.5-1.4.3-1.8-.3.5-.5.9-.8 1.8-1.4.6.6.6 1.1 0 1.7zm4.2-3.7c-.4.1-1 .2-1.6.5-.8.3-2 .9-2.2 1-.3-.4-.9-.6-1.3-.2l-.1.2c-.1.2 0 .3.1.4.1.1.3.2.4.2l-1.1.8-.3.3c-.6-.7-.4-1.6.4-2.4.3-.3.8-.6 1.5-.8.3-.1.8-.3 1.7-.5.1.1.3.2.5.2s.3-.1.4-.2c.1-.1.2-.2.2-.3.4-.1.9-.2 1.7-.2 1 0 1.7.2 2.1.6-1.3.2-2 .3-2.4.4zM227.7 997.1s.9 1.2.2 3.3c0 0 1.4-1.7 1.5-3.6 0 0-.3 0-.5.3 0 0 .5-3.2-2.2-3.7 0 0-.1.3.2.4 0 0-1.5-.1-1.5 1.2 0 1 .8 1 .8 1s.5 0 .4-.3c0-.2-.1-.3-.3-.3-.1 0-.3.1-.3.3 0 0-.4-.1-.4-.6 0-.6.4-.9 1.3-.9s1.9 1.5 1.3 4c0 0 .1-1.4-1.3-1.9 0 0 .7.4.3 1.2-.1.3.2 1 .2 1-.2-.4-.5-.3-.5-.3.2.8.2 1.7 0 2.5.1 0 .2.1.4.1.5-1 .9-2.4.4-3.7zM226.5 1004.1c-.3.2-.3.6-.1.8-.2.1-.4 0-.6-.4-.1-.2-.1-.4-.1-.7 0-.1.1-.3.2-.4l-.1-.4c-.5.5-.5 1.2-.2 1.8.3.5.9.7 1.4.4.3-.2.6-.6.4-1-.4-.2-.6-.3-.9-.1zM225.7 1003.8l-.3-.1c.2-.5.4-.7.6-.9.2-.2.4-.3.6-.8.4-.9.5-1.5.5-1.5l.4-.1s-.2.8-.6 1.7c-.2.5-.5.7-.7.9-.2.3-.4.4-.5.8zM232.6 1000.3c0-.6-.5-1-1-.9-.2 0-.3.1-.5.2-.1.1-.2.3-.2.5 0 .5.3.6.5.6h.1c.2 0 .3-.2.4-.4 0-.3.1-.3.1-.3.1 0 .2 0 .2.4s-.1.6-.3.8c-.1.1-.4.2-.6.2-.6 0-.8-.2-1.3-.2-1.3 0-2.3.6-2.4 1.6-.1.8.5 1.6 1.2 1.7h.4l.1.2v.1c.1.3.2.6.2 1 .1.6.1 1.1 0 1.6-.2 1.2-.9 2.1-2.2 2.6-.5.2-1 .3-1.5.2-.6-.1-1-.4-1.2-1-.3-.8 0-1.7 1-2.1.6-.2 1.3-.1 1.5.6.2.4 0 1-.4 1.2-.1-.2-.1-.4-.2-.4-.2-.3-.4-.3-.7-.2-.3.1-.4.4-.3.7.2.4.6.5 1.1.4.4-.2.7-.5.8-.8.1-.3 0-.6-.1-.8-.3-.8-1.2-1.2-2.1-.8-.4.2-.7.5-.9.8-.2.3-.2.6-.2.9 0-.1-.1-.1-.3-.2-.3-.1-.8-.5-.9-.8-.3.5-.3.9 0 1.6.3.7.8 1.1 1.5 1.4.9.3 1.9.2 3.1-.3 1-.4 1.7-1.1 2-2.2.6-1.7-.3-4.1-.4-4.2h-.2c-.1 0-.2.1-.4 0-.5-.1-.9-.6-.9-1.2.1-.7.8-1.2 2-1.2.4 0 .7.2 1.2.2h.1c1.2-.1 1.7-.7 1.7-1.5zm-8.8 8.9l-.3-.5c-.1-.2-.1-.3-.1-.5.2.3.5.6.6.8.4.5.5.6 1 1.1-.5-.2-.9-.5-1.2-.9zM220.1 1030.5s1.3.6 2.5.3c.1.2-.7.9-2 .8-.7-.1-.8-.3-.8-.3l.3-.8zM217.4 1027.5l-1.4 1.8.4.3 1.2-1.8zM216.6 1026.8l-1.4 2 .4.3 1.4-1.9zM215.9 1026.2l-1.5 2.1.4.3 1.5-2.1zM217.9 1028l-1.2 1.8.4.2 1.1-1.6zM218.5 1028.6l-1.1 1.6.5.2.9-1.3zM219 1029.3l-.7 1.2.3.2.7-1zM219.5 1029.9l-.5.9.4.3.4-.9zM215.1 1025.7l-1.5 2.1.4.3 1.5-2.2zM210.4 1029.7h.7v-.4l-.9.1zM211 1030.6l.1-.7h-.5c.3.5.3.5.4.7zM209.9 1029.1l1.3-.1v-.4l-1.6.1zM209.5 1028.4l1.8-.2.1-.3-2.2.1zM211.1 1025.7l-2.3.2-.1.3 2.5-.2zM211.3 1026.4l-2.6.1.2.4 2.5-.2zM209.1 1027.6l2.3-.2v-.3l-2.4.2zM212.7 1024.1l-2.5-1.9h-.1c.5-1.2.2-2.3-1-2.9-.8-.4-1.7-.1-2.1.7-.2.5-.1 1.2.4 1.4.6.3 1 .2 1.2-.3.1-.3 0-.5-.3-.8-.3-.3-.4-.4-.4-.5.1-.3.4-.3.9-.1.6.3.8.6.9 1.1.1.4 0 .8-.2 1.1-.2.4-.5.8-.8 1.2-.4.3-1.4.9-2.9 1.8-1.3.8-2.2 1.9-2.6 3.4-.1.7-.2 1.5-.1 2.6v.7c.1-.4.4-.8.9-1.4 1.2-1.6 1.9-2.6 2.1-2.9.7-1.2 1.3-2.1 1.9-2.7l1-1c.2-.2.4-.4.5-.6l-.8 2.4 2.1-.1-.4-.7c-.4-.9-.6-1.6-.7-1.9l.2-.1c.9 2.3 2.2 4.3 3.2 5l1.4-2c0-.1-.8-.6-1.8-1.5zM208 1025.8l-.5 1.1c-.4.9-.8 2.1-1.3 2.8-.2.3-.5.4-1.1.3 0 .1.1.2.1.2 0 .1.1.2.2.3.2.2.6.1.9-.3.2-.3.5-.9.7-1.6l.1.1-.6 2.7.6 2.3.7-2.3-.3-2.8.2-.1c0 .5.1.9.1 1.2.1.5.3.8.5.9.2.2.6.1.8-.2.1-.1.2-.3.2-.5-.2.2-.4.2-.6.2-.1 0-.2-.1-.3-.2-.2-.2-.4-.6-.5-1.2-.1-.5 0-2.2.1-2.9zM204.8 1014.8l-.2.3 2.5 2.5c.1-.1.1-.2.1-.3l-2.4-2.5zM211.7 1017.2c-.8-.7-1.4-1.4-2-2l-3.7-3.8c-.5-.5-1-.9-1.4-1.4-1.4-1.4-6.6-6.6-10.7-10.9l-1.7-1.8c.6.7 1.2 1.5 1.9 2.3l24 24.4.6.2-7-7zM203.9 1016.2c-.1.1-.1.2-.2.2l2.5 2.6.2-.3-2.5-2.5zM198.4 1004.9c1 1.2 2 2.4 2.9 3.4l14.6 14.9.9.5-18.4-18.8zM203.4 1016.9c-.1.1-.1.2-.2.2l2.6 2.6.2-.3-2.6-2.5zM205.2 1014.1c0 .1-.1.2-.2.3l2.4 2.5.1-.3-2.3-2.5zM205.2 1013l.3.4-.1.2 6.4 6.5c.6.6 1.3 1.1 2 1.6l-8.6-8.7zM204.3 1015.5l-.2.3 2.5 2.6.1-.3-2.4-2.6zM198.6 1021.4l-.3.1 3.1 3.1c.1-.1.2-.1.2-.2l-3-3zM202.9 1017.6c-.1.1-.1.2-.2.2l2.6 2.7c.1-.1.1-.2.2-.2l-2.6-2.7zM200 1020.5c-.1.1-.2.1-.2.2l2.9 2.9.2-.2-2.9-2.9zM197.7 1021.7l-.3.1 3.2 3.3.3-.1-3.2-3.3zM199.3 1021l-.3.1 3 3c.1-.1.2-.1.2-.2l-2.9-2.9zM202.4 1018.3c-.1.1-.1.2-.2.2l2.6 2.7c.1-.1.1-.2.2-.2l-2.6-2.7zM201.3 1019.5l-.2.2 2.7 2.8c.1-.1.1-.2.2-.2l-2.7-2.8zM201.9 1018.9l-.2.2 2.7 2.7c.1-.1.1-.2.2-.2l-2.7-2.7zM207.5 997l.2-.3-2.6-2.6h-.4l2.8 2.9zM208.9 1005.1l-.1.3 2.3 2.4c.1-.1.1-.2.2-.2l-2.4-2.5zM208.7 1006v.4l2 2.1.1-.3-2.1-2.2zM215.9 1007.4v.4l.6.6h.4l-1-1zM209.2 1004.2l-.1.3 2.6 2.6.2-.2-2.7-2.7zM220.4 1002.7c-.1.1-.2.1-.2.2l2.9 2.9.2-.2-2.9-2.9zM209.6 1003.4l-.2.3 2.8 2.8c.1-.1.2-.1.2-.2l-2.8-2.9zM205.3 990.1l.1-.3-2.1-2.1-.1.3 2.1 2.1zM215.2 1019.6c-.3-.1-.6-.3-.8-.4l5.4 5.5.7.3-5.3-5.4zM196.9 1022l-.3.1 3.3 3.4.3-.1-3.3-3.4zM203.6 986.8l-.1.3 2.1 2.2.1-.3-2.1-2.2zM218.7 1020.8l-.7-.3 5.5 5.6.2-.2-5-5.1zM217 1020.3l-.6-.2 6 6.1c.1.1.3.2.4.4l.1.1c.1-.1.2-.1.2-.2l-6.1-6.2zM222.1 1022l-.2.2 2.8 2.8.3-.2-2.9-2.8zM223.3 999.1l1.8 1.9v-.4l-1.7-1.7s-.1.1-.1.2zM224.6 998.1c-.1-.3-.2-.5-.4-.8l-.9-1 .2.6 1.1 1.2zM200.2 985c.1-.1.1-.2.2-.2l-3.5-3.6h-.4l3.7 3.8zM208.3 982.7l-.2-.7-1.1-1.2-.2.2 1.5 1.7zM221.5 1022.5l-.1.1c-.3-.4-.7-.7-1.2-1l3.9 3.9.2-.2-2.8-2.8zM190.1 1022.1l-.5-.1 4.4 4.4h.4l-4.3-4.3zM188.6 1021.7l-.6-.2 4.6 4.7c.2 0 .3 0 .5.1l-4.5-4.6zM191.5 1022.3c-.2 0-.3 0-.5-.1l4.1 4.2h.4l-4-4.1zM186.9 1021.2c-.1 0-.1 0-.2-.1-.2-.1-.4-.2-.5-.3l5.1 5.2.5.1-4.9-4.9zM183.8 1019.2c-.3-.2-.6-.4-.9-.5l6.8 6.9.6.2-6.5-6.6zM192.7 1022.4h-.4l3.9 4h.4l-3.9-4zM186.7 1013zM193.9 1022.4h-.4l3.7 3.8c.1 0 .2 0 .3-.1l-3.6-3.7zM180.9 1019.8c0 .2.1.4.1.5l1.7 1.7c.2.1.4.2.7.3l-2.5-2.5zM195.9 1022.2c-.1 0-.2 0-.3.1l3.4 3.5.3-.1-3.4-3.5zM231.5 1015.2l-.2.3 2.4 2.4c0-.1.1-.2.1-.2l-2.3-2.5zM233.4 1010.2c0 .1 0 .2-.1.3l1.8 1.8v-.3l-1.7-1.8zM233.6 1009.5l1.7 1.7v-.4l-1.6-1.7c-.1.2-.1.3-.1.4zM200.7 1020c-.1.1-.1.1-.2.1h-.1l2.8 2.8.2-.2-2.7-2.7zM181.7 1021.7l-.5-.5c0 .2.1.4.1.4 0 .1.2.1.4.1zM181.9 1018.5l-.5-.1 6.6 6.7.2.1.5.2-6.8-6.9zM180.6 1018.2c0 .1.1.3.1.5l4.4 4.5.8.4c.1.1.2.1.2.2l-5.5-5.6zM194.9 1022.4h-.4l3.6 3.6.3-.1-3.5-3.5zM186.1 1005.7c0-.1.1-.2.2-.2l-2.4-2.4-.1.3 2.3 2.3zM185.8 1006.4l.1-.3-2.3-2.3-.1.3 2.3 2.3zM187.2 1004.4l.2-.2-2.6-2.7c-.1.1-.1.2-.2.2l2.6 2.7zM186.6 1005l.2-.2-2.5-2.5-.2.3 2.5 2.4zM185.5 1007.3c0-.1 0-.2.1-.3l-2.2-2.2v.4l2.1 2.1zM186.5 1012.6l-.2-.2c.1.2.2.3.4.5l-.2-.3zM185.4 1009.6c0-.2 0-.3-.1-.5l-1.8-1.8.2.6 1.7 1.7zM185.4 1008l-2-2.1v.5l2 2v-.4zM185.9 1011.2l-.2-.6-1.3-1.3c.1.3.3.6.5.9l1 1zM191 998.9l-.2-.7-.7-.8-.3.1 1.2 1.4zM191.7 1000.8l-.2-.7-2.2-2.3-.3.1 2.7 2.9zM188.5 1003.3c.1-.1.2-.1.2-.2l-2.8-2.9-.2.2 2.8 2.9zM189.9 1002.4l.3-.2-3-3.1c-.1.1-.2.1-.2.2l2.9 3.1zM187.8 1003.8l.2-.2-2.7-2.8-.2.2 2.7 2.8zM190.6 1002l.3-.1-3.1-3.1c-.1.1-.2.1-.2.2l3 3zM191.3 1001.6c.1-.1.2-.1.3-.1l-3.1-3.2-.3.2 3.1 3.1zM189.1 1002.9l.3-.2-2.9-3-.1.1s-.1 0-.1.1l2.8 3zM194.2 992.9c-.2-.3-.4-.6-.6-1l-.5-.5.9 1.3.2.2zM193.2 990.7l-.1-.5-1.1-1.2.3.7.9 1zM222.7 1021.4l-.2.2 2.9 3 .3-.1-3-3.1zM193.2 989.5c0-.1 0-.2.1-.3l-1.6-1.7c0 .2 0 .3.1.5l1.4 1.5zM223.4 1020.9l-.3.2 3.2 3.3.3-.1-3.2-3.4zM225 1020.3c-.1 0-.1 0-.2.1h-.1l3.3 3.3.3-.1-3.3-3.3zM193.4 988.6l.1-.3-1.9-1.9v.4l1.8 1.8zM224.2 1020.6l-.3.1 3.3 3.4.3-.1-3.3-3.4zM200.6 984.2v-.4l-2.4-2.4c-.2-.1-.4-.1-.5-.1l2.9 2.9zM198.1 985.2h.4l-3.7-3.7-.3.1 3.6 3.6zM197.1 985.3c.1 0 .2 0 .4-.1l-3.3-3.4c-.1 0-.2.1-.3.2l3.2 3.3zM225.9 1020l-.3.1 3.2 3.2.3-.2-3.2-3.1zM193.8 987.7l.1-.3-2.2-2.2c0 .1 0 .2-.1.4l2.2 2.1zM196.2 985.5l.3-.1-3.1-3.1-.2.2 3 3zM195.4 985.9l.3-.2-2.8-2.9c-.1.1-.1.2-.2.2l2.7 2.9zM194.2 987c.1-.1.1-.2.2-.2l-2.4-2.4-.1.3 2.3 2.3zM194.8 986.4l.2-.2-2.6-2.7-.1.3 2.5 2.6zM199.4 985.3c.1 0 .2.1.4.1 0 0 .1 0 .1-.1l-4.1-4.1c-.1 0-.2 0-.3.1l3.9 4zM233 1012l-.1.3 2 2c0-.1 0-.2.1-.4l-2-1.9zM233.2 1011.1l-.1.3 1.9 1.9c0-.1 0-.2.1-.4l-1.9-1.8zM233.7 1008.1v.4l1.5 1.5v-.5l-1.5-1.4zM226.7 1019.6l-.3.1 3.1 3.1c.1-.1.2-.1.2-.2l-3-3zM232.8 1003.7c.1.2.2.4.2.6l.9.9-.5-.9-.6-.6zM232.3 1013.7s0 .1-.1.1l-.1.2 2.2 2.2.1-.3-2.1-2.2zM233.6 1006.8l.1.5 1.4 1.4-.1-.5-1.4-1.4zM233.3 1005.4c0 .2.1.4.1.5l1.3 1.3-.2-.6-1.2-1.2zM232.7 1012.9l-.1.3 2.1 2.1.1-.3-2.1-2.1zM232 1014.5c0 .1-.1.2-.2.3l2.3 2.3.1-.3-2.2-2.3zM228.1 1018.8c-.1.1-.2.1-.2.2l2.9 2.9.2-.2-2.9-2.9zM229.4 1017.7l-.2.2 2.7 2.8c.1-.1.1-.2.2-.2l-2.7-2.8zM227.4 1019.2l-.3.2 3 3 .2-.2-2.9-3zM228.8 1018.3c-.1.1-.2.1-.2.2l2.8 2.8.2-.2-2.8-2.8zM231.1 1015.9c-.1.1-.1.2-.2.2l2.5 2.5.1-.3-2.4-2.4zM230.6 1016.6l-.2.2 2.5 2.6.2-.3-2.5-2.5zM230 1017.2l-.2.2 2.6 2.7c.1-.1.1-.2.2-.2l-2.6-2.7zM206.4 987.7c.1-.1.1-.2.1-.3l-2.3-2.3-.1.3 2.3 2.3zM210.1 1002.8l-.2.2 3 3.1.3-.1-3.1-3.2zM204.9 997.8c.2.1.3.1.5.1l-5-5.1.3.7 4.2 4.3zM203 996.7l-.9-.9.9.9zM206.1 997.9l.3-.1-6.5-6.6c0 .2.1.4.1.5l6.1 6.2zM217.2 1004.2l-.3.1 3.3 3.4.3-.1-3.3-3.4zM210.7 1002.2c-.1.1-.2.1-.2.2l3.3 3.4h.4l-3.5-3.6zM211.5 1001.8l-.3.1 6.4 6.5c.1 0 .2 0 .4-.1l-6.5-6.5zM215.2 1004.5h-.4l3.7 3.8.3-.1-3.6-3.7zM216.3 1004.4h-.4l3.5 3.5.3-.1-3.4-3.4zM204.4 991.6l.2-.2-1.5-1.5v.5l1.3 1.2zM205 991l.1-.3-1.9-2v.4l1.8 1.9zM207.1 992c0-.1-.1-.3-.2-.4.1.1.1.2.2.4zM206.9 997.6c.1-.1.2-.1.2-.2l-3.4-3.5c-.2-.1-.4-.1-.7-.2l3.9 3.9zM207.3 992.9l-.1.3.6.6-.2-.6-.3-.3zM212.1 1001.7l2.3 2.3c0-.1.1-.2.1-.4l-2-2c-.2.1-.3.1-.4.1zM207.9 995.9l-1.9-1.9-.3.1 2.1 2.2c.1-.2.1-.3.1-.4zM204 991.9l-.5-.5.5.5zM221.6 1001.7l-.2.2 2.6 2.7.2-.3-2.6-2.6zM207.7 985.6c.1-.1.1-.2.2-.2l-2.5-2.5-.2.3 2.5 2.4zM208.9 984.4l-.1-.6-2.4-2.4c-.1.1-.1.2-.2.2l2.7 2.8zM208.3 985l.2-.2-2.6-2.6c0 .1-.1.2-.2.2l2.6 2.6zM207.6 980.8l-.2-.4-.2.1.4.3zM218.1 1003.9l-.3.1 3.2 3.2.3-.2-3.2-3.1zM208 995.2v-.4l-1.1-1.2-.3.2 1.4 1.4zM223.5 997.8v.4l1.5 1.5-.1-.5-1.4-1.4zM206.8 987l.2-.3-2.4-2.4-.1.3 2.3 2.4zM207.2 986.3c.1-.1.1-.2.2-.2l-2.4-2.5-.1.3 2.3 2.4zM221 1002.2c-.1.1-.2.1-.2.2l2.7 2.8c.1-.1.1-.2.2-.2l-2.7-2.8zM223.1 999.6l-.1.3 2.1 2.1c0-.1 0-.2.1-.4l-2.1-2zM218.9 1003.6l-.3.1 3.1 3.1c.1 0 .2-.1.2-.2l-3-3zM219.7 1003.2c-.1.1-.2.1-.3.1l3 3c.1-.1.2-.1.2-.2l-2.9-2.9zM222.7 1000.4c-.1.1-.1.2-.2.2l2.3 2.3.1-.3-2.2-2.2zM206 988.5l.1-.3-2.2-2.3-.1.3 2.2 2.3zM222.2 1001.1c-.1.1-.1.2-.2.2l2.5 2.5.1-.3-2.4-2.4zM217.4 983.8l.1.4-.7.3c-.5.2-.8.3-.9.4l-.1-.3.9-.4.7-.4zM215.1 982.2l1.2-.5.2.2-1.3.6zM215 981l.6-.2.2.2-.8.3zM214.8 980.5l.5-.1.2.2-.7.2zM214.7 979.7l.4.4-.3.1zM216.8 982.4l-1.5.6v-.3l1.3-.5zM214.9 981.6l1.1-.4.2.3-1.1.4zM217.1 982.9l-1.6.7-.1-.3 1.5-.7zM217.3 983.6l-1.5.7-.2-.4 1.6-.7zM219.8 987.8l-.4.3c-.9.9-2.1.9-3.6.6.6-.4 1.5-1.4 2.9-1.4.8-.1 1.3-.2 1.5-.2l-.5-.1c-.6-.2-1-.3-1.4-.5-.5-.2-.9-.4-1.3-.7l-.6-.6 1.3-.6c.1.7.2.9.6 1.3.1.1.5.3 1.1.6.2.1.4.2.8.3l-1-1c-.9-.9-1.3-1.7-1.3-2.3 0-.6 0-1.2-.1-1.6 0-.3-.1-.7-.2-1.1l1 1c.7.7 1 1.4 1 1.9l.1 1.6c0 .4.2.7.4 1.1.2.2.6.6.6.5-.1-.9-.4-1.9-.1-2.4.2-.2.6-.5.7-.4 0 .3.2 1 .2 1.2 0 .3-.2.7-.4 1.3-.1.3-.3.5-.4.5-.3.1-.5.3-.6.4l-.3.3zM223.7 976.2c-.1-.5-.6-.9-1.1-.8-.3.1-.6.4-.5.7.1.4.3.6.6.5.2 0 .3-.2.3-.4 0-.3 0-.4.1-.4.2 0 .3.1.4.4.1.4 0 .7-.2.9-.2.2-.4.3-.6.3-.3.1-.7.1-1.1 0v.3c.4.1.8.1 1.1 0 .7-.1 1.1-.7 1-1.5zM221 977.3c-.4-.1-.8-.3-1.4-.7-.9-.5-1.1-.6-1.5-.5l-.4-.2c.3-.1.6-.2.8-.3.3-.2.4-.4.4-.8-.1-.3-.4-.5-.7-.5-.4.1-.6.3-.5.6 0 .2.1.3.3.3.3 0 0-.7.4-.6.1 0 .2.1.3.3.1.3-.3.5-.8.6-.1 0-.2 0-.4.1-.6-.1-1.3-.1-2 0-1.1.2-1.9.8-2.3 1.4v-.5c-.1-.5-.6-.9-1.2-.8-.3.1-.5.2-.6.4-.1.2-.1.4-.1.6.1.3.5.6.8.6.3-.1.5-.3.4-.6 0-.2-.1-.4-.4-.4-.1 0-.1.1-.2.2 0 .1.1.4 0 .4-.2 0-.4-.1-.4-.3-.1-.3.1-.5.5-.6.4-.1.7.2.8.5.1.3 0 .6-.1 1-.2.6-.5 1.5-.4 2.3 0 .4 0 .7.1 1.1-.6-.4-.8-.4-1.2-.3-.6.1-.9.7-.8 1.3.1.3.2.5.5.7.2.1.4.1.6.1.5-.1.7-.4.6-.9-.1-.4-.3-.5-.6-.4-.2 0-.4.2-.3.4 0 .1.1.2.3.2.1 0 .3-.2.3-.1.1.2 0 .4-.3.4-.3.1-.5-.1-.6-.5-.1-.5.1-.8.6-.9.4-.1.9.2 1.2.6.5 1.1 1.2 1.9 2 2.4.1-.1.2-.2.3-.2-.3-.2-.5-.3-.8-.6-.7-.6-1.1-1.5-1.4-2.5-.2-1-.1-2 .4-2.9.5-.9 1.3-1.5 2.5-1.8.8-.2 1.6-.1 2.3.4.7.4 1.1 1.1 1.3 2 .2.7.1 1.4-.1 1.9l-.3.5.3.2.4-.6c.3-.6.3-1.2.2-1.9 0-.2-.1-.4-.2-.6l.6.6-.1-.8c-.4-.3-.9-.8-1.3-1.2l.1-.1 1.7.8c.4.2.8.3 1.2.4v-.3c-.5.2-.6.2-.8.1zM237.7 1007.4c-.2 0-.3.1-.4.1.6 2.6.4 4.8.4 4.8-.2 2.6-.8 4.8-1.6 6.6-1.8 3.7-4.7 6.2-8.4 7.3-1.7.5-2.1.9-2.7 1.5l-.1.2c.1.1.3.2.3.3l.1-.1c.6-.6.9-1 2.5-1.4 3.7-1.1 6.8-3.8 8.6-7.5.9-1.8 1.4-4.1 1.7-6.7 0-.1.3-2.3-.4-5.1zM224 1028.3c-.5 0-.8.4-.8.8 0 .5.3.8.8.8s.8-.4.8-.8-.4-.8-.8-.8zM205.2 1023.3c-.1-.1-.2-.2-.3-.2-1.7 1.9-3.4 2.8-3.4 2.8-2 1.1-4.1 1.8-5.8 2.1-3.7.5-7.1-.5-9.8-2.8-1.2-1.1-1.8-1.2-2.6-1.4h-.2c0 .2 0 .3-.1.4h.2c.7.2 1.2.2 2.4 1.3 2.7 2.4 6.3 3.4 10.1 2.9 1.8-.2 3.8-1 5.9-2.1 0 0 1.9-1 3.6-3zM182.4 1023.3c-.2-.4-.7-.4-1-.2-.4.2-.5.7-.2 1 .2.4.7.4 1 .2.3-.2.4-.7.2-1zM237.7 1022.6c1.6-.3 2.6-.5 3.3-.6.7-.1 1.2 0 1.6.1h.2l.2.1c.3.1.3.3.3.5 0 .1-.1.1-.3.2-.1 0-.1.1-.2.2-.1.3-.1.5.2.6.4.2.6 0 .8-.4.3-.6-.2-1.2-.8-1.5-.3-.1-.8-.2-1.5-.3v-.1c.6-.3 1.4-.8 2.1-1.5 1-.9 1.6-1.8 2-2.6.1-.3.3-.7.6-1.2.2-.5.4-1 .5-1.2.9-1.8 1.6-2.9 2.4-2.9l-.1-.3c-.1-.2-.1-.3-.3-.4-.3-.2-.7.1-1.1.6-.2.3-.4.7-.7 1.2l-.7 1.7h-.1c.1-1.8-.6-2.9-1.9-3.6-1.2-.6-2.5-.2-3.2 1.1-.5 1.1-.1 2.3.9 2.8s1.9.1 2.3-.7c.3-.6 0-1.3-.5-1.6-.4-.2-.9-.2-1.1.3-.1.4 0 .6.3.8.4.2.7-.1.8-.4.2.1.3.4.1.9-.1.3-.3.4-.6.5-.3.2-.7.1-1.1-.1-.8-.4-1.1-1.4-.7-2.2.6-1.3 1.7-1.5 2.7-1.1 1.1.5 1.6 1.4 1.7 2.6 0 .9-.2 2-.7 3-.6 1.3-1.7 2.5-3.1 3.4-1.1.8-2.1 1.2-3 1.4l-.1-.1 1.7-.9c1.1-.6 1.9-1.4 2.3-2.3.2-.5.3-1.1.2-1.8-.1-.1-.2-.2-.3-.4-.1.1.1.8-.1 1.3l-.3.3c-.4.2-.6.3-.7.4-.4.2-.5.5-1 1.4-.1-.3-.2-.5-.3-.6-.2-.1-.5-.1-.7.3 0 .1-.2.5-.3.7-.2.3-.7 1.3-2.1 1.7-.2.1-.4.2-.6.2.4.2.7.4 1 .5zM247.5 1009.9c-.4.8-.6 2.2-.8 3.3l-.4.1c0-.7-.2-1.5-.5-2.1-.3-.7-.6-1.1-.8-1.2-.2-.1-.3-.2-.4-.2-.2 0-.4.1-.6.3 0-.3 0-.5.1-.6.2-.4.6-.5.8-.4.2.1.5.4.7.9.1.3.3.8.4 1.3l.2-.1-.9-2.9.2-2.6 1.1 2.4v3l.2.1c0-.7.2-1.4.4-1.8.2-.5.7-.6.9-.5.1.1.3.2.3.3l.1.2c-.5 0-.8.1-1 .5zM252.4 1015.3c-.1-.2-.3-.3-.7-.2-.2.1-.3.2-.4.3l-.4.1h-.3c-.4.1-.9.2-1.5.4-1.3.5-2.4 1.5-2.7 2h-.2v-.2c-.1.1-.2.2-.2.4s-.1.4-.2.5c-.6 1.1-1.4 1.9-2.3 2.2 0 .1-.1.2-.1.4.7-.3 1.3-.7 1.8-1.2.1-.1.3-.4.6-.9l.9-1.2c.3-.4.6-.6 1-.8.1 0 .5-.1 1-.1.7 0 1.1.2 1.3.7.2.6 0 .8-.2.9-.2.1-.3 0-.3-.2.1-.2.2-.3.2-.4 0-.1-.2-.2-.4-.1s-.3.3-.2.6c.1.3.4.5.9.4.5-.2.6-.6.5-1.1-.2-.5-.6-.8-1.2-.9-.4-.1-.9-.1-1.4.1.3-.3 1-.6 1.4-.8.6-.2 1.1-.4 1.4-.4.2 0 .4-.1.6 0 .1.2.3.3.6.3.3-.2.6-.5.5-.8zM179.2 1026.3c-1.9-.2-3.2-.4-3.9-.4-.8 0-1.4 0-1.8.2-.1 0-.1 0-.2.1l-.2.1c-.3.2-.4.4-.3.6 0 .1.1.1.4.2.1.1.2.1.2.2.2.3.1.6-.2.8-.4.2-.8 0-1-.4-.3-.6.1-1.4.9-1.8.3-.2.9-.3 1.7-.4v-.2c-.8-.3-1.6-.8-2.7-1.7-1.2-1-2.1-2-2.6-2.9-.2-.3-.4-.8-.7-1.4-.3-.6-.6-1.1-.7-1.4-1.1-2.1-2.1-3.4-3.1-3.2v-.3c0-.2.1-.4.3-.5.4-.2.8 0 1.4.7.2.3.5.8.9 1.4l1 1.9.1-.1c-.2-2.1.5-3.5 2-4.3 1.4-.8 3-.5 3.8 1.1.7 1.3.3 2.7-.8 3.3-1.1.6-2.3.3-2.8-.7-.3-.6-.1-1.5.5-1.9.4-.3 1.1-.3 1.4.2.2.4.1.8-.3 1-.4.2-.9 0-1-.5-.2.1-.3.5 0 1 .2.3.4.5.7.6.4.2.8.1 1.3-.2 1-.5 1.2-1.7.7-2.6-.8-1.5-2.2-1.7-3.3-1-1.2.7-1.8 1.8-1.8 3.2 0 1.1.4 2.3 1.1 3.5.8 1.5 2.2 2.8 3.9 3.8 1.3.8 2.5 1.3 3.6 1.4l.1-.2-2.1-.9c-1.4-.7-2.3-1.5-2.9-2.6-.3-.6-.4-1.3-.3-2.1l.3-.5c.1.1-.1 1 .2 1.6.1.1.2.2.4.3.5.2.8.3.9.4.5.3.7.5 1.2 1.6.1-.4.2-.6.4-.7.2-.1.5-.2.8.3.1.1.3.6.4.8.2.4.9 1.5 2.6 1.9.2.1.5.1.8.2-.7.1-1 .3-1.3.5zM166.6 1012c.5 1 .9 2.6 1.2 3.9l.4.1c0-.9.1-1.7.4-2.6.3-.8.6-1.3.9-1.5.2-.1.4-.2.5-.2.3 0 .5.1.7.3 0-.3-.1-.5-.2-.7-.2-.4-.7-.5-1-.4-.3.2-.5.5-.8 1.1-.1.4-.3.9-.4 1.5l-.2-.1.9-3.5-.4-3.1-1.1 2.9.3 3.6-.2.1c-.1-.9-.3-1.7-.6-2.2-.3-.5-.8-.7-1.1-.5-.2.1-.3.2-.4.4l-.1.2c.5.1.9.2 1.2.7zM161.3 1018.7c.1-.2.4-.4.8-.3.3 0 .4.2.5.4h.8c.5.1 1.1.2 1.8.4 1.5.4 3 1.6 3.4 2.2h.2v-.2l.3.4.2.6c.8 1.2 1.8 2.1 2.9 2.4.1.1.1.3.1.4h-.1c-.9-.3-1.6-.7-2.2-1.3-.1-.1-.4-.5-.8-1l-1.1-1.4c-.4-.4-.8-.7-1.2-.8-.1 0-.7-.1-1.2-.1-.8 0-1.3.3-1.5.9-.2.7 0 .9.3 1 .3.1.4 0 .4-.2-.2-.2-.2-.4-.2-.5.1-.2.2-.2.5-.2.2.1.4.3.3.6-.1.3-.5.7-1 .5-.5-.2-.8-.7-.6-1.2.2-.6.6-1 1.3-1.2.5-.1 1.1-.1 1.7 0-.4-.3-1.2-.6-1.8-.8-.7-.2-1.3-.3-1.7-.4h-.7c-.1.3-.4.4-.7.4-.5.1-.9-.2-.7-.6zM246.4 997.6l.2.4.7-.4c.5-.3.8-.6 1-.7l-.2-.3c-.1.1-.4.3-1 .6l-.7.4zM246.4 994.3l-1.3.9.1.3 1.4-1zM245.3 993.4l-.6.5v.3l.9-.6zM245 992.9l-.5.4.1.4.6-.6zM244.3 992.2l.1.7.3-.3zM245.4 996.1l1.7-1-.3-.3-1.5.9zM245.9 993.7l-1 .8.1.3 1.1-.8zM245.8 996.7l1.7-1.1-.2-.3-1.7 1zM246.2 997.4l1.7-1.1-.2-.4-1.8 1.1zM247.9 1001.8c.2-.7.4-1.2.5-1.7.1-.6.2-1.2.2-1.7 0-.3-.1-.7-.2-1l-1.5.9c.6.6.7.8.8 1.4 0 .2 0 .7-.2 1.5 0 .2-.1.5-.2 1l-.3-1.6c-.3-1.5-.8-2.4-1.4-2.8-.6-.4-1.1-.8-1.5-1.1-.3-.2-.6-.6-.9-.9l.3 1.6c.3 1.1.7 1.9 1.2 2.3l1.4 1.1c.3.3.6.7.7 1.1 0 .3.2.9.1.9-.8-.7-1.6-1.7-2.3-1.6-.3 0-.9.3-.9.4.3.3.8.9 1 1 .2.2.8.3 1.5.5.4.1.7 0 .7 0 .7-.3 1-1.3 1-1.3zM157.1 997.9l.4.1-.2.7c-.1.5-.3.9-.3 1l-.3-.1c.1-.1.2-.5.3-1l.1-.7zM154.2 998.8l.5-1.3.3-.1-.5 1.5zM153.2 998.2l.3-.8h.3l-.4 1zM152.7 998l.2-.5.3-.1-.3.7zM151.9 997.5h.6l-.1.3zM155.6 997.5l-.5 1.7-.3-.2.4-1.5zM153.7 998.6l.4-1.2h.3l-.4 1.2zM156.2 997.6l-.5 1.8-.3-.1.4-1.7zM156.9 997.8l-.5 1.8-.4-.1.5-1.8zM161.9 998.5v.5c.2 1.3-.6 2.3-1.9 3.4.1-.8-.2-2.2.7-3.4.5-.7.7-1.2.8-1.4l-.4.4c-.5.4-.9.6-1.3.9-.5.3-1 .5-1.4.6-.3.1-.6.1-.9.1l.4-1.5c.6.3.9.4 1.5.3.2 0 .6-.2 1.2-.6.2-.1.4-.2.8-.5l-1.5.2c-1.3.1-2.3 0-2.8-.4s-1-.7-1.4-1c-.3-.2-.6-.3-1-.6l1.5-.2c1.1-.1 1.8.1 2.3.4l1.3.9c.3.2.7.3 1.2.3.2-.1.8-.1.8-.2-.9-.5-1.9-.9-2-1.5-.1-.3 0-.8.1-.9l1.1.6c.2.2.5.6.8 1.1.2.3.2.6.2.6-.1.3-.1.6 0 .8-.1.8-.1 1.1-.1 1.1zM242.4 1003.6c.1.6 0 1.1-.3 1.8-.2.4-.6 1.1-1.2 2-.3.4-.5.8-.6 1.1-.1.5-.2 1-.2 1.5h-.1c0-.2-.1-.5-.1-.5-.1-.9.1-1.6.6-2.9.7-1.4 1-2 1.1-2.6.1-.5.1-.9.1-1.4 0-.3-.2-.5-.2-.7.4.3.8.9.9 1.7zM196.5 1032.3c-.5.9-1.8 1-3.3.2-.3-.2-.9-.5-1.2-.8-.2.2-.5.2-.8-.1-.3-.2-.4-.5-.3-.8-.1-.2-.3-.3-.5-.5-.4-.3-.9-.6-1.7-1-.6-.3-1.5-.6-2-.7.6.3 1 .8 1.3 1.3.4.6.5 1.3.2 1.9-.3.6-.9.8-1.4.5-.6-.3-.6-.8-.4-1.2.2-.4.5-.4.7-.3.3.1.3.3.2.5 0 .1-.2.2-.5.2-.2.2-.1.3.1.4.3.2.7.1 1-.6.3-.6.1-1.2-.5-1.8-.4-.4-.9-.8-1-.8-.4-.2-1-.3-1.6-.3l-1.9.3-1.4.2c-.9.1-1.8-.2-2.7-.6h-.1c.1-.1.3-.2.4-.2 1.2.6 2.6.6 4.2.2l.6-.3.6-.1-.2.1.1.2c.8-.2 2.8 0 4.3.8.7.4 1.3.7 1.7 1.1l.3.2.4.3c.2-.1.4-.1.7.1.3.3.5.5.4.8.3.3.7.6 1.2.9 1.2.6 2.4.6 2.8-.2.2-.4.2-.7-.2-.9-.2-.1-.3-.1-.3 0v.2c.1.2.1.3 0 .5s-.3.2-.6.1c-.3-.2-.4-.5-.2-.9.2-.3.7-.5 1-.4.9.2.9.9.6 1.5zM206.7 970.5c.4.1.9 0 1.2 0 1.3-.4 2.3-.6 3.1-.4.6.1 1.1.3 1.4.5.3.1.7.4 1.2.8.6.4 1 .7 1.3.9 1.3.6 2 .6 3 .6.1 0 .1 0 .2-.1.4-.2.6-.5.7-1 .1-.4 0-.7-.1-1-.2-.4-.5-.6-1-.7-.4-.1-.7 0-.9.1-.2.2-.3.4-.4.6-.1.2 0 .4.1.5.1 0 .2.1.5.1.3.1.4.2.4.4-.1.3-.2.4-.5.3-.4-.1-.9-.7-.7-1.2.1-.3.3-.6.5-.8.3-.2.7-.3 1.1-.2 1 .2 1.4 1.1 1.2 1.9-.1.4-.3.8-.6 1 .3 0 2-.1 2-.1.8-.2 2.8.2 4.3 1 .7.4 1.3.8 1.7 1.2.1.1.2.2.3.2l.4.3c.2-.1.4 0 .7.1.3.3.4.6.3.9.3.3.7.6 1.2.9 1.1.7 2.3.7 2.8-.1.2-.4.2-.7-.1-.9-.2-.1-.3-.1-.3 0v.2c.1.2.1.3 0 .5s-.3.2-.6 0-.4-.5-.2-.9c.2-.3.8-.4 1-.3.7.3.8 1 .4 1.5-.5.9-1.8.9-3.3 0-.3-.2-.9-.6-1.1-.8-.2.1-.5.1-.8-.2-.3-.3-.4-.5-.3-.9-.1-.2-.3-.3-.5-.5-.4-.3-.9-.7-1.6-1.1-.6-.3-1.4-.7-2-.8.6.4 1 .8 1.3 1.3.4.7.4 1.3.1 1.9-.3.5-.9.7-1.4.4-.5-.3-.6-.8-.4-1.2.2-.3.5-.4.7-.3.3.2.3.3.2.5-.1.1-.3.2-.5.2-.2.2-.1.3.1.5.3.2.7.2 1.1-.5.3-.5.2-1.2-.4-1.9-.4-.4-.8-.8-1-.9-.4-.3-1-.4-1.6-.4l-1.9.2c-.8.1-1.3.1-1.4.1-.2 0-.5 0-.8-.1-.1 0-.2 0-.3-.1-.7-.1-1.6-.5-2.5-1.1-.9-.6-1.6-.9-1.9-.9-.5-.1-.8-.1-.9.3-.1.2.1.4.3.4.1 0 .2 0 .4-.1-.2.4-.5.5-1 .4-.5-.1-.7-.4-.6-.8 0-.2.1-.3.3-.5-.6.1-1 .2-1.3.3-.5.1-1 .1-1.5 0-.3-.1-.5-.1-.6-.2-.2-.1-.4-.3-.8-.6-.1.5.1.6.3.6zM195.3 1008.5c0-.3.2-.5 0-.7-.1-.2-.4-.3-.6-.2h-.1l.1-.1c.2-.2.1-.5 0-.7-.1-.2-.4-.1-.7-.2-.2-.1-.4-.3-.7-.3-.2.1-.4.2-.4.5v.1s0-.1-.1-.1c-.1-.2-.4-.3-.6-.3l-.5.5c-.2.2-.5.3-.5.5s.1.5.3.6c.1.1.2.1.4.1-.1 0-.3 0-.4.1-.3.1-.4.3-.4.5s.3.4.4.6c.1.2.1.5.4.6.2.1.5.1.7-.1.1-.1.2-.2.2-.3v.4c0 .3.2.5.4.5.2.1.4-.1.7-.2.2-.1.5 0 .7-.2.1-.2.2-.4.1-.7l-.2-.3c.1.1.3.1.4.1.3.1.5 0 .6-.2-.1 0-.2-.3-.2-.5zm-1.9.4c-.2 0-.3.2-.5.3 0-.2 0-.4-.1-.6-.1-.2-.3-.3-.5-.4.2-.1.4-.1.5-.3.1-.1.2-.3.2-.4.1.1.2.2.4.3.1.1.3.1.5 0-.1.2-.2.3-.2.5s.1.4.2.6h-.5zM193.3 1008c-.2-.1-.4 0-.4.2-.1.2 0 .4.2.4.2.1.4 0 .4-.2.1-.1 0-.3-.2-.4zM154.1 1005.4c0-.2.2-.5 0-.7-.1-.2-.4-.3-.6-.2 0 0-.1 0-.1.1l.1-.1c.2-.2.1-.5 0-.7-.1-.2-.4-.1-.7-.2-.2-.1-.4-.3-.7-.3-.2.1-.4.2-.4.5v.1s0-.1-.1-.1c-.2-.2-.4-.3-.6-.3l-.5.5c-.2.2-.5.3-.5.5s.1.5.3.6c.1.1.2.1.4.1-.1 0-.3 0-.4.1-.3.1-.4.3-.4.5s.3.4.4.6c.1.2.1.5.4.6.2.1.5.1.7-.1.1-.1.2-.2.2-.3v.4c0 .3.2.5.4.5.2.1.4-.1.7-.2.2-.1.5 0 .7-.2.1-.2.2-.4.1-.7l-.2-.3c.1.1.2.1.4.2.3.1.5 0 .6-.2-.1-.2-.2-.5-.2-.7zm-1.9.4c-.2 0-.3.2-.5.3 0-.2 0-.4-.1-.6-.1-.2-.3-.3-.5-.4.2-.1.4-.1.5-.3.1-.1.2-.3.2-.4.1.1.2.2.4.3.1.1.3.1.5 0-.1.2-.2.3-.2.5s.1.4.2.6h-.5zM152.2 1005c-.2-.1-.4 0-.4.2-.1.2 0 .4.2.4.2.1.4-.1.4-.2.1-.2 0-.4-.2-.4zM202.3 942.4c.5.6 1.1 1.1 1.9 1.5.6.3 1.4.6 2.4.9-.5.1-.7.2-1.1.5l-.5.4c.8.5 1.2.5 2.2.3-.7.6-.9 1.5-.3 2.2l.4.4.2.1c-.1-.4-.1-.8 0-1.2.1-.2.2-.4.4-.6.6-.5 1.2-.8 1.9-.9.7-.1 1.6-.1 2.9.1v-.1c-.6-.3-1.7-.6-3.4-1.1-1.6-.4-2.8-.9-3.6-1.2-1.3-.5-2.2-1.2-2.8-1.9-1-1.2-1.6-2.2-1.8-3-.1 1.2.2 2.4 1.2 3.6zM196 942.4c-.5.6-1.1 1.1-1.9 1.5-.6.3-1.4.6-2.4.9.5.1.7.2 1.1.5l.5.4c-.8.5-1.2.5-2.2.3.7.6.9 1.5.3 2.2l-.4.4-.2.1c.1-.4.1-.8 0-1.2-.1-.2-.2-.4-.4-.6-.6-.5-1.2-.8-1.9-.9-.7-.1-1.6-.1-2.9.1v-.1c.6-.3 1.7-.6 3.4-1.1 1.6-.4 2.8-.9 3.6-1.2 1.3-.5 2.2-1.2 2.8-1.9 1-1.2 1.6-2.2 1.8-3 0 1.2-.2 2.4-1.2 3.6zM201.2 943.8h-.4c-.8 0-1.3.7-1.5 2.3h.2c0-.2.1-.8.5-.9h.2c.2 0 .3.1.3.2s0 .1-.1.1c0 .1 0 .4.4.4.1 0 .2 0 .3-.1.4-.1.7-.6.7-1.1 0-.4-.2-.8-.6-.9zM199.1 946h.2c0-.3 0-1.4.6-2.2.2-.3.3-.7.3-1 0-.6-.3-1.1-1-1.5-.7.4-1 1-1 1.5 0 .3.1.7.3 1 .5.8.6 2 .6 2.2zM197.9 945.4c0-.1.1-.2.3-.2h.2c.4.1.5.6.5.9h.2c-.1-1.6-.7-2.3-1.5-2.3h-.4c-.5.1-.7.5-.7.9 0 .5.3 1 .7 1.1.1 0 .3.1.3.1.4 0 .4-.3.4-.4v-.1zM199.9 947.6c-.2 0-.4-.1-.5-.4h-.6c0 .3-.3.4-.5.4h-.1v.1c0 .3.1.3.3.3.1 0 .3-.1.3-.1-.1.1-.1.2-.1.3 0 .4.4.7.4.7s.4-.3.4-.7c0-.1 0-.2-.1-.3h.30000000000000004c.1 0 .3-.1.3-.3v-.1c0 .1 0 .1-.1.1zM200.1 946.4h-1.9c-.1 0-.2.1-.2.2s.1.2.2.2h1.9c.1 0 .2-.1.2-.2s-.1-.2-.2-.2zM382.9 1001.7c-.6.5-1.1 1.1-1.5 1.9-.3.6-.6 1.4-.9 2.4-.1-.5-.2-.7-.5-1.1l-.4-.5c-.5.8-.5 1.2-.3 2.2-.6-.7-1.5-.9-2.2-.3l-.4.4-.1.2c.4-.1.8-.1 1.2 0 .2.1.4.2.6.4.5.6.8 1.2.9 1.9.1.7.1 1.6-.1 2.9h.1c.3-.6.6-1.7 1.1-3.4.4-1.6.9-2.8 1.2-3.6.5-1.3 1.2-2.2 1.9-2.8 1.2-1 2.2-1.6 3-1.8-1.3-.1-2.4.2-3.6 1.2zM382.9 998.3c-.6-.5-1.1-1.1-1.5-1.9-.3-.6-.6-1.4-.9-2.5-.1.5-.2.7-.5 1.1l-.4.5c-.5-.8-.5-1.2-.3-2.2-.6.7-1.5.9-2.2.3l-.4-.4-.1-.2c.4.1.8.1 1.2 0 .2-.1.4-.2.6-.4.5-.6.8-1.2.9-1.9.1-.7.1-1.6-.1-2.9h.1c.3.6.6 1.7 1.1 3.4.4 1.6.9 2.8 1.2 3.6.5 1.3 1.2 2.2 1.9 2.8 1.2 1 2.2 1.6 3 1.8-1.3.1-2.4-.2-3.6-1.1zM387.8 999.3c-.4 0-.6.3-.6.6 0 .4.3.7.6.7.4 0 .6-.3.6-.7 0-.3-.2-.6-.6-.6zM17.6 1001.7c.6.5 1.1 1.1 1.5 1.9.3.6.6 1.4.9 2.4.1-.5.2-.7.5-1.1l.4-.5c.5.8.5 1.2.3 2.2.6-.7 1.5-.9 2.2-.3l.4.4.1.2c-.4-.1-.8-.1-1.2 0-.2.1-.4.2-.6.4-.5.6-.8 1.2-.9 1.9-.1.7-.1 1.6.1 2.9h-.1c-.3-.6-.6-1.7-1.1-3.4-.4-1.6-.9-2.8-1.2-3.6-.5-1.3-1.2-2.2-1.9-2.8-1.2-1-2.2-1.6-3-1.8 1.3-.1 2.4.2 3.6 1.2zM17.6 998.3c.6-.5 1.1-1.1 1.5-1.9.3-.6.6-1.4.9-2.5.1.5.2.7.5 1.1l.4.5c.5-.8.5-1.2.3-2.2.6.7 1.5.9 2.2.3l.4-.4.1-.2c-.4.1-.8.1-1.2 0-.2-.1-.4-.2-.6-.4-.5-.6-.8-1.2-.9-1.9-.1-.7-.1-1.6.1-2.9h-.1c-.3.6-.6 1.7-1.1 3.4-.4 1.6-.9 2.8-1.2 3.6-.5 1.3-1.2 2.2-1.9 2.8-1.2 1-2.2 1.6-3 1.8 1.3.1 2.4-.2 3.6-1.1zM12.7 999.3c.4 0 .6.3.6.6 0 .4-.3.7-.6.7-.4 0-.6-.3-.6-.7-.1-.3.2-.6.6-.6zM170.8 1041.5l-3.9 3.5-.2-.1.2-5.2c0-.7 0-.9-.7-1.3l.1-.3 2.8 1.3-.1.3c-.8-.4-.9-.2-.9.4l-.1 3.4 2.5-2.2c.4-.4.4-.6-.3-1l.1-.3 2.1 1-.1.3c-.7-.4-1-.3-1.5.2zM172.4 1047.1l.1-.3c.7.3.9.1 1.2-.8l1-2.8c.3-.9.3-1.1-.5-1.4l.1-.3 2.8 1-.1.3c-.7-.3-.9-.1-1.2.8l-1 2.8c-.3.9-.3 1.1.5 1.4l-.1.3-2.8-1zM184.8 1046.1c.2-.9.1-1.1-.6-1.3l.1-.3 2.2.5-.1.3c-.8-.2-.9 0-1.1.9l-1 4.4h-.2l-2.8-5.5-.7 3.1c-.2.9-.1 1.1.6 1.3l-.1.3-2.2-.5.1-.3c.8.2.9 0 1.1-.9l.6-2.9c.2-.9.1-1.1-.6-1.3l.1-.3 1.8.4 2.2 4.4.6-2.3zM189 1050.9c.8.1.9-.1 1-1l.3-2.9c.1-1 0-1.1-.8-1.2v-.3l4.8.5-.1 1.3h-.3v-.2c-.1-.5-.1-.7-1-.8l-1.4-.1-.2 2 .5.1c.9.1 1.1 0 1.2-.8h.3l-.2 2.3h-.3c.1-.8-.1-.9-1-1l-.5-.1-.1 1.3c-.1 1 0 1.1.8 1.2l.8.1c.9.1 1-.1 1.2-.6l.1-.2h.3l-.2 1.3-5.1-.5-.1-.4zM202.4 1047.3l-1.3 2.1v1.2c0 1 .1 1.1.9 1.1v.3h-2.9v-.3c.8 0 .9-.2.9-1.1v-1.1l-1.4-2.1c-.4-.7-.7-.8-1.4-.8v-.3h3.2v.3c-.7 0-.8.2-.5.7l1.1 1.6 1-1.6c.3-.5.2-.7-.5-.7v-.3h2.3v.3c-.9-.2-1 0-1.4.7zM206.9 1050.6c-.2.5 0 .7.8.7v.3l-2.3.2v-.3c.7-.1.8-.3 1.1-1l1.5-5h.2l2.5 4.5c.3.6.5.8 1.2.7v.3l-3.1.3v-.3c.8-.1.9-.3.6-.8l-.5-.9-1.8.2-.2 1.1zm1-3.2l-.6 1.8 1.5-.2-.9-1.6zM218.6 1048.3c1 .7 1.4.9 2 .8l.1.3-2 .4-2.2-2.1-.3.1.2 1.1c.2.9.4 1.1 1.1.9l.1.3-2.9.6-.1-.3c.8-.2.8-.4.6-1.3l-.6-2.9c-.2-.9-.4-1.1-1.1-.9l-.1-.3 3.1-.7c1.1-.3 2 .3 2.2 1.2.2.8-.3 1.6-1.3 1.9l1.2.9zm-1-2.5c-.1-.6-.6-1.1-1.4-.9l-.5.1.5 2.3.5-.1c.8-.2 1-.8.9-1.4zM223.6 1048.2c.7-.3.8-.5.5-1.4l-1-2.8c-.3-.9-.5-1-1.2-.8l-.1-.3 2.9-1c2.1-.7 3.4.2 3.9 1.7s.1 3-2 3.7l-2.9 1-.1-.1zm1.5-1.8c.3.9.5 1 1.2.7h.1c1.4-.5 1.3-1.9.9-2.9s-1.1-2.2-2.5-1.7c-.1 0-.9.3-.9.3l1.2 3.6zM233.2 1045l-.2.1-.9-1.9.2-.1c.6.8 1.6 1.1 2.3.7.5-.2.7-.7.4-1.3-.1-.3-.6-.5-1.1-.6h-1c-.9 0-1.5-.2-1.9-1.1-.4-.7 0-1.6.8-2 .5-.2.9-.2 1.2-.2.1-.1.1-.3.1-.5l.2-.1.9 1.9-.2.1c-.4-.7-1.1-1.3-1.9-.9-.3.2-.6.6-.3 1 .1.3.5.5 1.1.5h1c.8 0 1.5.3 1.8 1 .5.9 0 2-.9 2.4-.6.3-1.2.2-1.5.3-.2.3-.2.5-.1.7zM162.2 1031.4c0-.1.1-.3 0-.4-.4.1-.8.1-1.2-.1-.8-.5-1.1-1.6-.6-2.5.5-.9 1.6-1.2 2.5-.7.3.2.6.6.7 1 .1 0 .2-.1.3-.2l.1.1-.7 1.1-.1-.1c.3-.7.1-1.3-.4-1.6-.7-.4-1.3.2-1.7.8-.4.6-.6 1.5.1 1.9.5.3 1.1.2 1.6-.4l.1.1-.7 1.1v-.1zM164.5 1032.6c.4.2.5.2.8-.4l.8-1.6c.3-.5.2-.6-.2-.9l.1-.2 2.6 1.3-.3.8-.2-.1v-.1c.1-.3.1-.5-.4-.7l-.8-.4-.6 1.1.3.1c.5.3.6.2.8-.2l.1.1-.6 1.2-.1-.1c.2-.4.2-.5-.3-.8l-.3-.1-.3.7c-.3.5-.2.6.2.9l.5.2c.5.2.6.1.8-.1l.1-.1.1.1-.4.7-2.8-1.4h.1zM172 1035.1c.3.7.4.9.7 1.1l-.1.2-1.2-.5-.4-1.8-.2-.1-.3.6c-.2.5-.2.7.3.8l-.1.2-1.7-.7.1-.2c.4.2.5.1.8-.4l.7-1.7c.2-.5.2-.7-.3-.8l.1-.2 1.8.7c.7.3.9.8.7 1.3-.2.5-.7.7-1.3.5l.4 1zm.3-1.6c.1-.4.1-.8-.4-.9l-.3-.1-.5 1.3.3.1c.5.2.8 0 .9-.4zM178.4 1035.4l-.2-.1v-.1c0-.3 0-.5-.5-.6l-.5-.2-.7 2.3c-.2.6-.1.7.3.8l-.1.2-1.7-.5v-.2c.5.1.6.1.7-.5l.7-2.3-.5-.2c-.5-.2-.6 0-.8.2l-.1.1-.2-.1.3-.8 3.3 1v1zM179.4 1038.4v-.2c.5.1.5 0 .7-.5l.4-1.7c.1-.6.1-.7-.4-.8v-.2l1.8.4v.2c-.5-.1-.6 0-.7.5l-.4 1.7c-.1.6-.1.7.4.8v.2l-1.8-.4zM184.9 1037.7l.3.1c.6.1.7 0 .8-.4h.2l-.3 1.4h-.2c.1-.5 0-.6-.5-.7l-.3-.1-.2.9c-.1.6-.1.7.4.8v.2l-1.8-.3v-.2c.5.1.6 0 .7-.6l.3-1.8c.1-.6.1-.7-.4-.8v-.2l3 .6-.1.8h-.2v-.1c0-.3 0-.5-.6-.6l-1-.2-.1 1.2zM188.4 1040.3v-.2c.5.1.5 0 .6-.6l.2-1.8c.1-.6 0-.7-.5-.7v-.2l1.8.2v.2c-.5-.1-.6 0-.6.6l-.2 1.8c-.1.6 0 .7.5.7v.2l-1.8-.2zM192.5 1040.6c.5 0 .5-.1.6-.6l.1-1.8c0-.6 0-.7-.5-.7v-.2l2.9.2v.8h-.2v-.1c-.1-.3-.1-.5-.6-.5l-.9-.1-.1 1.2h.3c.6 0 .7 0 .7-.5h.2l-.1 1.4h-.2c0-.5-.1-.6-.6-.6h-.3l-.1.8c0 .6 0 .7.5.7h.5c.5 0 .6-.1.7-.4v-.1h.2l-.1.8-3.1-.2.1-.1zM197.7 1040.9c.5 0 .5-.1.5-.7v-1.8c0-.6-.1-.7-.5-.7v-.2h1.9c1.3 0 1.9.8 1.9 1.8s-.6 1.7-1.9 1.7h-1.9v-.1zm1.2-.8c0 .6.1.7.5.7h.1c.9 0 1.1-.8 1.1-1.5s-.2-1.5-1.1-1.5h-.6v2.3zM208.2 1040.8c-1 .1-2-.6-2.1-1.7-.1-1 .7-1.9 1.7-2 1-.1 2 .6 2.1 1.6.1 1.1-.7 2-1.7 2.1zm-.3-3.4c-.8.1-1 1-1 1.7.1.7.5 1.5 1.3 1.4.8-.1 1.1-1 1-1.7-.1-.7-.5-1.5-1.3-1.4zM214.7 1038.8c.6.5.8.6 1.2.6v.2l-1.2.2-1.3-1.3h-.2l.1.7c.1.6.2.7.7.6v.2l-1.8.3v-.2c.5-.1.5-.2.4-.8l-.3-1.8c-.1-.6-.2-.7-.7-.6v-.2l1.9-.3c.7-.1 1.2.2 1.3.8.1.5-.2 1-.8 1.1l.7.5zm-.6-1.5c-.1-.4-.4-.7-.8-.6l-.3.1.2 1.4.3-.1c.5 0 .7-.4.6-.8zM219.5 1037.4v-.2l1.6-.4v.2c-.5.1-.5.2-.4.8l.1.4c-.7.2-.8.5-1.4.6-.9.2-1.9-.4-2.1-1.4-.2-1 .3-2 1.3-2.2.4-.1.8 0 1.2.2.1-.1.1-.2.1-.4h.2l.3 1.2h-.2c-.3-.7-.9-1-1.4-.8-.8.2-.8 1.1-.6 1.8.2.7.6 1.5 1.3 1.3.4-.1.8-.4.7-.9-.2-.2-.3-.3-.7-.2zM223.5 1037c0 .3.1.4.5.3l.1.2-1.3.4v-.2c.4-.1.5-.3.5-.7l.3-3.1h.1l2.1 2.4c.3.3.4.4.8.3l.1.2-1.8.6v-.2c.5-.2.5-.3.3-.6l-.4-.4-1.1.3-.2.5zm.2-2l-.1 1.1.9-.3-.8-.8zM229.9 1032.5c-.2-.5-.3-.6-.8-.4l-.1-.2 1.3-.5.1.2c-.4.2-.5.3-.3.8l1 2.5-.1.1-3.3-1.8.7 1.8c.2.5.3.6.8.4l.1.2-1.3.5-.1-.2c.4-.2.5-.3.2-.8l-.7-1.7c-.2-.5-.3-.6-.8-.4l-.1-.2 1.1-.4 2.6 1.4-.3-1.3zM233.5 1033.8l-.1-.2c.4-.2.4-.3.2-.9l-.8-1.6c-.3-.5-.4-.6-.8-.4l-.1-.2 1.6-.8.1.2c-.4.2-.4.3-.2.9l.8 1.6c.3.5.4.6.8.4l.1.2-1.6.8zM239.6 1030.4c-.1-.1-.2-.2-.3-.2-.1.4-.3.8-.7 1-.8.5-1.9.2-2.4-.7-.5-.9-.3-2 .6-2.5.3-.2.8-.2 1.2-.1v-.4l.1-.1.7 1.1-.1.1c-.5-.6-1.1-.7-1.6-.4-.7.4-.4 1.2-.1 1.9.4.6 1 1.2 1.7.8.5-.3.7-.9.4-1.6l.1-.1.6 1.1-.2.1zM165.1 962.8c-.5-.8-.7-.9-1.4-.4l-.1-.2 1.9-1.2.2.2c-.7.4-.7.6-.1 1.4l2.5 3.8-.2.1-5.8-1.8 1.7 2.7c.5.8.7.9 1.4.4l.2.2-1.9 1.2-.2-.2c.7-.4.7-.6.1-1.4l-1.6-2.5c-.5-.8-.7-.9-1.4-.4l-.2-.2 1.6-1 4.7 1.5-1.4-2.2zM174.1 963.2c-1.6.7-3.4 0-4.1-1.5-.7-1.5.1-3.3 1.6-4 1.6-.7 3.4 0 4.1 1.5.7 1.5-.1 3.3-1.6 4zm-2.3-5.1c-1.2.5-1.1 2.1-.7 3.1.5 1.1 1.5 2.1 2.8 1.6 1.2-.5 1.1-2.1.7-3.1-.5-1.1-1.6-2.2-2.8-1.6zM182.6 955.1l-.6 5.2-.2.1-3.3-4c-.4-.5-.6-.7-1.3-.5l-.1-.3 3-.9.1.3c-.8.2-.8.5-.5.9l2.1 2.6.4-3.4c.1-.6-.1-.7-.9-.5l-.1-.3 2.2-.6.1.3c-.7.2-.8.4-.9 1.1zM187.3 957.7c-.1.5.1.7.8.6l.1.3-2.2.4v-.3c.6-.1.8-.3 1-1l1.2-5.1h.2l2.9 4.3c.4.6.5.8 1.3.6l.1.3-3 .5v-.3c.8-.1.9-.4.6-.8l-.5-.8-1.8.3-.7 1zm.8-3.2l-.4 1.9 1.5-.3-1.1-1.6zM198.9 957.5h-.3v-2.1h.3c.2 1 1 1.7 1.8 1.6.5 0 .9-.3.9-1 0-.3-.3-.7-.7-1l-.9-.5c-.8-.4-1.3-.8-1.3-1.8 0-.8.7-1.4 1.6-1.5.6 0 .9.2 1.2.4.1-.1.2-.2.3-.4h.3v2.1h-.3c-.1-.8-.4-1.6-1.4-1.6-.4 0-.8.3-.7.8 0 .3.3.7.8 1l.9.4c.7.3 1.2.9 1.2 1.7 0 1-.9 1.8-1.8 1.8-.7 0-1.2-.4-1.5-.4-.2.2-.3.3-.4.5zM210.8 957.7c0-.2-.1-.5-.2-.6-.5.5-1.2.7-1.8.7-1.6-.1-2.8-1.6-2.6-3.3.1-1.7 1.6-2.9 3.1-2.8.7.1 1.2.4 1.7 1 .1-.1.2-.3.3-.5h.3l-.2 2.1h-.3c-.1-1.3-.8-2-1.8-2.1-1.3-.1-1.8 1.2-1.9 2.4-.1 1.2.1 2.6 1.4 2.7.9.1 1.7-.5 2.1-1.7h.3l-.2 2.1h-.2zM217.8 959.2c-1.7-.4-2.8-2-2.4-3.6.4-1.6 2-2.7 3.7-2.3 1.7.4 2.8 2 2.4 3.6-.4 1.6-2.1 2.7-3.7 2.3zm1.2-5.5c-1.3-.3-2.1 1-2.4 2.1-.2 1.1 0 2.6 1.3 2.9 1.3.3 2.1-1 2.4-2.1.2-1.1 0-2.6-1.3-2.9zM230.2 958.2l-.3-.1v-.2c.1-.5 0-.8-.8-1.1l-.9-.3-1.3 3.7c-.3.9-.3 1.1.5 1.4l-.1.3-2.8-1 .1-.3c.7.3.9.2 1.2-.7l1.3-3.7-.9-.3c-.8-.3-1-.1-1.3.3l-.1.2-.3-.1.5-1.2 5.4 1.9-.2 1.2zM231.1 963.5l.1-.3c.7.3.9.3 1.3-.6l1.3-2.6c.4-.9.4-1.1-.3-1.4l.1-.2 2.7 1.3-.1.2c-.7-.3-.9-.3-1.3.6l-1.3 2.6c-.4.9-.4 1.1.3 1.4l-.1.2-2.7-1.2zM237.6 965.8c-.5.3-.5.6.2 1l-.2.2-1.9-1.3.2-.2c.5.4.8.3 1.4-.1l4.3-2.9.2.1-.9 5.1c-.1.7-.1.9.5 1.3l-.2.2-2.6-1.7.2-.2c.7.5.9.3 1-.2l.2-1-1.6-1-.8.7zm2.8-1.8l-1.6 1.1 1.2.8.4-1.9zM165.5 974.7c.1.3.2.4.6.1l.1.1-1.2.7-.1-.1c.3-.2.4-.4.3-.8l-.5-3.1.1-.1 2.6 1.8c.3.2.5.3.9.1l.1.1-1.6 1-.1-.1c.4-.3.4-.4.1-.6l-.5-.3-1 .6.2.6zm-.3-2l.2 1.1.8-.5-1-.6zM171.5 969.1c-.3-.5-.4-.6-.8-.4l-.1-.1 1.2-.6.1.2c-.4.2-.4.3-.2.9l1.2 2.5-.1.1-3.4-1.5.9 1.7c.3.5.4.6.8.4l.1.2-1.2.6-.1-.2c.4-.2.4-.3.2-.9l-.8-1.6c-.3-.5-.4-.6-.8-.4l-.1-.2 1-.5 2.7 1.2-.6-1.4zM177.3 966.6c-.2-.5-.3-.6-.8-.4l-.1-.2 1.3-.5.1.2c-.4.2-.5.3-.3.8l1 2.6-.1.1-3.2-1.8.7 1.8c.2.5.3.6.8.4l.1.2-1.3.5-.1-.2c.4-.2.5-.3.3-.8l-.6-1.7c-.2-.5-.3-.6-.7-.4l-.1-.2 1.1-.4 2.6 1.5-.7-1.5zM181.2 967.5c0 .3.1.4.5.3v.2l-1.3.4-.1-.2c.4-.1.5-.2.5-.7l.4-3.1h.1l2 2.5c.3.3.4.4.8.3l.1.2-1.8.5-.1-.2c.5-.1.5-.3.3-.5l-.4-.5-1.1.3.1.5zm.2-2.1l-.1 1.2.9-.3-.8-.9zM188.3 963.8c.1.5-.2 1-.9 1.2l-.6.1.1.7c.1.6.2.7.7.6v.2l-1.8.4v-.2c.5-.1.5-.2.4-.8l-.4-1.8c-.1-.6-.2-.7-.7-.6v-.2l1.9-.4c.7-.1 1.2.2 1.3.8zm-.7.1c-.1-.4-.4-.7-.9-.6l-.3.1.3 1.4.3-.1c.5 0 .7-.4.6-.8zM192.6 965.8c-1 .1-2-.6-2.1-1.6-.1-1 .6-1.9 1.6-2.1 1-.1 2 .6 2.1 1.6.2 1-.5 1.9-1.6 2.1zm-.4-3.4c-.8.1-1 1-.9 1.7.1.7.5 1.5 1.3 1.4.8-.1 1-1 .9-1.7-.1-.7-.5-1.5-1.3-1.4zM196.4 961.9v-.2l1.8-.1v.2c-.5 0-.5.1-.5.7l.1 1.7c0 .6.1.7.6.7h.7c.5 0 .6-.2.6-.5v-.1h.2v.8l-3.3.2v-.2c.5 0 .5-.1.5-.7l-.1-1.8c0-.6-.1-.7-.6-.7zM201.6 965v-.2c.5 0 .5-.1.6-.7v-1.8c0-.6-.1-.7-.5-.7v-.2h1.8v.2c-.5 0-.5.1-.6.7v1.8c0 .6.1.7.5.7v.2h-1.8zM206.1 965.3h-.2l.1-1.3h.2c.1.6.5 1.1 1 1.1.3 0 .6-.2.6-.5 0-.2-.1-.5-.4-.6l-.5-.3c-.5-.3-.7-.6-.7-1.2 0-.5.5-.8 1-.8.3 0 .5.1.7.3.1-.1.1-.1.2-.3h.2l-.1 1.3h-.2c0-.5-.2-1-.8-1.1-.2 0-.5.1-.5.4 0 .2.1.4.4.6l.5.3c.4.2.7.6.7 1.1 0 .6-.6 1-1.2 1-.4 0-.7-.3-.9-.3 0 .1 0 .1-.1.3zM216.7 963.7l-1.7 2.6h-.1l-.7-3.1c-.1-.4-.1-.5-.6-.6v-.2l1.8.3v.2c-.5-.1-.6 0-.5.4l.5 2 1.1-1.7c.2-.3.1-.4-.3-.5v-.2l1.4.2v.2c-.5-.1-.7 0-.9.4zM218.7 966.4c-.2.3-.2.4.3.5v.2l-1.3-.3v-.2c.4.1.5 0 .8-.3l1.9-2.5h.1l.5 3.1c.1.4.1.6.6.7v.2l-1.8-.5v-.2c.5.1.6 0 .5-.3l-.1-.6-1.1-.3-.4.5zm1.2-1.7l-.7.9.9.2-.2-1.1zM224.2 965l.1-.2 1.7.6-.1.2c-.4-.2-.6-.1-.7.5l-.5 1.6c-.2.6-.1.7.3.8l.6.2c.5.2.6.1.8-.2l.1-.1.2.1-.3.8-3.1-1.1.1-.2c.4.2.5.1.7-.5l.6-1.7c0-.5 0-.6-.5-.8zM229.3 966.8l.1-.2 1.7.7-.1.2c-.4-.2-.5-.1-.8.4l-.7 1.6c-.2.5-.2.7.2.8l.6.3c.5.2.6.1.8-.1l.1-.1.2.1-.4.7-3-1.3.1-.2c.4.2.5.1.8-.4l.7-1.6c.1-.6.1-.7-.3-.9zM232.7 971.8c.4.2.5.2.8-.3l.8-1.6c.3-.5.3-.6-.2-.9l.1-.2 2.6 1.4-.3.7-.1-.1v-.1c.1-.3.1-.5-.4-.7l-.8-.4-.6 1.1.3.1c.5.3.6.2.8-.2l.1.1-.7 1.2-.1-.1c.2-.4.2-.5-.3-.8l-.3-.1-.4.7c-.3.5-.3.6.2.9l.5.2c.5.2.6.2.8-.1l.1-.1.1.1-.4.7-2.8-1.5h.2zM240.9 973.6l-1.4.6-.4.6c-.3.5-.3.6.1.9l-.1.1-1.5-1 .1-.1c.4.3.5.2.8-.3l.4-.6v-1.5c0-.5-.1-.7-.4-.9l.1-.1 1.6 1.1-.1.1c-.3-.2-.5-.2-.5.2v1.2l1.1-.5c.3-.1.4-.3 0-.5l.1-.1 1.2.8-.1.1c-.4-.3-.6-.3-1-.1zM44.6 1010.4h.5c0 2.1-.5 4.5-2.2 5.5-.2.1-.7.4-.9.4h-6.6v-.5c.6-.1 1.4 0 1.4-1v-26.1c0-1.5-.7-2.9-2-2.9v-.6c2.7 0 4.6 1.6 4.5 5.2v22.7c0 1.2.9 2.2 1.8 2.2 2.2-.1 3.5-2.3 3.5-4.9zM50.9 989.2v25.3c0 1.3 1.2 1.1 1.9 1.2v.5h-6.1v-.5c.6-.1 1.8.2 1.8-1v-24.400000000000002c0-1.9.1-4.6-2-4.6v-.6c1.7.1 4.4 1.4 4.4 4.1zM36.7 975.6c-.4 0-.6.3-.6.6 0 .4.3.7.6.7.4 0 .6-.3.6-.7 0-.3-.3-.6-.6-.6zM38.9 975.6c-.4 0-.6.3-.6.6 0 .4.3.7.6.7.4 0 .6-.3.6-.7.1-.3-.2-.6-.6-.6zM41.2 975.6c-.4 0-.6.3-.6.6 0 .4.3.7.6.7.4 0 .6-.3.6-.7 0-.3-.2-.6-.6-.6zM43.5 975.6c-.4 0-.6.3-.6.6 0 .4.3.7.6.7.4 0 .6-.3.6-.7 0-.3-.3-.6-.6-.6zM45.7 975.6c-.4 0-.6.3-.6.6 0 .4.3.7.6.7.4 0 .6-.3.6-.7.1-.3-.2-.6-.6-.6zM48 975.6c-.4 0-.6.3-.6.6 0 .4.3.7.6.7.4 0 .6-.3.6-.7 0-.3-.2-.6-.6-.6zM50.3 975.6c-.4 0-.6.3-.6.6 0 .4.3.7.6.7.4 0 .6-.3.6-.7 0-.3-.3-.6-.6-.6zM52.5 975.6c-.4 0-.6.3-.6.6 0 .4.3.7.6.7.4 0 .6-.3.6-.7.1-.3-.2-.6-.6-.6zM54.8 975.6c-.4 0-.6.3-.6.6 0 .4.3.7.6.7.4 0 .6-.3.6-.7 0-.3-.2-.6-.6-.6zM57.1 975.6c-.4 0-.6.3-.6.6 0 .4.3.7.6.7.4 0 .6-.3.6-.7 0-.3-.3-.6-.6-.6zM59.3 975.6c-.4 0-.6.3-.6.6 0 .4.3.7.6.7.4 0 .6-.3.6-.7.1-.3-.2-.6-.6-.6zM61.6 975.6c-.4 0-.6.3-.6.6 0 .4.3.7.6.7.4 0 .6-.3.6-.7 0-.3-.2-.6-.6-.6zM63.9 975.6c-.4 0-.6.3-.6.6 0 .4.3.7.6.7.4 0 .6-.3.6-.7 0-.3-.3-.6-.6-.6zM66.1 975.6c-.4 0-.6.3-.6.6 0 .4.3.7.6.7.4 0 .6-.3.6-.7.1-.3-.2-.6-.6-.6zM68.4 975.6c-.4 0-.6.3-.6.6 0 .4.3.7.6.7.4 0 .6-.3.6-.7 0-.3-.2-.6-.6-.6zM70.7 975.6c-.4 0-.6.3-.6.6 0 .4.3.7.6.7.4 0 .6-.3.6-.7 0-.3-.3-.6-.6-.6zM72.9 975.6c-.4 0-.6.3-.6.6 0 .4.3.7.6.7.4 0 .6-.3.6-.7.1-.3-.2-.6-.6-.6zM75.2 975.6c-.4 0-.6.3-.6.6 0 .4.3.7.6.7.4 0 .6-.3.6-.7 0-.3-.2-.6-.6-.6zM77.5 975.6c-.4 0-.6.3-.6.6 0 .4.3.7.6.7.4 0 .6-.3.6-.7 0-.3-.3-.6-.6-.6zM79.7 975.6c-.4 0-.6.3-.6.6 0 .4.3.7.6.7.4 0 .6-.3.6-.7.1-.3-.2-.6-.6-.6zM82 975.6c-.4 0-.6.3-.6.6 0 .4.3.7.6.7.4 0 .6-.3.6-.7 0-.3-.2-.6-.6-.6zM84.3 975.6c-.4 0-.6.3-.6.6 0 .4.3.7.6.7.4 0 .6-.3.6-.7 0-.3-.3-.6-.6-.6zM86.5 975.6c-.4 0-.6.3-.6.6 0 .4.3.7.6.7.4 0 .6-.3.6-.7.1-.3-.2-.6-.6-.6zM88.8 975.6c-.4 0-.6.3-.6.6 0 .4.3.7.6.7.4 0 .6-.3.6-.7 0-.3-.2-.6-.6-.6zM91.1 975.6c-.4 0-.6.3-.6.6 0 .4.3.7.6.7.4 0 .6-.3.6-.7 0-.3-.3-.6-.6-.6zM93.3 975.6c-.4 0-.6.3-.6.6 0 .4.3.7.6.7.4 0 .6-.3.6-.7.1-.3-.2-.6-.6-.6zM95.6 975.6c-.4 0-.6.3-.6.6 0 .4.3.7.6.7.4 0 .6-.3.6-.7 0-.3-.2-.6-.6-.6zM97.9 975.6c-.4 0-.6.3-.6.6 0 .4.3.7.6.7.4 0 .6-.3.6-.7 0-.3-.3-.6-.6-.6zM100.1 975.6c-.4 0-.6.3-.6.6 0 .4.3.7.6.7.4 0 .6-.3.6-.7.1-.3-.2-.6-.6-.6zM102.4 975.6c-.4 0-.6.3-.6.6 0 .4.3.7.6.7.4 0 .6-.3.6-.7 0-.3-.2-.6-.6-.6zM104.7 975.6c-.4 0-.6.3-.6.6 0 .4.3.7.6.7.4 0 .6-.3.6-.7 0-.3-.3-.6-.6-.6zM106.9 975.6c-.4 0-.6.3-.6.6 0 .4.3.7.6.7.4 0 .6-.3.6-.7.1-.3-.2-.6-.6-.6zM109.2 975.6c-.4 0-.6.3-.6.6 0 .4.3.7.6.7.4 0 .6-.3.6-.7 0-.3-.2-.6-.6-.6zM111.5 975.6c-.4 0-.6.3-.6.6 0 .4.3.7.6.7.4 0 .6-.3.6-.7 0-.3-.3-.6-.6-.6zM113.7 975.6c-.4 0-.6.3-.6.6 0 .4.3.7.6.7.4 0 .6-.3.6-.7.1-.3-.2-.6-.6-.6zM116 975.6c-.4 0-.6.3-.6.6 0 .4.3.7.6.7.4 0 .6-.3.6-.7 0-.3-.2-.6-.6-.6zM118.3 975.6c-.4 0-.6.3-.6.6 0 .4.3.7.6.7.4 0 .6-.3.6-.7 0-.3-.3-.6-.6-.6zM120.5 975.6c-.4 0-.6.3-.6.6 0 .4.3.7.6.7.4 0 .6-.3.6-.7.1-.3-.2-.6-.6-.6zM122.8 975.6c-.4 0-.6.3-.6.6 0 .4.3.7.6.7.4 0 .6-.3.6-.7 0-.3-.2-.6-.6-.6zM125.1 975.6c-.4 0-.6.3-.6.6 0 .4.3.7.6.7.4 0 .6-.3.6-.7 0-.3-.3-.6-.6-.6zM127.3 975.6c-.4 0-.6.3-.6.6 0 .4.3.7.6.7.4 0 .6-.3.6-.7.1-.3-.2-.6-.6-.6zM129.6 975.6c-.4 0-.6.3-.6.6 0 .4.3.7.6.7.4 0 .6-.3.6-.7 0-.3-.2-.6-.6-.6zM131.9 975.6c-.4 0-.6.3-.6.6 0 .4.3.7.6.7.4 0 .6-.3.6-.7 0-.3-.3-.6-.6-.6zM134.1 975.6c-.4 0-.6.3-.6.6 0 .4.3.7.6.7.4 0 .6-.3.6-.7.1-.3-.2-.6-.6-.6zM136.4 975.6c-.4 0-.6.3-.6.6 0 .4.3.7.6.7.4 0 .6-.3.6-.7 0-.3-.2-.6-.6-.6zM35.7 1024.4c-.4 0-.6.3-.6.6 0 .4.3.7.6.7.4 0 .6-.3.6-.7.1-.3-.2-.6-.6-.6zM38 1024.4c-.4 0-.6.3-.6.6 0 .4.3.7.6.7.4 0 .6-.3.6-.7 0-.3-.2-.6-.6-.6zM40.3 1024.4c-.4 0-.6.3-.6.6 0 .4.3.7.6.7.4 0 .6-.3.6-.7 0-.3-.3-.6-.6-.6zM42.5 1024.4c-.4 0-.6.3-.6.6 0 .4.3.7.6.7.4 0 .6-.3.6-.7 0-.3-.2-.6-.6-.6zM44.8 1024.4c-.4 0-.6.3-.6.6 0 .4.3.7.6.7.4 0 .6-.3.6-.7 0-.3-.2-.6-.6-.6zM47.1 1024.4c-.4 0-.6.3-.6.6 0 .4.3.7.6.7.4 0 .6-.3.6-.7 0-.3-.3-.6-.6-.6zM49.3 1024.4c-.4 0-.6.3-.6.6 0 .4.3.7.6.7.4 0 .6-.3.6-.7.1-.3-.2-.6-.6-.6zM51.6 1024.4c-.4 0-.6.3-.6.6 0 .4.3.7.6.7.4 0 .6-.3.6-.7 0-.3-.2-.6-.6-.6zM53.9 1024.4c-.4 0-.6.3-.6.6 0 .4.3.7.6.7.4 0 .6-.3.6-.7 0-.3-.3-.6-.6-.6zM56.1 1024.4c-.4 0-.6.3-.6.6 0 .4.3.7.6.7.4 0 .6-.3.6-.7.1-.3-.2-.6-.6-.6zM58.4 1024.4c-.4 0-.6.3-.6.6 0 .4.3.7.6.7.4 0 .6-.3.6-.7 0-.3-.2-.6-.6-.6zM60.7 1024.4c-.4 0-.6.3-.6.6 0 .4.3.7.6.7.4 0 .6-.3.6-.7 0-.3-.3-.6-.6-.6zM62.9 1024.4c-.4 0-.6.3-.6.6 0 .4.3.7.6.7.4 0 .6-.3.6-.7.1-.3-.2-.6-.6-.6zM65.2 1024.4c-.4 0-.6.3-.6.6 0 .4.3.7.6.7.4 0 .6-.3.6-.7 0-.3-.2-.6-.6-.6zM67.4 1024.4c-.4 0-.6.3-.6.6 0 .4.3.7.6.7.4 0 .6-.3.6-.7.1-.3-.2-.6-.6-.6zM69.7 1024.4c-.4 0-.6.3-.6.6 0 .4.3.7.6.7.4 0 .6-.3.6-.7.1-.3-.2-.6-.6-.6zM72 1024.4c-.4 0-.6.3-.6.6 0 .4.3.7.6.7.4 0 .6-.3.6-.7 0-.3-.2-.6-.6-.6zM74.3 1024.4c-.4 0-.6.3-.6.6 0 .4.3.7.6.7.4 0 .6-.3.6-.7 0-.3-.3-.6-.6-.6zM76.5 1024.4c-.4 0-.6.3-.6.6 0 .4.3.7.6.7.4 0 .6-.3.6-.7.1-.3-.2-.6-.6-.6zM78.8 1024.4c-.4 0-.6.3-.6.6 0 .4.3.7.6.7.4 0 .6-.3.6-.7 0-.3-.2-.6-.6-.6zM81 1024.4c-.4 0-.6.3-.6.6 0 .4.3.7.6.7s.6-.3.6-.7c.1-.3-.2-.6-.6-.6zM83.3 1024.4c-.4 0-.6.3-.6.6 0 .4.3.7.6.7.4 0 .6-.3.6-.7.1-.3-.2-.6-.6-.6zM85.6 1024.4c-.4 0-.6.3-.6.6 0 .4.3.7.6.7.4 0 .6-.3.6-.7 0-.3-.2-.6-.6-.6zM87.9 1024.4c-.4 0-.6.3-.6.6 0 .4.3.7.6.7.4 0 .6-.3.6-.7 0-.3-.3-.6-.6-.6zM90.1 1024.4c-.4 0-.6.3-.6.6 0 .4.3.7.6.7.4 0 .6-.3.6-.7.1-.3-.2-.6-.6-.6zM92.4 1024.4c-.4 0-.6.3-.6.6 0 .4.3.7.6.7.4 0 .6-.3.6-.7 0-.3-.2-.6-.6-.6zM94.7 1024.4c-.4 0-.6.3-.6.6 0 .4.3.7.6.7.4 0 .6-.3.6-.7 0-.3-.3-.6-.6-.6zM96.9 1024.4c-.4 0-.6.3-.6.6 0 .4.3.7.6.7.4 0 .6-.3.6-.7.1-.3-.2-.6-.6-.6zM99.2 1024.4c-.4 0-.6.3-.6.6 0 .4.3.7.6.7.4 0 .6-.3.6-.7 0-.3-.2-.6-.6-.6zM101.5 1024.4c-.4 0-.6.3-.6.6 0 .4.3.7.6.7.4 0 .6-.3.6-.7 0-.3-.3-.6-.6-.6zM103.7 1024.4c-.4 0-.6.3-.6.6 0 .4.3.7.6.7.4 0 .6-.3.6-.7.1-.3-.2-.6-.6-.6zM106 1024.4c-.4 0-.6.3-.6.6 0 .4.3.7.6.7.4 0 .6-.3.6-.7 0-.3-.2-.6-.6-.6zM108.3 1024.4c-.4 0-.6.3-.6.6 0 .4.3.7.6.7.4 0 .6-.3.6-.7 0-.3-.3-.6-.6-.6zM110.5 1024.4c-.4 0-.6.3-.6.6 0 .4.3.7.6.7.4 0 .6-.3.6-.7.1-.3-.2-.6-.6-.6zM112.8 1024.4c-.4 0-.6.3-.6.6 0 .4.3.7.6.7.4 0 .6-.3.6-.7 0-.3-.2-.6-.6-.6zM115.1 1024.4c-.4 0-.6.3-.6.6 0 .4.3.7.6.7.4 0 .6-.3.6-.7 0-.3-.3-.6-.6-.6zM117.3 1024.4c-.4 0-.6.3-.6.6 0 .4.3.7.6.7.4 0 .6-.3.6-.7.1-.3-.2-.6-.6-.6zM119.6 1024.4c-.4 0-.6.3-.6.6 0 .4.3.7.6.7.4 0 .6-.3.6-.7 0-.3-.2-.6-.6-.6zM121.9 1024.4c-.4 0-.6.3-.6.6 0 .4.3.7.6.7.4 0 .6-.3.6-.7 0-.3-.3-.6-.6-.6zM124.1 1024.4c-.4 0-.6.3-.6.6 0 .4.3.7.6.7.4 0 .6-.3.6-.7.1-.3-.2-.6-.6-.6zM126.4 1024.4c-.4 0-.6.3-.6.6 0 .4.3.7.6.7.4 0 .6-.3.6-.7 0-.3-.2-.6-.6-.6zM128.6 1024.4c-.4 0-.6.3-.6.6 0 .4.3.7.6.7.4 0 .6-.3.6-.7.1-.3-.2-.6-.6-.6zM130.9 1024.4c-.4 0-.6.3-.6.6 0 .4.3.7.6.7.4 0 .6-.3.6-.7.1-.3-.2-.6-.6-.6zM133.2 1024.4c-.4 0-.6.3-.6.6 0 .4.3.7.6.7.4 0 .6-.3.6-.7 0-.3-.2-.6-.6-.6zM40.2 977.9h98.5v.8h-98.5zM38.9 977.6c.4 0 .6.3.6.6 0 .4-.3.7-.6.7-.4 0-.6-.3-.6-.7 0-.3.2-.6.6-.6zM32.6 974.5c.8 0 1.7.6 1.7 1.6 0 .4-.1.7-.3.9-.1.1-.3.1-.6.1-.4 0-.6-.2-.7-.6-.2-.4-.4-.6-.6-.6-.3 0-.5.2-.5.6 0 .7.4 1.1 1.3 1.3.5.1 1.3.2 2.5.2h2.2v.7h-2.9c-1.5 0-2.6-.3-3.3-.8-.5-.4-.7-.9-.7-1.5.1-1.1 1-1.9 1.9-1.9zM139.9 977.6c.4 0 .6.3.6.6 0 .4-.3.7-.6.7-.4 0-.6-.3-.6-.7 0-.3.2-.6.6-.6zM32.4 1023.6c-1.5 0-3-.4-4.2-.7l1.8-.4c.9-.2 1.8-.3 2.4-.3 1.2 0 1.9 0 1.9.7 0 .5-.4.7-1.9.7zM37 1022.5h99.9v.8h-99.9zM35.7 1023.5c.4 0 .6-.3.6-.6 0-.4-.3-.7-.6-.7-.4 0-.6.3-.6.7-.1.3.2.6.6.6zM138.1 1023.5c.4 0 .6-.3.6-.6 0-.4-.3-.7-.6-.7s-.6.3-.6.7c0 .3.2.6.6.6zM64.5 1014.3c0 .7 0 1.5.5 2l-.4.3-.9-1.4c-1 1.1-2.4 1.5-3.7 1.5-2.2 0-4.3-1.3-4.3-4.5v-22.1c0-3.3 2.1-5 4.5-5 2.1 0 3.9 1.9 3.9 4.7 0 .8-.3 2.9-1.2 2.9-.9 0-1-2.1-1-2.9 0-.9.2-1.5.5-2.2-.2-1.1-1.4-1.8-2.2-1.8-1.5 0-1.9 2.3-1.9 3.8v22.8c0 1.8.2 3.6 1.9 3.6 1.8 0 1.9-1.9 1.9-3.6v-8.4c0-1.5-.7-2.9-2-2.9v-.6c1.6 0 3.3.6 4.1 2.6.1.2.3.9.3 1.2v10zM80.4 985.8c-1.3 0-1.9 1.4-1.9 2.9v26.6c.5.5 1.2.4 1.8.5v.4h-5.5v-.4c.4-.1 1.2-.1 1.2-.8v-12.5c0-1.3-1-1.7-1.9-1.7-1 0-2 .5-2 2v11.9c0 1 .9.9 1.5 1v.4h-5.6v-.4c.4-.1 1.6 0 1.6-.9v-25c0-1.5-.5-4-2-4v-.6c1.7 0 3.5.7 4.3 2.7.1.2.3.9.3 1v9.5c0 1.4 1 1.5 1.9 1.5.9 0 1.9 0 1.9-1.5v-9.5c0-.2.2-.9.2-1 .8-2.1 2.5-2.8 4.2-2.8v.7zM81.2 985.2h12.6v.9h-.9c-.5 0-3.3.1-3.6.6-.2.4-.5 1.2-.5 1.7v26.5c0 1.2 1.2.9 1.9 1v.5h-6.2v-.5c.5 0 1.9.2 1.9-.9v-26.6c0-.5-.3-1.2-.5-1.6-.3-.5-3.3-.6-3.8-.6h-.7v-1zM100.6 985.2c2.1 0 3.8 1.9 3.8 4.6 0 .8-.3 2.9-1.2 2.9-.9 0-1-2.1-1-2.9 0-.8.2-1.5.5-2.1-.2-1.1-1.4-1.8-2.2-1.8-1.5 0-1.9 2.3-1.9 3.8v7.8c0 2.3.8 2.3 2.4 2.3h.7v.9c-1.2-.1-3.1-.1-3.1 2v10.7c0 2.5-.1 2.2 1.7 2.4v.4h-5.7v-.4c1.4-.2 1.5-.5 1.5-2.3l-.1-26.9c0-1-.9-.9-1.4-1v-.5h6zM112.1 985.2c2.8 0 4.5 1.5 4.5 5.2v21.6c0 3.3-2.3 4.8-4.6 4.8s-4.4-1.3-4.4-4.6v-21.9c0-3.3 2-5.1 4.5-5.1zm-.1 30.9c1.8 0 2-2 2-3.8v-22.9c0-1.6-.2-3.3-1.8-3.3-1.7 0-2 1.7-2 3.5v23.1c0 1.6.2 3.4 1.8 3.4zM125.6 985.2c2.8 0 4.5 1.5 4.5 5.2v21.6c0 3.3-2.3 4.8-4.6 4.8s-4.4-1.3-4.4-4.6v-21.9c-.1-3.3 1.9-5.1 4.5-5.1zm-.1 30.9c1.8 0 2-2 2-3.8v-22.9c0-1.6-.2-3.3-1.8-3.3-1.7 0-2 1.7-2 3.5v23.1c-.1 1.6.1 3.4 1.8 3.4zM131.1 985.2h12.6v.9h-.9c-.5 0-3.3.1-3.6.6-.2.4-.5 1.2-.5 1.7v26.5c0 1.2 1.2.9 1.9 1v.5h-6.2v-.5c.5 0 1.9.2 1.9-.9v-26.6c0-.5-.3-1.2-.5-1.6-.3-.5-3.3-.6-3.8-.6h-.7v-1zM158.5 1015.2l-.1-.2-1.1.9.1.2 1.1-.9zM157.7 1014.3l-.1-.2-1.5 1.2h.3l1.3-1zM158.1 1014.8l-.1-.2-1.2.9s.1.1.2.1l1.1-.8zM158.9 1015.7l-.1-.2-1.2.9c0 .1 0 .1.1.2l1.2-.9zM154.2 1012.3l.1.2 1.1-.9-.1-.2-1.1.9zM154.1 1011.9l.9-.7-.1-.2-.8.7v.2zM155.8 1012.1l-.1-.2-1.2 1 .1.2 1.2-1zM153.9 1010.3c0 .1 0 .1.1.2l.3-.3-.1-.2-.3.3zM156.5 1018.3l2.7-2.1-.1-.2-3 2.3c.3 0 .4-.1.4 0zM155.7 1018.9l.5-.4-.3.1s-.1.1-.2.3zM157.4 1013.9l-.1-.2-1.9 1.5c.1 0 .2 0 .3.1l1.7-1.4zM157 1013.4l-.1-.2-2.2 1.7.2.1 2.1-1.6zM156.6 1013l-.1-.2-2.3 1.8.2.1 2.2-1.7zM153.9 1014.4l2.4-1.9-.1-.2-1.3 1c0 .1.1.1.1.1s-.1 0-.2-.1l-1 .8c0 .2 0 .2.1.3zM154.7 1010.8l-.1-.2-.5.4v.2l.6-.4zM159.4 1017.2l-2.7 2.1h.3l2.4-1.9c.1 0 0-.1 0-.2zM156.8 1016.3l-1.8 1.4.1.2 1.9-1.5c0-.1-.1-.1-.2-.1zM159.5 1016.4l-3.8 3v.1s.1 0 .3-.1l3.6-2.8-.1-.2zM157.4 1016.6l-2 1.5.2.1 1.9-1.5s0-.1-.1-.1zM153.5 1016.7s.1 0 .2.1l.9-.7c-.4.1-.8.3-1.1.6zM154.1 1013.5c-.2 0-.4.1-.7.3 0 0 0 .1.1.1l.6-.4zM155.3 1016l-1.2 1 .2.1 1.4-1.1h-.4zM156.1 1016.1l-1.6 1.2s.1.1.2.1l1.6-1.3h-.2zM159.4 1018.7l-1 .8c.5-.1.8-.4 1-.8zM160.8 1016.8zM159.9 1016.8l-.2.1.1.2.2-.1-.1-.2zM157.6 1019.4c.1 0 .2 0 .3.1l1.7-1.3v-.3l-2 1.5zM157.9 1010.2zM160.1 1016.6s-.3 0-.2.3l-6-7.1.1-.1s.7.6 1.6.6c.8.1 1.6.9 1.8 1.1 0 0-.2-.7.5-1.4 0 0 1.3.6 1.1 3.5 0 0 .2.8 1.1 1.2 0 0-1.3-2.7.7-4.2 0 0 0 .9.7 1.7.7.7.3 1.7.3 1.7s.2.1.4-.6c0 0 .6-.3.9 0 0 0-.4.9-.4 2.1-.1 1.2-1.1 1.9-2.6 1.2zM174.3 985.5l-.2-.2-1.3 1 .1.2 1.4-1zM173.5 984.5l-.2-.2-1.8 1.4h.3l1.7-1.2zM173.9 985l-.2-.2-1.3 1.1c.1 0 .1.1.2.2l1.3-1.1zM174.8 986.1l-.2-.2-1.4 1.1c0 .1.1.2.1.2l1.5-1.1zM169.4 982.2c0 .1.1.2.1.2l1.3-1-.2-.2-1.2 1zM169.3 981.7l1.1-.9-.2-.2-1 .8c.1.1.1.2.1.3zM171.3 981.9l-.2-.2-1.4 1.1.1.2 1.5-1.1zM169.1 979.9c0 .1 0 .2.1.3l.4-.3-.2-.2-.3.2zM172.1 989.1l3.2-2.5-.2-.2-3.4 2.7h.4zM171.2 989.8l.6-.4c-.1 0-.2.1-.4.1-.1-.1-.2.1-.2.3zM173 984l-.2-.2-2.2 1.7.3.1 2.1-1.6zM172.6 983.5l-.2-.2-2.5 2 .3.1 2.4-1.9zM172.2 982.9l-.2-.2-2.7 2.1.2.1 2.7-2zM169 984.6l2.7-2.2-.2-.2-1.5 1.2c.1.1.1.1.1.2 0 0-.1 0-.2-.1l-1.2.9c.2.1.2.1.3.2zM170 980.3l-.2-.2-.6.5v.3l.8-.6zM175.4 987.8l-3.2 2.5h.4l2.8-2.2c.1-.1.1-.2 0-.3zM172.4 986.8l-2.1 1.7.2.2 2.2-1.7c-.1-.2-.2-.2-.3-.2zM175.5 986.9l-4.4 3.5v.1s.1 0 .4-.1l4.2-3.3-.2-.2zM173.1 987.1l-2.3 1.8c.1.1.2.1.3.1l2.2-1.8c-.1 0-.1 0-.2-.1zM168.5 987.3s.1 0 .2.1l1.1-.8c-.4 0-.9.3-1.3.7zM169.3 983.5c-.2.1-.5.2-.8.4 0 0 0 .1.1.2l.7-.6zM170.7 986.4l-1.5 1.1c.1 0 .2.1.2.1l1.6-1.3c-.1.1-.2.1-.3.1zM171.6 986.5l-1.8 1.4.2.2 1.9-1.5-.3-.1zM175.4 989.6l-1.2.9c.6-.1 1-.4 1.2-.9zM177.1 987.4zM176 987.4l-.2.2.1.2.2-.2-.1-.2zM173.3 990.4c.1 0 .2 0 .3.1l2-1.5v-.3l-2.3 1.7zM173.7 979.7zM176.2 987.1s-.3 0-.3.3l-7-8.2.1-.1s.9.6 1.8.7c1 .1 1.8 1 2.1 1.3 0 0-.3-.9.6-1.7 0 0 1.6.7 1.3 4.1 0 0 .3 1 1.3 1.4 0 0-1.5-3.2.8-4.9 0 0 0 1.1.8 1.9.8.8.3 1.9.3 1.9s.2.1.5-.7c0 0 .7-.3 1 0 0 0-.5 1-.4 2.4.1 1.6-1.1 2.5-2.9 1.6zM211 989.4l.1-.1-1-.4s0 .1-.1.1l1 .4zM211.3 988.5l.1-.2-1.4-.5.1.2 1.2.5zM211.1 989l.1-.2-1-.4v.2l.9.4zM210.8 989.8l.1-.2-1.1-.4-.1.1 1.1.5zM211.2 985.5l-.1.1 1 .4.1-.2-1-.3zM211.4 985.2l.9.3.1-.2-.8-.3c-.1.2-.1.2-.2.2zM212 986.4l.1-.2-1.1-.4-.1.1 1.1.5zM212.4 984.5l-.1.1.3.1.1-.2h-.3zM208.2 989.3l2.5 1 .1-.1-2.7-1 .1.1zM207.5 989l.4.2c-.1 0-.1-.1-.2-.2h-.2zM211.4 988.1l.1-.2-1.7-.7c0 .1 0 .1.1.2l1.5.7zM211.5 987.7l.1-.2-2-.7v.2l1.9.7zM211.7 987.3v-.2l-2.1-.8v.2l2.1.8zM209.7 986l2.1.8.1-.2-1.1-.4v.1-.2l-.9-.4c-.2.2-.2.3-.2.3zM212.4 985.1l.1-.2-.4-.2-.1.1.4.3zM210 990.8l-2.5-.9.1.2 2.2.9c.1-.2.2-.2.2-.2zM209.6 988.7l-1.7-.6v.1l1.7.7v-.2zM210.6 990.5l-3.4-1.3.2.2 3.3 1.3-.1-.2zM209.6 989.2l-1.8-.7v.2l1.7.7c.1-.1.1-.1.1-.2zM208 986.7v.2l.8.3c-.1-.3-.4-.4-.8-.5zM210.4 985.8c-.1-.1-.3-.2-.5-.3l-.1.1.6.2zM209.2 987.6l-1.1-.4v.2l1.2.5c0-.2 0-.2-.1-.3zM209.5 988.2l-1.4-.5v.2l1.5.6c-.1-.2-.1-.3-.1-.3zM209 991.3l-.9-.4c.3.4.6.5.9.4zM210.8 991.5zM210.4 990.9l-.2-.1-.1.1.2.1.1-.1zM207.8 990.4l.1.2 1.5.6.2-.1-1.8-.7zM214.1 987.1zM210.7 991s-.1-.2-.3 0l2.3-6.7h.1s-.1.7.2 1.3c.3.6 0 1.4-.1 1.6 0 0 .4-.4 1.2-.2 0 0 .1 1.1-1.9 2.1 0 0-.5.5-.4 1.2 0 0 1.3-1.9 3-1.2 0 0-.6.4-.8 1.1-.2.7-1 .8-1 .8s0 .2.5.1c0 0 .4.3.4.6 0 0-.7.1-1.5.6-.7.3-1.6-.1-1.7-1.3zM244.1 985.7l-.2-.6c-.7 0-1.1-.7-1.3-1.1-.5-1-.8-2.4-.8-3.5-.1.2-.3.4-.4.7-.1.1-.1.4-.2.4s-.2-.3-.3-.5c-.7-1.1-2.4-1.9-2.9-2.9 0 .4.1.7.1 1-.2 0-.4-.2-.6-.3-.9-.6-2.2-.9-2.9-.5.2.1.6.1.6.3-.2.1-.5.1-.8.1-.8.1-1.5.5-2.1 1 .9-.3 1.9-.6 3-.1-.1.2-.4.1-.6.2.1.1.2.2.4.2h2.9c.1 0 .4.1.4.2-.2.2-.5.1-.8.1.7.3 1.5.6 2.1 1 .4.3.9.4.9.9-.1.1-.2.1-.3.1.6.3.9.6 1.2 1.1.1.1.2.3.2.4-.6-.4-1.4-.8-2.2-1 0 .1 0 .2-.1.3.5.1 1 .3 1.4.5.4.2.8.5 1.1.8-.3-.1.3.6.5.7.6 0 1.1.3 1.7.5zM236.9 982.4c-.1.6.4 1.2 1 1.3.6.1 1.2-.4 1.3-1 .1-.6-.4-1.2-1-1.3-.6-.1-1.2.4-1.3 1zM235.9 983.8l1-.4.2.2-1.1.5zM235.6 983.3l1.1-.2.2.2-1.2.3zM235.5 982.6l1.1.1.1.3-1.2-.1zM235.6 982l1 .3v.3l-1.1-.3zM235.8 981.4l.9.6-.1.3-1-.7zM236.2 980.8l.7.9-.2.2-.8-.9zM236.6 980.4l.5 1-.2.2-.5-1zM237.2 980.1l.2 1.1-.2.1-.3-1.1zM170.8 978.1c.1-.2.2-.4.4-.5.7.2 1.2-.4 1.6-.8.8-.8 1.3-2.1 1.6-3.2.1.2.2.4.2.7 0 .2 0 .4.1.4s.3-.3.4-.4c.9-.9 2.8-1.3 3.5-2.1l-.4.9c.2 0 .5-.1.7-.2 1-.3 2.3-.4 2.9.1-.2 0-.6-.1-.6.2.2.2.5.2.7.3.7.3 1.3.8 1.9 1.4-.8-.5-1.7-1-2.9-.8 0 .2.4.2.5.3-.1.1-.3.1-.4.1-1 0-1.8-.7-2.9-.7-.2 0-.4 0-.5.1.1.3.5.2.8.3-.8.1-1.6.2-2.3.5-.5.2-1 .2-1.1.7.1.1.2.1.3.1-.6.1-1 .4-1.4.8-.1.1-.3.2-.3.4.7-.2 1.5-.4 2.3-.5v.3c-.5 0-1 0-1.5.2-.5.1-.9.3-1.2.5.3 0-.5.5-.7.5-.4.1-1 .4-1.7.4zM178.7 976.5c-.1.6-.7 1.1-1.3 1-.6-.1-1.1-.7-1-1.3.1-.6.7-1.1 1.3-1 .6.1 1 .7 1 1.3zM179.3 978.2l-.9-.7-.2.1.9.8zM179.7 977.7l-1-.5-.2.2 1 .5zM179.9 977.1l-1.1-.2-.1.3 1.2.2zM180 976.4l-1.1.1v.3l1.1-.1zM180 975.8l-1.1.4v.3l1.2-.4zM179.7 975.2l-.9.6.1.3 1-.7zM179.4 974.7l-.8.8.2.2.8-.8zM178.9 974.2l-.5 1 .2.2.5-1zM157.2 1008.1c.2 0 .4.1.7.1.4-.6 1.2-.6 1.7-.5 1.1.1 2.4.6 3.4 1.3-.1-.2-.2-.4-.4-.7-.1-.1-.3-.2-.2-.3.1-.1.4 0 .6 0 1.2 0 2.9-1 4-.8-.3-.2-.6-.3-.9-.4.2-.2.4-.2.6-.3 1-.5 1.9-1.3 2-2.1-.2.1-.4.5-.6.3 0-.3.2-.5.3-.7.3-.7.4-1.5.4-2.3-.2.9-.5 1.9-1.6 2.6-.1-.2.1-.4.2-.6-.2 0-.3.1-.4.2-.8.7-.8 1.8-1.6 2.4-.1.1-.3.3-.4.2-.1-.3.2-.5.4-.7-.6.5-1.3.9-2 1.3-.5.2-.9.5-1.2.2l.1-.3c-.5.3-1 .4-1.5.4-.1 0-.3 0-.4-.1.7-.3 1.4-.7 2-1.2-.1-.1-.2-.1-.2-.2-.3.4-.7.7-1.2.9-.4.2-.9.4-1.2.5.2-.2-.7-.1-.8.1-.7.1-1.2.3-1.8.7zM164 1003.9c-.5-.4-1.2-.4-1.6.1-.4.5-.4 1.2.1 1.6.5.4 1.2.4 1.6-.1.4-.4.4-1.2-.1-1.6zM163.3 1002.3l-.1 1.1h-.3l.1-1.2zM164 1002.4l-.5 1h-.3l.5-1.1zM164.6 1002.6l-.7.9-.3-.1.7-.9zM165.1 1003l-.9.7-.2-.1.9-.8zM165.5 1003.6l-1.1.4-.1-.2 1-.5zM165.7 1004.1l-1.1.2-.1-.2 1.2-.3zM165.8 1004.8l-1.1-.1-.1-.3 1.2.1zM165.7 1005.4l-1-.4v-.3l1.1.4zM249.4 1006.6c.5.6 1.4 1.3 1.3 1.4-.1.1-1-.4-1.5-1s-1-1.6-.9-1.7c.1-.1.6.7 1.1 1.3zM249.2 1005.3c-.7-1.4 1.5-2.4 1-3 .2 0 .4-.2.7.1-.2.4.2.2.3.4.4.6.4 1.8-.2 2.7l-.1.1c.8-.6 1.4-.1 1.8-.3-.9.3-.2 2.2-1.6 2.1-.5-.3-1.6-1.2-1.9-2.1zM247.8 1003.9c-.3 0-.5.2-.5.4 0 .3.2.5.4.5.3 0 .5-.2.5-.5.1-.1-.1-.3-.4-.4zM161.2 1004.5l-.3.1c0-.2-.2-.3-.7-.3-.9 0-1.2 1.1-1.2 1.1-.4-.2-.4-.7-.4-.7-1.1.7-2.1 0-2.1 0 .2-.4.6-.5.6-.5-1.6-.8-1.3-2.2-1.3-2.2s.3-1 1-.7c.7.3-.1.8-.1.8-.2-.4-.4 0-.4 0-.3 1.6 2.6 1.9 3.9 1.7.6-.1.9.4 1 .7zM221.6 982l1.9-.4-.2-.4c-1.2.7-1.2.7-1.7.8zM223.6 980.8l.4 1.2.4-.1-.5-1.4zM224.1 980.2l.6 1.6.4.1-.7-2zM227 981l-.7-2h-.4l.8 2.2zM226.4 981.4l-.8-2.3-.3.2.8 2.3zM224.7 979.7l.7 2.1.4-.1-.8-2.2zM226.7 981.5c-.5.1-.6 1-.6 1 0 .3.2.4.4.5.2.1.4-.1.6-.2.2-.1.5 0 .7-.2.1-.2.2-.4 0-.6 0 0-.6-.6-1.1-.5zM225.7 978.9c-.5.2-1.1-.4-1.1-.4-.2-.2-.1-.5 0-.6.1-.2.4-.1.6-.2.2-.1.4-.3.6-.3.2 0 .4.2.4.5.1 0 0 .8-.5 1zM228 980c.1-.5-.3-1-.9-1.1-.2 0-.4 0-.6.1l.6 1.8c.5 0 .9-.4.9-.8zM192.2 971.1l-.7-.2c-.6-.1-.9-.2-1-.2-.4-.1-.5-.3-.4-.5 0-.1.2-.3.4-.2 0 0 .1.1.1.2l.2.2c.1 0 .1-.1.1-.1.1-.2-.1-.3-.3-.4-.3-.1-.7.2-.7.4-.2.5-.1 1 .3 1.4.3.3.7.5 1.3.7.2.1.5.2.9.3.1 0 .2 0 .3.1.3.1.6.3.8.5l.3-.1c-.1-.2-.3-.5-.6-1-.3-.7-.6-1-1-1.1zM198.8 969.1l-.1-.5-1.9.5v.4zM196.9 968.7l1.6-.4-.2-.3-1.4.4zM198.1 967.4l-1.2.3v.4l1.4-.4zM197.1 970.2l1.9-.5-.1-.4-2 .5zM205.8 973.3c-1.6.3-2.4.5-2.7.6-1 .3-1.8.5-2.5.6l-1.7.1 1.7-1-1.3-1-.1.6c-.2.8-.4 1.3-.6 1.5h-.2c.6-1.8.9-3.7.7-4.6l-1.8.4c.1.2.3.8.5 1.9l.4 1.9c.1 0 .1.1.1.2 0 0 0-.1-.1-.1v.2h-.2s0-.1-.1-.3c-.1-.3-.2-.9-.3-1.7-.2-.6-.6-1.1-1-1.4l-.8-.6c-.7-.5-1.2-.7-1.2-.8-.4-.3-.5-.6-.3-.9.1-.2.5-.3.7-.1 0 0 .1.1.1.3.1.2.1.4.2.3.1 0 .2-.1.2-.1.1-.2 0-.5-.3-.7-.4-.3-1-.1-1.2.2-.5.7-.6 1.3-.3 2 .3.5.7 1.1 1.4 1.6.3.2.6.4 1.1.8.1.1.2.2.3.2.4.3.9.8 1.1 1.3-.1 0 .1.1.4.1.6.1 1.4.2 1.3.1.2 0 1.1.2 2.8.5 1.2.3 2.2 0 3.2-.7.5-.4.9-.8 1.4-1.4l.3-.4c-.2.2-.7.3-1.2.4zM197.3 966.6l-.4.8 1.1-.3zM222.1 995.4c-2-.1-2.4 2.4-.8 3.3-2.2 3-10.4-1.8-11.8-4.4l-.8.8c2.6 3.2.1 7.3-1.5 9.8.6.4 1.1.8 1.6 1.3.4-1.9 2-4.8 4.1-4.4.7.1 2.2 1.7 1.3 2.5 2.9.9 8.7-2 9.3-6 .2-1.3-.2-2.9-1.4-2.9zm-3.5 6.1c-.3.2-.9.6-1.4.8-1.1.4-1.2.5-1.2.2 0 0 0-.4-.1-.8-.1-.1-.2-.3-.4-.4-.5-.3-.2-.5.6-.3s2.9.3 2.5.5zM201.8 970.3l-.4-.3-.2.2.6.4zM202 969.5l-.4.4.3.2c0-.5 0-.5.1-.6zM201.8 971l-.8-.7-.2.2 1 .8zM201.7 971.6l-1.1-.9-.3.2 1.3 1zM200.8 973.4l.2-.1-1.5-1.2-.1.2zM201.2 973l.1-.2-1.6-1.3-.1.3zM201.5 972.2l-1.4-1.1-.2.2 1.5 1.2zM277.5 985v.7c-.3.3-.7.9-.9 1.3-.6.9-1.2 7.1-1.3 7.5l-2.5 17.4-.1.8c-.4 2.5.1 3 .1 3l.2.6c-2.4.5-3.2-1.2-3.5-4l-.4-2.9-1.7-11.7c-.1-.2-.1-.3-.2-.3s-.2.2-.3.4l-2 14.1-.1.8c-.4 2.5.2 3 .2 3l.2.6c-2.4.5-3.2-1.2-3.5-4l-.4-2.9-3-19.6c-.3-4-2.5-4-2.5-4v-.6c2.5 0 4.3 1.6 4.7 3.9l3.2 19.4c.1.3.2.5.4.5.1 0 .2-.2.3-.4l2.3-16.1-.3-2.5c-.5-4.1-2.6-4.1-2.6-4.1v-.6c1.8 0 3.2.8 4 2.1 0 0 .7 1 .7 1.7l3.2 19.4c.1.3.2.5.4.5.1 0 .2-.2.4-.4l2.7-20c0-1.8 1-3 2.3-3.6zM284.1 985.1c2.7 0 4.4 1.5 4.4 5.2v21.6c0 3.3-2.3 4.8-4.5 4.8s-4.3-1.3-4.3-4.6v-21.9c.1-3.4 2-5.1 4.4-5.1zm0 30.9c1.7 0 1.9-2 1.9-3.8v-22.9c0-1.6-.2-3.3-1.7-3.3-1.6 0-2 1.7-2 3.5v23.1c0 1.6.2 3.4 1.8 3.4zM300.6 1010.3h.5c0 2.1-.5 4.5-2.1 5.5-.1.1-.7.3-.8.3h-6.4v-.5c.6-.1 1.4 0 1.4-1v-26c0-1.5-.7-2.9-1.9-2.9v-.6c2.6 0 4.4 1.6 4.4 5.2v22.7c0 1.2.9 2.2 1.7 2.2 2-.1 3.2-2.4 3.2-4.9zM308.3 985.1c2.1 0 3.7 1.9 3.7 4.6 0 .8-.3 2.9-1.1 2.9-.9 0-1-2.1-1-2.9 0-.8.2-1.5.5-2.1-.2-1.1-1.4-1.8-2.2-1.8-1.4 0-1.9 2.3-1.9 3.8v7.8c0 2.3.8 2.3 2.3 2.3h.7v.9c-1.2-.1-3-.1-3 2v10.7c0 2.5-.1 2.2 1.7 2.4v.4h-5.5v-.4c1.4-.2 1.4-.5 1.4-2.3l-.1-26.9c0-1-.9-.9-1.4-1v-.5h5.9zM325.8 985.7c-.5.4-1 1-1.2 1.8-.4 1.1-.9 5.5-1.1 7l-2.5 17.6c-.1.8-.3 1.6-.3 2.4 0 .3.1 1.2.3 1.4l.3.5c-.3.1-.5.1-.8.1-1.9 0-2.5-1.9-2.8-4.1l-3.4-22.8c-.2-1.5-1.1-4-2.6-4v-.6c2 0 4.3 1.1 4.8 3.9l3.3 19.6c0 .2.2.5.4.5.1 0 .3-.3.4-.4l2.9-20.2c.2-1.7 1.3-2.9 2.5-3.5l-.2.8zM332.6 989.1v25.3c0 1.3 1.2 1.1 1.9 1.2v.5h-6v-.5c.6-.1 1.7.2 1.7-1v-24.400000000000002c0-1.9.1-4.6-1.9-4.6v-.6c1.7 0 4.3 1.3 4.3 4.1zM345 1010.3h.5c0 2.1-.5 4.5-2.1 5.5-.1.1-.6.3-.8.3h-6.4v-.5c.6-.1 1.4 0 1.4-1v-26c0-1.5-.7-2.9-1.9-2.9v-.6c2.6 0 4.4 1.6 4.4 5.2v22.7c0 1.2.9 2.2 1.7 2.2 2-.1 3.2-2.4 3.2-4.9zM356.5 1010.3h.5c0 2.1-.5 4.5-2.1 5.5-.1.1-.6.3-.8.3h-6.4v-.5c.6-.1 1.4 0 1.4-1v-26c0-1.5-.7-2.9-1.9-2.9v-.6c2.6 0 4.4 1.6 4.4 5.2v22.7c0 1.2.9 2.2 1.7 2.2 2-.1 3.2-2.4 3.2-4.9zM358.7 1016.1v-.5c.5-.1 1.4 0 1.4-1v-28.1c0-1-.9-.9-1.4-1v-.5h5.8c2 0 3.7 1.9 3.7 4.6 0 .8-.3 2.9-1.1 2.9-.9 0-1-2.1-1-2.9 0-.9.2-1.5.5-2.2-.2-1.1-1.4-1.8-2.1-1.8-1.4 0-1.9 2.3-1.9 3.8v8.2c0 2.2 1.7 2 2.9 1.9v.9h-.7c-.3 0-1.6.1-1.8.6-.4.4-.5.9-.5 1.6v8.8c0 1.7.6 3.7 2.1 3.7s2.6-1.7 2.6-3.7v-.7c0-.4.1-1.4.5-1.4s.3 1.5.3 1.8c0 3.1-1.3 4.8-3.7 4.8h-5.6zM231 1002.1c-.4 0-1.6 0-1.6.7 0 .3.1.6.4.6.1 0 .3-.1.5-.1 1.4.2 1.1 4 1.1 4-.9 6.1-7.9 7.5-9.9 7.4-2-.1-4.7.2-11.3-5.2-.3-.3-.7-.6-1.1-.9 0 0-9.9-10.3-12.7-13.4-.2-.2-.4-.4-.6-.7-2.3-2.7-4-5.3-4-7.8 0-4 2.5-5.7 5-5.8 2.1 0 4.1 1.2 4.1 3 0 .7-1.4 2.2-2.2 1.4-.6 2.9 2.4 8.2 6.2 8.6 1.2.1 2.7-.3 2.7-1.5-.1-1.9-2.4-2.1-3.2-.6-2.9-1.9 1-10.1 3.3-11.6l-.8-.7c-3.3 3.2-5.4-.8-9.3-.8-8.4-.1-8.1 7.2-11.5 9.4 2 1.3 1.7 2.1 2.5 3.8.9 2 2.9 4.4 5.2 6.9 0 0 8.7 8.9 11 11.1 1.4 1.3 2.9 2.8 4.1 4 1.3 1.4 4.3 5.6 9.2 6.4 1.1.5 2.6 1.1 3.5 2.2 1.6-1.2 1.3-1.7 3.5-2.3 3.3-1 5.9-3.3 7.5-6.5.8-1.6 1.5-3.3 1.5-6.1-.3-2.7-1.2-5.3-3.1-5.5zm-29.9-15.6c.3-.5.4-.2.4.6-.1.8 0 2.9-.3 2.6-.3-.3-.7-.8-.9-1.3-.5-1-.6-1.1-.2-1.2 0 0 .4 0 .7-.2.1-.2.3-.4.3-.5zm21.5 32.4c-1 .1-1.2.6-1.3.6-.2 0-.3-.5-1.4-.7-4.7-.2-8.4-4.5-8.5-4.6l-18.8-19.2c-.1-.1-2.4-2.2-3.1-4.6-.1-.2-.4-1.1-1.4-1.7-.4-.2-.5-.2-.4-.4 0-.2.5 0 1.2-.4.6-.4.7-1.4 1-1.4.2.1-1.3 4.4 3.2 8.2l18.8 19.2s3.9 4 9.7 4c5.8 0 6-2.5 6.2-2.3 0 .1-.7 2.7-5.2 3.3z"/></svg>