<svg version="1.2" baseProfile="tiny" xmlns="http://www.w3.org/2000/svg" width="130" height="100" viewBox="0 0 130 100"><g fill="#fff"><path d="M40.602 17.884c.868-1.066 1.696-2.169 2.615-3.19 1.17-1.3 2.329-2.632 3.644-3.776 2.792-2.429 5.392-5.142 8.969-6.502 1.565-.595 2.921.079 3.352 1.752.527 2.046.056 4.018-.619 5.925-1.763 4.985-5.008 9.065-8.322 13.053-2.825 3.4-5.839 6.647-8.857 9.879-3.37 3.609-7.098 6.816-11.178 9.619-1.659 1.14-3.241 2.337-5.404 2.119-.285-.029-.562-.131-.849-.472.509-.127 1.074-.152 1.516-.399 1.55-.866 3.139-1.699 4.563-2.749 2.172-1.602 4.359-3.23 6.288-5.106 3.214-3.125 6.246-6.438 9.322-9.703 3.457-3.669 6.753-7.491 9.366-11.809 1.646-2.72 2.969-5.647 2.844-8.976-.013-.355-.023-.724-.127-1.058-.392-1.255-.898-1.476-2.006-.763-.663.427-1.179 1.077-1.821 1.543-.258.187-.764.04-1.009.233-1.334 1.051-2.61 2.176-3.93 3.246-.894.725-1.888 1.337-2.731 2.115-1.652 1.524-3.228 3.131-4.839 4.699-.188.183-.401.339-.602.508l-.185-.188zM33.646 27.802c-.128.303-.21.638-.391.905-1.302 1.92-2.668 3.798-3.928 5.745-1.194 1.844-2.311 3.739-3.412 5.641-1.809 3.126-3.572 6.277-5.364 9.413-1.384 2.422-2.63 4.941-4.21 7.228-2.773 4.016-5.747 7.893-8.655 11.814-.482.649-1.021 1.267-1.609 1.82-.287.27-.519.527-1.126.527-.409-.518-.227-1.096-.017-1.454.594-1.013 1.382-1.911 2.054-2.882 1.104-1.598 2.184-3.213 3.26-4.83.727-1.092 1.414-2.211 2.149-3.297 1.926-2.845 3.9-5.659 5.798-8.523 1.785-2.694 3.538-5.412 5.231-8.165 1.209-1.967 2.237-4.046 3.463-6.001.497-.793 1.369-1.342 1.96-2.089.993-1.257 1.905-2.579 2.836-3.885.524-.734 1.017-1.489 1.524-2.235l.437.268zM32.701 28.285c1.81-2.637 6.226-8.331 8.232-10.812l1.235-.67-9.739 12.688.272-1.206zM124.781 51.082c.258-.341.527-1.138.201-1.459-.435-.127-.899.324-1.19.634-.815.87-1.543 1.822-2.308 2.738-1.372 1.644-2.982 3.146-4.062 4.964-1.51 2.543-3.798 4.121-6.183 5.758l2.029-4.386c-.044-.396-.221-.316-.375-.339-.35.208-.841.331-1.025.639-.872 1.455-1.97 2.878-2.391 4.47-.415 1.57-1.463 2.518-2.411 3.553-.79.862-1.953 1.384-3.156 2.195.106-.728.112-1.213.252-1.655.779-2.461 2.199-4.553 3.818-6.528 1.836-2.239 3.792-4.395 5.456-6.756 1.888-2.68 3.536-5.523 5.746-7.978.512-.569.832-1.346 1.112-2.077.202-.526-.197-1.009-.676-.655-.781.578-1.399 1.38-2.056 2.114-.759.608-1.234 1.618-1.868 2.337-1.801 2.038-3.589 4.098-5.227 6.266-1.493 1.977-2.852 4.065-4.143 6.182-1.358 2.228-2.803 4.323-5.104 5.705-.572.343-1.008.92-1.487 1.408-.241.246-.483.786-.647.757-.451-.08-1.104-.294-1.237-.63-.328-.825-.409-1.749-.59-2.633-.18-.875-.268-1.784-.567-2.616-.343-.957-1.081-.792-1.743-.31-.555.404-1.059.877-1.622 1.35 0-.779.027-1.454-.007-2.126-.045-.915-.611-1.266-1.377-.866-.895.469-1.712 1.101-2.516 1.723-.679.525-1.292 1.136-2.196 1.943 0-.822.066-1.319-.019-1.788-.084-.465-.206-1.138-.521-1.291-.404-.197-1.164-.157-1.511.114-1.07.836-2.038 1.81-2.996 2.778-.251.254-.325.684-.48 1.032l-.531-.434c.134-.515.217-1.051.415-1.541.335-.831.786-1.616 1.11-2.451.456-1.176.266-1.435-.986-1.576-.193-.022-.403-.079-.563-.183-1.32-.859-2.514-.406-3.657.361-.498.335-.937.757-1.403 1.139l-.154-.216c.27-.335.548-.665.809-1.007 2.348-3.085 4.659-6.2 7.049-9.252 2.724-3.479 5.457-6.953 8.301-10.334 2.388-2.839 4.819-5.664 7.464-8.257 1.648-1.615 3.338-3.138 4.464-5.173.439-.711.298-.727.181-1.042-.25-.03-.477-.404-1.156.193-.962.845-1.905 1.723-2.777 2.662-2.412 2.597-4.786 5.229-7.177 7.846-1.735 1.899-3.897 3.115-6.333 3.843-.388.116-.996-.001-1.294-.254-.217-.184-.259-.869-.088-1.16.445-.758 1.034-1.434 1.595-2.119 1.315-1.607 2.649-3.198 3.97-4.8 1.646-1.996 3.316-3.973 4.901-6.016.695-.957.259-1.036.15-1.434-.392-.258-1.15-.116-1.538.126-1.002.624-2.001 1.32-2.811 2.169-1.272 1.331-2.329 2.867-3.586 4.214-1.736 1.861-3.091 3.956-3.823 6.368-.561 1.85-1.898 3.057-3.154 4.286-2.348 2.297-4.852 4.438-7.332 6.596-2.158 1.877-4.363 3.699-6.568 5.521-1.618 1.337-3.299 2.599-4.89 3.967-.64.55-1.185.517-1.939.317-2.332-.62-4.682-.548-6.825.617-2.622 1.424-4.473 6.966-3.289 9.675.746 1.706 1.535 3.41 2.497 4.999 1.905 3.145 4.587 4.384 7.708 3.669 2.339-.536 4.069-2.09 5.571-3.875 2.361-2.805 4.68-5.645 6.996-8.446-.413 1.305-.887 2.618-1.232 3.963-.206.8-.008 1.755.784 2.015.587.193 1.531-.024 2.044-.415 1.59-1.21 3.049-2.591 4.595-3.936.013.211.008.409.041.601.09.532.042 1.181.295 1.592.502.011 1.128-.286 1.506-.882 1.167-1.284 2.212-2.678 3.364-3.977.412-.464.993-.778 1.497-1.161l.284.223c-.222 1.275-.483 2.546-.639 3.829-.038.308.237.911.426.936.348.045.869-.13 1.091-.4 1.179-1.437 2.245-2.968 3.442-4.388.437-.518 1.128-.821 1.931-1.38-.041.546-.03.703-.067.849-.366 1.456-.788 2.9-1.079 4.371-.073.37.265.82.413 1.234.441-.169.876.097 1.313-.527l.332-.613c.634-.932 1.281-1.855 1.924-2.781.373 1.453.409 2.72.559 3.974.154 1.285 1.041 2.234 2.127 2.437.991.186 2.575-.523 3.139-1.334.404-.582.892-1.106 1.343-1.656l.286.21c-.059.267-.164.533-.167.801-.013.976-.282 2.081.898 2.617 1.07.486 1.83-.165 2.538-.849 1.116-1.078 2.218-2.169 3.33-3.251.164-.16.367-.44.525-.422.992.114 1.301-.677 1.884-1.199.676-.606 1.081-1.898 2.432-1.413-.373 3.771-.338 3.886 1.323 4.333 0 .71-.049 1.429.009 2.138.167 2.03 2.095 3.446 3.919 2.66 2.168-.934 3.812-2.593 5.053-4.642-.362.064-.656.22-.931.404-1.353.902-2.669 1.866-4.062 2.702-1.283.771-2.038.327-2.267-1.196-.32-2.126.633-3.769 1.977-5.275 1.034-1.159 2.046-2.337 3.12-3.567 1.332-2.078 1.612-2.84 1.437-2.966l-.027-.011c-.354-.157-.547-.194-.665-.127-2.679 1.509-4.567 3.736-5.96 6.448-.32.623-.896 1.115-1.354 1.667-.185-2.901 1.195-5.072 2.764-7.132 2.059-2.715 4.218-5.353 6.275-8.069zm-29.749-25.65c-2.075 3.273-4.724 6.076-7.49 8.784 2.316-3.074 3.702-6.931 7.49-8.784zm-41.799 35.216c1.8-1.933 4.277-1.948 7.05-1.548-2.768 2.338-5.282 4.441-7.766 6.58-.417.359-.701.872-1.101 1.383-.369-2.424.2-4.679 1.817-6.415zm17.795 4.256c-2.165 2.773-4.342 5.547-6.682 8.169-1.826 2.046-4.01 3.551-7.048 2.724-1.54-.419-2.564-1.468-3.323-2.729-.919-1.526-1.637-3.173-2.541-4.964 3.412-2.791 6.757-5.575 10.179-8.259.366-.287 1.202-.069 1.794.047.738.146 1.449.429 2.171.654l.13-.331-2.823-1.45c7.122-5.973 14.501-11.569 20.844-18.446.814 1.173 1.983 1.37 3.191 1.009 1.103-.33 2.137-.888 3.43-1.443-2.434 3.075-4.731 5.956-7.002 8.858-1.199 1.531-2.35 3.101-3.528 4.648-2.925 3.842-5.821 7.707-8.792 11.513zm2.284 4.871c-.44-1.934.309-3.327 1.096-4.65 1.068-1.794 2.246-3.547 4.15-4.584 1.301-.708 1.326-.662 2.682.448-1.948 3.473-4.442 6.448-7.928 8.786zM68.764 36.307c-.227-.185-.617-.248-1.064.122-.45.373-.802.875-1.234 1.284-1.966 1.86-4.046 3.611-5.896 5.579-2.34 2.49-4.402 5.243-6.753 7.721-4.257 4.488-8.639 8.857-12.975 13.27-.133.136-.32.254-.502.301-2.451.638-4.906 1.261-7.162 1.838-.256-.448-.544-1.216-.706-1.19-.896.143-.836-.587-1.045-1.011-.659-1.334-1.24-1.622-2.533-.924-1.044.564-1.989 1.312-2.979 1.978-.083-.397-.038-.636.091-.816 1.408-1.972 2.776-3.976 4.278-5.874.444-.561 1.234-.974 1.944-1.171 1.095-.304 2.262-.344 3.391-.539.39-.067 1.105.248 1.43-.505-.965-1.028-3.213-.421-4.839-.535 1.267-1.519 2.411-2.869 3.529-4.24.347-.426.682-.882.909-1.377.098-.213-.005-.688-.179-.808-.183-.126-.64-.071-.836.085-.368.292-.637.709-.941 1.08-1.452 1.775-2.819 3.631-4.399 5.284-.519.543-1.584.571-2.405.813-.261.077-.543.084-.815.123.06.327.013.761.207.956.265.267.714.353 1.32.62l-7.111 7.894-.309-.241c.323-.978.57-1.988.985-2.925.691-1.56 1.275-3.193 2.217-4.616.25-.378.162-.85-.129-1.144-.299-.12-.835.215-1.023.484-1.541 2.194-3.029 4.426-4.527 6.65-.519.77-1.021 1.551-1.607 2.445 1.035 1.16 1.985-1.488 3.077-2.155-.142.758-.347 1.325-.322 1.882.023.49-.116.845.471 1.451.545.245 1.088-.249 1.429-.581.85-.83 1.581-1.782 2.427-2.763 0 .233.019.352-.003.462-.134.662-.783 1.516.129 1.888.483.197 1.337-.2 1.886-.546.936-.59 1.732-1.399 2.658-2.009.261-.172 1.083-.048 1.112.071.247 1.002.552 2.054.446 3.049-.048.456-.976.821-1.508 1.222-.159.12-.328.228-.499.331-3.327 2.003-6.089 4.676-8.265 7.823-2.498 3.613-5.012 7.253-6.109 11.659-.536 2.151-.265 4.113.643 5.991.255.528 1.296 1.083 1.854.977 1.374-.262 2.934-.592 3.956-1.448 2.418-2.027 4.699-4.259 6.793-6.623 3.23-3.647 6.263-7.469 9.37-11.226 4.03-4.872 8.009-9.786 12.086-14.617 3.864-4.578 7.763-9.13 11.767-13.587 3.056-3.401 5.919-6.923 8.189-10.9.37-.678.182-.709.081-.962zm-29.289 34.485c-2.127 2.743-4.196 5.532-6.375 8.234-1.936 2.401-3.956 4.737-6 7.047-1.653 1.869-3.368 3.687-5.111 5.473-1.371 1.405-2.959 2.491-4.955 2.839-.92.161-1.342-.042-1.641-1.112-.319-1.141-.469-2.248-.651-3.396-.198-1.25.483-2.091.769-3.052.975-3.271 3.082-5.959 5.163-8.588 1.618-2.044 3.375-4.037 5.354-5.718 1.722-1.463 3.945-2.321 5.756-3.698 1.618-1.23 3.477-1.665 5.304-2.275.548-.183 1.128-.27 1.696-.401-.371.783-.675 1.381-.93 1.999-.052.127.08.331.127.499.178-.077.397-.111.527-.238.447-.434.874-.89 1.288-1.355 1.124-1.264 2.466-2.089 4.286-2.145-1.557 1.989-3.091 3.931-4.607 5.887zm21.541-25.331c-3.559 4.051-7.134 8.087-10.685 12.145-1.543 1.763-3.088 3.529-4.544 5.364-.813 1.024-1.854 1.232-3.093 1.189 7.302-6.44 13.317-14.061 19.899-21.14l.273.239c-.615.735-1.217 1.483-1.85 2.203z"/></g></svg>