<svg xmlns="http://www.w3.org/2000/svg" viewBox="0 0 612 792"><path fill="#231F20" d="M315.844 29.537v.603c0 6.088-4.7 13.2-13.2 13.2-2.592 0-5.063-.784-7.112-2.05.362 0 .723.06 1.085.06 2.17 0 4.22-.722 5.726-1.928-1.99 0-3.737-1.326-4.34-3.255.3.06.603.06.904.06.422 0 .844-.06 1.145-.18-2.11-.423-3.737-2.29-3.737-4.582v-.06c.603.362 1.266.603 2.05.603-1.206-.844-2.05-2.23-2.05-3.858 0-.844.24-1.627.603-2.35 2.29 2.772 5.666 4.7 9.584 4.88-.06-.36-.12-.662-.12-1.084 0-2.532 2.048-4.64 4.64-4.64 1.266 0 2.532.602 3.375 1.446 1.085-.18 2.05-.603 3.014-1.085-.36 1.085-1.084 1.99-1.988 2.532.964-.122 1.808-.363 2.652-.724-.482.904-1.326 1.748-2.23 2.41M311.564 148.94h-3.195v11.332h-4.702V148.94h-2.23v-3.978h2.23v-2.53c0-1.81.904-4.763 4.762-4.763h3.496v3.857h-2.47c-.423 0-1.026.18-1.026 1.085v2.35h3.616l-.482 3.978zM308.61 210.42c-1.385 0-2.71-.785-3.194-1.568 0 0-.784 3.074-.904 3.556-.603 1.99-2.17 4.1-2.35 4.28-.06.12-.302.06-.302-.06 0-.242-.482-2.834 0-4.943.24-1.085 1.627-7.052 1.627-7.052s-.422-.844-.422-2.05c0-1.867 1.085-3.374 2.47-3.374 1.146 0 1.75.903 1.75 1.928 0 1.145-.785 3.014-1.146 4.64-.363 1.327.662 2.472 2.048 2.472 2.41 0 4.16-3.195 4.16-6.87 0-2.834-1.87-5.004-5.365-5.004-3.918 0-6.39 3.014-6.39 6.208 0 1.085.363 1.868.845 2.532.24.3.3.422.18.723-.06.24-.18.843-.24 1.084-.06.362-.362.482-.663.362-1.808-.723-2.652-2.712-2.652-5.003 0-3.677 3.134-8.077 9.282-8.077 4.942 0 8.197 3.616 8.197 7.414.18 4.942-2.712 8.8-6.93 8.8"/><g fill="none" stroke="#FFF" stroke-width=".875"><path stroke-dasharray="2.636,1.761" d="M307.707 328.074c5.063-.422 9.162-4.52 9.403-9.704M317.05 316.923c-.423-5.063-4.522-9.162-9.705-9.403M306.02 307.64c-5.064.423-9.163 4.522-9.404 9.705M296.556 318.73c.422 5.064 4.52 9.163 9.704 9.404"/><path d="M306.44 328.134h.725m-10.61-10.668v.724m10.61-10.61h-.725m10.67 10.61v-.363-.362"/><path stroke-dasharray="2.588,1.713" d="M306.803 306.496v22.663M295.532 317.827h22.602"/></g><path fill="none" stroke="#FFF" stroke-width=".875" stroke-dasharray="2.589,1.714" d="M298.847 309.87l15.912 15.974M314.76 309.87l-15.913 15.974"/><path fill="#FFF" d="M311.263 326.93l-11.392-16.034 16.155 11.21-4.52.423M303.488 482.074l-4.04 4.4h-2.832v6.75h3.195l4.04 3.98h.783v-15.13"/><path fill="none" d="M299.69 486.715c-.06.06-.18.12-.3.12h-2.352v5.968h2.773c.122 0 .242.06.302.12l3.918 3.92h.18v-14.286h-.602l-3.918 4.158z"/><path fill="#FFF" d="M304.633 481.652h-1.145c-.12 0-.24.06-.3.12l-3.92 4.28h-2.59c-.06 0-.122 0-.182.06v7.534c.06.06.12.06.18.06h3.075l3.92 3.918c.06.06.18.12.3.12h.784c.24 0 .422-.18.422-.42v-15.25c-.12-.24-.302-.422-.543-.422zM307.888 484.003c-.422.422-.482 1.145-.24 1.748.48 1.026.722 2.17.722 3.376 0 1.507-.422 3.074-1.085 4.038-.362.482-.362 1.266 0 1.748.18.24.422.362.603.362.18 0 .422-.12.603-.362 1.026-1.447 1.508-3.616 1.508-5.847 0-1.688-.362-3.375-1.025-4.822-.18-.48-.724-.602-1.085-.24zM311.142 482.737c-.422.482-.542 1.447-.24 2.17.48 1.205.722 2.652.722 4.22 0 1.928-.422 3.796-1.085 5.062-.363.602-.363 1.566 0 2.17.18.3.42.48.662.48.24 0 .482-.18.663-.48 1.085-1.81 1.627-4.46 1.627-7.234 0-2.11-.362-4.22-1.085-5.907-.24-.784-.843-.965-1.265-.483zM314.88 481.35c-.423.604-.543 1.69-.242 2.593.482 1.447.723 3.255.723 5.063 0 2.29-.42 4.52-1.084 5.967-.362.723-.362 1.868 0 2.652.18.362.422.542.663.542.24 0 .48-.18.662-.542 1.085-2.17 1.627-5.364 1.627-8.62 0-2.53-.363-5.062-1.086-7.11-.24-.906-.782-1.147-1.265-.544z"/><path fill="#A19589" d="M295.532 251.225h22.603v3.134h-22.603zM295.532 257.734h22.603v3.134h-22.603zM295.532 264.244h22.603v3.134h-22.603zM295.532 270.753h22.603v3.134h-22.603z"/><path fill="#FFF" d="M297.762 369.542l9.04 9.102 9.102-9.102h2.23v2.35l-9.885 9.705h-2.894l-9.824-9.704v-2.35M304.874 552.353c0 1.085-.844 1.868-1.868 1.868-1.085 0-1.868-.843-1.868-1.867v-12.055c0-1.085.844-1.868 1.868-1.868 1.085 0 1.868.844 1.868 1.868v12.055zM312.59 552.353c0 1.085-.845 1.868-1.87 1.868-1.084 0-1.867-.843-1.867-1.867v-12.055c0-1.085.844-1.868 1.868-1.868 1.086 0 1.87.844 1.87 1.868v12.055z"/><path fill="#55544B" d="M309.395 734.44c-.24-.06-.542-.06-.784-.06-1.626 0-2.71 1.327-2.952 4.582h.362c.06-.422.24-1.507 1.025-1.688.12-.06.24-.06.362-.06.422 0 .663.24.663.422 0 .12-.06.18-.18.24 0 .122.06.785.843.785.18 0 .422-.06.663-.12.844-.24 1.386-1.205 1.386-2.17 0-.904-.423-1.688-1.387-1.93"/><path fill="#55544B" d="M305.175 738.962h.422c0-.542.12-2.833 1.085-4.4.422-.663.663-1.326.663-2.05 0-1.144-.663-2.29-1.99-3.073-1.325.783-1.988 1.928-1.988 3.073 0 .663.24 1.386.663 2.05 1.085 1.566 1.145 3.796 1.145 4.4"/><path fill="#55544B" d="M302.764 737.575c0-.18.24-.422.663-.422.12 0 .24 0 .362.06.722.18.963 1.266 1.024 1.688h.362c-.24-3.194-1.326-4.58-2.953-4.58-.24 0-.482.06-.784.06-.965.24-1.387 1.025-1.387 1.868 0 .904.542 1.93 1.386 2.17.3.06.48.12.662.12.784 0 .844-.662.844-.783-.12 0-.182-.06-.182-.18M306.923 742.096c-.3 0-.844-.12-.904-.784h-1.146c-.12.663-.603.784-.904.784h-.24v.12c0 .543.24.724.54.724s.543-.18.543-.18h.06v.06c-.12.24-.18.42-.18.662 0 .784.722 1.386.783 1.507.12-.06.784-.664.784-1.508 0-.18-.06-.422-.18-.663v-.06h.06s.06.06.18.06c.12.06.24.06.362.06.24 0 .482-.122.482-.724v-.12c-.06.06-.12.06-.24.06M307.345 739.685h-3.797c-.24 0-.422.18-.422.422 0 .24.18.422.422.422h3.797c.24 0 .422-.182.422-.423 0-.24-.18-.422-.422-.422M306.863 692.973l-.06-.18-1.205.36c0 .06.06.122.06.182l1.205-.362zM306.562 691.948l-.06-.18-1.748.48c.06.06.18.06.24.122l1.568-.422zM306.682 692.43l-.06-.18-1.326.36c.06.06.06.122.12.182l1.266-.362zM307.044 693.455l-.06-.18-1.326.36v.182l1.386-.362zM304.21 688.995v.18l1.267-.36-.06-.182-1.206.362zM304.27 688.633l1.086-.3-.06-.182-.964.302c-.06.06-.06.12-.06.18M305.658 689.356l-.06-.18-1.386.42c0 .06 0 .122.06.182l1.386-.422zM304.633 687.186v.18l.362-.12-.06-.18-.302.12zM304.15 694.9l3.075-.903-.06-.18-3.375.963.36.12M303.247 695.142l.542-.18c-.06 0-.182 0-.302-.06 0 .06-.12.12-.24.24M306.38 691.405l-.06-.18-2.17.602c.06.06.122.12.182.12l2.05-.542zM306.2 690.923l-.06-.18-2.47.722.18.18 2.35-.722zM306.02 690.38l-.06-.18-2.653.784c.06.06.06.12.12.18l2.592-.783zM303.186 690.682l2.712-.784-.06-.18-1.447.42c0 .06.06.122.06.182 0 0-.06-.06-.18-.12l-1.145.36c0 .002 0 .062.06.122M305.175 687.79l-.06-.182-.542.18c0 .06-.06.122-.06.242l.662-.24zM306.984 694.962l-3.074.904c.12.06.18.06.3.12l2.774-.783v-.24M305.055 693.274l-2.05.603c0 .06.06.12.06.18l2.17-.602-.18-.18M307.345 694.3l-4.34 1.265v.06s.12 0 .3.06l4.1-1.206-.06-.18zM305.477 693.756l-2.23.663.18.18 2.17-.663c0-.06-.06-.12-.12-.18M301.98 692.49s.06.06.182.12l1.025-.3c-.362 0-.724 0-1.206.18M303.73 689.9c-.182 0-.423 0-.664.06v.12l.663-.18zM303.91 692.49l-1.447.422c.06.06.06.12.12.18l1.568-.48c-.06-.06-.18-.06-.24-.122M304.573 692.912l-1.748.542c0 .06.06.12.06.18l1.868-.54c-.06-.12-.12-.182-.18-.182M300.353 605.575l-1.99.603c.785.18 1.448 0 1.99-.603M307.526 694.84l-.18.06.06.182.18-.06-.06-.18zM304.633 696.227c.06.06.12.06.18.12l1.93-.54c.06-.06.06-.122.06-.242l-2.17.662zM308.19 688.392"/><path fill="#55544B" d="M307.827 694.66s-.24-.06-.3.18l-2.713-8.136h.06s.422.723 1.145 1.085c.662.36 1.024 1.265 1.144 1.626 0 0 .06-.723.904-1.085 0 0 .964.965-.24 3.376 0 0-.122.784.54 1.447 0 0-.18-2.833 2.05-3.375 0 0-.3.784 0 1.688.362.844-.3 1.507-.3 1.507s.12.18.54-.362c0 0 .604 0 .785.302 0 0-.663.603-1.025 1.688-.42.964-1.566 1.266-2.59.06M311.384 681.038c-.12-.482-.663-.784-1.085-.663-.302.12-.543.422-.483.723.12.362.3.542.603.422.18-.06.24-.18.24-.422 0-.24 0-.362.06-.362.182-.06.302.06.423.362.12.362.06.603-.12.844-.122.18-.363.3-.604.362-.302.06-.664.12-1.026.06 0 .12 0 .18.06.3.362.06.723.06 1.025-.06.723-.18 1.084-.842.904-1.566"/><path fill="#55544B" d="M308.912 682.304c-.362-.12-.784-.24-1.386-.542-.844-.422-1.145-.482-1.447-.362l-.423-.18c.3-.122.542-.182.723-.302.3-.18.362-.422.3-.723-.06-.3-.42-.482-.662-.422-.362.12-.482.3-.422.603.06.12.18.3.3.24.302 0 0-.602.302-.602.12 0 .18.06.24.24.06.242-.24.543-.722.664-.06 0-.18.06-.362.12-.542 0-1.205-.06-1.868.182-1.025.3-1.748.904-2.11 1.447v-.422c-.12-.482-.603-.844-1.205-.663-.24.06-.42.24-.54.482-.06.18-.122.362-.06.542.06.3.48.542.783.482s.422-.3.362-.603c-.06-.24-.12-.362-.362-.3-.06 0-.12.06-.18.18 0 .12.12.362.06.362-.182.06-.363-.06-.423-.3-.06-.302.06-.483.482-.604.362-.12.723.12.784.362.06.24.06.603-.06 1.025-.18.542-.362 1.507-.24 2.17.06.362.12.663.18 1.025-.542-.362-.723-.362-1.145-.24-.602.18-.843.722-.722 1.265.06.24.24.482.482.603.18.12.362.12.542.06.482-.12.663-.422.542-.844-.12-.302-.3-.423-.663-.363-.18.06-.36.24-.3.422.06.12.12.18.24.18.06 0 .242-.18.302-.06.12.18 0 .362-.3.422-.242.06-.543-.06-.664-.482-.12-.422.06-.784.542-.904.362-.12.844.12 1.145.542.603 1.025 1.266 1.748 2.11 2.17l.24-.24c-.24-.122-.54-.302-.783-.483-.663-.542-1.206-1.326-1.447-2.29-.3-.964-.18-1.868.18-2.712.423-.904 1.146-1.567 2.23-1.868.785-.24 1.508-.18 2.23.24.664.363 1.146.965 1.387 1.81.18.662.18 1.325 0 1.867-.06.18-.12.362-.24.482.12.06.18.12.3.18.12-.18.24-.36.3-.54.242-.543.242-1.207.06-1.87-.06-.18-.18-.42-.24-.54.24.18.422.36.663.48l-.18-.722c-.423-.3-.905-.663-1.267-1.025l.12-.06 1.69.663c.42.18.783.24 1.144.3 0-.12 0-.18-.06-.3-.178-.186-.3-.186-.48-.246M304.332 644.693c1.085 1.326 3.074 2.893 2.833 3.074-.18.18-2.11-.904-3.195-2.23s-2.29-3.616-2.05-3.797c.242-.12 1.327 1.627 2.412 2.953M303.73 641.74c-1.508-3.134 3.254-5.364 2.23-6.51.48 0 .843-.422 1.506.18-.422.905.422.483.603.845.843 1.386.783 3.978-.483 5.907l-.12.12c1.747-1.385 3.073-.3 3.917-.602-1.868.723-.422 4.762-3.375 4.7-1.087-.542-3.558-2.65-4.28-4.64M300.836 638.847c-.603-.06-1.025.422-1.085.964-.06.604.302 1.086.905 1.146.603.06 1.025-.362 1.085-1.025.06-.54-.302-1.083-.904-1.083M305.597 783.805c-.18-.603-.422-1.085-.844-1.386-.362-.302-.784-.423-1.266-.483.362-.362.663-.723.784-1.085.122-.422.122-.844 0-1.326.423.24.845.362 1.267.3.482 0 1.025-.24 1.507-.662-.18.603-.18 1.145-.06 1.627.18.483.542.905 1.025 1.267-.604 0-1.146.12-1.568.422-.302.3-.604.783-.845 1.325m-1.748 3.135c.602.06 1.265-.24 1.566-.964.12-.3.24-.663.3-1.025.06.363.122.724.242 1.026.24.723.904 1.025 1.507 1.025.663 0 .964-.783 1.567-1.144.542-.422 1.386-.482 1.627-1.085.24-.602.12-1.265-.483-1.807-.24-.18-.542-.422-.904-.603.362.06.723.06 1.085.06.723-.06 1.266-.542 1.447-1.145s-.482-1.145-.663-1.808c-.24-.663-.06-1.507-.603-1.868-.483-.363-1.206-.483-1.87-.06-.3.18-.54.42-.843.722.12-.362.24-.663.362-1.025.12-.723-.182-1.386-.724-1.688-.542-.363-1.266.12-1.93.18-.662.06-1.446-.362-1.928.06-.482.362-.784 1.025-.542 1.748.06.12.06.18.12.3-.06-.06-.18-.12-.24-.18-.603-.422-1.326-.3-1.868.06-.542.362-.3 1.206-.542 1.868-.18.663-.844 1.206-.663 1.87.18.602.663 1.084 1.447 1.144h.362c-.12.06-.24.12-.3.24-.604.423-.785 1.146-.543 1.75.18.602 1.024.722 1.566 1.144.48.362.78 1.145 1.443 1.206"/><path fill="#55544B" d="M304.814 780.852c.18-.482.784-.723 1.266-.542.482.18.723.784.542 1.266s-.784.723-1.266.542c-.542-.18-.783-.784-.542-1.266M297.58 606.238c.122-.362.122-.723.242-1.085 1.205-.18 1.627-1.386 1.868-2.17.603-1.748.723-4.038.362-5.847.18.18.482.542.723.964.12.24.18.542.362.542s.3-.603.422-.844c.843-1.868 3.374-3.677 3.917-5.485.12.542 0 1.085 0 1.627.362-.12.603-.482.904-.723 1.327-1.145 3.256-2.05 4.46-1.688-.3.18-.903.24-.843.662.422.12.844 0 1.266 0 1.326 0 2.53.362 3.677.964v.06c-1.507-.3-3.134-.422-4.942.603.18.3.663.06 1.025.12-.12.24-.362.3-.542.422-1.506.663-3.194.12-4.7.844-.24.12-.603.3-.603.482.362.3.904 0 1.326-.12-1.085.662-2.29 1.385-3.195 2.17-.663.54-1.326.963-1.205 1.747.18.12.362 0 .542 0-.844.542-1.266 1.266-1.627 2.05-.12.24-.24.48-.18.722.903-.784 1.988-1.627 3.194-2.23 0 .18.06.362.18.542-.783.24-1.506.662-2.11 1.204v-.06.06c-.602.482-1.144 1.025-1.566 1.507.362-.24-.362 1.086-.663 1.207-.665.546-1.268 1.27-2.292 1.75"/><path fill="#55544B" d="M308.37 598.885c.3 1.025-.3 2.11-1.326 2.41-1.025.302-2.05-.24-2.35-1.265-.302-1.025.3-2.11 1.325-2.41 1.024-.302 2.05.24 2.35 1.265"/><g fill="#221F1F"><path d="M313.8 443.5h-14.1c-1.333 0-2.417-1.138-2.417-2.538v-17.47c0-1.398 1.084-2.536 2.417-2.536h14.1c1.334 0 2.418 1.138 2.418 2.537v17.47c0 1.4-1.085 2.537-2.417 2.537zm-14.1-20.35c-.106 0-.224.146-.224.343v17.47c0 .197.118.344.224.344h14.1c.107 0 .225-.147.225-.345v-17.47c0-.196-.118-.343-.224-.343h-14.1z"/><path d="M301.924 426.763h9.652v1.037h-9.652zM301.924 430.055h9.652v1.037h-9.652zM301.924 433.364h9.652v1.037h-9.652zM301.924 436.656h9.652v1.037h-9.652z"/></g><g><path d="M306.74 82.132c3.092 0 3.458.012 4.678.067 1.13.05 1.74.24 2.15.398.54.21.925.46 1.33.866.405.405.656.79.866 1.33.16.41.347 1.022.4 2.15.055 1.22.066 1.587.066 4.677 0 3.092-.012 3.458-.067 4.678-.05 1.13-.24 1.74-.4 2.15-.21.54-.46.925-.865 1.33-.405.405-.79.656-1.33.866-.41.16-1.022.347-2.15.4-1.22.055-1.586.066-4.677.066s-3.456-.012-4.676-.067c-1.13-.05-1.74-.24-2.15-.4-.54-.21-.925-.46-1.33-.865s-.656-.79-.866-1.33c-.16-.41-.347-1.022-.4-2.15-.055-1.22-.066-1.587-.066-4.677s.012-3.456.067-4.676c.05-1.13.24-1.74.398-2.15.21-.54.46-.925.866-1.33.405-.405.79-.656 1.33-.866.41-.16 1.022-.347 2.15-.4 1.22-.054 1.587-.066 4.677-.066m0-2.085c-3.142 0-3.537.013-4.77.07-1.233.056-2.074.252-2.81.538-.762.296-1.408.692-2.05 1.335-.644.643-1.04 1.29-1.336 2.05-.286.736-.482 1.578-.538 2.81-.056 1.235-.07 1.63-.07 4.772 0 3.143.013 3.538.07 4.772.056 1.232.252 2.073.538 2.81.296.76.692 1.407 1.335 2.05.642.643 1.288 1.04 2.05 1.335.735.285 1.577.48 2.81.537 1.234.056 1.628.07 4.77.07s3.54-.013 4.773-.07c1.232-.056 2.073-.252 2.81-.538.76-.297 1.407-.693 2.05-1.336.643-.643 1.04-1.29 1.335-2.05.286-.736.482-1.578.538-2.81.056-1.235.07-1.63.07-4.772 0-3.143-.013-3.538-.07-4.772-.056-1.232-.252-2.073-.538-2.81-.296-.76-.692-1.407-1.335-2.05-.643-.643-1.29-1.04-2.05-1.335-.736-.286-1.578-.482-2.81-.538-1.234-.057-1.628-.07-4.772-.07z"/><path d="M306.74 85.677c-3.282 0-5.943 2.66-5.943 5.944s2.66 5.945 5.944 5.945 5.945-2.66 5.945-5.944c0-3.28-2.66-5.943-5.944-5.943zm0 9.802c-2.13 0-3.857-1.728-3.857-3.86 0-2.13 1.727-3.857 3.858-3.857s3.86 1.727 3.86 3.858c0 2.132-1.728 3.86-3.86 3.86z"/><circle cx="312.92" cy="85.443" r="1.389"/></g></svg>